<svg width="107" height="86" viewBox="0 0 107 86" fill="none" xmlns="http://www.w3.org/2000/svg">
<g clip-path="url(#clip0_69_1749)">
<path d="M106.288 1.51807C106.171 -0.992981 102.02 0.371718 100.658 1.09696C99.2748 1.8326 98.5469 2.89836 96.8183 3.06733C92.7242 3.46764 91.1619 -0.917598 85.6616 0.215753C83.4936 0.662854 82.1393 2.50325 80.4887 2.92956C76.0021 4.0915 74.1071 -0.95399 68.4351 0.215753C65.4614 0.826618 64.5698 3.37146 61.1126 3.08032C58.3078 2.84117 57.0159 0 53.0647 0.036392C48.6405 0.0779828 46.379 4.74916 42.1211 2.56304C39.6673 1.30231 39.2072 -0.0207954 35.8383 0.036392C31.5908 0.109176 29.2358 4.5282 25.1807 2.69301C22.7528 1.59345 22.1159 0 18.7835 0C14.8557 0 13.1843 3.21029 9.84923 3.08032C7.7333 2.99714 7.23161 1.95997 5.60697 1.09696C4.04211 0.262542 1.20354 -0.709644 0 0.995581V2.24071C0.930595 3.53002 2.40967 3.09332 3.81336 3.71978C6.26722 4.81674 6.74812 6.28022 10.1014 6.31141C14.601 6.353 16.9171 1.49467 21.3153 3.85755C23.7068 5.14167 24.0733 6.27242 27.2914 6.27242C30.6291 6.27242 31.1048 4.9779 33.6132 3.78737C38.0998 1.65844 39.8674 6.27242 44.5178 6.27242C48.8692 6.27242 50.0962 2.80998 54.0655 3.27528C56.5714 3.56901 57.7489 6.27242 61.7442 6.27242C65.7577 6.27242 66.9431 3.43124 69.8284 3.26748C73.8627 3.04133 75.2976 7.20301 80.7902 6.13205C82.9088 5.71874 84.4476 3.70678 86.119 3.36626C90.3223 2.51365 91.8534 6.3478 96.1606 6.30881C99.6335 6.27762 100.091 4.66597 102.592 3.6522C103.933 3.10892 106.376 3.49103 106.285 1.51547L106.288 1.51807Z" fill="#004282"/>
<path d="M96.2464 34.5727C94.3982 33.4679 93.1817 33.1924 91.1385 34.123L73.7536 45.9763C71.5675 45.3083 69.0902 45.0146 66.9275 44.3777C66.6233 44.2893 66.5662 44.4921 66.6259 43.9592C69.2384 43.0104 72.2173 42.124 74.7128 40.9412C75.3626 40.6319 76.2152 40.2394 76.7221 39.7325C77.2758 39.1788 77.7307 38.1703 78.0764 37.4554L85.8123 19.3062C86.8209 19.5324 87.8945 20.0652 88.9342 20.1016C93.8836 20.281 95.8955 13.9176 91.8066 11.1986C90.7798 10.5175 85.6174 8.97348 84.2761 8.76553C81.5051 8.33922 79.7946 9.02027 78.4793 11.5001C77.7983 12.7816 75.4796 18.0169 75.2249 19.2464C74.8271 21.1596 76.3322 22.1578 77.8399 20.9724C79.3216 18.6382 79.961 15.1783 81.3179 12.8856C81.9912 11.7471 82.4045 11.6899 83.6548 11.8796C84.627 12.0278 89.28 13.3743 90.0208 13.8136C90.9306 14.3517 91.0736 15.589 90.4081 16.3715C88.89 18.1521 85.1547 14.5908 83.634 16.2961L74.4112 37.5256L51.0528 46.751C46.7351 47.7154 42.0354 47.7284 37.7333 48.5836C36.9119 48.7473 35.6875 48.8799 35.4952 49.8781C35.334 50.7229 35.6408 51.2766 36.3426 51.7185C38.3702 53.0026 41.9678 53.5797 44.1071 54.9522C47.3408 58.6122 50.8812 62.0486 54.0707 65.745C55.0169 66.842 57.2654 68.7473 55.7317 70.112C54.458 71.2454 53.3819 70.0756 52.5033 69.1788C48.9498 65.5474 45.7551 61.3546 42.1185 57.7725L23.8575 50.2992C21.8664 49.0437 22.4539 47.3696 24.6478 46.9173C32.6046 45.2797 41.5597 45.1965 49.6153 43.6577L71.8222 34.9392C72.0535 34.7364 72.1913 34.4739 72.3421 34.2139C72.9737 33.1274 74.9675 28.5134 75.2379 27.3566C75.7343 25.2407 74.0733 24.3075 72.5474 25.7008L69.6023 32.5581L53.6496 38.7655C53.6002 37.9623 53.9693 37.2241 53.9771 36.3845C54.0187 32.9376 51.6298 29.6753 48.313 28.7473C47.0211 28.386 44.0447 27.8063 43.7978 29.7585C43.4936 32.1656 46.4778 31.2506 48.1544 32.02C50.8396 33.2495 51.5415 36.9251 49.7115 39.1892C47.6267 41.7679 42.3031 40.9283 39.3397 41.8874L37.9646 32.8466C37.9387 32.3527 38.7965 32.3735 39.0304 31.9836C39.7608 30.7645 38.8589 29.3426 37.4734 29.4232C31.9678 30.6059 25.7265 30.5227 20.2989 31.7757C12.2251 33.6395 12.025 44.4661 19.7323 46.9979C19.6595 47.7855 19.4801 48.4276 19.5087 49.2464C19.7115 54.8274 21.8638 61.0972 21.6298 66.7328C20.0572 70.6891 16.8547 75.1913 15.5576 79.1321C13.6964 84.778 20.5979 88.1781 23.8316 83.8786C24.2735 83.2911 25.9865 80.112 26.1061 79.5064C26.3322 78.3704 25.6927 77.3982 24.4632 77.484C22.3733 77.6322 22.2823 82.4593 20.2287 82.5789C18.5365 82.6777 18.131 81.3728 18.6301 79.9249L25.0715 66.6314L23.2415 53.5095L26.9483 55.0925L28.4403 67.1123C28.4663 68.7863 24.8245 72.6777 26.5012 74.0684C27.1172 74.5779 28.2168 74.6168 28.7809 73.993C29.1058 73.6343 30.9176 69.8755 31.1671 69.2178C31.3569 68.7161 31.6532 67.9779 31.7052 67.4606C31.9392 65.1731 30.6758 59.5194 30.3223 56.9095C30.2963 56.7276 30.208 56.4104 30.4081 56.4131L40.1612 60.359C43.3325 63.4211 46.0385 66.9459 49.0824 70.1172C50.1846 71.2662 51.921 73.3275 53.4936 73.5927C57.7905 74.3179 60.72 70.3096 58.7809 66.439L46.8131 53.0884L43.3819 51.0244L50.0962 50.203C57.6761 51.378 66.1736 55.012 73.6314 55.9504C74.9805 56.1193 76.2516 56.0595 77.4006 55.2615L93.1193 44.4167C95.633 45.6176 97.268 48.2223 100.426 47.5698C103.598 46.9147 105.149 43.4523 103.738 40.5825C103.073 39.2282 97.7671 35.4928 96.2464 34.583V34.5727ZM34.8661 32.9584L36.1113 42.2956L30.091 42.922L29.0772 33.8084L34.8661 32.9584ZM20.2287 43.7564C16.5558 42.4437 16.1268 37.2111 19.5763 35.4097C21.4193 34.4479 23.9121 34.5908 25.9423 34.2009L26.9821 43.5433C24.7232 43.4757 22.3967 44.5337 20.2287 43.7564ZM100.988 43.3457C99.8076 47.0759 94.6686 40.1588 92.771 40.9387L75.9917 52.3891L74.7985 52.8726L56.5662 48.5134L56.0385 48.1105L61.3283 46.2389L74.4606 49.2178L93.1323 36.7354C93.6418 36.6808 94.0473 36.9459 94.4632 37.1825C95.7941 37.9389 97.9361 39.5714 99.1838 40.5539C100.094 41.2714 101.427 41.9472 100.985 43.3431L100.988 43.3457Z" fill="#004282"/>
<path d="M16.0307 57.3694C19.8934 53.7354 19.4697 47.3876 14.7985 44.6218C6.93007 39.9637 -1.53367 50.2002 5.4198 57.3227C5.66155 57.5722 6.52716 58.0115 6.59215 58.1233C6.94047 58.7341 6.7949 60.8163 7.21861 61.7521C7.42656 62.2096 8.24538 62.953 8.72108 63.1558C9.89862 63.6601 13.8731 63.213 14.9363 62.5241C16.8651 61.2712 16.3582 59.293 16.0333 57.3694H16.0307ZM10.0676 59.3164L13.0751 59.1111V59.9377C12.1653 59.7869 9.65687 60.8891 10.0676 59.3164ZM11.2893 56.1789C5.13647 56.8106 4.0525 47.71 9.90902 46.704C16.3816 45.5914 17.5747 55.5316 11.2893 56.1789Z" fill="#004282"/>
</g>
<defs>
<clipPath id="clip0_69_1749">
<rect width="106.291" height="85.8175" fill="white"/>
</clipPath>
</defs>
</svg>
