<svg width="54" height="54" viewBox="0 0 54 54" fill="none" xmlns="http://www.w3.org/2000/svg">
<path d="M26.9287 0C41.7989 0.000249483 53.8563 12.0062 53.8564 26.8213H53.3711C53.3633 41.3518 41.5346 53.1286 26.9434 53.1289C26.9386 53.1289 26.9334 53.1279 26.9287 53.1279V53.6436C12.0582 53.6436 9.93591e-05 41.6366 0 26.8213C0.000178012 12.0061 12.0583 0 26.9287 0ZM26.9287 1C12.6068 1 1.00018 12.5621 1 26.8213C1.00002 30.3123 1.69709 33.6411 2.95801 36.6787C6.72024 38.0261 10.8327 38.7509 15.1836 38.751C30.7999 38.751 44.8372 23.4739 44.8232 8.13477C40.1704 3.71414 33.8682 1.00012 26.9287 1Z" fill="#00B4D8"/>
</svg>
