<svg width="19" height="19" viewBox="0 0 19 19" fill="none" xmlns="http://www.w3.org/2000/svg">
<path d="M9.25586 -0.105469C14.3652 -0.105006 18.5106 4.02059 18.5107 9.11426H18.0156C18.0129 13.928 14.0937 17.8291 9.25977 17.8291C9.25846 17.8291 9.25716 17.8281 9.25586 17.8281V18.335C4.14619 18.335 0.000234464 14.2082 0 9.11426C0.000172812 4.0203 4.14615 -0.105469 9.25586 -0.105469ZM9.25586 0.894531C4.69461 0.894531 1.00017 4.5764 1 9.11426C1.00006 10.3299 1.26725 11.483 1.74316 12.5215C2.87115 12.8753 4.08633 13.0664 5.36426 13.0664C10.3824 13.0664 14.9049 8.30434 15.168 3.38086C13.6689 1.84811 11.5753 0.894767 9.25586 0.894531Z" fill="#00B4D8"/>
</svg>
