<svg width="37" height="38" viewBox="0 0 37 38" fill="none" xmlns="http://www.w3.org/2000/svg">
<path d="M18.5703 0C24.9831 0.000104985 30.6357 3.24817 33.9648 8.19043L33.5508 8.46777C35.5004 11.3499 36.6406 14.8254 36.6406 18.5693C36.6406 24.0763 34.1759 29.007 30.291 32.3213L30.6143 32.7012C27.368 35.4645 23.1639 37.1396 18.5703 37.1396C8.31451 37.1395 0.000366953 28.8261 0 18.5703C0 8.31425 8.31428 0.000127829 18.5703 0ZM18.5703 1C8.86656 1.00013 1 8.86653 1 18.5703C1.00007 20.5452 1.32588 22.444 1.92676 24.2158C2.06312 24.2231 2.20051 24.2295 2.33984 24.2295C13.6098 24.2295 23.6803 12.5595 22.5303 1.47949C22.5291 1.46831 22.5267 1.45734 22.5254 1.44629C21.2543 1.15411 19.9303 1.00002 18.5703 1Z" fill="#00B4D8"/>
</svg>
