<svg width="22" height="22" viewBox="0 0 22 22" fill="none" xmlns="http://www.w3.org/2000/svg">
<path d="M10.9746 0C14.7647 1.90976e-05 18.1059 1.92018 20.0732 4.84082L19.6592 5.11914C20.7892 6.78986 21.4502 8.80442 21.4502 10.9746C21.4502 14.167 20.0196 17.023 17.7676 18.9443L17.7686 18.9453L18.0928 19.3262C16.1746 20.959 13.6896 21.9502 10.9746 21.9502C4.91347 21.95 0.00021937 17.0357 0 10.9746C0.000218 4.91347 4.91347 0.000218511 10.9746 0ZM10.9746 1C5.46576 1.00022 1.00022 5.46576 1 10.9746C1.00005 12.1241 1.1969 13.2273 1.55469 14.2549C1.55859 14.2549 1.5625 14.2559 1.56641 14.2559C8.03117 14.2559 13.8137 7.63162 13.2881 1.26953C12.5456 1.09334 11.7711 1 10.9746 1Z" fill="#00B4D8"/>
</svg>
