<svg width="15" height="9" viewBox="0 0 15 9" fill="none" xmlns="http://www.w3.org/2000/svg">
<path d="M8.51152 8.57382L14.5769 2.46489C14.7109 2.33095 14.8174 2.17159 14.89 1.99602C14.9626 1.82045 15 1.63213 15 1.44193C15 1.25173 14.9626 1.06341 14.89 0.887835C14.8174 0.712262 14.7109 0.552909 14.5769 0.41897C14.3088 0.150622 13.9463 -4.60599e-08 13.5684 -6.25792e-08C13.1904 -7.90986e-08 12.8279 0.150622 12.5598 0.41897L7.49586 5.51935L2.43188 0.418969C2.16386 0.150621 1.80129 -5.76934e-07 1.42337 -5.93453e-07C1.04546 -6.09972e-07 0.682892 0.150621 0.414869 0.418969C0.282289 0.553596 0.177397 0.713259 0.106209 0.8888C0.0350198 1.06434 -0.00106436 1.25231 2.47325e-05 1.44193C-0.00106437 1.63154 0.0350198 1.81951 0.106209 1.99505C0.177397 2.1706 0.282288 2.33026 0.414869 2.46489L6.48021 8.57382C6.61319 8.70886 6.77141 8.81605 6.94573 8.88919C7.12005 8.96234 7.30702 9 7.49586 9C7.68471 9 7.87168 8.96234 8.046 8.88919C8.22032 8.81605 8.37854 8.70886 8.51152 8.57382Z" fill="black"/>
</svg>
