<svg width="94" height="100" viewBox="0 0 94 100" fill="none" xmlns="http://www.w3.org/2000/svg">
<g clip-path="url(#clip0_69_1623)">
<path d="M93.4312 95.6355C93.1245 90.0155 90.1326 85.0298 85.1079 82.459C84.9233 80.4028 85.2144 78.2219 85.0637 76.1762C84.0941 63.0464 68.1388 58.1101 59.7712 68.0997V64.8894C62.0691 62.6851 64.7751 60.8941 66.3478 58.0399C67.6189 55.7369 68.2116 53.0386 68.1596 50.4132C72.3629 49.1499 76.0931 45.204 77.0288 40.8967C77.7073 37.7774 77.6943 32.1314 77.4837 28.8822C77.333 26.5635 76.6363 24.3436 74.7336 22.8749C74.2475 22.498 73.0621 22.0431 72.8412 21.6558C72.4357 20.9461 71.9028 17.9958 71.4479 16.8234C70.6784 14.8453 69.5659 12.8957 68.3728 11.1411C67.9984 10.5926 66.8911 9.48783 66.7247 9.09271C66.4492 8.43506 66.5792 7.46807 66.2828 6.61806C65.8357 5.34694 62.3811 2.24842 61.1775 1.80132C59.3579 1.12547 58.5911 2.59154 57.9698 2.50056C55.256 1.09167 52.2459 0.5172 49.2644 -0.00268555H44.2059C42.7866 0.116888 40.5485 0.660169 39.1474 1.06828C37.8919 1.4322 36.6701 1.91829 35.5004 2.50056C34.8765 2.59154 34.1123 1.12547 32.2927 1.80132C31.0892 2.24842 27.6345 5.34694 27.1874 6.61806C26.8885 7.46547 27.0211 8.44026 26.7455 9.09531C26.4908 9.70098 24.9831 11.2866 24.4762 12.0795C23.1661 14.1226 22.1471 16.4205 21.3933 18.7236C21.1386 19.4982 20.9618 21.0839 20.6317 21.6583C20.4029 22.0535 19.2306 22.5006 18.7393 22.8775C16.8053 24.3722 16.1425 26.5245 15.9891 28.8848C15.7785 32.1366 15.7655 37.78 16.444 40.8993C17.3824 45.2248 21.1074 49.1291 25.3106 50.421C24.9415 56.93 29.02 61.1411 33.7042 64.8894V68.6846L32.0561 66.7324C28.3156 63.1946 22.6384 61.7883 17.7073 63.4857C16.6233 63.8601 15.5056 64.1122 15.5966 65.4691C15.7629 67.9698 19.3268 65.9422 20.7876 65.7888C25.0143 65.3417 29.3423 67.2575 31.6012 70.8837C32.1731 71.8039 33.4572 74.7023 33.1973 75.6979C32.7164 77.5383 28.0322 77.8658 26.4466 78.1933C24.3566 76.0436 23.3793 71.8195 19.4567 73.0205C16.3504 73.9718 15.9085 77.5799 17.7463 79.9661L11.1308 81.3308V75.0064C11.1308 74.8297 11.6922 73.0932 11.8144 72.7709C12.2459 71.6376 13.5872 70.2651 13.1245 69.1213C12.3863 67.3043 10.811 68.5312 10.078 69.6698C7.59033 73.5377 8.07123 78.1673 7.98805 82.563C4.47882 84.7049 1.59085 88.027 0.600471 92.1029C0.23915 93.5845 -0.790223 99.1525 1.15675 99.5814C3.90954 100.19 3.02054 96.015 3.15831 94.4657C3.53003 90.2729 6.8287 85.9188 10.8552 84.6399C11.2243 84.6503 12.2797 86.5895 12.5292 87.034C13.725 89.1629 14.7596 91.7129 15.1599 94.133C15.3678 95.3989 15.3028 97.8944 15.7135 98.8328C16.2464 100.049 18.196 99.8076 18.4871 98.5053C18.7939 97.1328 18.105 93.4286 17.7359 91.9469C17.3694 90.4756 16.6857 88.5962 16.0359 87.2263C15.4588 86.0098 14.5568 84.9206 14.0551 83.6651C15.646 83.7561 17.7723 82.7085 19.2384 82.7007C19.987 82.6955 20.811 84.5359 21.1593 85.217C23.5144 89.8102 23.6522 92.7917 24.1929 97.7488C24.5958 101.448 28.5521 99.1863 27.0912 96.1164H66.0073C65.6979 97.3563 65.5056 99.5554 67.2758 99.6308C69.4567 99.7244 68.7783 96.7714 68.929 95.4353C69.0538 94.3228 69.7063 92.2094 69.6777 91.3386C69.6387 90.1923 68.4247 89.5554 67.4162 90.0311C66.3738 90.5224 66.7143 92.4486 66.1061 93.1946H48.1076V84.341C48.1076 84.1486 49.7972 81.4764 50.0572 81.0371C52.9192 80.5718 55.5654 79.441 57.9672 77.8502C59.2774 78.9264 60.078 79.7166 61.7702 80.2131C64.4502 81.0007 67.5565 81.2268 70.2885 81.9105C70.5641 82.2172 67.4552 85.7863 70.0416 86.3451C72.012 86.7714 72.5812 83.8107 73.4104 82.4928L79.4333 83.6599C79.5763 83.7821 77.7541 86.5973 77.5773 86.9586C76.6051 88.9316 75.8019 91.3776 75.4094 93.5481C75.1911 94.7569 74.7543 97.4005 75.0013 98.5053C75.3158 99.9115 77.437 99.9947 77.8373 98.7002C78.1908 97.5513 78.0972 95.5081 78.3286 94.133C78.9108 90.6888 80.5303 87.4655 82.4799 84.6529C86.5661 85.7109 89.961 90.3249 90.3275 94.4631C90.4445 95.7888 89.779 99.2097 91.4453 99.5788C93.7744 100.096 93.5222 97.0938 93.4416 95.6303L93.4312 95.6355ZM66.5818 14.0082C68.1024 16.1346 69.1812 18.8198 69.6959 21.401H66.5818V14.0082ZM60.5511 5.0584C61.3101 5.45611 63.6652 7.27571 63.6652 8.07374V21.401H60.5511V5.0584ZM29.8076 8.07374C29.8076 7.27311 32.1783 5.49251 32.9218 5.0584V11.1879C32.9218 11.3932 33.816 12.0587 34.1851 12.0821C37.2004 12.2822 35.0923 6.60246 36.0333 5.54189C36.288 5.25336 39.1734 4.1694 39.7401 3.99524C45.568 2.21463 52.3395 2.61754 57.6345 5.73945V21.4036H35.8409V17.0262C35.8409 16.3191 34.4346 15.7213 33.7042 16.0566C33.6028 16.1034 32.9218 16.7766 32.9218 16.8312V21.4036H29.8076V8.07374ZM25.1027 17.1873L26.8885 14.0108V21.4036H23.7744L25.1027 17.1873ZM19.1292 39.1837C18.7419 35.4691 19.3319 31.1593 19.15 27.3849C19.6647 25.7784 21.0424 24.5021 22.7606 24.38L69.9974 24.315C72.1289 24.2864 73.7562 25.5211 74.354 27.5461C73.9199 32.5733 75.5628 38.695 72.8906 43.1816C68.6665 50.2729 60.1898 47.5772 53.2961 48.0191C52.3473 47.806 50.681 44.9128 49.6387 44.0888C48.4455 43.1478 47.0704 42.8021 45.5602 43.0906C42.7086 43.6365 41.3309 47.715 39.9818 48.0191C36.1684 47.845 31.908 48.3935 28.1466 48.0685C23.7042 47.6838 19.5919 43.6157 19.1292 39.1837ZM49.9194 51.1463H43.0673C42.8334 50.6082 42.719 49.9973 42.9503 49.4306C43.0179 49.2643 44.9727 46.7688 45.1703 46.5921C45.9709 45.8772 46.7091 45.6797 47.6111 46.3087C48.0088 46.5843 50.091 49.0069 50.195 49.3657C50.3119 49.7686 50.3821 50.9955 49.9194 51.1463ZM35.3808 77.8606C37.1926 78.7366 38.8459 80.0363 40.8968 80.3638C38.2402 83.7405 32.8282 82.5526 29.6127 80.6524C31.856 80.3872 33.8913 79.6022 35.3808 77.8606ZM36.6181 75.1078V67.5201L39.2852 69.5242C39.9662 70.7901 41.2217 72.121 42.6202 72.6097L42.4539 77.832C40.3015 77.3459 38.5105 76.1528 36.6181 75.1078ZM44.9857 93.2024H26.9873L25.529 87.754C30.6187 90.2495 36.561 91.6246 42.0042 89.3449C43.0543 88.9056 43.9563 88.2141 44.9857 87.754V93.2024ZM47.7073 77.5383C47.7073 79.0121 46.1243 82.1964 45.1729 83.3714C38.8251 91.2139 26.0489 86.9612 21.0866 79.6438C20.5537 78.8562 19.1604 77.047 19.8648 76.158C20.2417 75.7785 20.9306 75.7577 21.3569 76.0644C21.5623 76.2126 23.1375 78.9498 23.673 79.584C28.1388 84.8634 38.092 88.2947 43.3299 82.3082C44.0317 81.5076 45.5654 78.721 45.5654 77.7332V73.3558H47.7047V77.5383H47.7073ZM44.8869 70.2417C43.3533 70.0701 42.0536 68.9654 41.5805 67.5149C41.1827 66.2957 41.0944 61.9209 41.2997 60.6212C41.3855 60.0805 41.6558 59.7062 42.2043 59.5814C44.9467 59.74 48.2454 59.2253 50.9228 59.5372C51.7832 59.6386 52.0873 59.9479 52.1887 60.8031C52.3681 62.3472 52.3187 66.4023 51.7728 67.7878C50.6862 70.5406 47.4448 70.5328 44.8869 70.2443V70.2417ZM56.8547 75.1078C54.8583 76.1736 52.9452 77.5487 50.6291 77.832V72.8697C52.0172 72.0197 53.4702 71.0267 54.1903 69.5216L56.8573 67.5175V75.1052L56.8547 75.1078ZM55.1027 64.9882V59.831C55.1027 58.7314 53.2233 57.0132 52.1471 56.7532C50.7564 56.4179 43.1375 56.4127 41.6246 56.6649C40.4263 56.865 38.3676 58.6196 38.3676 59.8284V64.9856C34.0863 60.9981 28.2064 57.8528 28.2506 51.1697H39.8284C40.3587 52.2146 40.9852 53.6651 42.2537 53.9978C43.1479 54.2318 49.7037 54.2422 50.6785 54.0446C51.7468 53.8263 53.0751 52.2926 53.1557 51.1697H65.2197C65.2586 57.8346 59.3761 61.0111 55.1027 64.9856V64.9882ZM81.9548 81.3334L62.3395 77.3069C58.9654 76.145 60.026 73.231 61.4843 70.8863C65.8357 63.8939 76.3452 64.1252 80.4965 71.2113C80.928 71.9495 81.9522 74.2448 81.9522 75.009V81.3334H81.9548Z" fill="#004282"/>
<path d="M38.6197 45.49C39.3372 45.3288 41.2659 42.485 42.2745 41.752C44.9415 39.805 48.9004 40.0364 51.4089 42.1263C52.3317 42.8957 53.738 45.2846 54.6582 45.4926C55.2561 45.6277 58.2532 45.6199 58.8121 45.4458C59.7817 45.1417 60.0078 44.0265 59.4723 43.2077C58.6769 41.9885 56.7793 43.0101 55.6902 42.5162C55.3548 42.3629 54.4086 40.889 54.0135 40.4965C49.1344 35.6173 41.1568 36.7065 37.5903 42.5188C37.2368 42.7138 30.4393 42.6982 29.5087 42.6254C27.2836 42.4512 24.5542 40.694 24.5542 38.2402V29.9714H68.9186V38.2402C68.9186 38.8666 68.0192 40.6732 67.5539 41.1567C66.4258 42.3291 63.8446 42.3135 63.6678 43.7042C63.4079 45.7499 65.4406 45.5342 66.7741 45.0455C68.8225 44.2968 70.6161 42.5422 71.3465 40.4731C72.0536 38.4715 72.1055 30.785 71.8404 28.5053C71.7572 27.7853 71.4375 27.307 70.7252 27.0912L23.2805 27.0392C22.4617 27.0028 21.778 27.4967 21.648 28.326C21.3413 30.2911 21.4505 36.314 21.661 38.4091C22.55 47.3096 32.2719 45.464 38.6223 45.4926L38.6197 45.49Z" fill="#004282"/>
<path d="M46.4908 63.4625C44.6374 63.7978 44.9077 67.0419 47.3772 66.3088C48.8588 65.8695 48.1778 63.1583 46.4908 63.4625Z" fill="#004282"/>
</g>
<defs>
<clipPath id="clip0_69_1623">
<rect width="93.4806" height="99.6725" fill="white"/>
</clipPath>
</defs>
</svg>
