<svg width="94" height="94" viewBox="0 0 94 94" fill="none" xmlns="http://www.w3.org/2000/svg">
<g clip-path="url(#clip0_69_1757)">
<path d="M30.7434 78.5417C29.5399 77.6449 27.6007 76.8287 26.2204 75.8669C12.2355 66.1087 7.05485 47.7021 13.9901 31.9912C14.3203 31.2451 16.3218 27.2342 16.7429 26.9587C17.0341 26.7689 17.0367 26.9171 17.2394 27.0574C18.6301 28.0244 21.4219 31.8638 22.6332 32.3629C23.543 32.7372 24.4346 32.4565 24.8323 31.5493L24.8791 11.83C24.7024 11.1827 24.1383 10.7304 23.465 10.7148L4.23967 10.7616C3.24929 11.0554 2.86198 12.0769 3.27529 13.0049L8.93684 18.955C-2.73199 34.8557 -2.97634 56.8183 8.222 73.0465C12.1445 78.7315 18.235 84.432 24.4008 87.6111C25.9059 88.3858 26.8781 89.2826 28.0712 87.5175C28.8537 86.3608 30.9826 82.0847 31.4349 80.7616C31.7936 79.7115 31.6896 79.2488 30.7434 78.5417ZM26.0697 84.6452C25.6486 84.9467 21.6143 82.1809 20.9618 81.7078C2.7528 68.4377 -2.35508 42.7996 9.66208 23.5768C10.1612 22.7814 12.5682 19.6621 12.6566 19.1708C12.9867 17.2836 9.50092 15.3704 8.57552 13.8316H21.8066V27.0626C20.6083 26.4076 18.4274 23.2129 17.3434 22.8698C15.8357 22.3941 15.2119 23.608 14.4502 24.6686C1.87419 42.2017 7.65792 66.6155 24.744 78.7055C25.3002 79.098 27.8295 80.3769 27.8425 80.8552L26.0749 84.6452H26.0697Z" fill="#004282"/>
<path d="M84.4866 74.0864C95.373 59.0981 96.4024 38.8563 87.021 22.8465C82.9867 15.9606 76.1502 9.09808 69.0226 5.43289C68.3208 5.07156 67.2732 4.36972 66.5064 4.52568C65.9761 4.63486 65.633 5.11056 65.3522 5.52387C64.5698 6.68061 62.4409 10.9567 61.9886 12.2798C61.2659 14.3879 63.0985 14.5647 64.4762 15.4277C80.1846 25.2613 87.1562 43.5067 79.4333 61.0503C79.1058 61.7963 77.1042 65.8072 76.6805 66.0827C76.3894 66.2725 76.3868 66.1243 76.184 65.984C74.7933 65.017 72.0015 61.1776 70.7902 60.6785C69.8804 60.3042 68.9888 60.585 68.5911 61.4922L68.5443 81.2114C68.7211 81.8587 69.2852 82.311 69.9584 82.3266L89.1838 82.2798C90.1742 81.986 90.5615 80.9645 90.1482 80.0365L84.4866 74.0864ZM71.6168 79.2099V65.9788C72.875 66.6728 74.8193 69.6492 75.9475 70.1119C76.366 70.2834 76.8807 70.3536 77.3174 70.221C78.7159 69.7973 82.4201 62.2122 83.0517 60.5824C90.1456 42.2772 82.3525 21.9393 65.6018 12.3422C65.5238 12.0796 67.0081 9.10588 67.2836 8.63018C67.6449 8.00372 69.1318 9.15787 69.6543 9.4724C90.0156 21.7703 96.3764 49.2488 83.7614 69.4672C83.2623 70.2652 80.8552 73.3793 80.7668 73.8732C80.4367 75.7604 83.9225 77.6736 84.8479 79.2125H71.6168V79.2099Z" fill="#004282"/>
<path d="M55.0897 20.1453L33.2389 20.1089C30.4757 20.5768 28.3546 22.8149 28.0348 25.6067L28.027 67.2521C28.2896 70.3064 30.5771 72.5757 33.582 72.9838C42.0068 72.4432 51.3439 73.7091 59.6595 72.9916C62.7164 72.7291 64.9831 70.4416 65.3912 67.4367L65.2457 30.2259L55.0897 20.1453ZM56.0515 25.5053L59.9428 29.3966H56.0515V25.5053ZM62.2771 67.2417C62.2771 67.5017 61.5753 68.7572 61.3127 69.0015C60.837 69.4486 59.9064 69.797 59.2618 69.8697H34.1591C32.3083 69.6202 31.3023 68.5258 31.136 66.6672L31.1438 26.1863C31.2165 25.5391 31.5649 24.6085 32.012 24.1354C32.2563 23.8755 33.5118 23.171 33.7718 23.171H52.9374V31.4398C52.9374 31.6685 53.7796 32.5108 54.0083 32.5108H62.2771V67.2417Z" fill="#004282"/>
<path d="M34.5672 11.4815C35.4692 13.0178 38.4144 11.7076 39.8986 11.3957C41.2113 11.1202 43.517 11.2865 44.1409 9.98682C44.393 9.45914 44.2293 8.35178 44.1825 7.70453C44.0161 5.47422 43.608 3.20752 43.3117 0.987604C42.9581 0.103799 42.2771 0.0414123 41.4271 0.0674066C39.9506 0.111597 33.9745 1.27354 32.8282 1.99098C32.1523 2.41209 32.0535 3.01256 32.1653 3.76379C32.2979 4.6632 34.1747 10.8082 34.5698 11.4841L34.5672 11.4815ZM40.4835 3.32449C40.5641 4.87375 40.9852 6.41261 40.8474 7.96707L36.9951 8.76509L35.8201 4.30447L40.4835 3.32449Z" fill="#004282"/>
<path d="M58.9238 81.6871C58.4352 80.7669 57.9361 80.6993 56.9769 80.8163C55.9657 80.9384 54.6062 81.4193 53.5248 81.6455C52.0302 81.96 49.176 81.6975 49.1136 83.7458C49.0642 85.3549 49.5685 89.0695 49.8492 90.7643C50.0494 91.9678 50.169 93.0102 51.6714 93.0258C52.8594 93.0388 55.555 92.4305 56.8313 92.1524C58.5469 91.7781 61.5961 91.5493 61.2607 89.2826C61.1152 88.2896 59.3631 82.5215 58.9238 81.6897V81.6871ZM52.94 89.7167C52.8594 88.1675 52.4383 86.6286 52.576 85.0741L56.4284 84.2761L57.6033 88.7367L52.94 89.7167Z" fill="#004282"/>
<path d="M40.0598 81.6765C38.248 81.3542 35.8201 79.9869 34.9441 82.1314C34.4346 83.3766 32.8204 89.0693 32.8906 90.2001C32.9088 90.4834 32.9607 90.7953 33.1479 91.0215C33.6366 91.6142 37.7151 92.4148 38.6925 92.576C40.0962 92.8073 43.7328 93.7483 44.1409 91.9105C44.692 89.4228 44.3904 86.1762 44.8973 83.6105C44.7725 81.7857 41.4999 81.9313 40.0598 81.674V81.6765ZM41.0814 89.636C40.6369 89.9583 37.203 88.8718 36.3972 88.9393L37.5825 84.4787L41.57 85.2352L41.0814 89.636Z" fill="#004282"/>
<path d="M53.3637 11.3621C55.1599 11.6818 57.6059 13.0517 58.4793 10.9072C59.0642 9.47231 59.7089 6.87808 60.0832 5.31062C60.9878 1.51806 60.3847 1.69742 56.8339 0.888995C55.4354 0.571865 51.5805 -0.220961 50.3535 0.0571779C49.7531 0.194948 49.3631 0.701836 49.254 1.29191C48.7913 3.78996 48.9966 6.7533 48.5313 9.29555C48.5859 11.2971 51.8248 11.0892 53.3637 11.3621ZM52.3421 3.40524C52.7866 3.08291 56.2204 4.16947 57.0263 4.10189L55.8409 8.56251L51.8534 7.80607L52.3421 3.40524Z" fill="#004282"/>
<path d="M52.9374 35.6226H37.372V38.7367H52.9374V35.6226Z" fill="#004282"/>
<path d="M49.8232 48.0762H34.2579V51.1903H49.8232V48.0762Z" fill="#004282"/>
<path d="M59.1656 41.8506H46.7117V44.9647H59.1656V41.8506Z" fill="#004282"/>
<path d="M46.7117 54.3018H34.2579V57.4159H46.7117V54.3018Z" fill="#004282"/>
<path d="M43.5976 41.8506H34.2579V44.9647H43.5976V41.8506Z" fill="#004282"/>
<path d="M40.4835 26.2827H34.2579V29.3968H40.4835V26.2827Z" fill="#004282"/>
<path d="M59.163 48.0762H52.9373V51.1903H59.163V48.0762Z" fill="#004282"/>
<path d="M56.0489 54.3018H50.0182V57.4159H56.0489V54.3018Z" fill="#004282"/>
<path d="M57.6059 60.5303H51.5753V63.6444H57.6059V60.5303Z" fill="#004282"/>
<path d="M59.1656 35.6226H56.0515V38.7367H59.1656V35.6226Z" fill="#004282"/>
</g>
<defs>
<clipPath id="clip0_69_1757">
<rect width="93.413" height="93.0257" fill="white"/>
</clipPath>
</defs>
</svg>
