<svg width="100" height="100" viewBox="0 0 100 100" fill="none" xmlns="http://www.w3.org/2000/svg">
<g clip-path="url(#clip0_69_1754)">
<path d="M54.8715 0C55.8124 0.153366 56.6209 1.65844 57.1953 1.85859C58.022 2.14713 59.5062 2.23031 60.4784 2.46686C61.7833 2.78399 64.4399 3.78737 65.5005 3.88355C67.2499 4.04211 71.0737 2.96335 73.0908 2.7476C88.1077 1.14375 98.6562 12.4929 96.6755 27.3044C96.4571 28.9342 95.4875 32.1835 95.5551 33.5508C95.5993 34.4528 96.8496 37.8685 97.159 39.1448C97.3955 40.117 97.4787 41.5987 97.7672 42.4279C98.0142 43.1349 99.3243 43.4858 99.5816 44.8947C99.8728 46.4986 99.8234 52.6566 99.6258 54.3852C99.4283 56.1139 98.0557 56.3712 97.7672 57.1952C97.4787 58.0192 97.3955 59.5061 97.159 60.4783C96.86 61.7052 95.8644 64.3618 95.7787 65.3262C95.5941 67.385 97.0654 71.8378 97.1044 74.419C97.2967 86.8417 86.9744 96.548 74.6141 95.7421C72.8491 95.6278 69.7064 94.6244 68.2195 94.7622C67.3149 94.8453 64.4919 96.1165 63.2806 96.457C61.435 96.9769 58.794 97.2082 57.1979 97.7671C56.3739 98.0556 56.1972 99.4203 54.388 99.6257C52.5788 99.831 46.5039 99.8726 44.8974 99.5815C43.4886 99.3242 43.1376 98.014 42.4306 97.7671C40.8293 97.2056 38.1961 96.9847 36.3479 96.457C35.16 96.1191 32.3058 94.8297 31.4064 94.7674C29.8754 94.6608 26.9484 95.6044 25.2016 95.7317C11.7651 96.6987 1.28684 85.6486 2.75552 72.3109C2.95827 70.4705 4.00324 67.0782 3.89147 65.5004C3.82648 64.5594 2.77371 61.7078 2.47478 60.4809C2.23823 59.5087 2.15505 58.0244 1.86651 57.1978C1.66635 56.6233 0.161286 55.8149 0.00791931 54.8739V44.757C0.161286 43.816 1.66635 43.0075 1.86651 42.4331C2.15505 41.6064 2.23823 40.1222 2.47478 39.15C2.78671 37.8685 3.96945 34.6764 4.02923 33.738C4.1696 31.5623 2.65934 26.9093 2.53716 24.2267C1.98348 12.0561 12.3188 1.94697 24.4269 2.52145C27.2681 2.65662 30.2523 3.67299 33.0051 3.86535C34.5985 3.97713 37.4241 2.88796 39.1449 2.46686C40.1171 2.23031 41.6014 2.14713 42.428 1.85859C43.0025 1.65844 43.8109 0.153366 44.7519 0H54.8689L54.8715 0ZM45.6279 2.91916L45.3368 3.21029V20.9176L45.6279 21.2087H53.9954L54.2866 20.9176V3.21029L53.9954 2.91916H45.6279ZM42.4176 4.86353C23.421 7.82688 7.8036 23.4104 4.86365 42.4175H20.3328C20.9853 41.0164 21.3362 39.4619 21.9523 38.0062C22.5684 36.5506 26.0724 30.0156 27.5411 29.7687C28.6822 29.5763 29.6778 30.5823 29.2957 31.726C28.2377 33.1999 27.0628 34.601 26.166 36.1892C25.4589 37.437 23.0934 42.4617 23.3872 43.634C23.4496 43.8783 23.7797 44.1695 23.8915 44.5022C24.3412 45.8201 24.2814 52.3343 24.1332 54.0057C24.0422 55.0221 23.3014 55.8591 23.3508 56.5012C23.4132 57.3252 24.3126 59.5867 24.6739 60.4523C26.964 65.9085 31.2842 70.7096 36.4467 73.5846C37.6996 74.2839 42.4436 76.5324 43.6289 76.236C43.9643 76.1528 44.3776 75.7031 44.9338 75.5836C46.2232 75.3054 53.9902 75.347 55.121 75.7317C55.4537 75.8461 55.7449 76.1762 55.9892 76.236C57.1953 76.5376 62.285 74.1279 63.5613 73.3897C67.4839 71.1178 71.0321 67.6059 73.317 63.686C74.0734 62.3889 76.5429 57.2238 76.2336 55.9917C76.1712 55.7473 75.841 55.4562 75.7293 55.1235C75.3445 53.9927 75.303 46.2256 75.5811 44.9363C75.7007 44.38 76.1504 43.9667 76.2336 43.6314C76.5325 42.4357 74.1774 37.4552 73.4548 36.1866C71.1621 32.1653 67.5645 28.5521 63.5613 26.2334C62.2876 25.4952 57.1953 23.0855 55.9892 23.3871C55.7449 23.4494 55.4537 23.7796 55.121 23.8913C53.9902 24.2761 46.2232 24.3177 44.9338 24.0395C44.3776 23.9199 43.9643 23.4702 43.6289 23.3871C42.389 23.0777 37.3747 25.5004 36.0568 26.2334C35.1678 26.7273 33.8083 27.9594 32.9765 28.2298C31.6066 28.6743 30.7202 27.2758 31.2297 26.0775C31.6144 25.1703 36.73 22.5033 37.8686 22.0146C39.3633 21.3751 40.9333 21.0008 42.4124 20.3327V4.86353H42.4176ZM57.2057 4.86353V20.3327C58.6068 20.9852 60.1613 21.3361 61.617 21.9522C68.7368 24.9727 74.6531 30.8916 77.6684 38.0036C78.2845 39.4593 78.6354 41.0164 79.2879 42.4149H94.7571C93.6055 34.9311 90.5122 28.2506 86.0776 22.1991C85.4901 21.3985 83.5977 19.5451 83.4808 18.7601C83.2442 17.2056 84.7779 16.3946 85.9398 17.3772C86.7846 18.0894 88.5444 20.5277 89.2723 21.5337C90.793 23.6392 91.8015 25.8409 93.1532 27.9594C93.2754 28.1518 93.135 28.3078 93.5899 28.209C93.5016 27.2576 93.9097 26.3036 93.9772 25.386C94.7753 14.3229 87.2265 5.85651 76.1686 5.438L71.0217 6.03067L77.9726 10.2651C78.9058 11.1567 82.181 13.0543 82.2486 14.328C82.3058 15.3938 81.2479 16.0151 80.2679 15.7525C78.1207 14.1955 76.1036 12.4903 73.8473 11.084C68.7914 7.92826 63.1012 5.82792 57.2057 4.86093V4.86353ZM28.6016 6.03327C25.4121 5.56538 22.6489 5.24825 19.4516 5.9267C13.5119 7.18482 8.30789 11.8872 6.4779 17.6657C5.34715 21.2373 5.48232 24.7492 6.03339 28.4092C7.19794 26.9483 7.93878 25.2041 8.94475 23.6392C12.3994 18.2688 16.9068 13.6392 22.1187 9.96101L28.599 6.03587L28.6016 6.03327ZM3.21042 45.3366L2.91928 45.6278V53.9953L3.21042 54.2865H20.9177L21.2089 53.9953V45.6278L20.9177 45.3366H3.21042ZM78.7056 45.3366L78.4145 45.6278V53.9953L78.7056 54.2865H96.4129L96.704 53.9953V45.6278L96.4129 45.3366H78.7056ZM42.4176 94.7596V79.2904C41.0165 78.6379 39.462 78.287 38.0064 77.6709C30.9255 74.666 24.9546 68.6925 21.9549 61.6194C21.3388 60.1638 20.9879 58.6067 20.3354 57.2082H4.86365C7.77761 76.2178 23.4158 91.8274 42.4176 94.7622V94.7596ZM94.7597 57.2056H79.2905C78.638 58.6067 78.2871 60.1612 77.671 61.6168C74.6505 68.7367 68.7316 74.653 61.6196 77.6683C60.1639 78.2844 58.6068 78.6353 57.2083 79.2878V94.757C76.2024 91.8378 91.8483 76.2022 94.7623 57.203L94.7597 57.2056ZM26.6573 92.6176L19.7558 87.9439C14.1462 83.3377 9.25669 77.6709 6.22575 71.0216C5.89302 70.772 5.65908 72.9218 5.63568 73.2519C5.0976 81.2503 9.30348 88.6665 16.8782 91.6013C20.0573 92.8334 23.2936 92.9867 26.6573 92.6176ZM93.7849 71.0216C93.33 70.9228 93.473 71.0814 93.3482 71.2711C92.8101 72.1081 92.3448 73.2857 91.7989 74.1929C88.6198 79.4827 84.6739 84.0785 79.865 87.9439L72.9635 92.6176C77.736 93.2259 82.5658 92.3135 86.5299 89.5503C92.584 85.3262 94.8949 78.2116 93.7823 71.0242L93.7849 71.0216ZM45.6279 78.4144L45.3368 78.7055V96.4128L45.6279 96.7039H53.9954L54.2866 96.4128V78.7055L53.9954 78.4144H45.6279Z" fill="#004282"/>
</g>
<defs>
<clipPath id="clip0_69_1754">
<rect width="99.7842" height="99.7842" fill="white"/>
</clipPath>
</defs>
</svg>
