<svg width="99" height="100" viewBox="0 0 99 100" fill="none" xmlns="http://www.w3.org/2000/svg">
<g clip-path="url(#clip0_69_1627)">
<path d="M86.2775 32.8594C86.0435 31.921 85.7238 30.993 85.4795 30.0572C85.4119 29.7972 85.0844 29.3293 85.0844 29.2852V14.2059H92.0898V28.313C92.0898 28.4299 92.6071 29.0772 92.7657 29.1916C93.7327 29.896 94.8374 29.4463 95.3105 28.4195L95.3963 14.1071C96.2931 13.0621 97.5148 12.6306 98.1257 11.1931C98.6898 9.86743 98.7236 4.62958 98.2713 3.25448C97.7098 1.55186 96.2385 0.532883 94.6191 0H82.3602C80.8083 0.665454 79.3344 1.63244 78.7652 3.31427C78.2661 4.79075 78.2661 9.5581 78.8483 11.0034C79.2928 12.1055 80.369 13.3559 81.5803 13.6236V22.7684C76.735 16.9301 69.9687 13.9823 62.4225 13.6132C49.8673 14.1539 36.7584 12.927 24.2681 13.6132C13.2024 14.2215 4.28893 20.6447 1.16701 31.3725C-3.17403 46.2906 4.79321 63.5742 21.4244 64.6296C22.7085 67.9672 24.7802 70.2911 28.4116 70.9696C30.9903 71.4505 33.0594 70.8734 35.5522 70.8162C42.1366 70.6706 48.6638 71.1203 55.2039 71.2217C57.0157 71.2503 63.4363 70.8838 62.1652 67.7619C61.4088 65.9059 59.5658 67.2914 58.3934 67.5877C56.1969 68.1388 54.4371 67.5929 52.29 67.5201C48.3154 67.385 44.1927 67.2446 40.2208 67.3148C36.8728 67.3746 32.5993 68.04 29.3344 67.7099C27.4654 67.5201 26.0773 66.3556 25.1493 64.7959C28.6118 64.484 31.9468 63.8186 35.1415 62.4305C38.7521 60.863 40.291 58.7107 44.7022 59.1526C46.9793 59.3813 48.9497 61.0918 50.9591 62.0405C56.7922 64.8037 64.0004 65.6096 70.2442 63.8705C82.0352 60.5875 88.2817 48.079 86.8286 36.3842H94.1252C95.4613 36.3842 95.2975 39.8778 95.2013 40.7668C94.8608 43.8472 90.8005 41.3439 89.5502 43.0933C88.305 44.8349 90.3742 46.1944 92.0846 45.7239C91.7935 54.3228 93.0204 63.1557 90.5302 71.5103C86.8598 83.8238 75.6328 93.7406 62.9372 95.8695C53.3037 97.4864 42.6877 94.2865 41.1046 83.4728C43.4571 83.7822 45.8538 83.7926 48.1777 83.2935C49.0589 85.0975 50.0857 86.5714 51.8221 87.6397C58.4896 91.7546 68.7418 87.5409 74.2733 83.0777C80.7251 77.8737 85.2481 69.2306 85.0402 60.8032C84.9804 58.4169 81.9702 58.339 81.6219 60.2651C81.4036 61.4687 81.5361 63.1141 81.3542 64.4736C80.2234 72.849 74.4631 80.2937 66.8572 83.8342C63.0152 85.6226 55.4483 87.4915 52.3082 83.6496C50.4704 81.4011 51.9962 81.622 53.3687 80.2703C54.5957 79.0642 57.9593 74.3618 55.0766 73.4806C53.1322 72.8854 52.6773 75.6849 51.7701 76.9197C48.409 81.4921 40.3716 81.5155 36.9351 77.034C35.9682 75.7733 35.1675 71.9158 32.9164 73.8289C31.9598 74.6426 32.4433 75.6771 32.8358 76.6571C33.6365 78.6613 35.5445 80.6655 37.3641 81.7598C38.7236 97.975 53.9042 102.259 67.7592 98.1622C80.7641 94.315 91.2684 83.5456 94.3565 70.2781C96.2281 62.2329 95.074 53.6834 95.3833 45.4666C96.683 44.8401 97.9073 43.777 98.3206 42.3291C98.7002 40.993 98.6638 37.1718 98.1205 35.8955C96.2255 31.4375 90.0519 33.2753 86.2723 32.8594H86.2775ZM81.7753 5.34962C81.8871 4.35664 82.212 3.54302 83.2804 3.35326C85.1311 3.02313 91.3438 3.11152 93.3609 3.29867C94.2551 3.38186 95.0376 3.81856 95.1883 4.77775C95.3053 5.51599 95.2897 9.31635 95.0532 9.87263C94.8426 10.3639 94.2733 10.694 93.7457 10.7044L82.7527 10.5979C81.5257 10.0884 81.6453 6.51157 81.7753 5.34702V5.34962ZM83.27 44.3982C80.5847 58.9836 66.501 65.0533 53.2362 59.3787C51.3438 58.5677 49.6385 57.1718 47.7748 56.4726C40.3638 53.6886 37.1769 58.6457 30.7953 60.4133C-1.34663 69.3293 -7.99597 18.8433 25.1129 16.9847C37.1067 16.3114 49.5892 17.3668 61.6349 16.9301C76.6466 17.1016 85.937 29.922 83.27 44.3982Z" fill="#004282"/>
<path d="M63.2025 22.3682C50.1404 21.6091 36.3062 22.9062 23.1687 22.4331C0.759038 24.1384 3.40526 57.0211 23.1089 56.0359C29.5581 55.7136 32.758 52.3448 35.3054 46.8288C37.3356 42.4305 38.4949 35.1339 45.0117 36.4701C49.0798 37.3045 50.9852 45.9684 52.9452 49.358C58.7003 59.3138 73.0154 57.7646 77.8607 47.7438C83.595 35.8852 76.405 23.135 63.2025 22.3682ZM75.6902 44.0162C73.8264 50.4368 67.5046 54.2735 60.9618 52.0432C51.6688 48.8771 54.9961 32.4903 43.1583 32.8828C31.5051 33.2676 35.412 51.3284 24.0603 52.5111C7.18742 54.2709 5.97349 27.5904 22.1965 25.9346L64.3696 25.8696C73.5794 26.7716 78.183 35.4329 75.6902 44.0136V44.0162Z" fill="#004282"/>
</g>
<defs>
<clipPath id="clip0_69_1627">
<rect width="98.5807" height="99.6179" fill="white"/>
</clipPath>
</defs>
</svg>
