<svg width="588" height="394" viewBox="0 0 588 394" fill="none" xmlns="http://www.w3.org/2000/svg">
<rect width="588" height="394" fill="#00B4D8"/>
<g opacity="0.74">
<mask id="mask0_248_83" style="mask-type:alpha" maskUnits="userSpaceOnUse" x="0" y="0" width="588" height="394">
<rect width="588" height="394" fill="#00B4D8"/>
</mask>
<g mask="url(#mask0_248_83)">
<path opacity="0.15" fill-rule="evenodd" clip-rule="evenodd" d="M672.476 -60.6897C675.53 -52.6822 684.546 -50.0664 697.775 -48.3974C707.645 -47.1568 717.19 -46.0158 725.13 -45.9946C726.424 -45.3068 727.712 -44.5865 728.985 -43.8452C723.768 -43.7335 718.25 -43.3996 713.785 -43.5596C704.602 -43.8821 691.468 -45.6684 685.937 -47.8547C680.418 -50.0409 673.889 -52.9437 669.766 -51.6849C665.642 -50.4261 661.86 -44.2847 658.8 -37.439C655.739 -30.5826 648.425 -26.8658 638.609 -23.8696C628.794 -20.8842 622.945 -19.7483 621.743 -15.7272C620.555 -11.7876 632.15 -7.51156 636.722 -4.84871C646.637 -2.47456 658.889 -0.856287 669.24 0.742844C683.61 2.96277 698.425 2.01731 706.99 -5.15495C717.472 -13.9425 724.001 -28.7638 725.477 -40.7202C726.668 -40.0965 727.842 -39.4518 729 -38.7855C729.059 -37.9683 729.114 -37.1292 729.143 -36.2049C729.473 -26.8319 726.647 -14.9847 713.781 -6.3163C708.428 -2.71041 702.673 2.3917 697.907 7.82734C702.22 7.20887 704.756 4.10015 709.237 1.70963C714.04 -0.861853 727.416 -2.86973 736.598 -3.49104C745.793 -4.11221 747.576 -6.46566 752.29 -11.4081C754.511 -13.7359 755.943 -16.9831 756.548 -20.3556C757.805 -18.8104 759.03 -17.2225 760.233 -15.5812C759.922 -15.2946 759.608 -14.9964 759.252 -14.6673C754.981 -10.6751 748.232 -5.27957 749.43 -0.528049C750.592 4.0963 757.648 8.10157 763.281 12.503C764.051 9.22639 764.482 5.89608 764.552 2.58602C764.593 0.59863 764.786 -1.63445 765.094 -4.02758C765.728 -3.01155 766.373 -1.98449 766.989 -0.936401C768.181 1.09494 769.278 3.16808 770.291 5.29443C767.502 6.48227 766.112 9.30624 764.695 13.6196C768.36 16.5313 772.626 19.7957 776.564 22.0884C776.698 22.8296 776.832 23.5708 776.951 24.3225C772.428 22.1999 767.54 19.7073 763.566 17.2393C761.106 24.9644 756.303 32.7898 753.948 37.2688C751.538 41.8773 752.345 45.9903 755.639 50.298C758.054 53.4584 767.892 57.3547 778.558 59.4753C778.459 60.6456 778.346 61.8156 778.222 62.9856C777.451 62.742 776.693 62.4988 775.972 62.2664C770.784 60.6166 765.199 62.7021 767.932 67.8961C769.941 71.6974 772.507 77.6211 774.856 82.7687C774.513 84.2804 774.142 85.8026 773.747 87.3138C771.32 78.8667 767.274 71.0489 763.21 65.9496C756.344 57.3317 749.85 50.7371 741.635 49.5851C730.684 48.0529 723.643 54.4015 713.885 54.1915C712.4 54.1608 710.902 53.8082 709.377 53.2617C707.676 56.7861 704.425 60.3344 699.879 64.962C689.839 75.1846 674.199 88.9258 674.454 97.8189C674.707 106.723 682.511 110.357 688.687 111.123C694.862 111.9 699.937 116.924 702.086 124.419C704.235 131.914 707.289 139.053 715.938 142.695C716.861 143.084 717.788 143.43 718.718 143.737C723.528 143.78 728.171 143.582 732.288 143.035C741.261 141.839 748.687 139.29 754.937 135.477C755.486 134.47 755.989 133.374 756.487 132.182C756.43 132.978 756.396 133.769 756.386 134.557C756.871 134.237 757.349 133.909 757.819 133.573C757.676 134.302 757.56 135.032 757.47 135.751C757.006 136.069 756.536 136.384 756.063 136.701C754.478 140.217 753.319 143.735 752.954 147.485C752.034 156.999 761.012 162.768 767.142 160.123C769.224 162.202 771.614 164.177 774.339 166.036C777.247 168.016 779.93 170.218 782.431 172.601C783.239 174.421 783.825 176.293 784.048 178.525C784.766 185.557 774.793 190.396 770.628 195.301C766.463 200.206 750.904 211.235 742.856 217.401C734.81 223.556 730.276 236.511 731.463 242.506C732.653 248.491 741.585 250.142 748.211 247.083C754.835 244.035 758.245 238.083 765.852 232.696C773.459 227.309 782.601 227.652 793.11 223.333C799.476 220.711 801.94 217.099 803.547 213.629C803.694 214.531 803.852 215.433 803.986 216.335C799.813 222.076 796.115 227.78 800.781 230.945C801.37 231.345 802 231.733 802.658 232.112C804.289 228.866 804.651 224.936 804.463 220.674C805.494 226.937 805.879 233.442 805.599 240.069C801.88 240.464 798.172 241.653 794.537 243.886C784.836 249.855 779.695 264.861 783.501 275.986C785.129 280.74 785.883 286.915 785.497 292.789C785.344 295.001 785.415 296.926 785.634 298.636C783.834 301.338 781.94 303.984 779.93 306.577C779.652 300.901 780.878 295.786 781.39 292.6C782.229 287.375 781.439 278.341 774.96 276.851C768.107 275.273 762.526 275.049 755.605 276.051C757.927 280.823 761.789 284.725 763.71 288.037C766.593 293.008 764.326 299.486 760.823 304.129C757.32 308.772 758.044 311.899 760.601 315.044C761.138 315.714 762.119 316.7 763.334 317.881C762.573 318.603 761.822 319.335 761.038 320.046C749.135 312.807 730.058 308.877 710.827 310.042C707.629 314.453 704.926 318.875 704.998 325.632C705.085 334.39 716.423 342.889 731.897 348.633C730.913 349.247 729.927 349.871 728.919 350.474C725.677 349.627 722.521 348.878 719.962 348.348C712.65 346.85 708.191 343.251 704.724 336.084C701.257 328.916 701.8 322.066 696.667 319.127C692.358 316.647 686.509 316.706 680.822 317.635C673.323 322.3 671.777 328.026 671.768 332.021C671.758 341.147 682.266 345.354 690.968 347.174L690.976 347.195C697.795 348.611 698.818 353.114 701.641 358.224C700.084 358.938 698.516 359.643 696.938 360.336C691.087 355.336 685.425 351.122 676.956 348.404C661.401 343.41 649.871 345.896 636.128 356.33C626.719 363.481 622.435 377.244 619.212 385.976C618.416 386.204 617.61 386.421 616.802 386.65C621.842 374.01 621.403 363.109 633.343 356.497C644.116 350.539 653.505 344.215 658.515 335.94C661.941 330.285 665.172 325.839 666.095 321.09C660.343 322.513 653.274 324.19 643.617 326.235C628.556 329.424 615.675 325.972 608.465 322.1C601.846 318.545 592.404 315.5 585.446 315.406C581.469 321.569 573.981 324.411 561.628 324.452C559.256 324.46 556.322 324.418 553.004 324.387C551.061 324.776 549.042 325.099 546.941 325.324C528.572 327.289 515.717 328.952 507.215 345.268C499.718 359.673 499.38 378.846 510.388 390.527C514.599 388.221 519.042 386.695 523.579 387.004C532.49 387.603 539.633 391.488 542.332 401.391C542.683 402.671 543.057 404.048 543.452 405.445C542.255 405.734 541.044 406.023 539.822 406.312C537.578 399.005 530.023 394.304 516.387 395.405C517.361 396.006 518.387 396.565 519.468 397.08L519.483 397.069C528.487 401.345 536.957 405.562 547.291 411.011C544.898 411.579 542.477 412.157 540.004 412.746C539.714 412.819 539.41 412.903 539.12 412.975C538.78 412.65 538.451 412.335 538.069 412.03C529.655 405.182 518.716 402.951 507.942 406.223C497.128 409.517 486.207 421.352 477.825 429.117C469.443 436.882 462.449 438.6 446.581 443.35C430.7 448.1 422.859 455.172 418.14 461.005C417.866 461.345 417.593 461.684 417.322 462.023C418.577 466.129 418.756 471.329 414.303 476.963C412.889 478.756 411.642 480.455 410.509 482.257C413.563 484.28 419.363 485.7 425.287 487.259C424.226 488.033 423.156 488.786 422.086 489.539C417.395 488.001 412.573 487.134 407.845 487.169C407.022 488.948 406.247 490.917 405.486 493.192C404.234 493.899 402.971 494.595 401.697 495.281C402.439 492.622 403.307 489.986 404.195 487.382C403.053 487.51 401.919 487.695 400.798 487.942C379.04 492.734 370.092 497.871 347.832 498.854C338.407 499.267 328.96 501.135 320.266 503.786C320.718 506.244 321.206 508.315 321.747 509.723C322.728 512.285 324.199 514.541 326.032 516.52C321.757 516.909 317.369 517.222 312.804 517.448C312.14 517.484 311.467 517.499 310.805 517.525C311.812 516.848 312.736 516.138 313.478 515.372C316.545 512.226 317.698 507.935 317.912 504.528C305.798 508.477 295.337 513.876 288.734 518.81C287.285 519.881 285.938 521.018 284.662 522.188C283.357 521.961 282.044 521.712 280.746 521.442C283.461 519.899 286.013 517.871 288.566 515.048C294.165 508.857 298.843 504.625 309.127 503.293C312.305 502.882 315.229 502.416 317.89 501.887C317.631 497.111 316.462 488.413 315.283 485.06C313.889 481.057 307.621 474.242 300.255 471.749C292.888 469.255 286.565 465.378 278.052 466.166C269.539 466.955 262.105 470.006 258.333 473.091C254.562 476.176 249.549 482.027 245.013 484.752C240.477 487.476 234.768 487.423 233.039 482.902C231.311 478.381 230.222 472.483 227.562 468.64C224.916 464.797 219.262 459.199 210.936 460.16C209.441 460.342 207.614 460.554 205.57 460.745C204.869 461.638 204.109 462.483 203.283 463.268C203.193 463.353 203.104 463.438 203.015 463.523C202.263 462.452 201.524 461.381 200.769 460.332C201.684 459.674 202.527 459.012 203.293 458.342C203.003 457.919 202.714 457.498 202.423 457.078C203.268 456.977 204.116 456.859 204.964 456.731C207.744 453.74 209.003 450.461 208.311 446.295C206.968 438.266 207.629 434.383 213.647 426.531C219.763 418.54 222.762 413.486 218.303 407.534C213.792 401.507 209.816 399.878 201.39 400.035C192.977 400.192 182.25 402.466 172.929 399.531C163.61 396.585 159.176 396.306 153.26 400.054C151.909 400.91 150.64 402.22 149.346 403.766C150.274 405.395 151.275 406.886 152.344 408.141C157.238 413.903 167.082 423.262 171.19 428.245C172.651 430.018 173.578 431.892 174.188 433.764C170.406 432.977 166.361 432.639 162.146 432.653C161.641 431.308 161.058 429.898 160.321 428.421C157.125 421.984 151.972 413.998 147.675 405.85C143.739 410.896 139.216 417.208 131.434 419.223C123.897 421.172 108.59 416.515 102.642 415.503C101.549 415.317 100.523 415.217 99.561 415.197C98.5142 417.267 96.9046 419.364 94.4588 421.537C91.4372 424.221 88.6788 427.486 86.4112 431.074C86.8373 435.267 89.2645 439.968 96.1109 443.969C100.113 446.306 103.328 448.894 106.028 451.778C104.169 452.405 102.308 453.043 100.447 453.681C98.8628 452.044 97.1473 450.513 95.2713 449.195C89.5552 445.188 86.1721 440.654 83.9089 435.583C81.0369 441.554 79.5993 448.062 80.475 454.116C79.5738 454.45 78.6616 454.774 77.7604 455.109C76.7972 451.732 76.461 447.997 77.3927 444.006C78.4709 439.347 80.3323 435.331 82.408 431.693C82.2801 431.309 82.1558 430.923 82.0359 430.534C79.8177 423.389 83.3933 419.318 78.1691 416.239C74.0779 413.825 69.1257 413.306 62.5931 415.619C56.0607 417.932 54.0124 420.287 45.0149 424.006C36.03 427.725 30.0836 422.92 22.3595 415.24C14.6353 407.56 10.9243 402.775 2.95324 403.646C-5.0176 404.516 -10.4024 407.56 -17.4987 411.651C-24.3184 415.595 -28.7269 428.083 -29.5042 438.52C-30.2716 448.827 -26.6207 456.78 -20.467 462.645C-6.18464 464.843 6.54528 468.907 13.899 477.994C12.7673 478.368 11.6329 478.736 10.4986 479.103C12.9348 480.425 15.4039 481.84 17.8668 483.334C15.5937 484.097 13.3239 484.839 11.0416 485.58C9.39999 485.403 7.65105 485.343 5.77518 485.444C-9.47209 486.246 -22.346 486.447 -33.0168 496.962C-33.5289 497.473 -34.0045 497.996 -34.5057 498.517C-36.9569 499.128 -39.4302 499.717 -41.8888 500.296C-38.7916 493.534 -31.5155 489.821 -21.7653 486.85C-11.9483 483.859 -6.09747 482.721 -4.89402 478.692C-3.67717 474.652 -15.8513 470.261 -20.1824 467.609C-20.6848 467.302 -21.1704 466.908 -21.6532 466.456C-31.1796 464.335 -42.4938 462.828 -52.1531 461.338C-66.5215 459.123 -81.334 460.066 -89.8961 467.224C-100.141 475.804 -106.602 490.125 -108.268 501.918C-109.464 501.885 -110.646 501.841 -111.826 501.787C-111.916 500.693 -111.992 499.512 -112.037 498.214C-112.369 488.859 -109.547 477.035 -96.6854 468.384C-91.6409 464.991 -86.2397 460.269 -81.6457 455.194C-85.6137 455.998 -88.1196 458.937 -92.3963 461.223C-97.2 463.799 -110.567 465.812 -119.763 466.434C-128.96 467.057 -130.743 469.415 -135.46 474.367C-140.177 479.319 -141.345 488.334 -138.621 494.065C-135.898 499.797 -132.238 503.162 -126.05 505.595C-119.862 508.028 -106.154 506.256 -96.9698 506.579C-93.2716 506.71 -88.9419 507.084 -84.7264 507.618C-102.374 509.268 -119.657 508.804 -136.053 504.942C-138.302 499.957 -141.818 495.378 -147.298 490.663C-148.887 489.295 -150.731 488.024 -152.745 486.872C-153.354 488.789 -154.004 490.686 -154.691 492.536C-155.356 492.261 -156.006 491.977 -156.655 491.692C-155.952 489.659 -155.355 487.629 -154.917 485.708C-163.395 481.45 -174.115 479.224 -181.684 480.485C-183.836 478.209 -185.792 475.816 -187.554 473.317C-186.013 469.861 -185.056 466.109 -184.675 461.922C-183.937 453.891 -187.338 448.334 -192.059 444.969C-194.276 444.569 -196.307 444.421 -197.967 444.639C-198.109 444.026 -198.239 443.414 -198.367 442.79C-197.773 442.692 -197.177 442.602 -196.581 442.529C-197.354 442.224 -198.136 441.963 -198.92 441.748C-199.043 440.307 -199.114 438.855 -199.156 437.383C-197.519 437.828 -195.861 438.058 -194.224 438.031C-182.331 437.788 -179.855 424.96 -183.072 416.946C-185.109 411.873 -184.214 406.966 -180.79 401.426C-185.802 401.839 -191.061 402.775 -195.918 403.979C-195.661 403.167 -195.39 402.343 -195.108 401.531C-188.688 400.062 -181.672 397.425 -177.338 396.616C-175.895 394.828 -174.234 392.964 -172.366 391.001C-166.949 385.321 -162.526 380.068 -159.986 374.811C-160.068 374.645 -160.147 374.479 -160.228 374.318C-162.91 368.963 -164.886 362.906 -164.262 356.188C-162.055 354.021 -159.792 351.908 -157.449 349.838C-159.345 355.756 -159.29 362.537 -158.037 369.216C-157.529 366.753 -157.493 364.256 -158.019 361.683C-158.352 360.057 -158.398 358.606 -158.21 357.275C-154.747 354.149 -151.148 351.12 -147.443 348.211C-146.878 347.765 -146.339 347.329 -145.787 346.883C-147.183 351.641 -147.394 355.314 -146.592 360.329C-145.521 367.012 -149.158 373.913 -155.124 379.673C-152.705 386.247 -149.42 392.145 -146.13 396.265C-139.263 404.867 -132.768 411.449 -124.553 412.599C-113.604 414.128 -106.565 407.792 -96.8077 408.002C-95.2959 408.033 -93.7719 408.399 -92.2182 408.961C-90.4442 405.634 -87.3114 402.231 -83.035 397.87C-72.9901 387.628 -57.346 373.871 -57.5965 364.95C-57.8471 356.029 -65.6511 352.388 -71.8283 351.621C-78.0036 350.843 -83.0787 345.809 -85.2257 338.3C-87.3727 330.79 -90.4243 323.637 -99.074 319.988C-100.35 319.451 -101.629 318.991 -102.921 318.609C-107.281 318.609 -111.476 318.818 -115.233 319.317C-119.821 319.928 -123.986 320.897 -127.812 322.191C-126.923 320.988 -126.054 319.752 -125.215 318.462C-124.962 318.068 -124.732 317.662 -124.492 317.267C-122.889 316.531 -121.467 315.602 -120.256 314.547C-120.003 313.489 -119.806 312.43 -119.666 311.37C-119.068 311.562 -118.463 311.741 -117.854 311.914C-114.569 307.297 -114.737 301.556 -120.172 298.24C-120.366 296.372 -120.754 294.534 -121.288 292.738C-116.466 290.831 -111.328 287.748 -106.961 284.658C-100.011 279.736 -87.2885 273.69 -78.0303 273.541C-68.7722 273.392 -57.8462 273.259 -51.0979 267.864C-44.3626 262.468 -40.5072 255.866 -36.2233 251.874C-33.1912 249.049 -29.5211 246.582 -26.6802 244.384C-30.787 243.131 -35.5633 242.284 -40.0355 241.534C-48.7931 240.055 -54.7124 236.184 -59.4324 229.886C-64.1524 223.588 -73.8735 217.941 -83.6211 217.505C-93.3688 217.07 -100.631 220.3 -106.43 224.586C-109.676 226.995 -114.751 235.36 -116.51 241.512C-117.891 246.334 -121.568 251.973 -127.425 255.045C-135.257 259.151 -141.908 262.118 -148.286 266.228C-149.994 267.329 -151.78 268.913 -153.409 270.789C-154.221 270.33 -155.031 269.86 -155.84 269.38C-155.082 268.678 -154.365 267.997 -153.785 267.304C-149.619 262.39 -134.055 251.34 -126.004 245.162C-117.954 238.995 -113.416 226.014 -114.602 220.007C-115.79 214.011 -124.722 212.358 -131.349 215.422C-137.976 218.476 -141.388 224.44 -148.997 229.837C-156.607 235.235 -165.75 234.891 -176.262 239.219C-178.281 240.048 -179.897 240.979 -181.22 241.965C-181.665 240.876 -182.079 239.755 -182.476 238.601C-181.341 235.786 -181.4 233.313 -183.932 231.592C-184.092 231.483 -184.264 231.374 -184.437 231.265C-184.673 230.059 -184.859 228.854 -185.009 227.66C-184.806 227.737 -184.601 227.812 -184.395 227.887C-184.544 227.297 -184.691 226.704 -184.818 226.097C-185.125 224.7 -185.358 223.314 -185.529 221.939C-182.839 221.332 -180.152 220.274 -177.512 218.647C-167.815 212.69 -162.678 197.713 -166.487 186.609C-167.573 183.446 -168.265 179.642 -168.497 175.726C-167.234 174.322 -165.927 172.962 -164.576 171.634C-165.019 176.917 -163.818 184.403 -157.961 185.746C-151.123 187.317 -145.552 187.543 -138.654 186.551C-140.965 181.701 -144.887 177.743 -146.827 174.39C-148.69 171.181 -148.402 167.337 -147.018 163.761C-138.739 158.133 -130.13 153.605 -122.322 150.359C-113.421 152.202 -103.538 152.933 -93.6226 152.308C-90.526 148.007 -87.9505 143.644 -88.0228 137.06C-88.0694 133.252 -90.2604 129.489 -93.9849 125.979C-92.7515 124.758 -91.5384 123.503 -90.3578 122.216C-89.4148 123.512 -88.5628 124.979 -87.7539 126.639C-84.2835 133.782 -84.8238 140.619 -79.6909 143.552C-75.586 145.911 -70.0839 145.967 -64.6567 145.166C-56.517 140.415 -54.8683 134.439 -54.8581 130.309C-54.8453 121.165 -65.353 116.951 -74.0555 115.128C-75.8068 114.767 -77.1578 114.196 -78.2678 113.466C-76.7668 111.288 -75.3234 109.077 -73.8988 106.823C-69.9179 109.687 -65.5898 112.124 -60.0436 113.906C-44.4886 118.909 -32.9549 116.417 -19.207 105.963C-8.7302 97.992 -4.5977 81.7846 -1.21472 73.478C2.16833 65.1716 7.64093 56.54 16.1207 52.1069C23.216 48.3975 32.1329 42.2662 38.2328 35.7183C23.7998 30.3408 1.60227 25.6983 -20.0441 23.1284C-19.1511 22.2145 -18.2573 21.3008 -17.3534 20.3977C-10.2479 20.4968 -4.82981 19.6043 -2.90106 16.4161C-1.16465 13.5582 -1.88687 10.5696 -3.76573 7.53824C-2.79285 6.6787 -1.79398 5.81926 -0.808482 4.95985C4.03957 9.74575 9.98621 14.3061 17.4313 18.7518C26.1822 23.9802 34.9435 27.5202 43.0688 29.2634C46.8389 22.119 45.1261 14.7027 40.4439 7.53975C36.0455 0.814699 28.6236 -3.55396 23.0245 -7.76516C25.1243 -9.26047 27.2163 -10.702 29.3006 -12.1007C32.9385 -10.6481 36.7205 -9.46264 40.4664 -8.52477C50.0865 -6.11315 58.0194 -7.05897 66.1757 -10.1089C74.3322 -13.1589 80.2777 -19.6149 82.0456 -22.983C83.8134 -26.3511 81.9053 -29.7541 78.7201 -34.7376C78.092 -35.7106 77.301 -36.6958 76.4094 -37.6819C76.7906 -37.8502 77.1846 -38.0184 77.5658 -38.1867C79.9022 -35.876 82.2666 -33.6614 84.6788 -31.8228C86.0433 -30.779 87.7062 -29.9484 89.5726 -29.3096C89.464 -30.1204 89.3412 -30.9242 89.1996 -31.718C88.2899 -36.767 87.9191 -42.412 88.4558 -48.4341C90.4 -49.1986 92.3556 -49.9519 94.309 -50.6949C93.6028 -48.739 93.0681 -46.5129 92.609 -43.8897C91.9113 -39.9595 93.006 -34.3592 94.1023 -28.1842C102.691 -26.7175 113.456 -28.1266 120.119 -30.9732C128.527 -34.5653 134.349 -44.2396 137.519 -51.8149C131.244 -51.4017 123.641 -53.0867 119.052 -57.0039C118.318 -57.6328 117.589 -58.2081 116.866 -58.7511C117.935 -59.1056 119.004 -59.4603 120.083 -59.804C126.469 -55.0328 133.748 -55.2982 139.909 -57.9888C140.253 -58.8154 140.605 -59.6117 140.97 -60.3796C142.67 -60.8502 144.378 -61.3103 146.09 -61.7608C147.906 -63.23 149.488 -64.8872 150.74 -66.615C151.325 -67.4244 151.804 -68.2028 152.229 -68.9601C154.903 -69.6212 157.587 -70.2611 160.265 -70.8686C159.284 -65.0759 159.259 -59.167 161.241 -54.4188C167.169 -40.2432 188.705 -24.2297 208.691 -24.1833C210.262 -27.3854 211.653 -31.1806 213.071 -36.3406C216.022 -47.0794 212.291 -54.4109 207.611 -63.481C205.953 -66.7093 202.889 -69.7683 199.165 -72.3393C202.292 -72.7503 205.427 -73.1292 208.543 -73.4651C212.485 -66.1856 216.657 -57.7326 217.344 -50.1936C218.142 -41.4522 215.344 -32.7331 212.465 -24.3689C213.694 -24.4965 214.913 -24.6905 216.117 -24.9553C237.871 -29.7373 246.815 -34.8654 269.071 -35.8462C278.594 -36.2621 288.139 -38.163 296.907 -40.8533C296.409 -43.7217 295.869 -46.1443 295.262 -47.7293C292.526 -54.8792 286.087 -59.6138 278.265 -62.8252C268.295 -66.9164 264.113 -69.0835 259.726 -74.8521C259.715 -74.8629 259.705 -74.8846 259.695 -74.8954C260.698 -74.843 261.686 -74.769 262.674 -74.6952C263.538 -73.4623 264.514 -72.3678 265.544 -71.4556C268.391 -68.9359 281.676 -63.6634 285.422 -61.5435C289.181 -59.4235 294.188 -56.2497 300.831 -56.8855C303.965 -57.1783 309.727 -59.9715 315.47 -63.2805C316.326 -62.9393 317.169 -62.5878 318.009 -62.2253C317.951 -62.1828 317.881 -62.141 317.823 -62.0985C312.81 -58.8471 306.726 -56.6476 303.545 -53.3789C300.363 -50.1102 299.235 -45.6078 299.083 -42.1385C299.075 -41.9594 299.072 -41.7582 299.072 -41.538C311.147 -45.4774 321.571 -50.85 328.156 -55.7626C329.853 -57.0335 331.422 -58.3813 332.899 -59.783C333.849 -59.2378 334.786 -58.692 335.711 -58.147C333.164 -56.6267 330.751 -54.6765 328.324 -52.0076C322.728 -45.8293 318.053 -41.6048 307.77 -40.2753C304.664 -39.8742 301.8 -39.42 299.186 -38.9072C299.534 -33.9933 300.627 -26.1533 301.73 -23.0076C303.123 -18.9972 309.39 -12.1687 316.757 -9.67076C324.124 -7.17289 330.447 -3.28811 338.962 -4.07823C347.476 -4.86842 354.913 -7.92542 358.686 -11.0167C362.459 -14.1081 367.485 -19.9599 372.011 -22.7002C373.103 -23.3561 374.27 -23.8502 375.421 -24.1617C378.936 -21.0769 382.394 -17.95 385.965 -14.7358C386.891 -11.7613 387.91 -8.80682 389.46 -6.55719C392.106 -2.70699 397.759 2.90156 406.086 1.93797C407.733 1.74769 409.771 1.50006 412.062 1.2979C412.551 0.733101 413.066 0.190682 413.611 -0.32582C415.655 -2.26913 417.789 -4.44788 419.804 -6.7561C422.544 -6.56942 425.34 -6.48903 428.179 -6.52662C426.55 -4.49355 424.211 -2.45677 420.912 -0.503787C420.092 -0.0182737 419.306 0.462313 418.555 0.941092C426.93 0.801964 436.632 2.04353 443.141 8.01379C453.474 17.4918 451.815 23.8811 456.698 33.7375C459.929 40.26 465.16 48.3684 469.484 56.6275C473.355 51.652 477.847 45.5903 485.451 43.6257C492.986 41.6805 508.292 46.3289 514.24 47.3395C515.269 47.5137 516.239 47.6083 517.152 47.6361C518.182 45.3503 519.865 43.0386 522.568 40.6336C525.499 38.0224 528.184 34.8624 530.417 31.3918C529.876 27.3116 527.388 22.792 520.762 18.9269C512.1 13.869 507.073 7.67638 503.129 -0.221949C498.879 -8.73453 491.286 -16.045 481.336 -18.9165C481.568 -19.0215 481.8 -19.1269 482.019 -19.232C484.828 -20.5782 487.582 -21.8927 490.318 -23.1753C492.609 -15.7753 499.392 -12.0869 504.117 -6.37979C509.28 -0.164425 514.05 8.41779 521.6 13.7119C527.235 17.655 530.604 22.109 532.867 27.0837C536.027 20.7404 537.591 13.7527 536.481 7.32435C535.026 -1.1136 523.892 -12.372 505.847 -24.4046C507.728 -25.2464 509.606 -26.0671 511.469 -26.8769C521.141 -25.4212 537.963 -24.1346 545.375 -35.3146C546.642 -37.2153 547.703 -39.0967 548.608 -40.9471C552.42 -42.1576 556.273 -43.3036 560.177 -44.3735C558.9 -40.0445 555.854 -36.205 549.538 -33.1914C540.25 -28.7659 531.466 -25.0332 527.998 -21.2405C524.53 -17.4479 526.495 -11.8744 530.672 -7.32206C534.85 -2.76963 542.329 6.67064 539.67 18.1105C538.544 22.9803 536.563 27.1481 534.378 30.9167C534.538 31.3859 534.691 31.8591 534.839 32.3367C537.059 39.468 533.485 43.5315 538.708 46.6051C542.8 49.0138 547.751 49.532 554.283 47.2234C560.813 44.9148 562.861 42.5641 571.856 38.8523C580.839 35.1405 586.786 39.937 594.511 47.6029C602.236 55.2687 605.948 60.0442 613.918 59.1755C621.887 58.3068 627.27 55.268 634.364 51.1845C641.182 47.2484 645.586 34.7855 646.361 24.3684C647.173 13.4341 642.996 5.15337 636.128 -0.790908C620.822 -3.30447 607.468 -8.12372 600.903 -19.2138C591.567 -24.7078 582.168 -31.3855 574.8 -38.3483C570.507 -42.4105 565.18 -46.3434 560.286 -50.1324C561.805 -50.5363 563.325 -50.9406 564.868 -51.3336C571.115 -47.2209 578.067 -42.3076 583.382 -36.4877C586.846 -32.6992 591.295 -27.2917 598.484 -24.4084C594.336 -35.2327 591.97 -44.0356 591.637 -51.2761C593.183 -51.5302 594.74 -51.7737 596.309 -52.0168C595.97 -45.6482 596.962 -39.8469 599.329 -33.7859C600.675 -30.3448 603.493 -26.3481 607.04 -22.4915C608.32 -22.4049 609.663 -22.3927 611.073 -22.4668C626.32 -23.2776 639.189 -23.4675 649.855 -33.9626C658.509 -42.4823 663.561 -51.6475 666.823 -61.1725C668.724 -61.0366 670.609 -60.8789 672.476 -60.6897ZM-183.471 447.353C-183.275 448.39 -183.051 449.474 -182.87 450.603C-182.041 455.843 -183.134 464.387 -182.38 468.434C-181.638 472.481 -180.73 475.574 -173.974 477.066C-167.396 478.52 -160.089 482.006 -154.322 482.458C-154.168 481.299 -154.096 480.213 -154.124 479.231C-154.463 466.53 -160.375 460.254 -169.127 454.177C-171.849 452.287 -177.549 449.458 -183.471 447.353ZM-146.375 450.441C-147.024 453.439 -147.388 456.476 -147.451 459.497C-147.579 465.634 -149.07 474.068 -151.442 482.513C-147.544 482.347 -146.052 480.981 -142.431 477.601L-142.42 477.61C-138.147 473.61 -131.395 468.205 -132.592 463.444C-133.748 458.829 -140.754 454.83 -146.375 450.441ZM-93.6823 412.98C-103.045 411.478 -112.133 413.032 -120.482 417.024C-133.006 423.006 -141.631 434.224 -145.369 446.561C-143.961 447.489 -142.704 448.406 -141.669 449.293C-129.11 460.038 -111.486 467.834 -94.4303 458.367C-77.3744 448.9 -86.1052 435.278 -91.4575 424.171C-93.619 419.691 -94.2999 416.211 -93.6823 412.98ZM-165.478 438.173C-170.845 436.693 -175.846 434.745 -180.851 438.028C-183.483 439.755 -184.057 441.867 -183.905 444.321C-178.193 446.204 -171.948 449.089 -168.505 451.566C-161.985 456.26 -158.42 458.482 -153.851 457.045C-150.806 456.085 -149.309 453.444 -147.871 449.26C-153.442 444.829 -160.408 439.574 -165.478 438.173ZM316.785 478.946C316.894 479.421 316.987 479.902 317.058 480.39C317.943 486.522 318.81 494.916 319.87 501.472C324.891 500.357 328.866 498.981 331.717 497.262C336.367 494.459 339.621 489.321 332.799 486.581C328.365 484.802 322.185 482.438 316.785 478.946ZM-36.4162 455.41C-40.1134 455.122 -45.3435 456.557 -50.8751 457.492C-45.626 459.477 -38.6228 460.505 -28.8752 461.558C-27.7909 461.675 -26.7107 461.8 -25.6366 461.932C-28.2611 458.875 -31.4405 455.796 -36.4162 455.41ZM-33.8973 403.344C-37.8332 406.672 -42.0384 409.669 -46.138 412.523C-57.1892 420.215 -69.0744 433.102 -63.6402 445.111C-61.5445 449.753 -59.0263 452.922 -55.5079 455.197C-50.0143 455.371 -44.9901 454.521 -42.0609 452.585C-36.7394 449.067 -33.2036 443.986 -31.302 435.215L-31.2892 435.215C-29.4244 426.594 -26.3918 418.262 -28.1213 411.541C-28.8582 408.678 -31.1141 405.86 -33.8973 403.344ZM-138.569 411.888C-141.864 407.588 -159.004 401.914 -173.165 401.244C-174.265 401.193 -175.399 401.18 -176.558 401.202C-176.728 401.5 -176.882 401.788 -177.014 402.067C-179.492 407.255 -180.676 412.112 -179.004 416.985C-177.333 421.868 -177.206 431.24 -170.3 434.088C-164.847 436.341 -154.177 441.058 -146.735 445.689C-146.722 445.643 -146.707 445.597 -146.693 445.551C-144.308 437.626 -139.295 429.49 -136.874 424.891C-134.466 420.291 -135.275 416.187 -138.569 411.888ZM299.45 398.19C298.002 401.238 296.876 404.443 296.116 407.816C291.738 427.202 295.04 443.276 306.403 461.392C316.437 477.379 347.329 496.711 368.693 492.636C384.939 489.535 398.109 475.395 409.732 463.634C409.577 458.744 408.218 453.663 404.775 448.453C397.865 437.996 391.436 428.4 384.954 424.178C380.018 420.968 372.199 419.554 362.683 421.545C353.167 423.536 342.252 422.735 332.302 417.269C322.27 411.758 312.918 401.374 301.358 398.606C300.716 398.452 300.08 398.314 299.45 398.19ZM-86.8751 414.612C-86.983 415.327 -87.0848 416.058 -87.1767 416.808C-88.0787 424.16 -85.3861 430.009 -82.8917 437.168C-81.3756 441.519 -79.2103 445.413 -76.1459 448.361C-73.5616 444.684 -71.636 441.045 -70.7875 437.783C-68.9126 430.562 -72.3204 419.365 -86.8751 414.612ZM261.168 422.367C260.724 423.498 260.342 424.586 260.024 425.607C257.917 432.344 253.726 440.166 245.675 443.672C235.569 448.081 227.734 456.147 229.385 462.404C231.227 469.371 243.167 472.058 253.467 469.045C269.554 464.338 281.179 463.235 295.325 464.237C299.32 464.519 302.779 465.327 305.693 466.556C300.775 457.16 295.083 443.026 291.875 438.25C286.452 430.183 282.016 426.842 269.555 424.317C266.526 423.702 263.758 423.043 261.168 422.367ZM240.791 416.557C231.913 414.335 219.104 419.565 216.253 429.52C214.09 437.075 212.872 447.721 208.516 456.117C212.932 455.259 217.223 454.079 220.923 452.715C233.318 448.156 242.514 438.623 247.63 433.47C250.329 430.751 254.014 426.158 257.341 421.324C251.401 419.642 246.283 417.931 240.791 416.557ZM-46.3302 395.089C-51.784 392.416 -59.9932 389.492 -65.6144 389.675C-71.2358 389.859 -77.6324 394.795 -81.1476 399.275C-83.797 402.651 -85.3648 406.722 -86.3626 411.67C-82.711 413.552 -78.8202 415.61 -74.5136 416.395C-62.8124 418.522 -52.8241 411.934 -42.1408 402.672C-40.9487 401.639 -39.8117 400.604 -38.7199 399.568C-41.5146 397.642 -44.3024 396.083 -46.3302 395.089ZM499.585 401.59C492.547 405.887 486.352 411.155 480.552 413.122C470.61 416.502 460.013 411.201 453.162 408.016C446.312 404.83 432.819 402.279 423.117 406.692C413.415 411.105 403.439 423.999 401.674 429.87C399.922 435.741 403.281 441.532 405.277 445.798C407.877 451.342 412.407 455.041 415.138 458.285C416.882 456.619 418.594 455.061 420.28 453.665C434.477 441.914 481.454 424.713 493.787 410.624L493.799 410.635C496.401 407.667 498.293 404.619 499.585 401.59ZM-156.94 381.328C-157.241 381.588 -157.545 381.847 -157.855 382.101C-163.054 386.36 -169.012 391.764 -173.023 396.41C-168.43 396.766 -163.137 398.605 -158.891 399.953C-153.704 401.599 -148.119 399.518 -150.854 394.334C-152.623 390.98 -154.829 385.986 -156.94 381.328ZM50.173 347.388C46.3507 342.467 38.1954 340.566 29.3371 341.591C26.1121 342.953 23.0317 344.64 19.9553 346.758C10.9944 352.928 0.0219263 360.121 -2.45562 367.909C-4.93305 375.698 -2.28048 378.323 6.62465 387.788C15.53 397.252 20.6548 403.554 27.6457 413.516C34.6368 423.479 48.7843 419.443 58.8862 413.811C68.9878 408.179 80.4325 405.686 91.6499 408.392C92.666 408.638 93.7202 408.932 94.806 409.259C96.5862 404.484 97.3264 399.353 95.0565 392.522C91.4742 381.742 83.5331 372.658 73.6739 365.283C63.8132 357.919 56.2741 355.242 50.173 347.388ZM90.314 418.885C89.2224 420.112 88.3584 421.603 87.6759 423.29C88.6309 421.795 89.53 420.336 90.314 418.885ZM-5.24587 362.109C-10.8437 368.581 -15.4121 375.858 -18.0378 382.63C-20.9668 390.184 -25.9716 396.245 -31.7501 401.468C-29.3168 403.338 -26.493 404.955 -22.5914 405.704C-12.8094 407.579 -1.98278 402.868 2.40811 397.741L2.4188 397.752C6.80956 392.625 3.65925 387.427 0.254271 385.074C-3.13814 382.721 -7.0343 378.224 -6.42056 373.062C-5.91335 368.795 -4.96654 365.384 -5.24587 362.109ZM124.006 375.614C118.133 373.746 112.808 374.843 107.299 378.985C102.811 382.353 101.045 389.104 101.054 397.716C101.059 402.566 101.871 406.927 100.945 411.265C110.672 414.571 121.828 418.427 131.071 415.018C137.482 412.649 142.706 408.456 146.549 403.666C144.74 400.082 143.142 396.49 141.997 393.007C139.488 385.391 131.912 378.134 124.006 375.614ZM-17.1533 352.286C-22.7012 350.278 -33.3966 346.052 -39.7392 346.551C-47.824 347.184 -52.8373 348.383 -55.7921 353.707C-58.7447 359.019 -54.0448 362.448 -54.2859 366.551C-54.5271 370.653 -57.9685 375.07 -57.563 380.424C-57.168 385.768 -49.4952 390.299 -42.4397 393.396C-40.1598 394.397 -38.3034 395.841 -36.5033 397.4C-29.0268 389.841 -23.7984 382.063 -18.4071 373.264C-14.6327 367.103 -11.9531 361.603 -7.88952 356.689C-10.0803 354.862 -13.4818 353.612 -17.1533 352.286ZM295.767 397.62C285.528 396.475 277.208 399.314 272.192 404.572C267.967 409.001 264.546 414.685 262.234 419.836C265.344 420.516 268.361 420.773 271.257 420.498L271.242 420.508C281.199 419.56 290.756 409.753 293.84 401.97C294.419 400.515 295.062 399.061 295.767 397.62ZM229.645 303.283C229.13 303.276 228.598 303.278 228.049 303.29C220.05 303.472 209.497 304.285 200.761 314.734C195.201 321.396 194.91 332.107 192.697 340.14C190.482 348.184 185.901 355.68 177.058 359.233C169.059 362.455 161.368 365.251 154.56 368.394C154.967 369.405 155.393 370.431 155.837 371.475C160.734 382.975 163.575 388.214 173.601 394.562C183.626 400.91 192.956 396.303 205.898 395.909C218.841 395.515 226.5 401.314 238.191 408.721C245.291 413.219 252.288 416.945 258.921 418.967C261.25 415.395 263.27 411.836 264.446 408.929C267.499 401.418 269.671 393.642 274.031 387.441C278.391 381.24 281.2 371.389 280.839 364.104C280.738 362.062 280.437 359.755 279.958 357.357C276.781 357.729 273.539 358.119 270.163 358.508C257.66 359.949 248.859 353.612 241.095 344.685C233.33 335.757 238.225 324.338 237.98 314.439C237.797 306.989 234.335 304.817 229.645 303.283ZM150.406 370.495C144.384 374.083 141.261 379.287 142.534 385.172C143.499 389.635 145.445 396.062 148.153 401.519C150.848 397.64 152.674 393.503 153.531 389.699L153.533 389.688C154.802 384.061 153.154 377.283 150.406 370.495ZM433.967 356.434C433.254 356.563 432.521 356.718 431.768 356.903C423.152 359.042 418.186 369.409 414.324 376.762C410.79 383.485 399.446 389.224 392.016 395.395C384.588 401.556 382.24 412.323 384.653 418.33C387.068 424.327 393.649 425.644 398.647 422.881C402.34 420.835 406.773 417.252 409.59 413.89C413.376 409.378 420.899 404.516 429.767 402.776C438.636 401.037 444.685 401.49 448.517 398.663L448.53 398.662C452.348 395.835 451.682 388.557 451.72 382.574C451.751 377.566 454.059 369.125 453.242 364.509C447.231 362.754 440.625 360.053 434.711 356.835C434.463 356.7 434.215 356.567 433.967 356.434ZM417.914 350.194C413.037 349.138 407.727 348.795 401.611 349.453C386.433 351.083 367.57 356.675 354.593 360.83C341.617 364.984 329.915 367.657 322.434 372.884C313.617 379.046 306.263 386.161 301.392 394.514C305.379 395.268 309.393 395.96 312.657 396.857C321.477 399.278 325.765 405.034 332.763 411.085C339.761 417.135 347.04 419.542 354.653 419.871C362.266 420.2 374.246 416.806 377.944 412.294L377.926 412.326C381.734 407.675 385.077 398.354 386.517 393.166C387.97 387.979 390.479 385.665 396.761 382.86C403.03 380.056 409.31 377.262 412.815 372.608C416.319 367.955 418.825 358.101 417.927 350.296C417.923 350.262 417.918 350.228 417.914 350.194ZM321.992 364.208C321.163 357.946 317.986 354.801 305.651 355.2C297.868 355.453 290.749 356.13 283.41 356.959C283.264 360.752 282.823 364.579 282.632 367.982C282.138 376.814 280.668 384.082 285.122 388.8C287.426 391.241 292.358 392.663 297.802 393.804C300.614 388.949 304.141 384.407 308.292 380.745C314.731 375.079 322.821 370.469 321.992 364.208ZM116.598 277.153C105.063 279.93 95.6264 286.722 89.2765 293.224C81.2072 301.486 81.0963 309.823 76.8922 320.722C72.9145 331.034 63.9545 334.776 52.4113 336.369C54.4427 337.271 56.4938 338.576 58.5903 340.656C65.4645 347.478 67.6392 356.861 78.6409 364.761C89.6302 372.662 107.677 374.741 114.265 368.218L114.252 368.218C117.891 364.617 120.841 361.523 114.301 352.625C107.76 343.726 109.404 329.702 111.678 319.321C113.952 308.939 118.093 290.79 116.871 279.335C116.793 278.614 116.702 277.885 116.598 277.153ZM489.418 368.644C483.091 366.209 471.666 367.165 463.922 366.62C462.087 366.49 460.031 366.17 457.831 365.688C454.709 373.779 453.537 382.6 454.258 388.432C455.501 398.493 460.313 405.477 467.854 408.143C475.394 410.82 484.13 408.639 491.639 403.863C494.444 402.079 497.655 399.424 501.159 396.745C502.169 392.258 501.935 387.929 500.793 384.085C498.617 376.758 495.746 371.078 489.418 368.644ZM-14.1234 285.436C-26.5881 290.51 -30.1628 303.871 -40.073 312.1C-49.9832 320.329 -62.979 322.405 -74.9814 320.737C-80.7585 319.934 -87.5386 319.209 -94.3467 318.849C-90.505 321.178 -87.5072 324.22 -86.1981 327.964C-83.3975 335.975 -75.104 342.951 -69.1863 346.832C-63.2669 350.702 -58.0334 348.677 -53.5071 345.937C-48.9825 343.207 -46.1422 340.806 -38.6782 340.178C-31.2268 339.55 -23.8738 347.259 -17.023 350.45C-13.7433 351.981 -9.47106 353.198 -4.70223 353.261C-2.15701 350.837 0.929504 348.569 4.91091 346.446C12.8708 342.207 17.3309 339.577 20.2289 336.082C20.9449 331.019 19.2349 325.851 16.1707 321.944C10.4034 314.605 -1.07012 309.629 -7.76884 302.968C-11.6628 299.088 -13.2914 292.299 -13.818 285.317C-13.9194 285.356 -14.0218 285.395 -14.1234 285.436ZM151.827 293.297C148.679 282.329 137.499 275.605 126.413 275.865C125.261 275.892 124.125 275.962 123.004 276.072C126.566 280.864 129.505 284.372 129.684 289.344C129.91 295.577 125.579 301.52 121.95 306.945C118.322 312.37 112.189 327.648 113.893 338.067C115.587 348.475 119.136 358.912 136.459 365.575C140.288 367.044 144.395 367.027 148.501 366.131C147.092 363.104 145.539 360.125 144.006 357.298C138.323 346.832 141.944 339.57 149.206 328.699C156.479 317.829 154.974 304.265 151.827 293.297ZM15.2592 345.647C14.671 345.927 14.0885 346.22 13.5127 346.527C11.032 347.852 8.56741 349.46 6.16568 351.288C8.07966 350.541 10.0135 349.558 11.9407 348.295C13.2017 347.47 14.3031 346.581 15.2592 345.647ZM187.096 272.278C177.07 265.93 162.063 265.391 157.867 270.961C153.975 276.135 151.58 283.409 157.228 290.232C162.889 297.054 164.052 301.235 161.574 309.024C159.097 316.812 152.547 330.816 150.354 340.692C148.593 348.58 150.022 356.163 153.163 364.762C158.747 362.728 164.127 359.459 168.577 356.515C177.491 350.625 183.078 342.613 186.326 333.806C189.589 324.989 194.877 314.904 200.349 309.497C205.405 304.489 212.611 302.51 223.407 301.408C217.094 299.383 212.797 297.237 208.332 292.798C203.577 288.057 197.121 278.627 187.096 272.278ZM74.6284 225.388C66.6614 213.87 43.2177 203.257 25.9955 203.609C22.0254 203.691 18.1788 204.215 14.5332 205.127C10.6436 209.936 7.77472 215.483 6.62622 219.763C3.94368 229.774 -1.75292 239.488 -4.98551 246.227C-8.21965 252.977 -9.45973 262.593 -10.724 268.576C-11.2722 271.171 -11.2303 274.406 -10.9367 277.728C2.69475 276.099 16.1682 279.77 23.9373 285.216C32.2161 291.01 32.1647 306.614 32.246 317.533C32.34 328.451 31.639 328.96 38.4896 332.145C39.2655 332.506 40.0363 332.804 40.8014 333.064C41.0249 333.089 41.2496 333.112 41.4747 333.132C51.4547 334.01 60.0502 332.007 67.3463 324.78C74.6425 317.552 75.0454 307.402 78.4221 297.795C81.799 288.189 93.2394 279.969 103.669 276.156C108.051 274.554 111.94 272.624 115.251 270.37C113.027 261.653 108.89 253.231 102.803 248.53C94.6213 242.211 82.5955 236.907 74.6284 225.388ZM243.942 311.177C243.338 312.451 242.806 313.836 242.35 315.351C239.281 325.562 241.546 333.052 248.453 343.54C254.665 352.961 269.828 356.009 279.36 354.699C278.021 349.327 275.847 343.834 273.04 340.114C268.492 334.087 258.049 330.353 253.553 325.892C249.423 321.795 246.607 315.954 243.942 311.177ZM340.105 292.625C334.574 288.937 326.753 289.903 321.573 293.49C316.392 297.077 312.466 298.605 305.86 297.76C299.253 296.915 294.264 291.667 287.193 287.965C285.17 286.903 282.783 286.071 280.238 285.54C276.613 288.376 272.024 290.985 266.042 293.868C258.896 297.314 252.789 300.091 248.332 304.767C247.662 311.649 252.239 317.344 259.486 323.053C266.83 328.838 273.925 334.364 279.615 340.917C282.502 344.233 283.364 348.863 283.449 353.772C291.824 351.244 297.481 347.316 302.202 339.877C307.132 332.101 308.844 323.961 318.256 318.838C327.656 313.715 341.135 313.843 354.719 317.098L354.716 317.119C356.386 317.519 358.168 317.871 360.044 318.172C358.094 316.078 356.752 313.493 355.636 310.445C352.866 302.879 345.648 296.312 340.105 292.625ZM346.977 317.487C339.664 315.989 328.725 316.122 321.243 319.146C313.762 322.17 310.199 327.423 307.49 333.812C304.782 340.202 303.373 344.401 305.304 347.192C307.358 350.155 311.229 351.975 316.488 354.044C320.939 355.795 324.818 357.089 332.566 358.473C340.893 359.959 353.403 358.551 365.388 354.505C373.441 351.787 379.174 349.65 385.631 347.809L385.618 347.809C392.075 345.968 396.779 341.015 397.01 336.977C397.252 332.888 396.101 330.092 391.877 326.595C386.424 325.448 380.229 324.911 373.981 324.142C369.579 323.597 366.258 322.56 363.679 321.061C357.929 320.005 352.474 318.613 346.977 317.487ZM-48.7349 278.514C-58.1447 274.801 -74.6936 272.929 -89.3235 277.778C-103.953 282.627 -113.467 289.648 -113.832 297.12C-114.196 304.591 -110.87 308.773 -104.379 311.44C-97.2961 314.36 -87.6009 314.086 -81.4828 315.216C-75.3755 316.336 -68.8966 317.824 -62.1897 317.887C-55.4829 317.95 -46.9541 316.432 -39.8233 309.914C-33.7922 304.415 -28.3344 295.791 -29.9668 289.727C-31.4803 284.104 -39.2656 282.25 -48.7349 278.514ZM19.4769 297.71C10.611 291.602 0.753714 282.587 -10.1156 284.308C-9.80788 286.354 -9.48905 288.284 -9.24711 289.953C-8.36382 295.957 -5.42768 302.496 1.98802 305.951C9.40202 309.416 15.8539 313.12 19.4083 319.665L19.4124 319.644C20.6558 321.933 22.5093 324.162 24.819 326.133C27.5111 316.406 29.1717 304.389 19.4769 297.71ZM508.238 328.398C507.811 328.523 507.388 328.651 506.969 328.784C489.52 334.336 475.751 341.145 465.001 353.345C462.784 355.863 460.908 358.869 459.369 362.096C471.928 364.187 482.831 361.703 491.584 356.414C500.355 351.114 503.289 345.447 506.241 339.199L506.251 339.21C508.191 335.109 509.05 331.41 508.238 328.398ZM440.879 356.059C443.955 357.536 446.962 358.753 449.895 359.727C447.505 357.714 444.542 356.407 440.879 356.059ZM477.308 298.997C471.008 294.661 462.974 292.458 455.939 292.617C448.358 292.793 440.775 298.18 434.909 303.358C430.621 307.134 422.917 311.379 415.574 315.166C412.792 319.899 411.081 324.524 411.935 328.522C413.58 336.162 417.218 340.529 422.833 345.655C427.7 350.087 435.35 352.948 443.253 353.13C453.033 353.351 461.899 349.659 467.918 344C474.207 338.074 479.582 329.888 488.935 325.129C492.394 323.365 497.292 322.375 502.69 321.833C499.689 319.035 496.94 315.873 493.257 312.106C488.203 306.943 483.608 303.333 477.308 298.997ZM399.885 329.086C399.698 331.855 400.903 334.584 403.659 336.696C406.543 338.901 410.69 341.191 415.752 343.737C413.062 338.86 408.341 334.7 403.515 331.177C402.412 330.374 401.196 329.685 399.885 329.086ZM-24.3758 245.16C-25.3682 246.182 -26.4864 247.227 -27.7875 248.339C-35.6153 255.022 -51.9721 265.271 -45.5981 275.209C-39.2801 285.039 -28.2914 280.663 -14.0191 278.187C-13.984 275.623 -13.8481 273.164 -13.6742 270.956C-12.8813 260.895 -13.8006 253.934 -17.5743 249.385C-19.048 247.609 -21.4612 246.249 -24.3758 245.16ZM361.47 230.522C357.633 220.062 347.284 217.461 339.926 219.551C329.865 222.411 319.437 231.34 307.881 242.17C296.324 252.999 295.239 259.759 291.035 270.658C289.718 274.073 288.19 276.942 286.269 279.488C289.287 281.301 292.968 282.855 297.202 284.316C309.595 288.594 318.716 287.811 328.976 287.565C339.236 287.318 344.791 288.411 351.84 295.405C358.899 302.411 362.23 314.133 371.657 319.08C371.782 319.145 371.908 319.208 372.034 319.272C383.272 319.608 396.073 318.162 407.964 313.978C410.069 313.237 412.107 312.432 414.079 311.574C414.97 310.024 415.778 308.31 416.509 306.418C419.38 299.013 419.514 283.914 418.523 277.319L418.525 277.309C417.535 270.714 420.509 262.431 425.772 257.622C430.483 253.318 438.301 245.988 442.473 237.561C439.218 236.841 435.849 236.58 432.563 236.714C420.925 237.185 416.821 239.102 406.075 248.833C395.964 257.989 384.282 259.04 375.515 256.357C366.75 253.663 365.307 240.981 361.47 230.522ZM234.09 213.893C225.105 212.5 212.93 215.763 206.463 221.686C199.997 227.61 196.083 230.951 189.018 232.965C183.341 234.583 178.169 233.014 172.352 230.545C170.448 238.322 171.399 248.664 173.426 254.269C175.683 260.544 187.477 268.64 193.577 273.909C199.691 279.167 209.982 283.788 215.33 288.695C220.458 293.412 224.679 299.068 232.485 300.209C240.195 298.582 246.711 295.379 251.683 291.523C257.981 286.649 268.058 277.381 270.7 268.569C273.341 259.757 268.522 253.684 261.614 248.729C256.112 244.784 253.865 240.344 251.373 231.044C248.538 220.496 243.064 215.275 234.09 213.893ZM273.589 284.877C269.181 284.915 264.809 285.931 261.395 288.236C256.589 291.475 252.771 294.5 250.512 298.227C254.66 296.982 258.678 295.253 262.061 293.132C266.153 290.567 270.095 287.997 273.589 284.877ZM496.212 230.657C494.609 231.922 493.147 233.2 491.898 234.362C487.095 238.829 481.914 240.522 476.219 242.896C470.524 245.271 466.068 250.096 466.347 255.998C466.627 261.9 464.707 271.263 464.248 279.242C463.79 287.222 472.285 292.857 482.311 299.206C492.323 305.554 499.956 319.164 512.446 320.325C515.021 320.564 518.205 320.924 521.803 321.244C524.776 321.276 527.57 321.332 530.02 321.355C533.499 321.387 536.947 321.602 540.288 321.834C550.606 321.396 561.594 319.353 570.777 313.578L570.775 313.589C576.006 310.298 579.481 305.671 581.457 300.744C581.078 296.494 578.973 292.724 575.855 290.599C570.701 287.086 564.894 285.037 554.647 285.198C545.49 285.348 534.474 286.048 525.757 281.805C517.027 277.562 511.799 264.342 508.691 255.648C506.472 249.439 500.801 238.782 496.212 230.657ZM445.188 238.281C444.119 240.971 442.787 243.582 441.122 246.002C434.735 255.294 429.141 264.604 429.632 274.314C430.122 284.024 431.42 293.743 424.727 302.345C423.085 304.455 421.382 306.644 419.769 308.86C435.449 300.721 446.555 289.344 454.421 280.557C464.133 269.71 466.646 259.418 459.37 248.475C455.93 243.298 450.829 240.031 445.188 238.281ZM644.618 292.652C633.39 289.94 610.577 290.766 602.594 295.892C597.112 299.423 593.281 303.263 590.531 306.941C591.977 308.628 593.79 310.421 596.049 312.355C610.186 324.458 642.618 326.945 661.99 319.993C663.412 319.483 664.872 319.006 666.357 318.551C666.37 317.15 666.165 315.702 665.691 314.172C663.265 306.352 655.834 295.353 644.618 292.652ZM121.145 236.243C119.437 238.81 118.135 241.555 117.291 244.247C115.19 250.957 115.341 260.943 118.177 268.167C121.318 265.541 123.768 262.543 125.411 259.168C129.067 251.66 124.872 243.565 121.145 236.243ZM-137.868 188.415C-141.979 189.261 -145.441 190.172 -147.925 191.073C-159.409 195.234 -162.864 201.787 -164.941 206.84C-167.519 213.132 -169.956 215.866 -172.884 218.423C-176.401 221.495 -181.297 224.595 -184.053 228.011C-179.658 229.586 -174.453 230.825 -168.223 231.225C-153.961 232.143 -145.921 224.149 -140.47 216.905C-135.018 209.66 -136.989 202.872 -136.837 194.278C-136.8 192.193 -137.201 190.244 -137.868 188.415ZM335.784 186.839C335.353 187.585 334.941 188.359 334.552 189.165C330.799 196.937 329.755 208.875 324.509 216.107C319.261 223.34 303.559 229.433 294.011 238.009C284.462 246.584 276.884 254.31 277.021 264.886C277.075 269.281 278.56 272.722 281.242 275.56C281.646 274.852 282.036 274.121 282.403 273.36C286.158 265.572 287.205 253.612 292.455 246.365C297.705 239.119 313.412 233.013 322.964 224.421C332.516 215.829 340.097 208.088 339.963 197.492C339.91 193.109 338.441 189.674 335.784 186.839ZM167.948 228.606C160.217 225.155 145.064 222.149 135.726 224.924C130.199 226.567 125.639 230.22 122.315 234.593C123.515 236.685 124.586 238.511 125.428 239.913C129.632 246.905 139.467 262.319 150.495 262.423C161.523 262.527 167.55 255.246 167.717 246.565L167.719 246.555C167.814 241.61 168.356 235.543 169.989 229.514C169.319 229.217 168.639 228.915 167.948 228.606ZM627.487 251.209C622.432 250.152 615.238 254.296 609.567 256.918C608.368 257.473 607.169 257.962 605.972 258.39C605.258 259.44 604.47 260.497 603.589 261.561C598 268.307 589.284 271.553 583.264 276.739C585.58 279.672 587.027 283.189 586.046 288.374C585.886 289.22 585.737 290.051 585.617 290.875C588.159 291.502 591.066 291.757 593.867 291.627C603.144 291.2 623.486 286.705 639.043 285.296C654.603 283.877 661.511 294.345 665.935 301.143L665.925 301.132C670.361 307.931 672.676 310.452 681.87 311.332C685.356 311.667 691.212 310.997 697.554 310.117C702.231 308.5 706.462 306.573 709.88 304.047C721.308 295.59 720.886 287.742 704.579 284.741C688.274 281.729 671.964 274.806 662.537 270.795C653.098 266.784 641.671 259.553 638.811 257.742L638.826 257.731C635.967 255.92 631.955 252.143 627.487 251.209ZM-20.5613 208.372C-33.1219 196.864 -69.4533 186.151 -89.9388 184.768C-104.05 183.822 -121.338 185.395 -134.103 187.689C-131.712 194.142 -128.246 200.833 -124.321 206.312C-118.305 214.707 -107.859 215.837 -101.65 215.38C-95.4511 214.912 -85.2323 213.75 -75.6164 214.926C-61.781 216.615 -56.1299 224.287 -45.7321 232.573C-38.7614 238.123 -30.831 240.391 -22.4576 240.348C-20.0979 237.301 -17.6627 232.612 -16.5567 228.336C-15.3703 223.704 -13.1171 215.188 -20.5613 208.372ZM9.25646 206.765C-0.480477 210.407 -8.28866 216.946 -12.4035 225.083C-15.9941 232.184 -17.9544 236.58 -20.4324 240.293C-19.6624 240.255 -18.8889 240.202 -18.1126 240.129L-18.102 240.14C-8.1322 239.191 -3.53813 233.507 0.855495 225.21C4.19771 218.917 5.72672 212.91 9.25646 206.765ZM751.742 276.705C750.788 276.889 749.804 277.092 748.786 277.314C738.35 279.59 734.552 279.684 730.962 279.822C723.352 280.105 720.255 285.287 721.004 289.527C721.883 294.532 718.345 299.549 714.007 305.687C713.434 306.499 712.853 307.288 712.277 308.068C715.469 307.678 718.385 307.402 720.735 307.365C729.968 307.216 744.699 310.165 750.375 306.09C756.094 301.983 755.078 291.215 753.834 284.544C753.377 282.077 752.663 279.427 751.742 276.705ZM580.675 279.318C580.329 279.724 579.999 280.142 579.689 280.576C576.321 285.292 578.878 288.522 583.485 290.229C583.472 286.386 582.627 282.811 581.074 280.021C580.943 279.786 580.809 279.552 580.675 279.318ZM80.2197 180.602C71.3701 178.434 55.6886 181.542 47.6424 184.851C45.0117 185.933 42.3823 187.183 39.7452 188.517C43.952 194.357 49.319 199.738 55.374 203.886C64.0707 209.834 72.5702 214.097 77.4737 221.768C82.3773 229.44 91.2093 240.613 105.312 239.363C109.972 238.945 115.026 236.104 119.304 232.939C115.286 226.253 109.037 218.68 103.196 214.162C96.3767 208.886 97.0375 203.272 96.6946 195.479C96.4045 188.696 89.0692 182.77 80.2197 180.602ZM539.536 240.71C534.634 233.024 525.804 221.83 511.699 223.083C507.028 223.502 501.96 226.358 497.674 229.538C501.695 236.202 507.933 243.74 513.763 248.242C520.584 253.507 519.926 259.11 520.271 266.888C520.563 273.659 527.898 279.573 536.747 281.737C545.596 283.901 561.274 280.799 569.318 277.496C571.926 276.425 574.533 275.189 577.148 273.87C572.959 268.079 567.635 262.745 561.634 258.626C552.938 252.666 544.438 248.396 539.536 240.71ZM104.539 142.296C100.692 141.939 95.4873 141.309 89.5702 140.954C88.6592 140.941 87.7818 140.926 86.9445 140.919C84.8357 140.899 82.7378 140.811 80.6682 140.694C69.2595 140.759 56.5865 142.519 46.2179 149.029C40.9714 152.324 37.4918 156.961 35.5216 161.897C35.9725 166.025 38.0524 169.668 41.0935 171.744C46.247 175.264 52.0532 177.317 62.3015 177.156C71.4599 177.006 82.4781 176.304 91.1956 180.555C99.9258 184.807 105.151 198.051 108.256 206.762C110.477 212.991 116.159 223.692 120.749 231.837C122.369 230.563 123.847 229.275 125.107 228.105C129.909 223.646 135.088 221.958 140.782 219.588C146.475 217.218 150.929 212.401 150.648 206.511C150.368 200.61 152.286 191.264 152.742 183.3C153.198 175.336 144.702 169.711 134.677 163.375C124.663 157.039 117.028 143.454 104.539 142.296ZM245.633 143.359C234.23 142.942 221.145 144.359 209.01 148.622C206.824 149.39 204.711 150.226 202.669 151.121C201.867 152.566 201.136 154.151 200.468 155.883C197.594 163.302 197.455 178.43 198.444 185.037C199.433 191.644 196.467 199.954 191.191 204.761C186.475 209.078 178.644 216.427 174.472 224.878C177.743 225.606 181.132 225.872 184.436 225.737C196.073 225.268 200.175 223.354 210.917 213.643C221.024 204.504 232.704 203.455 241.47 206.133C250.235 208.822 251.681 221.48 255.521 231.919C259.36 242.358 269.709 244.954 277.064 242.868C287.124 240.013 297.548 231.104 309.099 220.295C320.651 209.486 321.734 202.739 325.935 191.861C327.275 188.391 328.832 185.485 330.801 182.91C327.768 181.072 324.058 179.502 319.785 178.025C307.392 173.739 298.27 174.522 288.008 174.77C277.746 175.017 272.191 173.922 265.143 166.915C258.161 159.972 254.829 148.406 245.633 143.359ZM599.977 260.025C597.516 260.49 595.055 260.704 592.592 260.681C586.932 260.627 578.415 260.009 575.63 263.013C572.928 265.929 574.999 268.514 579.412 272.712C583.626 270.525 587.865 268.18 592.161 266.011C594.96 264.597 597.605 262.486 599.977 260.025ZM-64.9302 150.963C-68.1156 150.657 -73.2787 151.193 -78.9843 151.959C-84.2779 153.678 -89.0703 155.741 -92.8617 158.539C-104.286 166.979 -103.861 174.812 -87.556 177.808C-71.2526 180.814 -54.9435 187.725 -45.5169 191.728C-36.076 195.721 -24.6501 202.95 -21.7904 204.757L-21.8042 204.768C-18.9446 206.575 -14.9323 210.345 -10.465 211.277C-5.41025 212.332 1.78066 208.197 7.45022 205.58C8.59083 205.053 9.73083 204.585 10.8696 204.172C11.612 203.069 12.4333 201.958 13.3585 200.84C18.9362 194.097 27.6246 190.844 33.6451 185.671C31.3863 182.769 29.9933 179.285 30.9592 174.184C31.1323 173.27 31.2912 172.374 31.4161 171.486C28.8563 170.844 25.9191 170.585 23.091 170.716C13.8121 171.144 -6.53333 175.648 -22.0935 177.059C-37.6554 178.481 -44.5628 167.993 -48.9854 161.182C-53.4204 154.371 -55.7352 151.845 -64.9302 150.963ZM383.757 162.278C376.381 163.954 370.132 167.08 365.324 170.813C359.025 175.697 348.943 184.983 346.299 193.812C343.654 202.641 348.471 208.726 355.379 213.691C360.88 217.643 363.126 222.091 365.616 231.409C368.448 241.977 373.922 247.208 382.898 248.593C391.884 249.988 404.061 246.718 410.53 240.783C416.998 234.849 420.914 231.501 427.981 229.483C433.639 227.867 438.796 229.423 444.589 231.882C446.486 224.122 445.533 213.81 443.506 208.22C441.248 201.957 429.452 193.877 423.352 188.618C417.237 183.37 406.946 178.768 401.599 173.859C396.322 169.015 392.005 163.177 383.757 162.278ZM662.652 229.879C655.711 224.363 647.82 222.092 639.489 222.115C637.121 225.166 634.671 229.883 633.56 234.181C632.372 238.823 630.117 247.356 637.561 254.185C650.12 265.714 686.453 276.447 706.941 277.833C721.051 278.78 738.339 277.204 751.106 274.906C748.712 268.395 745.209 261.623 741.237 256.09C735.22 247.711 724.775 246.584 718.566 247.04C712.369 247.507 702.151 248.666 692.536 247.492C678.703 245.806 673.05 238.149 662.652 229.879ZM196.859 153.911C181.367 162.021 170.373 173.274 162.568 181.978C152.861 192.804 150.352 203.076 157.63 213.998C161.061 219.15 166.141 222.406 171.761 224.157C172.831 221.46 174.166 218.841 175.834 216.415C182.224 207.105 187.822 197.777 187.334 188.048C186.846 178.319 185.55 168.582 192.247 159.963C193.772 158.001 195.349 155.969 196.859 153.911ZM37.4622 189.688C33.2746 191.868 29.0623 194.201 24.7936 196.359C21.932 197.807 19.2324 199.984 16.8191 202.52C19.3527 202.027 21.8857 201.801 24.4217 201.825C30.0801 201.878 38.5955 202.495 41.3794 199.497C44.1084 196.558 41.9683 193.954 37.4622 189.688ZM575.444 129.5C565.465 128.623 556.871 130.622 549.578 137.835C542.284 145.048 541.884 155.18 538.511 164.768C535.137 174.356 523.701 182.56 513.274 186.366C508.936 187.949 505.08 189.851 501.791 192.073C504.018 200.778 508.146 209.18 514.214 213.876C522.395 220.207 534.422 225.521 542.387 237.062C550.351 248.602 573.795 259.235 591.02 258.882C594.923 258.802 598.706 258.29 602.297 257.406C606.245 252.573 609.16 246.968 610.319 242.652C612.998 232.66 618.691 222.966 621.921 216.239C625.153 209.503 626.39 199.904 627.653 193.932L627.649 193.954C628.207 191.316 628.151 188.016 627.841 184.637C614.255 186.228 600.844 182.557 593.102 177.119C584.824 171.314 584.879 155.679 584.8 144.74C584.709 133.8 585.411 133.291 578.561 130.099C578.366 130.009 578.171 129.922 577.977 129.839C577.145 129.69 576.3 129.575 575.444 129.5ZM-95.003 154.191C-98.3285 154.604 -101.368 154.9 -103.801 154.938C-113.036 155.088 -127.769 152.134 -133.447 156.217C-139.168 160.332 -138.154 171.119 -136.912 177.804C-136.443 180.345 -135.703 183.082 -134.744 185.89C-133.79 185.708 -132.808 185.506 -131.791 185.284C-121.357 183.012 -117.56 182.92 -113.971 182.782C-106.361 182.5 -103.266 177.327 -104.016 173.095C-104.896 168.1 -101.36 163.092 -97.024 156.966C-96.3534 156.018 -95.6744 155.098 -95.003 154.191ZM801.064 234.568C796.646 232.974 791.387 231.718 785.087 231.311C770.826 230.394 762.789 238.373 757.34 245.604C751.892 252.834 753.865 259.609 753.715 268.187C753.678 270.325 754.101 272.322 754.802 274.192C758.947 273.339 762.437 272.421 764.937 271.513C776.423 267.344 779.881 260.78 781.959 255.717C784.54 249.412 786.979 246.673 789.908 244.111C793.41 241.056 798.293 237.967 801.064 234.568ZM637.437 222.167C636.639 222.204 635.838 222.26 635.034 222.337C625.066 223.283 620.474 228.956 616.083 237.237C612.72 243.562 611.194 249.596 607.614 255.774C617.422 252.135 625.293 245.56 629.431 237.366C633.011 230.278 634.97 225.878 637.437 222.167ZM491.512 222.561C487.307 215.582 477.468 200.195 466.442 200.091C455.416 199.988 449.391 207.256 449.227 215.92C449.134 220.853 448.593 226.904 446.964 232.918C447.649 233.222 448.346 233.534 449.053 233.851C456.785 237.308 471.939 240.319 481.279 237.538C486.782 235.9 491.326 232.264 494.648 227.908C493.439 225.804 492.359 223.969 491.512 222.561ZM33.5166 172.131C33.4996 176.048 34.3483 179.696 35.9311 182.532C36.0347 182.718 36.1405 182.903 36.2465 183.089C36.6049 182.669 36.9462 182.237 37.2665 181.788C40.6269 177.077 38.0972 173.846 33.5166 172.131ZM498.86 194.264C495.676 196.903 493.197 199.92 491.539 203.321C487.881 210.826 492.097 218.919 495.83 226.236C495.831 226.239 495.833 226.241 495.834 226.244C497.558 223.659 498.872 220.891 499.721 218.178C501.82 211.47 501.676 201.502 498.86 194.264ZM765.866 167.926C757.327 167.136 752.779 167.567 746.311 167.742C739.844 167.918 730.947 172.82 723.994 177.751C717.041 182.682 704.315 188.741 695.056 188.89C685.797 189.039 674.869 189.172 668.119 194.577C661.381 199.983 657.523 206.598 653.237 210.598C650.177 213.454 646.468 215.943 643.616 218.16C647.711 219.402 652.466 220.243 656.92 220.988C665.676 222.465 671.608 226.328 676.317 232.614C681.038 238.9 690.759 244.536 700.506 244.971C710.252 245.406 717.512 242.182 723.309 237.904C726.554 235.5 731.626 227.15 733.383 221.011C734.763 216.198 738.437 210.57 744.292 207.504C752.121 203.417 758.77 200.455 765.146 196.354C771.522 192.253 778.982 181.556 775.184 173.616C774.127 171.404 772.269 169.884 769.904 168.561C768.532 168.267 767.178 168.05 765.866 167.926ZM20.9503 150.249C6.81187 138.168 -25.6152 135.686 -44.9827 142.624C-46.4186 143.137 -47.8923 143.618 -49.3918 144.075C-49.3742 145.382 -49.167 146.731 -48.7279 148.151C-46.3041 155.985 -38.8752 167.004 -27.6577 169.71C-16.4292 172.427 6.38828 171.6 14.3736 166.464C19.7974 162.965 23.6038 159.161 26.3486 155.513C24.923 153.87 23.1478 152.125 20.9503 150.249ZM194.153 116.57C189.286 112.129 181.636 109.264 173.733 109.082C163.951 108.861 155.083 112.56 149.062 118.23C142.77 124.167 137.392 132.368 128.036 137.137C124.511 138.937 119.493 139.932 113.972 140.469C117.102 143.335 119.915 146.582 123.731 150.478C128.786 155.631 133.381 159.234 139.682 163.562C145.982 167.889 154.016 170.089 161.049 169.93C168.628 169.766 176.208 164.389 182.072 159.221C186.307 155.497 193.874 151.315 201.136 147.571C204.077 142.67 205.928 137.869 205.048 133.736C203.405 126.081 199.768 121.705 194.153 116.57ZM662.644 187.144C656.304 177.257 645.252 181.713 630.897 184.188C630.868 186.825 630.732 189.356 630.554 191.622C629.764 201.663 630.684 208.611 634.459 213.151C635.937 214.929 638.36 216.289 641.286 217.376C642.309 216.311 643.468 215.226 644.824 214.065C652.655 207.369 669.016 197.101 662.644 187.144ZM463.601 97.5375C458.115 99.5818 452.838 102.795 448.461 105.696C439.543 111.597 433.952 119.625 430.701 128.449C427.436 137.283 422.145 147.387 416.671 152.805C411.506 157.928 404.099 159.887 392.917 160.977C399.568 163.057 403.998 165.192 408.606 169.764C413.361 174.496 419.82 183.909 429.846 190.245C439.872 196.581 454.877 197.119 459.071 191.56C462.961 186.396 465.353 179.136 459.704 172.326C454.043 165.516 452.878 161.344 455.353 153.571C457.828 145.797 464.373 131.82 466.563 121.963C468.349 113.967 466.847 106.286 463.601 97.5375ZM43.0971 37.6906C35.2203 40.7292 26.5938 46.0498 19.8766 51.0146C9.03881 59.0251 4.77687 64.0566 0.2191 75.425C-4.86983 88.1318 -4.39109 99.0971 -16.3763 105.743C-27.1521 111.713 -36.5448 118.05 -41.5574 126.341L-41.5447 126.341C-45.0667 132.161 -48.3804 136.704 -49.1988 141.61C-43.4346 140.187 -36.347 138.509 -26.6508 136.459C-11.5928 133.277 1.28792 136.723 8.49775 140.587C15.0511 144.1 24.3705 147.114 31.3066 147.266C35.2267 140.846 42.7648 137.89 55.353 137.849C58.1863 137.839 61.8242 137.904 65.9587 137.932C67.2753 137.708 68.6261 137.517 70.0121 137.37C88.3779 135.408 101.231 133.75 109.728 117.464C117.305 102.922 117.559 83.5107 106.16 71.8931C102.085 74.064 97.7976 75.474 93.4245 75.1756C84.5131 74.5757 77.3696 70.683 74.6736 60.7614C74.0481 58.4592 73.3715 55.914 72.545 53.3473C65.2455 49.5427 57.0715 45.1487 47.0916 39.6557C45.8891 38.9943 44.5531 38.3385 43.0971 37.6906ZM333.569 108.881C325.155 111.404 319.482 115.327 314.749 122.774C309.822 130.535 308.113 138.66 298.703 143.772C289.306 148.885 275.829 148.758 262.246 145.509L262.249 145.487C260.691 145.115 259.036 144.785 257.299 144.498C259.059 146.523 260.303 148.981 261.35 151.846C264.118 159.426 271.336 166.006 276.878 169.701C282.409 173.395 290.232 172.427 295.414 168.833C300.596 165.24 304.523 163.707 311.13 164.554C317.738 165.4 322.726 170.659 329.798 174.369C331.87 175.459 334.325 176.304 336.941 176.834C340.53 174.069 345.057 171.515 350.918 168.695C358.071 165.252 364.182 162.477 368.639 157.799C369.456 150.785 364.857 145.007 357.518 139.214C350.175 133.417 343.08 127.881 337.391 121.315C334.592 118.093 333.697 113.634 333.569 108.881ZM366.301 164.381C362.201 165.621 358.233 167.334 354.886 169.43C350.888 171.932 347.031 174.439 343.598 177.459C347.94 177.392 352.235 176.372 355.6 174.096C360.279 170.937 364.021 167.981 366.301 164.381ZM53.096 141.267C51.4125 141.755 49.8047 142.307 48.2884 142.955C49.8291 142.396 51.4301 141.825 53.096 141.267ZM480.585 96.6184C476.652 95.1067 472.426 95.1623 468.209 96.1337C469.673 99.3091 471.305 102.438 472.915 105.4C478.6 115.846 474.982 123.093 467.725 133.943C460.456 144.792 461.964 158.331 465.115 169.278C468.266 180.225 479.445 186.937 490.53 186.676C491.749 186.649 492.951 186.572 494.135 186.451C490.521 181.569 487.518 178.031 487.339 172.995C487.115 166.75 491.449 160.795 495.079 155.36C498.71 149.925 504.838 134.605 503.147 124.177C501.456 113.749 497.909 103.293 480.585 96.6184ZM538.414 97.4208C527.425 89.5055 509.377 87.4233 502.786 93.9588L502.798 93.959C499.157 97.5672 496.206 100.666 502.745 109.582C509.284 118.497 507.636 132.547 505.359 142.949C503.082 153.35 498.934 171.536 500.154 183.013C500.236 183.79 500.336 184.575 500.451 185.364C511.934 182.576 521.328 175.821 527.655 169.352C535.721 161.106 535.831 152.785 540.031 141.907C544.103 131.361 553.407 127.698 565.362 126.174C563.094 125.265 560.806 123.904 558.46 121.572C551.587 114.738 549.415 105.336 538.414 97.4208ZM157.425 100.565C144.94 98.5296 134.1 101.011 125.389 106.265C116.621 111.555 113.689 117.211 110.74 123.447L110.731 123.425C108.858 127.383 107.994 130.966 108.673 133.916C109.127 133.783 109.577 133.649 110.021 133.507C127.475 127.944 141.247 121.121 152.002 108.898C154.12 106.488 155.926 103.633 157.425 100.565ZM212.229 141.587C211.109 142.154 210.061 142.803 209.08 143.539C209.13 143.514 209.18 143.49 209.23 143.465C210.342 142.902 211.343 142.27 212.229 141.587ZM357.748 43.7626C355.584 47.1361 353.723 50.4673 352.612 53.2152C349.557 60.7404 347.395 68.5324 343.02 74.7449L343.018 74.7555C338.655 80.9682 335.844 90.8382 336.203 98.1376C336.309 100.298 336.639 102.757 337.166 105.304C340.28 104.94 343.458 104.559 346.765 104.178C359.266 102.741 368.068 109.066 375.833 117.977C383.599 126.887 378.709 138.284 378.957 148.164C379.133 155.212 382.252 157.527 386.569 159.053C387.335 159.08 388.138 159.085 388.983 159.066C396.983 158.884 407.538 158.07 416.279 147.6C421.841 140.926 422.135 130.194 424.351 122.145C426.568 114.086 431.152 106.575 439.997 103.016C447.883 99.8337 455.471 97.0641 462.209 93.9695C461.844 93.0722 461.465 92.1617 461.072 91.2386C456.172 79.7599 453.33 74.532 443.304 68.1957C433.278 61.8596 423.951 66.4578 411.01 66.8506C398.07 67.2435 390.41 61.4557 378.719 54.0635C371.532 49.5189 364.452 45.763 357.748 43.7626ZM698.546 147.059C692.438 145.937 685.959 144.447 679.251 144.384C672.543 144.321 664.012 145.841 656.878 152.371C650.845 157.88 645.384 166.522 647.015 172.598C648.527 178.232 656.313 180.09 665.783 183.832C675.193 187.553 691.744 189.428 706.377 184.569C721.01 179.71 730.527 172.676 730.894 165.19C731.261 157.704 727.936 153.513 721.444 150.841C714.361 147.916 704.664 148.191 698.546 147.059ZM284.371 104.213C276.046 102.73 263.537 104.135 251.555 108.172C243.504 110.885 237.773 113.019 231.317 114.856L231.33 114.856C224.875 116.694 220.173 121.636 219.943 125.667C219.714 129.554 220.748 132.268 224.496 135.533C230.096 136.774 236.522 137.325 243.007 138.123C247.882 138.729 251.432 139.937 254.116 141.711C259.558 142.744 264.747 144.052 269.974 145.121C277.286 146.616 288.225 146.483 295.704 143.465C303.184 140.447 306.746 135.204 309.452 128.827C312.158 122.45 313.564 118.258 311.633 115.473C309.578 112.515 305.708 110.699 300.448 108.633C295.998 106.886 292.119 105.594 284.371 104.213ZM592.134 136.514C589.488 146.207 587.954 158.071 597.551 164.696C606.382 170.792 616.196 179.777 627.018 178.141C626.715 176.141 626.404 174.254 626.166 172.619C625.282 166.626 622.344 160.1 614.928 156.651C607.514 153.193 601.062 149.495 597.506 142.963C596.269 140.689 594.428 138.474 592.134 136.514ZM236.262 139.615C234.062 139.027 231.827 138.632 229.571 138.452C231.505 139.026 233.803 139.363 236.262 139.615ZM686.036 115.892C680.117 112.029 674.883 114.06 670.359 116.784C665.836 119.509 662.997 121.906 655.535 122.533C648.084 123.16 640.73 115.465 633.879 112.279C630.537 110.722 626.165 109.489 621.287 109.471C618.83 111.737 615.877 113.867 612.132 115.867C604.035 120.187 599.559 122.84 596.664 126.432C595.88 131.545 597.596 136.783 600.698 140.73C606.467 148.055 617.941 153.011 624.639 159.67C628.513 163.521 630.146 170.246 630.683 177.175C630.839 177.116 630.996 177.057 631.152 176.993C643.622 171.9 647.201 158.513 657.115 150.268C667.029 142.023 680.027 139.942 692.031 141.613C697.608 142.39 704.119 143.093 710.688 143.466C707.113 141.188 704.337 138.27 703.09 134.714C700.288 126.719 691.994 119.755 686.076 115.881L686.036 115.892ZM368.49 119.119C362.318 109.779 347.319 106.713 337.778 107.953C339.122 113.209 341.258 118.536 343.997 122.173C348.543 128.212 358.987 131.953 363.482 136.422C367.621 140.538 370.438 146.409 373.109 151.201C373.67 149.99 374.17 148.68 374.599 147.255C377.665 137.063 375.399 129.587 368.49 119.119ZM201.586 119.108C204.323 123.729 208.849 127.695 213.471 131.076C214.573 131.88 215.788 132.569 217.099 133.169C217.157 130.535 215.94 127.961 213.307 125.947C210.494 123.8 206.479 121.574 201.586 119.108ZM284.255 51.0134C277.258 44.9516 269.978 42.5402 262.364 42.2106C254.75 41.881 242.767 45.2813 239.068 49.8024L239.086 49.7708C235.276 54.4307 231.943 63.7691 230.489 68.9668C229.034 74.1646 226.524 76.4832 220.24 79.293C213.97 82.1029 207.686 84.9132 204.182 89.5651C200.675 94.2278 198.166 104.101 199.062 111.921C199.084 112.112 199.11 112.303 199.138 112.492C203.991 113.532 209.273 113.868 215.352 113.214C230.527 111.588 249.386 106.007 262.359 101.861C275.333 97.7143 287.033 95.0473 294.511 89.8304C303.528 83.5383 311.012 76.2493 315.875 67.6622C311.806 66.8881 307.692 66.1858 304.36 65.2683C295.539 62.8426 291.253 57.0751 284.255 51.0134ZM734.707 150.713C731.273 155.79 731.96 162.118 739.103 165.128C746.032 168.048 754.18 165.768 762.784 165.235C759.687 163.853 756.326 162.233 753.02 159.84C746.774 155.318 741.05 152.499 734.707 150.713ZM168.275 103.371C170.09 104.631 172.201 105.519 174.651 105.947C172.49 104.962 170.364 104.105 168.275 103.371ZM232.373 43.7549C229.96 37.747 223.377 36.4277 218.378 39.1958C214.684 41.2456 210.249 44.836 207.431 48.2048C203.643 52.7251 196.118 57.597 187.247 59.3401C178.377 61.0831 172.327 60.6289 168.494 63.4617L168.482 63.4614C164.662 66.2946 165.326 73.5858 165.287 79.5812C165.253 84.8039 162.749 93.7539 163.875 98.2285C169.845 99.9817 176.39 102.66 182.254 105.846C182.281 105.86 182.309 105.874 182.336 105.889C183.267 105.741 184.234 105.547 185.234 105.3C193.852 103.157 198.822 92.7698 202.686 85.4029C206.222 78.6667 217.57 72.9178 225.002 66.7341C232.433 60.5613 234.785 49.7736 232.373 43.7549ZM149.164 53.9949C141.625 51.3129 132.886 53.4981 125.375 58.2841C122.605 60.0483 119.439 62.662 115.987 65.3112C114.784 70.0429 114.981 74.6193 116.184 78.6585L116.174 78.6476C118.364 85.9609 121.224 91.6291 127.551 94.059C133.877 96.4887 145.302 95.5349 153.044 96.0796C154.842 96.2061 156.853 96.515 159.002 96.9795C162.258 88.7526 163.49 79.6952 162.757 73.7445C161.516 63.6644 156.706 56.6664 149.164 53.9949ZM319.448 68.3741C316.586 73.4359 312.95 78.1852 308.636 81.9836C302.2 87.6393 294.111 92.2397 294.942 98.4893C295.773 104.739 298.95 107.879 311.284 107.48C319.087 107.228 326.223 106.546 333.583 105.716C333.709 101.761 334.181 97.7496 334.381 94.1979C334.878 85.3486 336.351 78.0662 331.897 73.3393C329.626 70.9287 324.8 69.5088 319.448 68.3741ZM752.159 139.245C750.3 140.415 748.417 141.54 746.557 142.562C748.968 141.715 750.747 140.619 752.159 139.245ZM589.243 49.2901C582.25 39.3472 568.106 43.3747 558.008 48.9957C547.909 54.6168 536.467 57.1046 525.25 54.4036C524.214 54.153 523.138 53.8527 522.03 53.5188C520.407 58.1357 519.815 63.1317 521.99 69.6934C525.569 80.494 533.509 89.595 543.367 96.9839C553.227 104.362 560.767 107.045 566.867 114.914C570.827 120.023 579.444 121.882 588.676 120.595C591.502 119.325 594.23 117.792 596.952 115.92C605.91 109.763 616.878 102.584 619.353 94.8106C621.828 87.0373 619.175 84.4167 610.268 74.9703C601.362 65.5238 596.236 59.2334 589.243 49.2901ZM77.0535 55.6787C79.1632 62.9538 86.4508 67.7005 99.6221 66.8781C98.9271 66.482 98.2069 66.1059 97.4606 65.7516C90.697 62.5379 84.2348 59.364 77.0535 55.6787ZM609.811 111.801C608.187 112.495 606.551 113.363 604.92 114.43C603.973 115.049 603.116 115.703 602.343 116.385C602.742 116.188 603.139 115.985 603.532 115.775C605.646 114.645 607.749 113.306 609.811 111.801ZM653.187 65.2015C645.909 72.6536 640.764 80.3316 635.461 88.998C631.605 95.3003 628.888 100.91 624.676 105.912C626.863 107.783 630.314 109.049 634.043 110.394C639.591 112.398 650.286 116.616 656.627 116.118C664.711 115.487 669.724 114.279 672.675 108.977C675.626 103.674 670.926 100.252 671.166 96.157C671.406 92.0625 674.846 87.6546 674.439 82.31C674.042 76.9763 666.369 72.4536 659.314 69.3628C656.954 68.3292 655.048 66.8194 653.187 65.2015ZM202.19 4.21383C200.311 6.0195 198.468 7.70349 196.656 9.20147C182.465 20.9293 135.498 38.097 123.171 52.159C120.799 54.8609 119.013 57.628 117.738 60.3875C124.625 56.1277 130.706 51.003 136.407 49.0608C146.351 45.673 156.948 50.9845 163.799 54.176C170.65 57.3674 184.143 59.9227 193.848 55.5011C203.553 51.0796 213.534 38.1614 215.301 32.2788C217.055 26.3962 213.698 20.594 211.702 16.32C209.211 10.9944 204.944 7.36794 202.19 4.21383ZM162.64 -44.8497C158.547 -52.3666 152.233 -54.2052 146.459 -53.5369C141.512 -42.9518 133.19 -34.4672 123.714 -29.7252C114.647 -25.193 105.371 -25.3006 94.995 -22.8023C95.7512 -17.7085 96.1881 -12.4485 95.4051 -7.57106C93.067 6.99235 83.7893 17.5871 77.754 26.421C74.1752 31.6643 72.2754 36.8593 73.0752 41.6448C73.6597 43.0201 74.157 44.4374 74.6116 45.9368C75.5811 47.6418 76.9829 49.2723 78.8735 50.808C87.2886 57.6439 98.2278 59.8713 108.998 56.6052C119.81 53.3181 130.726 41.5051 139.104 33.755C147.483 26.0051 154.475 24.2907 170.34 19.5499C186.217 14.8091 194.056 7.75044 198.773 1.92848C199.129 1.48671 199.483 1.04582 199.834 0.607432C199.824 0.578193 199.813 0.549228 199.803 0.519983C198.425 -3.66219 198.062 -9.04934 202.684 -14.905C203.915 -16.4717 205.018 -17.965 206.031 -19.5162C201.387 -22.3264 191.382 -23.9754 183.602 -26.5806C173.651 -29.9132 168.003 -34.9969 162.64 -44.8497ZM469.028 60.8748C466.185 64.8574 464.268 69.1369 463.383 73.0608L463.381 73.0714C462.135 78.5942 463.709 85.2304 466.377 91.8937C472.583 88.2943 475.824 83.0126 474.534 77.0259C473.583 72.6158 471.677 66.2932 469.028 60.8748ZM639.465 57.0777C629.684 55.2052 618.86 59.908 614.471 65.0251L614.461 65.0142C610.072 70.1314 613.223 75.3204 616.628 77.669C620.021 80.0175 623.918 84.5046 623.306 89.6572C622.811 93.8202 621.895 97.1675 622.116 100.369C627.798 93.8333 632.441 86.4603 635.097 79.6028C637.955 72.225 642.785 66.2694 648.381 61.1258C646 59.3363 643.236 57.8003 639.465 57.0777ZM515.959 51.5368C506.231 48.2374 495.074 44.3878 485.832 47.7906C479.559 50.1056 474.422 54.1621 470.605 58.8161C472.356 62.3155 473.9 65.819 475.014 69.2186C477.522 76.8499 485.097 84.1207 493.003 86.6453C498.877 88.5166 504.203 87.4173 509.714 83.2679C514.203 79.8932 515.972 73.1295 515.966 64.5011C515.962 59.8696 515.224 55.6828 515.959 51.5368ZM354.481 42.9232C351.441 42.2765 348.49 42.039 345.655 42.3082L345.67 42.2979C335.714 43.2443 326.161 53.032 323.08 60.7999C322.572 62.075 322.013 63.3491 321.408 64.6146C331.558 65.7082 339.808 62.8578 344.795 57.6227C348.86 53.3553 352.174 47.924 354.481 42.9232ZM310.514 1.49091C300.476 -14.4654 269.585 -33.76 248.224 -29.693C232.021 -26.6059 218.88 -12.5552 207.283 -0.833597C207.543 3.84526 208.931 8.69468 212.205 13.6605C219.113 24.1377 225.54 33.7503 232.022 37.9806C236.958 41.197 244.777 42.6138 254.295 40.619C263.813 38.6241 274.729 39.4261 284.68 44.9033C294.712 50.4242 304.061 60.8275 315.622 63.6013C316.33 63.7716 317.031 63.9222 317.725 64.0566C319.056 61.169 320.099 58.1421 320.816 54.9651C325.187 35.6161 321.88 19.5726 310.514 1.49091ZM90.1243 -21.4366C78.2419 -17.5188 64.1727 -7.37705 59.7525 0.586276C54.5729 9.9181 55.1803 20.1638 63.9955 28.9291C64.0807 29.0138 64.1639 29.0998 64.2478 29.184C66.8695 28.4213 69.2739 27.3309 71.4121 25.8998C82.849 18.2398 90.315 -2.50356 90.1243 -21.4366ZM435.669 7.11581C430.74 4.16853 421.869 3.92991 412.887 5.20784C409.437 8.45875 407.808 11.9868 408.578 16.6037C409.923 24.617 409.262 28.4934 403.248 36.33C397.135 44.3053 394.137 49.3504 398.597 55.291C403.109 61.3071 407.086 62.9321 415.511 62.7755C423.922 62.6188 434.647 60.3495 443.967 63.2793C453.286 66.2198 457.72 66.4972 463.633 62.7564C465.097 61.8304 466.465 60.3728 467.872 58.6591C466.903 56.9247 465.854 55.339 464.729 54.0144C459.836 48.241 449.993 38.8636 445.885 33.8712C441.778 28.8791 441.836 23.0778 441.574 18.7235C441.289 14.1111 439.213 9.2338 435.669 7.11581ZM408.884 5.87409C404.357 6.73773 399.947 7.94582 396.155 9.34462C383.757 13.9127 374.557 23.464 369.439 28.6273C366.617 31.4747 362.716 36.3712 359.273 41.4525C365.341 43.1583 370.538 44.9006 376.121 46.2953C384.999 48.5132 397.791 43.2926 400.651 33.3563C402.893 25.5318 404.116 14.386 408.884 5.87409ZM691.588 45.7829C679.886 43.6527 669.894 50.2522 659.207 59.5321C657.862 60.6983 656.586 61.8655 655.368 63.0363C658.242 65.0351 661.13 66.6524 663.216 67.6727C668.67 70.3409 676.878 73.2606 682.499 73.0776C688.119 72.8946 694.514 67.9677 698.027 63.4964C700.791 59.9792 702.372 55.7133 703.361 50.4764C699.732 48.6019 695.865 46.5635 691.588 45.7829ZM387.623 -0.321067C385.783 -7.30133 373.842 -9.99264 363.54 -6.97359C347.449 -2.25766 335.822 -1.15319 321.675 -2.15687C317.342 -2.46326 313.641 -3.38827 310.581 -4.79922C315.637 4.53035 321.69 19.6704 325.038 24.6437C330.463 32.6954 334.899 36.0299 347.359 38.5496C350.315 39.1489 353.022 39.789 355.557 40.4465C356.115 39.0779 356.589 37.7662 356.971 36.5472C359.079 29.7976 363.272 21.961 371.326 18.4479C381.435 14.0302 389.274 5.94827 387.623 -0.321067ZM673.806 7.74761C667.765 7.36713 662.111 8.18856 658.931 10.2875C653.611 13.798 650.077 18.8698 648.178 27.6246L648.165 27.6243C646.303 36.2293 643.273 44.5449 645.005 51.2534C645.721 54.0268 647.869 56.7568 650.54 59.2107C654.598 55.731 658.961 52.6148 663.21 49.6523C674.265 41.9447 686.155 29.0331 680.723 17.0009C678.877 12.9029 676.704 9.95051 673.806 7.74761ZM529.581 38.5503C528.307 40.5389 527.124 42.4631 526.168 44.3856C527.673 42.8579 528.777 40.8627 529.581 38.5503ZM758.491 13.6382C745.931 2.91313 728.306 -4.8672 711.255 4.58147C694.205 14.0301 702.939 27.6258 708.294 38.712C710.299 42.8573 711.03 46.1449 710.635 49.172C720.043 50.7113 729.177 49.1594 737.566 45.1414C749.813 39.2821 758.333 28.4069 762.205 16.3732C760.792 15.4448 759.531 14.526 758.491 13.6382ZM692.825 14.3245C690.443 17.81 688.674 21.2469 687.869 24.3427C685.996 31.5602 689.381 42.7423 703.847 47.5238C703.918 47.0228 703.987 46.5138 704.05 45.9964C704.95 38.6586 702.256 32.8205 699.76 25.6759C698.212 21.245 695.99 17.2867 692.825 14.3245ZM297.288 -38.5167C292.145 -37.3938 288.084 -36.0018 285.186 -34.2573C280.537 -31.459 277.285 -26.3307 284.107 -23.5959C288.655 -21.7748 295.039 -19.3366 300.536 -15.7014C300.272 -16.5561 300.075 -17.4368 299.944 -18.3396C299.102 -24.1927 298.279 -32.1023 297.288 -38.5167ZM641.648 0.0122957C644.44 3.35448 647.752 7.08348 653.267 7.51011C657.329 7.82628 663.241 6.06499 669.37 5.17219C663.981 2.79792 656.607 1.67529 645.958 0.523035C644.513 0.366593 643.075 0.196079 641.648 0.0122957Z" fill="url(#paint0_linear_248_83)"/>
</g>
</g>
<path opacity="0.34" d="M442 193C446 179 477.5 177.5 486 176.5C543.5 171 543 257 545 291.5C547 326 537.5 327 523.5 331C509.5 335 491.5 314.5 489.5 318.5C487.5 322.5 471.5 324 451.5 324.5C431.5 325 411 267.5 408 257C405 246.5 402 227 419.5 227C437 227 438 207 442 193Z" fill="#FFE5B7"/>
<path opacity="0.58" d="M408 246C403.6 232.8 418.833 231.167 427 232C443.5 239 443.5 208.5 446.5 195.5C449.5 182.5 462.5 186 468 188C476.5 180 493 178 500.5 181C541 192.5 540.5 281 543 301.5C545.5 322 533 324.5 519 327C505 329.5 498 316 497 309.5C496 303 488.5 306.5 485 311.5C482 322.5 457 321.5 453 320.5C433 315 413.5 262.5 408 246Z" fill="#FFE5B7"/>
<path d="M459 319C438.6 316.6 417.833 268 410 244C410 232.5 419.5 233.5 426 235.5C448 241.5 446.5 203.5 449.5 195.5C452.5 187.5 459 187 461.5 190.5C464 194 468.5 192 474.5 187C495 175 504.5 183 516.5 195.5C528.5 208 539 283 541 302C543 321 523.5 325.5 516.5 325.5C509.5 325.5 501.5 314 499 306C496.5 298 483.5 306 482 310C480.5 314 469.5 318 459 319Z" fill="#FFE4B7"/>
<path opacity="0.34" d="M255 212.5C247 209.3 253.667 186.167 258 175C260.333 162.5 274.2 138.5 311 142.5C357 147.5 357 190.5 357 205.5C357 220.5 352 239.5 349.5 264.5C347.5 284.5 316 288.5 300.5 288C299 288.167 293.9 286.2 285.5 277C275 265.5 279.5 243 280 233C280.5 223 265 216.5 255 212.5Z" fill="#FFE4B7"/>
<path opacity="0.58" d="M257 205.5C253 181.5 276.667 158.5 289 150C321 140.5 345 153 350.5 189C356 225 346.5 236.5 347 246.5C347.5 256.5 346.5 266.5 338.5 274C332.1 280 309.5 282.5 299 283C295.667 280.333 288.1 273.3 284.5 266.5C280 258 282 246.5 284.5 236.5C287 226.5 276.5 219 272.5 216C268.5 213 260 211 257 205.5Z" fill="#FFE4B7"/>
<path d="M260.5 204.5L264 184.5C280.5 156.5 296.5 150.5 303.5 150.5C346.5 146.5 347 189 349 209C351 229 342.5 243 343.5 251.5C344.5 260 337 270 332.5 274C328 278 305 279.5 301 279.5C297 279.5 294 273 288.427 263.171C282.854 253.342 286 246.5 290.5 234.5C294.1 224.9 272 210.5 260.5 204.5Z" fill="#FFE4B7"/>
<path opacity="0.34" d="M69.5 200.5C67.1 194.5 70.5 179.333 72.5 172.5C107.5 105 171.5 111 186 122C200.5 133 203 180.5 208.5 185C227.5 199.5 223 235 220 242C217 249 203 261.5 201.5 279.5C200 297.5 155.5 316.5 146 320C136.5 323.5 96 292.5 87.5 287.5C79 282.5 84 245 83.5 240C83 235 72.5 208 69.5 200.5Z" fill="#FFE4B7"/>
<path opacity="0.58" d="M73.0103 190.489C72.7169 186.963 78.7567 173.838 81.8133 167.717C97.2186 141.639 125.095 127.314 155.905 122.539C186.716 117.764 193.685 145.679 193.685 167.717C193.685 189.755 201.02 186.449 209.09 197.835C224.495 233.096 205.422 249.624 201.02 255.868C196.619 262.112 194.785 272.396 193.685 282.313C192.584 292.23 165.442 305.086 148.936 310.228C132.43 315.37 117.025 293.332 107.489 288.19C97.9521 283.048 97.9521 274.967 100.52 262.847C103.087 250.726 91.7167 232.361 87.3152 225.75C82.9137 219.138 73.3771 194.897 73.0103 190.489Z" fill="#FFE4B7"/>
<path d="M104.622 277.454L107.551 253.857C107.962 250.539 101.694 237.266 95.1054 227.679C89.8346 220.01 82.1723 199.166 79 189.703C82.0503 184.089 88.5168 171.363 89.981 165.369C91.8111 157.875 95.8375 152.095 104.622 148.408C119.63 143.247 157.331 120.387 172.338 128.867C187.346 137.347 189.908 152.095 188.939 172.862C187.97 193.629 194.666 184.91 203.451 200.395C212.602 220.674 206.013 240.953 200.523 246.483C195.032 252.014 191.006 261.969 189.908 272.292C188.81 282.616 178.195 289.253 166.848 297.733C155.658 306.095 146.249 304.06 141.075 302.941L140.859 302.895C136.76 302.01 114.993 285.566 104.622 277.454Z" fill="#FFE5B7"/>
<path fill-rule="evenodd" clip-rule="evenodd" d="M500.887 188.406C501.262 188.096 516.616 201.353 520.37 213.333C520.429 213.518 529.803 255.002 530.442 258.811C538.611 307.528 537.796 308.591 535.203 311.979C532.345 315.714 520.62 322.645 518.607 321.952C499.264 315.301 508.932 297.194 496.891 297.711C495.877 297.755 485.643 298.191 484.284 299.342C483.924 299.652 476.681 309.447 466.859 314.902C465.066 315.899 459.064 319.228 444.863 301.815C428.135 281.309 413.053 243.42 415.206 240.025C418.063 235.522 435.482 246.816 445.884 232.127C453.4 221.512 450.843 192.267 458.932 194.237C463.575 195.367 464.478 198.77 468.769 195.256C472.956 191.824 487.935 185.535 490.257 185.077C496.288 184.568 497.949 186.686 500.887 188.413V188.406Z" fill="#6CC93E"/>
<path fill-rule="evenodd" clip-rule="evenodd" d="M330.229 161.361C329.762 160.486 304.648 147.923 290.128 160.706C288.755 161.913 279.885 169.717 274.834 177.668C268.03 188.37 268.803 188.671 265 200.815C275.841 206.773 287.142 210.377 294.961 230.648C299.626 242.748 283.893 245.565 291.916 260.577C292.544 261.746 299.414 274.604 300.341 274.89C302.152 275.457 302.152 273.633 324.06 273.839C327.951 273.875 338.668 263.865 338.843 257.091C339.413 234.833 349.356 234.672 342.734 192.342C339.989 174.829 340.785 175.336 330.236 161.354L330.229 161.361Z" fill="#6CC93E"/>
<path fill-rule="evenodd" clip-rule="evenodd" d="M172.808 135.155C172.954 135.067 182.791 141.745 183.179 146.549C186.17 183.879 185.446 184.216 187.194 186.259C200.498 201.805 200.432 202.237 203.738 222.367C206.283 237.869 189.542 244.877 185.088 261.265C181.365 274.943 182.747 276.349 164.419 291.88C152.658 301.846 150.808 300.316 136.802 293.63C127.747 289.31 113.222 277.499 111.291 275.924C112.71 262.883 114.356 263.388 116.096 250.434C97.8265 225.149 101.483 223.37 86.1244 189.005C84.5153 185.41 99.026 160.037 100.394 157.642C102.42 154.098 104.555 157.686 147.692 138.545C166.094 130.38 168.493 133.068 172.808 135.147V135.155Z" fill="#6CC93E"/>
<defs>
<linearGradient id="paint0_linear_248_83" x1="-181.111" y1="177.809" x2="800.558" y2="275.798" gradientUnits="userSpaceOnUse">
<stop stop-color="white"/>
<stop offset="0.52" stop-color="white"/>
<stop offset="1" stop-color="white"/>
</linearGradient>
</defs>
</svg>
