<?xml version="1.0" encoding="UTF-8"?>
<svg id="Ebene_1" data-name="Ebene 1" xmlns="http://www.w3.org/2000/svg" viewBox="0 0 408.9 330.14">
  <path d="M408.89,5.84c-.45-9.66-16.42-4.41-21.66-1.62-5.32,2.83-8.12,6.93-14.77,7.58-15.75,1.54-21.76-15.33-42.92-10.97-8.34,1.72-13.55,8.8-19.9,10.44-17.26,4.47-24.55-14.94-46.37-10.44-11.44,2.35-14.87,12.14-28.17,11.02C224.31,10.93,219.34,0,204.14.14c-17.02.16-25.72,18.13-42.1,9.72C152.6,5.01,150.83-.08,137.87.14c-16.34.28-25.4,17.28-41,10.22C87.53,6.13,85.08,0,72.26,0c-15.11,0-21.54,12.35-34.37,11.85-8.14-.32-10.07-4.31-16.32-7.63C15.55,1.01,4.63-2.73,0,3.83v4.79c3.58,4.96,9.27,3.28,14.67,5.69,9.44,4.22,11.29,9.85,24.19,9.97,17.31.16,26.22-18.53,43.14-9.44,9.2,4.94,10.61,9.29,22.99,9.29,12.84,0,14.67-4.98,24.32-9.56,17.26-8.19,24.06,9.56,41.95,9.56,16.74,0,21.46-13.32,36.73-11.53,9.64,1.13,14.17,11.53,29.54,11.53,15.44,0,20-10.93,31.1-11.56,15.52-.87,21.04,15.14,42.17,11.02,8.15-1.59,14.07-9.33,20.5-10.64,16.17-3.28,22.06,11.47,38.63,11.32,13.36-.12,15.12-6.32,24.74-10.22,5.16-2.09,14.56-.62,14.21-8.22Z"/>
  <path d="M370.26,133c-7.11-4.25-11.79-5.31-19.65-1.73l-66.88,45.6c-8.41-2.57-17.94-3.7-26.26-6.15-1.17-.34-1.39.44-1.16-1.61,10.05-3.65,21.51-7.06,31.11-11.61,2.5-1.19,5.78-2.7,7.73-4.65,2.13-2.13,3.88-6.01,5.21-8.76l29.76-69.82c3.88.87,8.01,2.92,12.01,3.06,19.04.69,26.78-23.79,11.05-34.25-3.95-2.62-23.81-8.56-28.97-9.36-10.66-1.64-17.24.98-22.3,10.52-2.62,4.93-11.54,25.07-12.52,29.8-1.53,7.36,4.26,11.2,10.06,6.64,5.7-8.98,8.16-22.29,13.38-31.11,2.59-4.38,4.18-4.6,8.99-3.87,3.74.57,21.64,5.75,24.49,7.44,3.5,2.07,4.05,6.83,1.49,9.84-5.84,6.85-20.21-6.85-26.06-.29l-35.48,81.67-89.86,35.49c-16.61,3.71-34.69,3.76-51.24,7.05-3.16.63-7.87,1.14-8.61,4.98-.62,3.25.56,5.38,3.26,7.08,7.8,4.94,21.64,7.16,29.87,12.44,12.44,14.08,26.06,27.3,38.33,41.52,3.64,4.22,12.29,11.55,6.39,16.8-4.9,4.36-9.04-.14-12.42-3.59-13.67-13.97-25.96-30.1-39.95-43.88l-70.25-28.75c-7.66-4.83-5.4-11.27,3.04-13.01,30.61-6.3,65.06-6.62,96.05-12.54l85.43-33.54c.89-.78,1.42-1.79,2-2.79,2.43-4.18,10.1-21.93,11.14-26.38,1.91-8.14-4.48-11.73-10.35-6.37l-11.33,26.38-61.37,23.88c-.19-3.09,1.23-5.93,1.26-9.16.16-13.26-9.03-25.81-21.79-29.38-4.97-1.39-16.42-3.62-17.37,3.89-1.17,9.26,10.31,5.74,16.76,8.7,10.33,4.73,13.03,18.87,5.99,27.58-8.02,9.92-28.5,6.69-39.9,10.38l-5.29-34.78c-.1-1.9,3.2-1.82,4.1-3.32,2.81-4.69-.66-10.16-5.99-9.85-21.18,4.55-45.19,4.23-66.07,9.05-31.06,7.17-31.83,48.82-2.18,58.56-.28,3.03-.97,5.5-.86,8.65.78,21.47,9.06,45.59,8.16,67.27-6.05,15.22-18.37,32.54-23.36,47.7-7.16,21.72,19.39,34.8,31.83,18.26,1.7-2.26,8.29-14.49,8.75-16.82.87-4.37-1.59-8.11-6.32-7.78-8.04.57-8.39,19.14-16.29,19.6-6.51.38-8.07-4.64-6.15-10.21l24.78-51.14-7.04-50.48,14.26,6.09,5.74,46.24c.1,6.44-13.91,21.41-7.46,26.76,2.37,1.96,6.6,2.11,8.77-.29,1.25-1.38,8.22-15.84,9.18-18.37.73-1.93,1.87-4.77,2.07-6.76.9-8.8-3.96-30.55-5.32-40.59-.1-.7-.44-1.92.33-1.91l37.52,15.18c12.2,11.78,22.61,25.34,34.32,37.54,4.24,4.42,10.92,12.35,16.97,13.37,16.53,2.79,27.8-12.63,20.34-27.52l-46.04-51.36-13.2-7.94,25.83-3.16c29.16,4.52,61.85,18.5,90.54,22.11,5.19.65,10.08.42,14.5-2.65l60.47-41.72c9.67,4.62,15.96,14.64,28.11,12.13,12.2-2.52,18.17-15.84,12.74-26.88-2.56-5.21-22.97-19.58-28.82-23.08ZM134.13,126.79l4.79,35.92-23.16,2.41-3.9-35.06,22.27-3.27ZM77.82,168.33c-14.13-5.05-15.78-25.18-2.51-32.11,7.09-3.7,16.68-3.15,24.49-4.65l4,35.94c-8.69-.26-17.64,3.81-25.98.82ZM388.5,166.75c-4.54,14.35-24.31-12.26-31.61-9.26l-64.55,44.05-4.59,1.86-70.14-16.77-2.03-1.55,20.35-7.2,50.52,11.46,71.83-48.02c1.96-.21,3.52.81,5.12,1.72,5.12,2.91,13.36,9.19,18.16,12.97,3.5,2.76,8.63,5.36,6.93,10.73Z"/>
  <path d="M61.67,220.7c14.86-13.98,13.23-38.4-4.74-49.04-30.27-17.92-62.83,21.46-36.08,48.86.93.96,4.26,2.65,4.51,3.08,1.34,2.35.78,10.36,2.41,13.96.8,1.76,3.95,4.62,5.78,5.4,4.53,1.94,19.82.22,23.91-2.43,7.42-4.82,5.47-12.43,4.22-19.83ZM38.73,228.19l11.57-.79v3.18c-3.5-.58-13.15,3.66-11.57-2.39ZM43.43,216.12c-23.67,2.43-27.84-32.58-5.31-36.45,24.9-4.28,29.49,33.96,5.31,36.45Z"/>
</svg>