<?xml version="1.0" encoding="UTF-8"?>
<svg id="OBJECTS" xmlns="http://www.w3.org/2000/svg" viewBox="0 0 56.75 43.25">
  <defs>
    <style>
      .cls-1 {
        fill: none;
        stroke: #c6e0ff;
        stroke-miterlimit: 10;
      }

      .cls-2 {
        fill: #c6e0ff;
        opacity: .6;
      }
    </style>
  </defs>
  <path class="cls-1" d="M12.71,36.64c0,3.37-2.73,6.11-6.11,6.11s-6.11-2.73-6.11-6.11,2.73-6.11,6.11-6.11,6.11,2.73,6.11,6.11Z"/>
  <g>
    <path class="cls-2" d="M50.41,5.29c.29,10.68-9.43,21.47-20.26,21.47-3.13,0-6.08-.55-8.76-1.57,2.65,6.7,9.16,11.44,16.8,11.44,9.98,0,18.07-8.09,18.07-18.07,0-5.26-2.26-9.98-5.84-13.28Z"/>
    <path class="cls-1" d="M38.18,36.64c-9.98,0-18.07-8.09-18.07-18.07S28.2.5,38.18.5s18.07,8.09,18.07,18.07"/>
  </g>
</svg>