<?xml version="1.0" encoding="UTF-8"?>
<svg id="OBJECTS" xmlns="http://www.w3.org/2000/svg" viewBox="0 0 78.53 95.72">
  <defs>
    <style>
      .cls-1 {
        fill: none;
        stroke: #c6e0ff;
        stroke-miterlimit: 10;
      }

      .cls-2 {
        fill: #c6e0ff;
        opacity: .6;
      }
    </style>
  </defs>
  <g>
    <path class="cls-2" d="M50.21,7.79c.02.19.06.36.08.55,1.15,11.08-8.92,22.75-20.19,22.75-.32,0-.63-.03-.94-.04,2.36,7.23,9.15,12.45,17.17,12.45,9.98,0,18.07-8.09,18.07-18.07,0-8.65-6.08-15.87-14.19-17.64Z"/>
    <path class="cls-1" d="M58.05,39.18c-3.16,2.69-7.25,4.32-11.72,4.32-9.98,0-18.07-8.09-18.07-18.07S36.35,7.36,46.33,7.36c6.24,0,11.74,3.16,14.98,7.97"/>
  </g>
  <path class="cls-1" d="M78.03,11.04c0,3.37-2.73,6.11-6.11,6.11s-6.11-2.73-6.11-6.11,2.73-6.11,6.11-6.11,6.11,2.73,6.11,6.11Z"/>
  <path class="cls-1" d="M44,6.61c0,3.37-2.73,6.11-6.11,6.11s-6.11-2.73-6.11-6.11,2.73-6.11,6.11-6.11,6.11,2.73,6.11,6.11Z"/>
  <g>
    <path class="cls-2" d="M6.14,88.36c-1.85,0-3.62-.21-5.32-.57,1.09,4.27,4.95,7.43,9.56,7.43,5.45,0,9.88-4.42,9.88-9.88,0-1.06-.17-2.07-.48-3.03-3.68,3.65-8.53,6.05-13.64,6.05Z"/>
    <path class="cls-1" d="M10.38,95.22c-5.45,0-9.88-4.42-9.88-9.88s4.42-9.88,9.88-9.88,9.88,4.42,9.88,9.88"/>
  </g>
</svg>