<?xml version="1.0" encoding="UTF-8"?>
<svg id="Ebene_1" data-name="Ebene 1" xmlns="http://www.w3.org/2000/svg" viewBox="0 0 328.98 335.72">
  <path d="M56.78.33c9.13-1.25,16.48,1.08,23.39,6.91,14.16,16.18,29.34,31.72,43.04,48.28,10.34,12.5,15.3,23.09,8.73,39.44-6.45,16.06-22.93,17.72-21,38.7.99,10.8,7.46,19.83,13.52,28.4,15.11,21.37,53.16,64.34,81.75,61.06,14.51-1.66,18.94-19.76,37.51-21.62,13.48-1.35,21.33,2.26,31.07,10.84,15.86,13.97,30.41,30.23,46.38,44.2,28.26,31.65-27.08,76.53-56.5,78.94-49.98,4.09-112.48-42.26-148.58-73.71C71.09,222.57-.07,135.89,0,73.87.03,45.56,27.64,4.32,56.78.33ZM59.05,12.32c-15.19,1.46-37.23,26.21-42.53,39.82-14.82,38.1,15.61,89.59,36.83,120.39,26.97,39.14,58.49,71.79,96.08,100.78,30.87,23.8,88.93,62.99,128.85,45.82,15.93-6.85,50.69-35.08,33.95-54.41-16.77-13.29-32.1-33.55-48.73-46.33-10.06-7.73-21.12-6.38-30.64,1.43-2.87,2.36-5.3,5.91-8.29,8.18-36.95,28.01-90.23-30.95-109.83-58.46-11.99-16.83-22.08-35.91-12.02-56.66,4.72-9.74,15.21-13.85,18.66-24.01,3.51-10.35-.13-16.58-6.39-24.38-13.15-16.37-29.02-31.83-42.66-47.91-3.55-3.4-8.47-4.73-13.27-4.27Z"/>
</svg>