<svg width="36" height="36" viewBox="0 0 36 36" fill="none" xmlns="http://www.w3.org/2000/svg">
<g clip-path="url(#clip0_25_62)">
<path d="M6.0625 0.0354844C7.03732 -0.0979801 7.8221 0.150798 8.55989 0.773276C10.0718 2.50084 11.6926 4.16007 13.1553 5.92821C14.2594 7.26286 14.7889 8.39357 14.0875 10.1393C13.3988 11.854 11.6392 12.0313 11.8453 14.2713C11.951 15.4245 12.6418 16.3886 13.2888 17.3037C14.9021 19.5854 18.9648 24.1733 22.0174 23.8231C23.5666 23.6459 24.0396 21.7133 26.0224 21.5147C27.4617 21.3706 28.2998 21.756 29.3398 22.6721C31.0332 24.1637 32.5867 25.8998 34.2919 27.3914C37.3092 30.7708 31.4005 35.5627 28.2593 35.82C22.9228 36.2567 16.2496 31.3078 12.3951 27.9499C7.5904 23.7644 -0.0074685 14.5094 5.50995e-06 7.88747C0.00320866 4.86477 2.95117 0.461503 6.0625 0.0354844ZM6.30487 1.31568C4.68301 1.47156 2.32976 4.11416 1.76387 5.56732C0.181517 9.63532 3.43058 15.133 5.69627 18.4216C8.5759 22.6006 11.9413 26.0867 15.9549 29.182C19.2509 31.7232 25.4501 35.9075 29.7124 34.0743C31.4133 33.3429 35.1247 30.3287 33.3373 28.2648C31.5468 26.8458 29.9099 24.6826 28.1343 23.3181C27.0602 22.4928 25.8793 22.6369 24.8628 23.4708C24.5564 23.7228 24.297 24.1018 23.9777 24.3442C20.0325 27.3349 14.3437 21.0396 12.251 18.1023C10.9708 16.3053 9.89347 14.2681 10.9676 12.0526C11.4715 11.0127 12.5916 10.5738 12.9599 9.48904C13.3347 8.38396 12.9461 7.71877 12.2777 6.88595C10.8736 5.1381 9.17916 3.48741 7.7228 1.77052C7.34376 1.4075 6.81844 1.26549 6.30594 1.31461L6.30487 1.31568Z" fill="#004282"/>
</g>
<defs>
<clipPath id="clip0_25_62">
<rect width="35.1257" height="35.8454" fill="white"/>
</clipPath>
</defs>
</svg>
