<?xml version="1.0" encoding="UTF-8"?>
<svg id="OBJECTS" xmlns="http://www.w3.org/2000/svg" viewBox="0 0 138.49 199.88">
  <defs>
    <style>
      .cls-1 {
        fill: #8698c8;
      }
    </style>
  </defs>
  <path class="cls-1" d="M138.27,129.38c-.03-.17,0-.38-.22-.46-.04-.47-.37-.7-.74-.91-1.28-.74-2.55-.51-3.84-.03-2.83.63-4.98,2.41-7.05,4.28-2.29,2.06-4.02,4.62-6.01,6.96-1.34,1.57-2.87,2.84-4.77,3.49-2.49.86-4.53-.87-4.68-3.34-.12-2.03.81-3.64,1.93-5.2,1.12-1.56,2.43-2.99,3.3-4.74.77-1.54.67-4.95-.68-5.97-.08-.07-.15-.15-.23-.22-1.06-.84-2.21-.89-3.42-.39-.38-.05-.65.15-.91.38-.61.09-.89.68-1.39.93-.99.36-1.44,1.29-1.99,2.05-1.32,1.83-1.98,3.97-2.49,6.15-.85,3.85-1.12,7.81-2.27,11.59-.15.31-.3.61-.46.92-.02.15-.04.29-.05.44.14.03.21.09.26.15-.09-.04-.18-.09-.26-.15-.32.41-.59.84-.67,1.36-.16.22-.31.44-.47.67-.75.99-1.51,1.98-2.26,2.97-.48,0-.69.35-.91.69-.76.32-1.52.63-2.28.95-.34-.11-.63,0-.89.23-.77-.11-1.57.11-2.32-.22-1.62-.49-2.98-1.32-4.13-2.63-1.23-1.4-1.91-3.04-2.64-4.69.08-.42-.24-.74-.28-1.12-.3-1.58-.47-3.18-.45-4.79,0-.39.41-.7.22-1.12.07-1.17.38-2.3.68-3.43.09-.44.19-.89.28-1.33,1.47-3.83,3.61-7.22,6.64-10.02,0,0,0,0,0,0,1.57-1.56,3.38-2.82,5.18-4.08h0c.3-.24.74-.27.91-.68.32,0,.55-.16.68-.45,1.37-.54,2.61-1.33,3.85-2.11h0s0,0,0,0c5.67-2.83,11.59-5.17,17.02-8.49,1.93-1.18,3.93-2.3,5.52-3.96.41-.26.91-.42,1.12-.93.76-.6,1.43-1.29,2.06-2.03.49-.4.99-.8,1.31-1.37.86-.99,1.62-2.06,2.27-3.2.26-.52.64-.98.73-1.58h0c.5-.68.75-1.45.93-2.26.13-.46.26-.92.39-1.37.59-1.67.59-3.4.46-5.12-.24-3.16-2.37-6.1-5.77-6.1-2.12,0-3.72.55-4.41,2.97-.58,2.02-.94,4.11-1.39,6.17-.37.2-.16.67-.42.93-.47,1.2-.94,2.41-1.41,3.61-.27.24-.42.55-.47.9-.19.41-.66.65-.69,1.15-.23.38-.45.77-.68,1.15-.37.53-.75,1.05-1.12,1.58-.24.07-.21.28-.24.47-.5.36-.91.87-1.58.95-.59,0-1.02-.28-1.36-.75-.21-.25-.26-.56-.28-.87-.07-.31-.15-.61-.22-.92.26-.96.51-1.93.8-2.89.25-.85.29-1.73.02-2.54-.52-1.61-2.56-1.87-3.99-.57-2.51,2.29-2.89,5.41-3.35,8.51-.66,2.51-.93,5.13-2.11,7.49-1.16,2.22-2.72,4-5.22,4.76-1.69.23-3.26-.13-4.75-.91-.86-.89-1.67-1.8-1.61-3.16.02-.52-.02-1.05-.03-1.57,0-.15,0-.31,0-.46.47-.56.16-1.24.29-1.85.5-2.45-1-4.43-3.43-4.54-.1-.22-.28-.2-.46-.17-.15,0-.3,0-.44,0-.72.38-1.66,0-2.31.64-.17.02-.36,0-.44.22-.33.01-.56.17-.69.47-.73.17-1.08.75-1.43,1.33-.6,1.01-.97,2.1-1.25,3.22-.24,2.09-.22,4.16.18,6.23.03.17.07.43-.13.5-.14.05-.37-.04-.51-.13-.81-.56-1.51-1.25-2.07-2.06-1.39-1.97-1.72-4.26-1.86-6.59l.68-3.87s0,0,0,0h0c.47-1.05.94-2.1,1.41-3.15.72-1.31,1.68-2.48,2.27-3.87.99-1.11,1.85-2.31,2.52-3.65-.11,0-.19-.03-.26-.08.08.02.17.04.26.08.08-.08.15-.15.23-.23.15-.22.29-.44.44-.66.79-1.08,1.49-2.21,2-3.45.22-.45.45-.9.67-1.35.5-1.43,1.2-2.8,1.37-4.34.38-.38.22-.88.28-1.33.43-1.34.64-2.71.62-4.12,0-.53,0-1.05,0-1.58.16-2.56-.12-5.06-.85-7.52-.1-1.05-.47-2.01-.92-2.95-.23-.96-.61-1.83-1.37-2.5-1.44-1.69-3.24-2.02-5.05-.92-.17.02-.37-.02-.43.22-.17.07-.36.11-.5.21-2.2,1.67-2.91,3.99-2.87,6.63.23,1.67.46,3.35.69,5.02h0c.08.52.15,1.05.23,1.57h0c.37.8,0,1.73.44,2.51,0,.3,0,.6,0,.91-.1,1.52.06,3.05-.23,4.56-.02.37-.04.75-.05,1.12h0c-.6,2.27-1.21,4.54-1.81,6.81-.12.18-.32.34-.36.53-.2,1.07-.65.67-1.08.19-.24-.27-.45-.6-.59-.93-.46-1.09-.65-2.26-.93-3.4-.56-2.29-1.57-3.98-4.53-3.36-.15.07-.3.14-.45.22-.44-.13-.59.34-.9.46h0s0,0,0,0c-.08.06-.17.11-.25.17,0,0,0,0,0,0-.08.08-.15.15-.23.23-.57.35-.9.88-1.16,1.48-.79,1.85-.52,3.68.11,5.48.99,2.85,2.71,5.39,3.6,8.29-.18,1.06.18,2.15-.23,3.19-.17.53-.35,1.06-.52,1.58h0c-.32.41-.46.91-.71,1.36-1.19,2.13-2.3,4.29-2.22,6.85.11,3.34,1.54,6.19,3.19,8.98,1.96,3.31,4.26,6.43,5.46,10.15.41,1.27.77,2.56,1.16,3.84-.02.47-.14.95.25,1.34-.18,1.24.33,2.44.23,3.68,0,.37-.01.74-.02,1.1-.06,1.23-.2,2.45-.45,3.66-.06.38.02.78-.23,1.12-.23,1.25-.54,2.48-1.16,3.6-.95,1.73-2.22,2.23-4.12,1.67-1.68-.59-2.88-1.76-3.55-3.36-.87-2.1-.61-4.36-.45-6.55.2-2.69.52-5.41-.6-7.94-1.14-2.57-3.18-3.66-6.09-2.91-2.18.59-3.67,2.01-4.51,4.04-1.32,3.18-.61,6.31.44,9.41.62,1.84,1.57,3.57,1.93,5.48.25,1.37.33,2.78-.35,4.08-.2.39-.41.81-.98.26-2.34-2.23-4.16-4.79-5.41-7.79-1.56-3.72-1.96-7.65-2.27-11.6.01-.45.03-.9.04-1.35.42-1.18.17-2.44.41-3.65,0-.22,0-.44,0-.66.3-1.3.6-2.6.9-3.89.15-.52.31-1.04.46-1.56.4-1.44.81-2.88,1.21-4.32,0,0,0,0,0,0h0c.05-.08.11-.17.16-.25.04-.39.36-.71.27-1.13.57-.55.6-1.34.87-2.02,1.92-4.9,3.84-9.79,5.64-14.73.79-2.16,1.59-4.34,1.9-6.65.36-.23.16-.6.22-.91.29-.41.33-.9.41-1.37.3-1.53.61-3.06.91-4.59.08-.44.16-.89.24-1.33.36-2.64.8-5.28.72-7.96.4-.41.17-.9.18-1.36.11-2.81-.05-5.63.24-8.44.25-2.38.62-4.71,1.64-6.91.66-1.43,1.66-2.64,2.48-3.97.52-.39.97-.84,1.36-1.36.15-.15.31-.31.46-.46.08-.08.15-.15.23-.23l-.79-.32c.27-.28.53.13.79.32,1.21-1.06,2.43-2.12,3.64-3.18,2.44-1.89,4.96-3.66,7.28-5.7,1.6-1.5,3.41-2.78,4.72-4.56.31-.33.61-.66.92-.99,1.54-1.65,3-3.37,4.14-5.34,1.77-2.32,3.1-4.89,4.06-7.64.61-1.76.97-3.59-.22-5.31-.14-.17-.29-.34-.43-.51-.29-.88-1.05-1.12-1.83-1.31-.38,0-.76,0-1.14,0-.43-.13-.82.03-1.19.21-1.88.89-3.28,2.33-4.51,3.96-2.23,2.94-3.64,6.38-5.69,9.43-.68,1.25-1.84,2.1-2.72,3.19-.15.15-.29.29-.44.44-.78.44-1.53.94-2.34,1.29-.51.22-1.04.48-1.7.13-1.2-.63-1.84-1.95-1.58-3.36.24-1.28.61-2.51,1.1-3.71.41-.46.59-1.05.85-1.59.63-1.18,1.31-2.33,1.66-3.63.4-.47.59-1.05.84-1.6.27-.52.63-.99.75-1.58.32-.41.58-.86.68-1.37.66-.89.96-1.94,1.36-2.95.41-.46.59-1.05.85-1.59,1.15-2.37,2.22-4.77,2.05-7.51.1-1.78-.34-3.39-1.56-4.74-1.4-2.11-4.11-3.04-6.83-1.65,0,0,0,0,0,0-2.37,1.06-4.13,2.79-5.46,4.99-.87,1.09-1.48,2.31-1.84,3.66-.35.22-.15.66-.39.92h0c-.58,1.63-.93,3.31-1.14,5.01-.02.29-.03.58-.05.88-.45.74-.13,1.54-.17,2.31h0c.04.33-.38.54-.23.9,0,1.29,0,2.58,0,3.86.03,1.07-.29,2.16.23,3.2,0,.37,0,.75,0,1.12-.08,2.21-.07,4.42-.23,6.62-.2,2.86-.73,5.64-1.72,8.32-.56,1.51-1.99,2.52-3.1,1.93-.44-.25-.88-.49-1.33-.74-.96-.92-1.63-2.05-2.28-3.19-.17-.44-.35-.88-.52-1.32-.37-1.52-.75-3.04-1.12-4.57,0,0,0,0,0,0,0,0,0,0,0,0-.08-.59-.22-1.16-.64-1.6-.23-1.18-.98-2.11-1.75-2.91-1.11-1.14-2.42-2.08-4.15-2.05-1.94,0-3.55,1.59-3.89,3.36-.07.12-.19.23-.21.36-.36,2.24-.38,4.48.03,6.72.07.22.15.44.22.66.35,1.44.96,2.78,1.59,4.11h0c.15.35.24.73.61.92.58,1.59,1.61,2.92,2.52,4.33.25.28.27.74.67.9.2.72.76,1.22,1.16,1.82,1.21,2.01,2.56,3.96,3.6,6.06,2.27,4.59,3.62,9.46,3.72,14.63,0,.37,0,.74,0,1.11-.04,1.83.03,3.67-.52,5.45-.33.22-.16.66-.4.92-.41,1.31-1.16,2.41-2.11,3.39-.22.16-.44.32-.66.48-1.05.52-2.09.87-3.33.51-2.88-.85-4.43-3.58-4.6-6.4-.21-3.24.42-6.41,1.09-9.56.52-2.45,1.44-4.79,1.82-7.28.01-.68.03-1.36.03-2.04,0-2.85-1.17-4.5-3.88-5.44-2.81-.39-3.69.74-4.49,3.1-.47,1.38-.59,2.88-1.21,4.23-.72,1.57-2.34,2.39-4.04,1.25-.38-.3-.75-.6-1.13-.9-.48-1.16-1.05-2.3-.98-3.62.4-.62.11-1.4.46-2.03.43-1.83.91-3.66,1.28-5.5.68-3.44,1.23-6.89.99-10.42.33-.52.42-1.05.07-1.6-.02-.53-.05-1.06-.07-1.6h0c0-.68,0-1.36,0-2.04.19-.83-.15-1.63-.23-2.44-.14-1.39-.13-2.82-.67-4.15.04.17.04.31.01.43.01-.14.01-.29-.01-.43.14-.81-.26-1.53-.43-2.28-.67-3.06-1.79-5.92-4.39-7.89-2.16-1.64-4.57-2.22-7.21-1.22-.86.2-1.48.77-2.04,1.39-1.98,2.2-1.84,4.94-1.5,7.52.41,3.11,2.01,5.87,3.52,8.61.7,1.82,1.29,3.66,1.61,5.59.23,1.38-.62,2.52-2.03,2.33-1.15-.15-2.27-.58-3.4-.89-.09-.06-.18-.08-.26-.08-.76-.25-1.51-.22-2.26.13-1.6.61-2.74,1.67-3.21,3.36-.23.07-.18.29-.23.46h0c-.41,1.56-.41,3.1.27,4.6,1.33,2.92,3.69,4.82,6.35,6.44,2.28,1.39,4.72,2.52,6.82,4.21.29.23.59.47.88.7.88.98,1.7,2.02,2.35,3.17.14.37.29.74.43,1.12.31.88.48,1.77.43,2.7-.07,1.48-.62,1.87-2.07,1.44-.25-.16-.49-.33-.76-.46-1.17-.56-1.64-1.82-2.58-2.62-.97-.82-2.54-.9-3.23-.27-1.03.94-1.47,3.09-.89,4.45-.07,1.28.42,2.38,1.07,3.42,0,0,0,0,0,0,.2.72.6,1.31,1.14,1.82h0s0,0,0,0c.04.17.02.37.23.46.91.92,1.83,1.83,2.74,2.75,1.35,1.1,2.73,2.16,4.31,2.94.53.3,1.06.61,1.59.91.25.27.56.41.91.48.38.22.76.44,1.15.65,3.76,1.92,7.51,3.86,10.38,7.08,1.62,1.82,2.83,3.82,2.61,6.43-.1,1.18-.52,2.24-1.3,3.01-1.15,1.14-2.69.93-3.97-.76-1.41-1.86-2.66-3.85-4.3-5.54-.23-.22-.46-.45-.69-.67-.21-.39-.53-.68-.9-.92-.3-.23-.6-.46-.89-.69-1-1.15-2.21-2.05-3.44-2.94-.07-.08-.14-.16-.21-.23-1.06-.84-2.12-1.68-3.18-2.52-.23-.15-.45-.3-.68-.45-1.09-.96-2.13-1.99-3.42-2.71-.31-.46-.68-.85-1.14-1.15-.22-.23-.44-.46-.66-.7-.08-.07-.16-.15-.24-.22-.63-.28-.75-1.06-1.36-1.36h0c-1.42-1.43-2.51-3.1-3.63-4.76h0c-1.93-3.47-2.44-7.3-2.72-11.16-.18-2.46-.38-4.89-.94-7.3-.6-2.6-1.73-4.9-3.63-6.8-.53-.4-1.03-.84-1.58-1.19-2.45-1.54-4.85-.78-5.71,1.66-.44,1.04-.59,2.1-.33,3.22.44,1.87,1.54,3.34,2.73,4.77,1.1,1.31,2.23,2.59,2.86,4.21.62,1.61,1.15,3.23-.13,4.86-1.35-1.41-2.96-2.11-4.9-2.01-.41-.07-.8-.06-1.15.22-1.91.16-3.14,1.22-3.9,2.92h.08s0,.02.01.03c-.03-.01-.06-.02-.1-.03-.34.11-.05.6-.42.69v3.64c.47,1.4,1.03,2.75,2.03,3.87,0,0,0,0,0,0,2.56,3.08,6.19,4.23,9.8,5.41,1.84.8,3.7,1.58,5.45,2.57,1.64,1.41,3.22,2.87,4.31,4.78.17.29.34.57.51.86.66,1.23,1.33,2.45,1.99,3.68.03.49.49.74.67,1.14.78,1.65,1.79,3.13,3.19,4.32.16.41.62.43.9.68,1.02.88,2.16,1.57,3.41,2.05.54.22,1.07.45,1.61.67.36.44.93.43,1.39.64.45.23.89.46,1.34.69,1.49.78,2.92,1.62,4.2,2.73,2.08,1.81,3.3,4.18,4.43,6.62.03.17.02.37.22.46h0c.06.25.11.5.18.75.54,1.92,1.03,3.85,1.23,5.84-.13.35.28.56.23.89.08,1.37.15,2.74.23,4.11,0,.3,0,.59,0,.89.07.69.15,1.37.22,2.06,0,.45,0,.9.01,1.35,0,1.24-.06,2.48-.27,3.71-.45,2.69-1.61,5.08-4.32,5.88-1.43.42-2.66.19-3.7-.9-1.9-1.98-2.17-4.54-2.41-7.06-.21-2.26.17-4.48.78-6.67.67-2.43,1.53-4.84,1.03-7.45-.47-2.41-1.85-4.52-4.78-4.35-2.82.16-3.47,2.31-3.1,4.06.16.77.39,1.52.55,2.28.35,1.64-.57,3.11-2.02,3.26-.65-.04-.83-.73-1.33-.96-.17-.44-.35-.88-.52-1.32-.23-.69-.46-1.38-.68-2.08-.07-.45-.15-.9-.22-1.35-.49-1.34-.52-2.79-1.08-4.11-.1-.67-.19-1.35-.29-2.02h0c-.29-1.14-.58-2.27-.87-3.41-.57-2.27-1.12-4.56-2.26-6.64-.09-.14-.18-.29-.28-.43.08-.98-.7-1.54-1.09-2.3-.61-1.37-1.57-2.49-2.5-3.64-2.35-2.64-5.17-4.48-8.72-4.93-1.19-.15-2.45.07-3.35,1.09-1.24.72-1.47,1.98-1.56,3.21-.25,3.26,1.08,5.98,3.14,8.4,0,0,0,0,0,0,.23.23.45.45.68.68h0c1.35,1.54,2.85,2.93,4.34,4.33.88,1.18,2.07,2.06,3,3.2,1.2,1.45,1.91,3.18,2.9,4.74.02.44.3.76.5,1.12.36,1,.72,2,1.08,2.99,0,.32.05.62.29.86.3,1.08.61,2.15.91,3.23-.03.18-.04.35.16.45h0c.12,1.2.62,2.3.94,3.45.88,3.06,2.01,6.03,3.68,8.77,2.9,4.74,7.19,7.98,11.8,10.88,4.17,2.63,8.56,4.91,12.54,7.84,2.4,1.77,4.66,3.68,6.12,6.36,0,0,0,0,0,0,0,0,0,0,0,0,.24.58.04,1.26.4,1.81-.04.23-.3.42-.17.69-.1,1.92-1.71,3.97-4.34,3.61-2.44-.93-3.92-2.76-4.86-5.13-.83-2.09-1.54-4.24-2.91-6.09-1.21-1.63-4.98-2.57-6.6-.86-.36.23-.63.53-.76.94-.26.81-.11,1.64-.11,2.46,0,.57-.15.98-.56,1.4-.77.79-1.58.41-2.4.23-.23-.16-.45-.32-.68-.47-1.63-2.61-1.61-5.66-2.28-8.52-.6-2.55-1.16-5.11-2.5-7.4,0,0,0,0,0,0,0,0,0,0,0,0-.11-.45-.23-.89-.7-1.12h0c-.06-.17-.09-.36-.19-.5-1.53-2.08-3.43-3.73-5.74-4.91-.21-.12-.37-.32-.65-.28-.95-.61-1.87-1.26-2.97-1.6-.14-.29-.36-.46-.69-.45h0c-1.3-.88-2.51-1.87-3.63-2.96-.37-.32-.44-.88-.9-1.13-1.96-2.81-2.6-5.98-2.79-9.34-.08-1.46-.45-2.96-1.85-3.84-1.79-1.12-3.59-.92-5.37.05-1.1.75-1.86,1.73-2.36,3.01-.84,2.16-.98,4.36-.59,6.58.79,4.55,3.01,8.36,6.32,11.55.32.44.69.83,1.15,1.13,1.25,1.27,2.6,2.41,4.11,3.36.4.19.55.76,1.1.74.98,1.06,2.29,1.65,3.44,2.46.45.3.89.6,1.34.9,1.42,1.1,2.98,2.02,4.31,3.25.38.38.76.76,1.14,1.13,0,.29.22.46.36.68,1.42,2.25,1.49,4.89-.8,6.78h0c-.67.21-1.3.6-2.05.52-.29,0-.59,0-.88,0-1.52-.39-2.9-1.07-4.12-2.06-.21-.17-.43-.34-.64-.51-.45-.39-.88-.8-1.34-1.17-1.67-1.35-3.37-2.66-5.71-2.44-1.38.13-2.68.5-3.34,1.86-.65,1.35-.43,2.69.38,3.94,1.7,2.65,3.96,4.73,6.6,6.42.37.23.74.46,1.11.7l2.04.97c.67.51,1.43.8,2.26.89.4.31.87.43,1.36.47.87.4,1.81.51,2.75.62.47.09.95.22,1.42.26,3.77.27,7.5-.3,11.22-.74,2.82-.33,5.5,0,8.2.69,2.3.59,4.35,1.74,6.44,2.8,0,0,0,0,0,0,1.13.9,2.26,1.81,3.4,2.71,0,0,0,0,0,0,.15.43.64.47.91.78,1.69,1.91,3.17,3.97,4.32,6.26.04.49.45.77.69,1.15.6,1.44,1.21,2.88,1.81,4.32.19.96.61,1.83.97,2.73.08.14.16.29.24.43,1.58,4.2,3.59,8.05,8.16,9.75.22.09.56-.11.66.26h3.87c.04-.06.06-.16.11-.17.49-.13.95-.3,1.4-.47.06,0,.12,0,.17-.01.17-.05.28-.12.34-.21,3.3-1.49,5.47-4.22,7.09-7.54h0c.41-.45.57-1,.62-1.58.54-1.09.8-2.27,1.14-3.42.3-1.44.61-2.89.91-4.33.1-.44-.08-.94.23-1.35.28-1.71.64-3.41,1.1-5.08.57-2.11,1.48-4.09,2.38-6.07.32-.11.46-.34.46-.67.19-.11.38-.22.39-.48,0,0,0,0,0,0h0c.1-.15.19-.29.29-.44-.15-.01-.43-.02-.43-.05,0-.03-.01-.06-.02-.09.15.03.3.07.45.13,1.1-1.4,2.13-2.88,3.48-4.06,1.71-1.49,3.45-2.95,5.37-4.16h0s0,0,0,0c.31-.22.61-.43.92-.65.99-.6,1.98-1.2,2.97-1.8.5-.13.96-.34,1.34-.7,1.14-.38,2.19-.94,3.21-1.57.52-.11.96-.36,1.36-.7,1.58-.7,3.24-1.24,4.75-2.09.14.04.2-.04.23-.16.62-.03,1.12-.32,1.59-.69.36-.06.68-.19.92-.47.07,0,.14-.02.21-.05.34.12.58-.14.83-.27,2.03-1.03,4.09-2.03,6.07-3.14,3.87-2.18,7.47-4.73,10.39-8.12,1.33-1.47,2.42-3.11,3.33-4.87.69-1.33,1.33-2.69,1.17-4.26,0-.31.17-.66-.17-.91ZM118.64,99.85s.07,0,.1.01c-.03,0-.06,0-.1-.01ZM117.23,100.72c.02-.06.05-.11.07-.17.03,0,.06,0,.09,0-.05.06-.11.1-.16.17ZM128.56,93.94c-.07.07-.14.14-.21.19,0-.11.09-.15.21-.19ZM132.56,89.6s.05,0,.08,0c0,0-.01.02-.02.03-.02,0-.04-.01-.06-.02ZM114.83,98.47s-.02-.02-.03-.04c0,0,0,0,0,0,0,0,0,0,0-.01.01.01.02.02.03.03,0,0,0,0,0,0,0,0,0,0,0,.01ZM108.74,106.27c-.04-.08-.08-.14-.12-.2.15.05.18.12.12.2ZM68.56,46.48s.01-.08.03-.11c0,.05,0,.09-.03.11ZM63.63,53.7s0-.02,0-.03c0-.03.04-.03.09-.03-.03.02-.06.04-.09.06ZM67.29,54.8s-.02.05-.03.07c-.04-.03-.07-.05-.11-.09.04,0,.09,0,.14.02ZM70.01,20.43c0-.06,0-.11,0-.17.03,0,.05.02.08.03-.03.05-.05.1-.08.14ZM78.51,42.61s0,0,0,0c0,0,0,0,.02,0,0,0-.01,0-.02,0ZM79.57,40.3s-.04-.01-.07-.02c.03-.01.06-.03.08-.03,0,.02-.01.03-.02.05ZM91.36,28.99s-.08,0-.13-.02c.05,0,.09,0,.13.02ZM89.8,25.47s.02,0,.02,0h0s0,0,0,0c0,.01,0,.02,0,.03,0,0,0-.02-.01-.03ZM82.66,40.41c-.11.03-.22.06-.32.09.09-.13.2-.14.32-.09ZM87.07,37.76s.01-.02.02-.02c0,0,0,0,0,.01,0,0,0,0,0,0,0,0-.01,0-.02.01ZM78.79,5.23s-.01-.03-.02-.05c.02.01.04.02.06.03-.01,0-.02.01-.03.02ZM80.78,4.86s-.03-.02-.04-.03c.03,0,.05-.02.08-.02-.02.02-.03.03-.05.05ZM69.37,11.47s.04.04.07.06c-.03,0-.04.04-.07.06v-.12ZM69.78,19.96s0,.05.01.07c-.05-.01-.09-.03-.13-.05.04,0,.08-.01.12-.02ZM68.06,24.04s-.07-.04-.09-.1c.03.04.06.07.09.1ZM36.38,33.2s0,0,0,0c0,0,0,0,0,0,0,0,0,0,0,0,0,0,0,0,0,0ZM15.3,75.47c.05.03.11.06.16.09-.11,0-.16-.03-.16-.09ZM14.54,80.73s0,0,0-.01c0,0,0,0,0,0,0,0,0,0,0,0,0,0,0,0,0,0ZM20.01,81.17s0,0,0,0c0,0,0,0,0,0,0,0,0,0,0,0ZM23.56,79.87c-.14.29-.22.29-.29.2.31-.19.3-.29.05-.67.23.04.4.14.24.47ZM8.35,49.04s-.01,0-.02,0c0,0,0,0,.01-.01,0,0,0,0,0,.01ZM45.99,62.66s0,0,0,0c0,0,0-.01,0-.02,0,0,0,0,0,.02ZM45.57,65.51s0-.01,0-.02c0,0,0,.01,0,.02ZM46.54,61.21s-.08-.05-.12-.08c.04,0,.09,0,.14.04,0,.02,0,.03-.01.05ZM35.67,71.41s.06.03.09.05c-.04,0-.07.02-.1.02,0-.02,0-.05.01-.07ZM26.2,71.75s0,.05,0,.07c0-.02,0-.05,0-.07ZM21.36,99.76s0,0,0,0c0,0-.02,0-.02,0,0,0,0,0,0,0,0,0,0,0,0,0,.01,0,.01,0,.02,0ZM17.35,95.27s-.03.02-.04.03c0-.02-.01-.03-.02-.05.02,0,.04.01.06.01ZM12.5,103.48s0,0,0,0c0,0-.02-.02-.03-.03,0,0,.02,0,.03,0,0,0,0,.01,0,.02ZM12.62,95.67s.04.11,0,.24c-.02.1-.08.14-.16.17.08-.09.13-.23.15-.42ZM10.47,98.91s0,0,0,0c0,0,0,0,0-.01,0,0,0,.01,0,.02,0,0,0,0,0,0ZM14.78,163.71s-.05-.02-.08-.03c.03-.01.06-.02.09-.03,0,.02-.01.03-.01.05,0,0,0,0,0,0ZM12.12,136.58s-.05.07-.08.1c.01-.04.02-.08.02-.12.02,0,.04,0,.06.02ZM72.98,165.97s.03,0,.04,0c0,.01-.01.03-.02.04h0s0,0,0,0c0-.02-.01-.02-.02-.04ZM71.17,164.48s-.06.04-.12.05c-.04,0-.06,0-.09,0,.07-.02.14-.04.21-.06ZM65.04,163.95s.02.03.03.04c-.02.02-.04.03-.06.05,0-.03.02-.06.03-.09ZM60.27,174.73s-.03,0-.05-.01c0-.01,0-.03.01-.04.02,0,.03,0,.05-.01,0,.02,0,.05,0,.07ZM57.98,174.89v.02s-.02-.02-.02-.03c0,0,.01,0,.02,0,0,0,0,0,0,.01ZM59.12,178.28s0,0,0,0c0,0,0,0,0,0,0,0-.01,0-.02.01,0,0,0,0,0-.01ZM73.69,168.84s.02.02.03.03c-.02.01-.04.02-.06.04.01-.02.02-.05.03-.07ZM77.75,170.58s0-.02,0-.03c0,0,.01.02.02.02,0,0-.01,0-.02,0ZM84.88,169.07c-.1-.07-.16-.15-.24-.22.11,0,.25-.04.42-.08-.06.11-.11.22-.19.3ZM85.6,168.96s0,0,0,0c0,0,0-.01,0-.02,0,0,.01.01.02.02ZM71.85,168.5h0s0,0,0,0c0,0,0,0,0,0ZM81.52,181.67s.05,0,.08-.01c-.01.04-.02.08-.03.12-.02-.03-.04-.07-.06-.11ZM81.88,164.33s0-.03,0-.05c0,0,.01.02.02.03,0,0-.02.01-.03.02ZM60.24,184.32c-.07.01-.14.02-.22.03.08-.04.15-.08.23-.12,0,.04,0,.07,0,.1ZM88.71,107.51c.08-.09.17-.18.23-.28,0,.26-.1.31-.23.28ZM88.91,109.13s-.02.02-.03.04h0s.02-.02.03-.04h0ZM77.24,95.93s.03.09.04.14c-.03,0-.05,0-.08,0,.01-.05.02-.09.04-.14ZM76.4,96.5s0,.06-.01.09c-.02-.04-.05-.08-.08-.12.03.01.06.02.09.03ZM81.59,95.02c0,.05,0,.1,0,.13-.04,0-.08-.01-.12-.03.05-.04.08-.07.12-.1ZM107.79,138.69s0,0,0,0c0,0,0,.02,0,.02,0,0-.01,0-.02.01,0-.01,0-.02,0-.04h0ZM105.05,150.54s0,0,0,0c0,0,0,0,0,0,0,0,0,0,0,0ZM107.3,128.36s-.02.05-.03.08c-.04-.02-.08-.03-.13-.05.06,0,.11-.02.16-.03ZM105.11,141.82s.02.04.03.06c-.03,0-.07,0-.1,0,.03-.02.05-.04.07-.05Z"/>
</svg>