<?xml version="1.0" encoding="UTF-8"?>
<svg id="Ebene_1" data-name="Ebene 1" xmlns="http://www.w3.org/2000/svg" viewBox="0 0 359.62 383.44">
  <path d="M359.43,367.91c-1.18-21.62-12.69-40.8-32.02-50.69-.71-7.91.41-16.3-.17-24.17-3.73-50.51-65.11-69.5-97.3-31.07v-12.35c8.84-8.48,19.25-15.37,25.3-26.35,4.89-8.86,7.17-19.24,6.97-29.34,16.17-4.86,30.52-20.04,34.12-36.61,2.61-12,2.56-33.72,1.75-46.22-.58-8.92-3.26-17.46-10.58-23.11-1.87-1.45-6.43-3.2-7.28-4.69-1.56-2.73-3.61-14.08-5.36-18.59-2.96-7.61-7.24-15.11-11.83-21.86-1.44-2.11-5.7-6.36-6.34-7.88-1.06-2.53-.56-6.25-1.7-9.52-1.72-4.89-15.01-16.81-19.64-18.53-7-2.6-9.95,3.04-12.34,2.69-10.44-5.42-22.02-7.63-33.49-9.63h-19.46c-5.46.46-14.07,2.55-19.46,4.12-4.83,1.4-9.53,3.27-14.03,5.51-2.4.35-5.34-5.29-12.34-2.69-4.63,1.72-17.92,13.64-19.64,18.53-1.15,3.26-.64,7.01-1.7,9.53-.98,2.33-6.78,8.43-8.73,11.48-5.04,7.86-8.96,16.7-11.86,25.56-.98,2.98-1.66,9.08-2.93,11.29-.88,1.52-5.39,3.24-7.28,4.69-7.44,5.75-9.99,14.03-10.58,23.11-.81,12.51-.86,34.22,1.75,46.22,3.61,16.64,17.94,31.66,34.11,36.63-1.42,25.04,14.27,41.24,32.29,55.66v14.6l-6.34-7.51c-14.39-13.61-36.23-19.02-55.2-12.49-4.17,1.44-8.47,2.41-8.12,7.63.64,9.62,14.35,1.82,19.97,1.23,16.26-1.72,32.91,5.65,41.6,19.6,2.2,3.54,7.14,14.69,6.14,18.52-1.85,7.08-19.87,8.34-25.97,9.6-8.04-8.27-11.8-24.52-26.89-19.9-11.95,3.66-13.65,17.54-6.58,26.72l-25.45,5.25v-24.33c0-.68,2.16-7.36,2.63-8.6,1.66-4.36,6.82-9.64,5.04-14.04-2.84-6.99-8.9-2.27-11.72,2.11-9.57,14.88-7.72,32.69-8.04,49.6-13.5,8.24-24.61,21.02-28.42,36.7-1.39,5.7-5.35,27.12,2.14,28.77,10.59,2.34,7.17-13.72,7.7-19.68,1.43-16.13,14.12-32.88,29.61-37.8,1.42.04,5.48,7.5,6.44,9.21,4.6,8.19,8.58,18,10.12,27.31.8,4.87.55,14.47,2.13,18.08,2.05,4.68,9.55,3.75,10.67-1.26,1.18-5.28-1.47-19.53-2.89-25.23-1.41-5.66-4.04-12.89-6.54-18.16-2.22-4.68-5.69-8.87-7.62-13.7,6.12.35,14.3-3.68,19.94-3.71,2.88-.02,6.05,7.06,7.39,9.68,9.06,17.67,9.59,29.14,11.67,48.21,1.55,14.23,16.77,5.53,11.15-6.28h149.71c-1.19,4.77-1.93,13.23,4.88,13.52,8.39.36,5.78-11,6.36-16.14.48-4.28,2.99-12.41,2.88-15.76-.15-4.41-4.82-6.86-8.7-5.03-4.01,1.89-2.7,9.3-5.04,12.17h-69.24v-34.06c0-.74,6.5-11.02,7.5-12.71,11.01-1.79,21.19-6.14,30.43-12.26,5.04,4.14,8.12,7.18,14.63,9.09,10.31,3.03,22.26,3.9,32.77,6.53,1.06,1.18-10.9,14.91-.95,17.06,7.58,1.64,9.77-9.75,12.96-14.82l23.17,4.49c.55.47-6.46,11.3-7.14,12.69-3.74,7.59-6.83,17-8.34,25.35-.84,4.65-2.52,14.82-1.57,19.07,1.21,5.41,9.37,5.73,10.91.75,1.36-4.42,1-12.28,1.89-17.57,2.24-13.25,8.47-25.65,15.97-36.47,15.72,4.07,28.78,21.82,30.19,37.74.45,5.1-2.11,18.26,4.3,19.68,8.96,1.99,7.99-9.56,7.68-15.19ZM256.14,53.89c5.85,8.18,10,18.51,11.98,28.44h-11.98v-28.44ZM232.94,19.46c2.92,1.53,11.98,8.53,11.98,11.6v51.27h-11.98V19.46ZM114.67,31.06c0-3.08,9.12-9.93,11.98-11.6v23.58c0,.79,3.44,3.35,4.86,3.44,11.6.77,3.49-21.08,7.11-25.16.98-1.11,12.08-5.28,14.26-5.95,22.42-6.85,48.47-5.3,68.84,6.71v60.26h-83.84v-16.84c0-2.72-5.41-5.02-8.22-3.73-.39.18-3.01,2.77-3.01,2.98v17.59h-11.98V31.06ZM96.57,66.12l6.87-12.22v28.44h-11.98l5.11-16.22ZM73.59,150.74c-1.49-14.29.78-30.87.08-45.39,1.98-6.18,7.28-11.09,13.89-11.56l181.72-.25c8.2-.11,14.46,4.64,16.76,12.43-1.67,19.34,4.65,42.89-5.63,60.15-16.25,27.28-48.86,16.91-75.38,18.61-3.65-.82-10.06-11.95-14.07-15.12-4.59-3.62-9.88-4.95-15.69-3.84-10.97,2.1-16.27,17.79-21.46,18.96-14.67-.67-31.06,1.44-45.53.19-17.09-1.48-32.91-17.13-34.69-34.18ZM192.04,196.76h-26.36c-.9-2.07-1.34-4.42-.45-6.6.26-.64,7.78-10.24,8.54-10.92,3.08-2.75,5.92-3.51,9.39-1.09,1.53,1.06,9.54,10.38,9.94,11.76.45,1.55.72,6.27-1.06,6.85ZM136.11,299.53c6.97,3.37,13.33,8.37,21.22,9.63-10.22,12.99-31.04,8.42-43.41,1.11,8.63-1.02,16.46-4.04,22.19-10.74ZM140.87,288.94v-29.19l10.26,7.71c2.62,4.87,7.45,9.99,12.83,11.87l-.64,20.09c-8.28-1.87-15.17-6.46-22.45-10.48ZM173.06,358.55h-69.24l-5.61-20.96c19.58,9.6,42.44,14.89,63.38,6.12,4.04-1.69,7.51-4.35,11.47-6.12v20.96ZM183.53,298.29c0,5.67-6.09,17.92-9.75,22.44-24.42,30.17-73.57,13.81-92.66-14.34-2.05-3.03-7.41-9.99-4.7-13.41,1.45-1.46,4.1-1.54,5.74-.36.79.57,6.85,11.1,8.91,13.54,17.18,20.31,55.47,33.51,75.62,10.48,2.7-3.08,8.6-13.8,8.6-17.6v-16.84h8.23v16.09ZM172.68,270.22c-5.9-.66-10.9-4.91-12.72-10.49-1.53-4.69-1.87-21.52-1.08-26.52.33-2.08,1.37-3.52,3.48-4,10.55.61,23.24-1.37,33.54-.17,3.31.39,4.48,1.58,4.87,4.87.69,5.94.5,21.54-1.6,26.87-4.18,10.59-16.65,10.56-26.49,9.45ZM218.72,288.94c-7.68,4.1-15.04,9.39-23.95,10.48v-19.09c5.34-3.27,10.93-7.09,13.7-12.88l10.26-7.71v29.19ZM211.98,250.01v-19.84c0-4.23-7.23-10.84-11.37-11.84-5.35-1.29-34.66-1.31-40.48-.34-4.61.77-12.53,7.52-12.53,12.17v19.84c-16.47-15.34-39.09-27.44-38.92-53.15h44.54c2.04,4.02,4.45,9.6,9.33,10.88,3.44.9,28.66.94,32.41.18,4.11-.84,9.22-6.74,9.53-11.06h46.41c.15,25.64-22.48,37.86-38.92,53.15ZM315.28,312.89l-75.46-15.49c-12.98-4.47-8.9-15.68-3.29-24.7,16.74-26.9,57.17-26.01,73.14,1.25,1.66,2.84,5.6,11.67,5.6,14.61v24.33Z"/>
  <path d="M148.57,175c2.76-.62,10.18-11.56,14.06-14.38,10.26-7.49,25.49-6.6,35.14,1.44,3.55,2.96,8.96,12.15,12.5,12.95,2.3.52,13.83.49,15.98-.18,3.73-1.17,4.6-5.46,2.54-8.61-3.06-4.69-10.36-.76-14.55-2.66-1.29-.59-4.93-6.26-6.45-7.77-18.77-18.77-49.46-14.58-63.18,7.78-1.36.75-27.51.69-31.09.41-8.56-.67-19.06-7.43-19.06-16.87v-31.81h170.67v31.81c0,2.41-3.46,9.36-5.25,11.22-4.34,4.51-14.27,4.45-14.95,9.8-1,7.87,6.82,7.04,11.95,5.16,7.88-2.88,14.78-9.63,17.59-17.59,2.72-7.7,2.92-37.27,1.9-46.04-.32-2.77-1.55-4.61-4.29-5.44l-182.52-.2c-3.15-.14-5.78,1.76-6.28,4.95-1.18,7.56-.76,30.73.05,38.79,3.42,34.24,40.82,27.14,65.25,27.25Z"/>
  <path d="M178.85,244.14c-7.13,1.29-6.09,13.77,3.41,10.95,5.7-1.69,3.08-12.12-3.41-10.95Z"/>
</svg>