<svg width="109" height="109" viewBox="0 0 109 109" fill="none" xmlns="http://www.w3.org/2000/svg">
<g clip-path="url(#clip0_123_2936)">
<path d="M36.2953 42.7808H12.6293C9.68059 42.7808 7.28174 45.1796 7.28174 48.1284V60.8716C7.28174 63.8203 9.68059 66.2192 12.6293 66.2192H24.8484C26.9401 66.2192 28.8512 64.9887 29.717 63.0844L37.849 45.1937C38.354 44.0824 37.5135 42.7808 36.2953 42.7808ZM26.6097 61.6718C26.2963 62.3607 25.6052 62.8057 24.8486 62.8057H12.6293C11.5628 62.8057 10.695 61.9379 10.695 60.8714V48.1282C10.695 47.0616 11.5628 46.1938 12.6293 46.1938H33.645L26.6097 61.6718Z" fill="#004282"/>
<path d="M70.8839 42.7808H47.2179C46.6376 42.7808 46.0973 43.0754 45.783 43.5633C45.4688 44.0513 45.4241 44.6655 45.6642 45.1937L53.7964 63.0844C54.6621 64.9889 56.573 66.2192 58.6648 66.2192H70.8839C73.8326 66.2192 76.2315 63.8203 76.2315 60.8716V48.1284C76.2315 45.1796 73.8326 42.7808 70.8839 42.7808ZM72.8182 60.8716C72.8182 61.9381 71.9505 62.8059 70.8839 62.8059H58.6648C57.9082 62.8059 57.2172 62.3607 56.904 61.672L49.8684 46.1942H70.8841C71.9507 46.1942 72.8184 47.062 72.8184 48.1286V60.8716H72.8182Z" fill="#004282"/>
<path d="M105.473 50.0627H104.449V14.4499C104.449 10.9992 101.641 8.19202 98.1909 8.19202C94.7404 8.19202 91.933 10.9992 91.933 14.4499V50.0627H88.9746V46.308C88.9746 45.3655 88.2108 44.6012 87.2679 44.6012C86.3252 44.6012 85.5612 45.3653 85.5612 46.308V50.0627H83.5132V48.1284C83.5132 41.1645 77.8477 35.4989 70.8836 35.4989H61.9331C60.9904 35.4989 60.2263 36.2629 60.2263 37.2056C60.2263 38.1483 60.9902 38.9124 61.9331 38.9124H70.8836C75.9655 38.9124 80.0997 43.0467 80.0997 48.1284V60.8716C80.0997 65.9535 75.9653 70.0876 70.8836 70.0876H57.3383C55.1715 70.0876 53.1841 68.8162 52.2761 66.8487L43.3058 47.4131C42.708 46.1178 40.8045 46.1178 40.2067 47.4131L31.2364 66.8487C30.3282 68.8162 28.3411 70.0876 26.174 70.0876H12.6295C7.54761 70.0876 3.41349 65.9533 3.41349 60.8716V48.1284C3.41349 43.0465 7.54782 38.9124 12.6295 38.9124H54.5C55.4427 38.9124 56.2067 38.1483 56.2067 37.2056C56.2067 36.2629 55.4429 35.4989 54.5 35.4989H12.6295C5.66544 35.4989 0 41.1645 0 48.1284V60.8716C0 67.8355 5.66544 73.5011 12.6295 73.5011H26.1749C29.6689 73.5011 32.8722 71.4514 34.3361 68.2793L41.7568 52.2012L49.1775 68.2793C50.6416 71.4514 53.8449 73.5011 57.3387 73.5011H70.8845C77.8484 73.5011 83.514 67.8357 83.514 60.8716V60.7579H85.562V64.5127C85.562 65.4551 86.3259 66.2194 87.2688 66.2194C88.2114 66.2194 88.9755 65.4553 88.9755 64.5127V60.7579H91.9338V71.7944C91.9338 72.7368 92.6977 73.5011 93.6406 73.5011C94.5833 73.5011 95.3473 72.737 95.3473 71.7944V60.7579H101.036V83.6275C101.036 95.2341 91.5936 104.677 79.987 104.677C71.1913 104.677 63.8932 98.1794 62.7406 89.6259C63.7705 89.797 64.822 89.8854 65.8871 89.8854C66.7768 89.8854 67.6573 89.8236 68.5235 89.7036C69.654 95.0244 74.4042 98.9877 79.9873 98.9877C88.4569 98.9877 95.3473 92.0973 95.3473 83.6277V79.1523C95.3473 78.2098 94.5835 77.4456 93.6406 77.4456C92.6979 77.4456 91.9338 78.2096 91.9338 79.1523V83.6277C91.9338 90.2152 86.5743 95.5745 79.987 95.5745C76.0077 95.5745 72.6268 92.7341 71.8504 88.9321C75.2975 87.7971 78.378 85.6821 80.719 82.7623C82.249 80.8533 81.941 78.0551 80.032 76.5248C79.1072 75.7835 77.9484 75.4461 76.7709 75.5764C75.5926 75.706 74.5358 76.2868 73.7945 77.2114C71.8585 79.626 68.9763 81.0108 65.8871 81.0108C62.7978 81.0108 59.9159 79.6262 57.9803 77.2118C56.4501 75.3028 53.6521 74.995 51.7426 76.525C49.8336 78.0553 49.5256 80.8533 51.0559 82.7627C53.2361 85.482 56.0575 87.5034 59.2196 88.6851C59.9547 99.6002 68.9919 108.09 79.9875 108.09C93.476 108.09 104.45 97.1164 104.45 83.6277V60.7579H105.474C107.419 60.7579 109.001 59.1757 109.001 57.2307V53.5899C109 51.6449 107.418 50.0627 105.473 50.0627ZM85.5616 57.3444H83.5136V53.476H85.5616V57.3444ZM53.7183 80.6274C53.3649 80.1867 53.4362 79.541 53.8767 79.1876C54.0651 79.0365 54.2914 78.963 54.5162 78.963C54.8166 78.963 55.1144 79.0942 55.3164 79.346C57.903 82.573 61.7557 84.4237 65.8862 84.4237C70.0167 84.4237 73.8694 82.573 76.4567 79.3458C76.6278 79.1323 76.8718 78.9986 77.1437 78.9686C77.4164 78.9381 77.6829 79.0163 77.8962 79.1872C78.3369 79.5404 78.408 80.1861 78.0549 80.6268C75.0767 84.3415 70.6418 86.4719 65.8862 86.4719C61.1313 86.4719 56.696 84.3417 53.7183 80.6274ZM95.3465 14.4499C95.3465 12.8814 96.6223 11.6055 98.1909 11.6055C99.7595 11.6055 101.035 12.8814 101.035 14.4499V50.0627H95.3465V14.4499ZM105.587 57.2307C105.587 57.2935 105.535 57.3444 105.473 57.3444H88.9751V53.476H105.473C105.536 53.476 105.587 53.5269 105.587 53.5897V57.2307Z" fill="#004282"/>
<path d="M70.8842 20.9352C67.9355 20.9352 65.5366 23.334 65.5366 26.2828C65.5366 29.2315 67.9355 31.6304 70.8842 31.6304C73.833 31.6304 76.2318 29.2315 76.2318 26.2828C76.2318 23.334 73.833 20.9352 70.8842 20.9352ZM70.8842 28.2171C69.8176 28.2171 68.9499 27.3494 68.9499 26.2828C68.9499 25.2162 69.8176 24.3485 70.8842 24.3485C71.9508 24.3485 72.8185 25.2162 72.8185 26.2828C72.8185 27.3494 71.9508 28.2171 70.8842 28.2171Z" fill="#004282"/>
<path d="M18.0909 0.910278C14.1384 0.910278 10.9229 4.12599 10.9229 8.0783C10.9229 12.0306 14.1386 15.2463 18.0909 15.2463C22.0432 15.2463 25.2589 12.0308 25.2589 8.0783C25.2589 4.12578 22.0434 0.910278 18.0909 0.910278ZM18.0909 11.8328C16.0205 11.8328 14.3361 10.1485 14.3361 8.07809C14.3361 6.00773 16.0205 4.32334 18.0909 4.32334C20.1612 4.32334 21.8456 6.00773 21.8456 8.07809C21.8456 10.1485 20.1612 11.8328 18.0909 11.8328Z" fill="#004282"/>
<path d="M18.0908 84.6512C15.142 84.6512 12.7432 87.0501 12.7432 89.9988C12.7432 92.9476 15.142 95.3464 18.0908 95.3464C21.0395 95.3464 23.4384 92.9476 23.4384 89.9988C23.4384 87.0503 21.0395 84.6512 18.0908 84.6512ZM18.0908 91.9332C17.0242 91.9332 16.1564 91.0654 16.1564 89.9988C16.1564 88.9323 17.0242 88.0645 18.0908 88.0645C19.1573 88.0645 20.0251 88.9323 20.0251 89.9988C20.0251 91.0654 19.1573 91.9332 18.0908 91.9332Z" fill="#004282"/>
</g>
<defs>
<clipPath id="clip0_123_2936">
<rect width="109" height="109" fill="white"/>
</clipPath>
</defs>
</svg>
