<svg width="35" height="25" viewBox="0 0 35 25" fill="none" xmlns="http://www.w3.org/2000/svg">
<g clip-path="url(#clip0_25_64)">
<path d="M2.93622 0.0234898L31.6909 0C33.4654 0.187918 34.7093 1.55246 34.8481 3.31633V20.8247C34.6869 22.6495 33.3715 23.998 31.5318 24.1411H3.31312C1.51189 24.0023 0.191121 22.6868 0 20.9016V3.24052C0.137735 1.5941 1.31222 0.310705 2.93622 0.0234898ZM2.91593 1.36134L2.83479 1.5215L17.4497 14.2925L32.0091 1.5215C32.087 1.47665 31.9375 1.36134 31.9279 1.36134H2.91593ZM1.35707 3.00028V21.1429C1.35707 21.1696 1.44355 21.239 1.43821 21.3009L10.9366 10.4989L1.71689 2.2422C1.64855 2.2422 1.37202 2.90739 1.35707 3.00028ZM33.4868 21.1429V3.00028C33.4868 2.89992 33.2284 2.49846 33.2455 2.32122L33.0074 2.36072L23.9019 10.5021L33.3266 21.2241L33.4868 21.1429ZM32.607 22.4605L22.8876 11.3552L17.7209 15.847C17.5127 15.9442 17.2682 15.9389 17.0717 15.8172L12.0268 11.353L2.32015 22.422C2.32976 22.5491 3.13695 22.8459 3.31312 22.784H31.6119L32.607 22.4605Z" fill="#004282"/>
</g>
<defs>
<clipPath id="clip0_25_64">
<rect width="34.8481" height="24.1421" fill="white"/>
</clipPath>
</defs>
</svg>
