<?xml version="1.0" encoding="UTF-8"?>
<svg id="Ebene_1" data-name="Ebene 1" xmlns="http://www.w3.org/2000/svg" viewBox="0 0 326.38 226.11">
  <path d="M27.5.22l269.31-.22c16.62,1.76,28.27,14.54,29.57,31.06v163.98c-1.51,17.09-13.83,29.72-31.06,31.06H31.03C14.16,224.8,1.79,212.48,0,195.76V30.35C1.29,14.93,12.29,2.91,27.5.22ZM27.31,12.75l-.76,1.5,136.88,119.61L299.79,14.25c.73-.42-.67-1.5-.76-1.5H27.31ZM12.71,28.1v169.92c0,.25.81.9.76,1.48l88.96-101.17L16.08,21c-.64,0-3.23,6.23-3.37,7.1ZM313.63,198.02V28.1c0-.94-2.42-4.7-2.26-6.36l-2.23.37-85.28,76.25,88.27,100.42,1.5-.76ZM305.39,210.36l-91.03-104.01-48.39,42.07c-1.95.91-4.24.86-6.08-.28l-47.25-41.81L21.73,210c.09,1.19,7.65,3.97,9.3,3.39h265.04s9.32-3.03,9.32-3.03Z"/>
</svg>