<svg width="1297" height="93" viewBox="0 0 1297 93" fill="none" xmlns="http://www.w3.org/2000/svg">
<path d="M657.539 22.9847C889.865 -19.4196 1180.77 14.5755 1296.98 36.8734V93H0.445068V0.128059C39.4651 15.0603 284.16 91.1341 657.539 22.9847Z" fill="white"/>
<path opacity="0.3" d="M0 0C19.4005 7.42418 89.643 29.96 201.265 42.3721C89.643 54.7841 19.4005 77.32 0 84.7441V0ZM657.094 22.8564C889.42 -19.5479 1180.32 14.4472 1296.53 36.7451V47.999C1180.32 70.2969 889.42 104.292 657.094 61.8877C609.284 53.1615 563.584 46.8002 520.156 42.3721C563.584 37.944 609.284 31.5827 657.094 22.8564Z" fill="#00B4D8"/>
</svg>
