<svg width="28" height="38" viewBox="0 0 28 38" fill="none" xmlns="http://www.w3.org/2000/svg">
<g clip-path="url(#clip0_25_66)">
<path d="M26.6251 8.45302C24.6171 3.66935 19.9609 0.409264 14.8113 0H12.9052C7.79391 0.340416 3.07271 3.73692 1.09269 8.45302C-0.974027 13.3769 0.0637947 17.8253 2.76035 22.2022C5.78074 27.1045 9.24609 31.7505 12.2882 36.6412C13.2584 37.8384 14.4543 37.832 15.4271 36.6412C18.473 31.7517 21.9358 27.1045 24.9549 22.2022C27.6515 17.8253 28.6893 13.3769 26.6226 8.45302H26.6251ZM23.5346 21.3671L13.887 35.9119C13.7416 35.9425 13.3693 35.2949 13.2699 35.147C10.2457 30.6451 7.01745 25.9685 4.18193 21.3671C1.86787 17.6136 0.7969 13.8117 2.44288 9.50996C4.22273 4.85634 8.76288 1.66893 13.7722 1.62941C19.1997 1.58606 24.1313 5.2911 25.6052 10.4981C26.745 14.5244 25.6485 17.9375 23.5346 21.3671Z" fill="#004282"/>
<path d="M13.1104 6.5446C7.89325 7.04821 4.88688 12.8493 7.44446 17.4455C10.2124 22.4192 17.4427 22.4447 20.2489 17.494C23.1954 12.2934 19.0186 5.97469 13.1117 6.54587L13.1104 6.5446ZM18.5787 17.0707C16.3106 20.3831 11.4071 20.3856 9.13762 17.0707C6.59151 13.3542 9.28806 8.22118 13.7721 8.15233C18.3327 8.0822 21.172 13.2841 18.5787 17.0707Z" fill="#004282"/>
</g>
<defs>
<clipPath id="clip0_25_66">
<rect width="27.7177" height="37.5363" fill="white"/>
</clipPath>
</defs>
</svg>
