<?xml version="1.0" encoding="UTF-8"?>
<svg id="Ebene_1" data-name="Ebene 1" xmlns="http://www.w3.org/2000/svg" viewBox="0 0 217.4 294.41">
  <path d="M208.83,66.3C193.08,28.78,156.56,3.21,116.17,0h-14.95C61.13,2.67,24.1,29.31,8.57,66.3-7.64,104.92.5,139.81,21.65,174.14c23.69,38.45,50.87,74.89,74.73,113.25,7.61,9.39,16.99,9.34,24.62,0,23.89-38.35,51.05-74.8,74.73-113.25,21.15-34.33,29.29-69.22,13.08-107.84ZM184.59,167.59l-75.67,114.08c-1.14.24-4.06-4.84-4.84-6-23.72-35.31-49.04-71.99-71.28-108.08-18.15-29.44-26.55-59.26-13.64-93C33.12,38.09,68.73,13.09,108.02,12.78c42.57-.34,81.25,28.72,92.81,69.56,8.94,31.58.34,58.35-16.24,85.25Z"/>
  <path d="M102.83,51.33c-40.92,3.95-64.5,49.45-44.44,85.5,21.71,39.01,78.42,39.21,100.43.38,23.11-40.79-9.65-90.35-55.98-85.87ZM145.72,133.89c-17.79,25.98-56.25,26-74.05,0-19.97-29.15,1.18-69.41,36.35-69.95,35.77-.55,58.04,40.25,37.7,69.95Z"/>
</svg>