<?xml version="1.0" encoding="UTF-8"?>
<svg id="Ebene_1" data-name="Ebene 1" xmlns="http://www.w3.org/2000/svg" viewBox="0 0 379.24 383.23">
  <path d="M331.91,126.41c-.9-3.61-2.13-7.18-3.07-10.78-.26-1-1.52-2.8-1.52-2.97v-58.01h26.95v54.27c0,.45,1.99,2.94,2.6,3.38,3.72,2.71,7.97.98,9.79-2.97l.33-55.06c3.45-4.02,8.15-5.68,10.5-11.21,2.17-5.1,2.3-25.25.56-30.54-2.16-6.55-7.82-10.47-14.05-12.52h-47.16c-5.97,2.56-11.64,6.28-13.83,12.75-1.92,5.68-1.92,24.02.32,29.58,1.71,4.24,5.85,9.05,10.51,10.08v35.18c-18.64-22.46-44.67-33.8-73.7-35.22-48.3,2.08-98.73-2.64-146.78,0-42.57,2.34-76.86,27.05-88.87,68.32-16.7,57.39,13.95,123.88,77.93,127.94,4.94,12.84,12.91,21.78,26.88,24.39,9.92,1.85,17.88-.37,27.47-.59,25.33-.56,50.44,1.17,75.6,1.56,6.97.11,31.67-1.3,26.78-13.31-2.91-7.14-10-1.81-14.51-.67-8.45,2.12-15.22.02-23.48-.26-15.29-.52-31.15-1.06-46.43-.79-12.88.23-29.32,2.79-41.88,1.52-7.19-.73-12.53-5.21-16.1-11.21,13.32-1.2,26.15-3.76,38.44-9.1,13.89-6.03,19.81-14.31,36.78-12.61,8.76.88,16.34,7.46,24.07,11.11,22.44,10.63,50.17,13.73,74.19,7.04,45.36-12.63,69.39-60.75,63.8-105.74h28.07c5.14,0,4.51,13.44,4.14,16.86-1.31,11.85-16.93,2.22-21.74,8.95-4.79,6.7,3.17,11.93,9.75,10.12-1.12,33.08,3.6,67.06-5.98,99.2-14.12,47.37-57.31,85.52-106.15,93.71-37.06,6.22-77.9-6.09-83.99-47.69,9.05,1.19,18.27,1.23,27.21-.69,3.39,6.94,7.34,12.61,14.02,16.72,25.65,15.83,65.09-.38,86.37-17.55,24.82-20.02,42.22-53.27,41.42-85.69-.23-9.18-11.81-9.48-13.15-2.07-.84,4.63-.33,10.96-1.03,16.19-4.35,32.22-26.51,60.86-55.77,74.48-14.78,6.88-43.89,14.07-55.97-.71-7.07-8.65-1.2-7.8,4.08-13,4.72-4.64,17.66-22.73,6.57-26.12-7.48-2.29-9.23,8.48-12.72,13.23-12.93,17.59-43.85,17.68-57.07.44-3.72-4.85-6.8-19.69-15.46-12.33-3.68,3.13-1.82,7.11-.31,10.88,3.08,7.71,10.42,15.42,17.42,19.63,5.23,62.38,63.63,78.86,116.93,63.1,50.03-14.8,90.44-56.23,102.32-107.27,7.2-30.95,2.76-63.84,3.95-95.45,5-2.41,9.71-6.5,11.3-12.07,1.46-5.14,1.32-19.84-.77-24.75-7.29-17.15-31.04-10.08-45.58-11.68ZM314.59,20.58c.43-3.82,1.68-6.95,5.79-7.68,7.12-1.27,31.02-.93,38.78-.21,3.44.32,6.45,2,7.03,5.69.45,2.84.39,17.46-.52,19.6-.81,1.89-3,3.16-5.03,3.2l-42.29-.41c-4.72-1.96-4.26-15.72-3.76-20.2ZM320.34,170.8c-10.33,56.11-64.51,79.46-115.54,57.63-7.28-3.12-13.84-8.49-21.01-11.18-28.51-10.71-40.77,8.36-65.32,15.16C-5.18,266.71-30.76,72.49,96.61,65.34c46.14-2.59,94.16,1.47,140.5-.21,57.75.66,93.49,49.98,83.23,105.67Z"/>
  <path d="M243.14,86.05c-50.25-2.92-103.47,2.07-154.01.25-86.21,6.56-76.03,133.06-.23,129.27,24.81-1.24,37.12-14.2,46.92-35.42,7.81-16.92,12.27-44.99,37.34-39.85,15.65,3.21,22.98,36.54,30.52,49.58,22.14,38.3,77.21,32.34,95.85-6.21,22.06-45.62-5.6-94.67-56.39-97.62ZM291.18,169.33c-7.17,24.7-31.49,39.46-56.66,30.88-35.75-12.18-22.95-75.22-68.49-73.71-44.83,1.48-29.8,70.96-73.47,75.51-64.91,6.77-69.58-95.87-7.17-102.24l162.24-.25c35.43,3.47,53.14,36.79,43.55,69.8Z"/>
</svg>