<svg width="30" height="41" viewBox="0 0 30 41" fill="none" xmlns="http://www.w3.org/2000/svg">
<path d="M15 0.5C22.9857 0.500139 29.4994 7.12825 29.5 15.2949C29.5 21.4148 26.2022 27.5162 22.7715 32.1943C19.7789 36.275 16.7304 39.2119 15.8311 40.0479L15.584 40.2744C15.4154 40.4255 15.2074 40.4999 15 40.5C14.7924 40.5 14.5839 40.4252 14.416 40.2744C14.1384 40.0251 10.6471 36.8551 7.22852 32.1934C3.79795 27.5153 0.5 21.4147 0.5 15.2949C0.500068 7.12818 7.01415 0.5 15 0.5Z" fill="#00B4D8" stroke="white"/>
<path d="M9.49574 21.8409V20.1648L14.4332 12.3636H15.831V14.75H14.9787L11.6548 20.017V20.108H18.5469V21.8409H9.49574ZM15.0469 24V21.3295L15.0696 20.5795V12.3636H17.0582V24H15.0469Z" fill="white"/>
</svg>
