<svg width="30" height="41" viewBox="0 0 30 41" fill="none" xmlns="http://www.w3.org/2000/svg">
<path d="M15 0.5C22.9857 0.500139 29.4994 7.12825 29.5 15.2949C29.5 21.4148 26.2022 27.5162 22.7715 32.1943C19.7789 36.275 16.7304 39.2119 15.8311 40.0479L15.584 40.2744C15.4154 40.4255 15.2074 40.4999 15 40.5C14.7924 40.5 14.5839 40.4252 14.416 40.2744C14.1384 40.0251 10.6471 36.8551 7.22852 32.1934C3.79795 27.5153 0.5 21.4147 0.5 15.2949C0.500068 7.12818 7.01415 0.5 15 0.5Z" fill="black" stroke="white"/>
<path d="M10.0653 24V22.4773L14.1051 18.517C14.4915 18.1269 14.8134 17.7803 15.071 17.4773C15.3286 17.1742 15.5218 16.8807 15.6506 16.5966C15.7794 16.3125 15.8438 16.0095 15.8438 15.6875C15.8438 15.3201 15.7604 15.0057 15.5938 14.7443C15.4271 14.4792 15.1979 14.2746 14.9062 14.1307C14.6146 13.9867 14.2831 13.9148 13.9119 13.9148C13.5294 13.9148 13.1941 13.9943 12.9062 14.1534C12.6184 14.3087 12.3949 14.5303 12.2358 14.8182C12.0805 15.1061 12.0028 15.4489 12.0028 15.8466H9.99716C9.99716 15.108 10.1657 14.4659 10.5028 13.9205C10.84 13.375 11.304 12.9527 11.8949 12.6534C12.4896 12.3542 13.1714 12.2045 13.9403 12.2045C14.7206 12.2045 15.4063 12.3504 15.9972 12.642C16.5881 12.9337 17.0464 13.3333 17.3722 13.8409C17.7017 14.3485 17.8665 14.928 17.8665 15.5795C17.8665 16.0152 17.7831 16.4432 17.6165 16.8636C17.4498 17.2841 17.1563 17.75 16.7358 18.2614C16.3191 18.7727 15.7339 19.392 14.9801 20.1193L12.9744 22.1591V22.2386H18.0426V24H10.0653Z" fill="white"/>
</svg>
