<svg width="30" height="41" viewBox="0 0 30 41" fill="none" xmlns="http://www.w3.org/2000/svg">
<path d="M15 0.5C22.9857 0.500139 29.4994 7.12825 29.5 15.2949C29.5 21.4148 26.2022 27.5162 22.7715 32.1943C19.7789 36.275 16.7304 39.2119 15.8311 40.0479L15.584 40.2744C15.4154 40.4255 15.2074 40.4999 15 40.5C14.7924 40.5 14.5839 40.4252 14.416 40.2744C14.1384 40.0251 10.6471 36.8551 7.22852 32.1934C3.79795 27.5153 0.5 21.4147 0.5 15.2949C0.500068 7.12818 7.01415 0.5 15 0.5Z" fill="black" stroke="white"/>
<path d="M13.9993 24.1591C13.1811 24.1591 12.4538 24.0189 11.8175 23.7386C11.1849 23.4583 10.6849 23.0682 10.3175 22.5682C9.95005 22.0682 9.75497 21.4905 9.73224 20.8352H11.8686C11.8875 21.1496 11.9917 21.4242 12.1811 21.6591C12.3705 21.8902 12.6224 22.0701 12.9368 22.1989C13.2512 22.3277 13.6035 22.392 13.9936 22.392C14.4103 22.392 14.7796 22.3201 15.1016 22.1761C15.4235 22.0284 15.6754 21.8239 15.8572 21.5625C16.0391 21.3011 16.1281 21 16.1243 20.6591C16.1281 20.3068 16.0372 19.9962 15.8516 19.7273C15.666 19.4583 15.397 19.2481 15.0447 19.0966C14.6963 18.9451 14.2758 18.8693 13.7834 18.8693H12.755V17.2443H13.7834C14.1887 17.2443 14.5429 17.1742 14.8459 17.0341C15.1527 16.8939 15.3932 16.697 15.5675 16.4432C15.7417 16.1856 15.8269 15.8883 15.8232 15.5511C15.8269 15.2216 15.7531 14.9356 15.6016 14.6932C15.4538 14.447 15.2436 14.2557 14.9709 14.1193C14.7019 13.983 14.3857 13.9148 14.022 13.9148C13.666 13.9148 13.3364 13.9792 13.0334 14.108C12.7304 14.2367 12.486 14.4205 12.3004 14.6591C12.1148 14.8939 12.0163 15.1742 12.005 15.5H9.97656C9.99171 14.8485 10.1792 14.2765 10.5391 13.7841C10.9027 13.2879 11.3875 12.9015 11.9936 12.625C12.5997 12.3447 13.2796 12.2045 14.0334 12.2045C14.8099 12.2045 15.4841 12.3504 16.0561 12.642C16.6319 12.9299 17.0769 13.3182 17.3913 13.8068C17.7057 14.2955 17.8629 14.8352 17.8629 15.4261C17.8667 16.0814 17.6735 16.6307 17.2834 17.0739C16.897 17.517 16.3894 17.8068 15.7607 17.9432V18.0341C16.5788 18.1477 17.2057 18.4508 17.6413 18.9432C18.0807 19.4318 18.2985 20.0398 18.2947 20.767C18.2947 21.4186 18.1091 22.0019 17.7379 22.517C17.3705 23.0284 16.8629 23.4299 16.2152 23.7216C15.5713 24.0133 14.8326 24.1591 13.9993 24.1591Z" fill="white"/>
</svg>
