<svg width="30" height="41" viewBox="0 0 30 41" fill="none" xmlns="http://www.w3.org/2000/svg">
<path d="M15 0.5C22.9857 0.500139 29.4994 7.12825 29.5 15.2949C29.5 21.4148 26.2022 27.5162 22.7715 32.1943C19.7789 36.275 16.7304 39.2119 15.8311 40.0479L15.584 40.2744C15.4154 40.4255 15.2074 40.4999 15 40.5C14.7924 40.5 14.5839 40.4252 14.416 40.2744C14.1384 40.0251 10.6471 36.8551 7.22852 32.1934C3.79795 27.5153 0.5 21.4147 0.5 15.2949C0.500068 7.12818 7.01415 0.5 15 0.5Z" fill="black" stroke="white"/>
<path d="M14.017 24.1591C13.2595 24.1591 12.5814 24.017 11.983 23.733C11.3845 23.4451 10.9091 23.0511 10.5568 22.5511C10.2083 22.0511 10.0227 21.4792 10 20.8352H12.0455C12.0833 21.3125 12.2898 21.7027 12.6648 22.0057C13.0398 22.3049 13.4905 22.4545 14.017 22.4545C14.4299 22.4545 14.7973 22.3598 15.1193 22.1705C15.4413 21.9811 15.6951 21.7178 15.8807 21.3807C16.0663 21.0436 16.1572 20.6591 16.1534 20.2273C16.1572 19.7879 16.0644 19.3977 15.875 19.0568C15.6856 18.7159 15.4261 18.4489 15.0966 18.2557C14.767 18.0587 14.3883 17.9602 13.9602 17.9602C13.6117 17.9564 13.2689 18.0208 12.9318 18.1534C12.5947 18.286 12.3277 18.4602 12.1307 18.6761L10.2273 18.3636L10.8352 12.3636H17.5852V14.125H12.5795L12.2443 17.2102H12.3125C12.5284 16.9564 12.8333 16.7462 13.2273 16.5795C13.6212 16.4091 14.053 16.3239 14.5227 16.3239C15.2273 16.3239 15.8561 16.4905 16.4091 16.8239C16.9621 17.1534 17.3977 17.608 17.7159 18.1875C18.0341 18.767 18.1932 19.4299 18.1932 20.1761C18.1932 20.9451 18.0152 21.6307 17.6591 22.233C17.3068 22.8314 16.8163 23.303 16.1875 23.6477C15.5625 23.9886 14.839 24.1591 14.017 24.1591Z" fill="white"/>
</svg>
