<?xml version="1.0" encoding="UTF-8"?>
<svg id="Ebene_1" data-name="Ebene 1" xmlns="http://www.w3.org/2000/svg" viewBox="0 0 359.36 357.87">
  <path d="M118.27,302.15c-4.63-3.45-12.09-6.59-17.4-10.29-53.8-37.54-73.73-108.35-47.05-168.79,1.27-2.87,8.97-18.3,10.59-19.36,1.12-.73,1.13-.16,1.91.38,5.35,3.72,16.09,18.49,20.75,20.41,3.5,1.44,6.93.36,8.46-3.13l.18-75.86c-.68-2.49-2.85-4.23-5.44-4.29l-73.96.18c-3.81,1.13-5.3,5.06-3.71,8.63l21.78,22.89c-44.89,61.17-45.83,145.66-2.75,208.09,15.09,21.87,38.52,43.8,62.24,56.03,5.79,2.98,9.53,6.43,14.12-.36,3.01-4.45,11.2-20.9,12.94-25.99,1.38-4.04.98-5.82-2.66-8.54ZM100.29,325.63c-1.62,1.16-17.14-9.48-19.65-11.3C10.59,263.28-9.06,164.65,37.17,90.7c1.92-3.06,11.18-15.06,11.52-16.95,1.27-7.26-12.14-14.62-15.7-20.54h50.9v50.9c-4.61-2.52-13-14.81-17.17-16.13-5.8-1.83-8.2,2.84-11.13,6.92-48.38,67.45-26.13,161.37,39.6,207.88,2.14,1.51,11.87,6.43,11.92,8.27l-6.8,14.58Z"/>
  <path d="M325.02,285.01c41.88-57.66,45.84-135.53,9.75-197.12-15.52-26.49-41.82-52.89-69.24-66.99-2.7-1.39-6.73-4.09-9.68-3.49-2.04.42-3.36,2.25-4.44,3.84-3.01,4.45-11.2,20.9-12.94,25.99-2.78,8.11,4.27,8.79,9.57,12.11,60.43,37.83,87.25,108.02,57.54,175.51-1.26,2.87-8.96,18.3-10.59,19.36-1.12.73-1.13.16-1.91-.38-5.35-3.72-16.09-18.49-20.75-20.41-3.5-1.44-6.93-.36-8.46,3.13l-.18,75.86c.68,2.49,2.85,4.23,5.44,4.29l73.96-.18c3.81-1.13,5.3-5.06,3.71-8.63l-21.78-22.89ZM275.51,304.72v-50.9c4.84,2.67,12.32,14.12,16.66,15.9,1.61.66,3.59.93,5.27.42,5.38-1.63,19.63-30.81,22.06-37.08,27.29-70.42-2.69-148.66-67.13-185.58-.3-1.01,5.41-12.45,6.47-14.28,1.39-2.41,7.11,2.03,9.12,3.24,78.33,47.31,102.8,153.02,54.27,230.8-1.92,3.07-11.18,15.05-11.52,16.95-1.27,7.26,12.14,14.62,15.7,20.54h-50.9Z"/>
  <path d="M211.93,77.5l-84.06-.14c-10.63,1.8-18.79,10.41-20.02,21.15l-.03,160.21c1.01,11.75,9.81,20.48,21.37,22.05,32.41-2.08,68.33,2.79,100.32.03,11.76-1.01,20.48-9.81,22.05-21.37l-.56-143.15-39.07-38.78ZM215.63,98.12l14.97,14.97h-14.97v-14.97ZM239.58,258.68c0,1-2.7,5.83-3.71,6.77-1.83,1.72-5.41,3.06-7.89,3.34h-96.57c-7.12-.96-10.99-5.17-11.63-12.32l.03-155.73c.28-2.49,1.62-6.07,3.34-7.89.94-1,5.77-3.71,6.77-3.71h73.73v31.81c0,.88,3.24,4.12,4.12,4.12h31.81v133.61Z"/>
  <path d="M132.98,44.17c3.47,5.91,14.8.87,20.51-.33,5.05-1.06,13.92-.42,16.32-5.42.97-2.03.34-6.29.16-8.78-.64-8.58-2.21-17.3-3.35-25.84-1.36-3.4-3.98-3.64-7.25-3.54-5.68.17-28.67,4.64-33.08,7.4-2.6,1.62-2.98,3.93-2.55,6.82.51,3.46,7.73,27.1,9.25,29.7ZM155.74,12.79c.31,5.96,1.93,11.88,1.4,17.86l-14.82,3.07-4.52-17.16,17.94-3.77Z"/>
  <path d="M226.68,314.25c-1.88-3.54-3.8-3.8-7.49-3.35-3.89.47-9.12,2.32-13.28,3.19-5.75,1.21-16.73.2-16.97,8.08-.19,6.19,1.75,20.48,2.83,27,.77,4.63,1.23,8.64,7.01,8.7,4.57.05,14.94-2.29,19.85-3.36,6.6-1.44,18.33-2.32,17.04-11.04-.56-3.82-7.3-26.01-8.99-29.21ZM203.66,345.14c-.31-5.96-1.93-11.88-1.4-17.86l14.82-3.07,4.52,17.16-17.94,3.77Z"/>
  <path d="M154.11,314.21c-6.97-1.24-16.31-6.5-19.68,1.75-1.96,4.79-8.17,26.69-7.9,31.04.07,1.09.27,2.29.99,3.16,1.88,2.28,17.57,5.36,21.33,5.98,5.4.89,19.39,4.51,20.96-2.56,2.12-9.57.96-22.06,2.91-31.93-.48-7.02-13.07-6.46-18.61-7.45ZM158.04,344.83c-1.71,1.24-14.92-2.94-18.02-2.68l4.56-17.16,15.34,2.91-1.88,16.93Z"/>
  <path d="M205.29,43.71c6.91,1.23,16.32,6.5,19.68-1.75,2.25-5.52,4.73-15.5,6.17-21.53,3.48-14.59,1.16-13.9-12.5-17.01-5.38-1.22-20.21-4.27-24.93-3.2-2.31.53-3.81,2.48-4.23,4.75-1.78,9.61-.99,21.01-2.78,30.79.21,7.7,12.67,6.9,18.59,7.95ZM201.36,13.1c1.71-1.24,14.92,2.94,18.02,2.68l-4.56,17.16-15.34-2.91,1.88-16.93Z"/>
  <rect x="143.77" y="137.04" width="59.88" height="11.98"/>
  <rect x="131.79" y="184.95" width="59.88" height="11.98"/>
  <rect x="179.7" y="161" width="47.91" height="11.98"/>
  <rect x="131.79" y="208.9" width="47.91" height="11.98"/>
  <rect x="131.79" y="161" width="35.93" height="11.98"/>
  <rect x="131.79" y="101.11" width="23.95" height="11.98"/>
  <rect x="203.65" y="184.95" width="23.95" height="11.98"/>
  <rect x="192.42" y="208.9" width="23.2" height="11.98"/>
  <rect x="198.41" y="232.86" width="23.2" height="11.98"/>
  <rect x="215.63" y="137.04" width="11.98" height="11.98"/>
</svg>