<?xml version="1.0" encoding="UTF-8"?>
<svg id="Ebene_1" data-name="Ebene 1" xmlns="http://www.w3.org/2000/svg" viewBox="0 0 383.87 383.87">
  <path d="M211.09,0c3.62.59,6.73,6.38,8.94,7.15,3.18,1.11,8.89,1.43,12.63,2.34,5.02,1.22,15.24,5.08,19.32,5.45,6.73.61,21.44-3.54,29.2-4.37,57.77-6.17,98.35,37.49,90.73,94.47-.84,6.27-4.57,18.77-4.31,24.03.17,3.47,4.98,16.61,6.17,21.52.91,3.74,1.23,9.44,2.34,12.63.95,2.72,5.99,4.07,6.98,9.49,1.12,6.17.93,29.86.17,36.51s-6.04,7.64-7.15,10.81-1.43,8.89-2.34,12.63c-1.15,4.72-4.98,14.94-5.31,18.65-.71,7.92,4.95,25.05,5.1,34.98.74,47.79-38.97,85.13-86.52,82.03-6.79-.44-18.88-4.3-24.6-3.77-3.48.32-14.34,5.21-19,6.52-7.1,2-17.26,2.89-23.4,5.04-3.17,1.11-3.85,6.36-10.81,7.15s-30.33.95-36.51-.17c-5.42-.99-6.77-6.03-9.49-6.98-6.16-2.16-16.29-3.01-23.4-5.04-4.57-1.3-15.55-6.26-19.01-6.5-5.89-.41-17.15,3.22-23.87,3.71-51.69,3.72-92-38.79-86.35-90.1.78-7.08,4.8-20.13,4.37-26.2-.25-3.62-4.3-14.59-5.45-19.31-.91-3.74-1.23-9.45-2.34-12.63-.77-2.21-6.56-5.32-7.15-8.94v-38.92c.59-3.62,6.38-6.73,7.15-8.94,1.11-3.18,1.43-8.89,2.34-12.63,1.2-4.93,5.75-17.21,5.98-20.82.54-8.37-5.27-26.27-5.74-36.59C7.63,46.38,47.39,7.49,93.97,9.7c10.93.52,22.41,4.43,33,5.17,6.13.43,17-3.76,23.62-5.38,3.74-.91,9.45-1.23,12.63-2.34,2.21-.77,5.32-6.56,8.94-7.15h38.92ZM175.53,11.23l-1.12,1.12v68.12l1.12,1.12h32.19l1.12-1.12V12.35l-1.12-1.12h-32.19ZM163.18,18.71C90.1,30.11,30.02,90.06,18.71,163.18h59.51c2.51-5.39,3.86-11.37,6.23-16.97s15.85-30.74,21.5-31.69c4.39-.74,8.22,3.13,6.75,7.53-4.07,5.67-8.59,11.06-12.04,17.17-2.72,4.8-11.82,24.13-10.69,28.64.24.94,1.51,2.06,1.94,3.34,1.73,5.07,1.5,30.13.93,36.56-.35,3.91-3.2,7.13-3.01,9.6.24,3.17,3.7,11.87,5.09,15.2,8.81,20.99,25.43,39.46,45.29,50.52,4.82,2.69,23.07,11.34,27.63,10.2,1.29-.32,2.88-2.05,5.02-2.51,4.96-1.07,34.84-.91,39.19.57,1.28.44,2.4,1.71,3.34,1.94,4.64,1.16,24.22-8.11,29.13-10.95,15.09-8.74,28.74-22.25,37.53-37.33,2.91-4.99,12.41-24.86,11.22-29.6-.24-.94-1.51-2.06-1.94-3.34-1.48-4.35-1.64-34.23-.57-39.19.46-2.14,2.19-3.73,2.51-5.02,1.15-4.6-7.91-23.76-10.69-28.64-8.82-15.47-22.66-29.37-38.06-38.29-4.9-2.84-24.49-12.11-29.13-10.95-.94.24-2.06,1.51-3.34,1.94-4.35,1.48-34.23,1.64-39.19.57-2.14-.46-3.73-2.19-5.02-2.51-4.77-1.19-24.06,8.13-29.13,10.95-3.42,1.9-8.65,6.64-11.85,7.68-5.27,1.71-8.68-3.67-6.72-8.28,1.48-3.49,21.16-13.75,25.54-15.63,5.75-2.46,11.79-3.9,17.48-6.47V18.71ZM220.07,18.71v59.51c5.39,2.51,11.37,3.86,16.97,6.23,27.39,11.62,50.15,34.39,61.75,61.75,2.37,5.6,3.72,11.59,6.23,16.97h59.51c-4.43-28.79-16.33-54.49-33.39-77.77-2.26-3.08-9.54-10.21-9.99-13.23-.91-5.98,4.99-9.1,9.46-5.32,3.25,2.74,10.02,12.12,12.82,15.99,5.85,8.1,9.73,16.57,14.93,24.72.47.74-.07,1.34,1.68.96-.34-3.66,1.23-7.33,1.49-10.86,3.07-42.56-25.97-75.13-68.51-76.74l-19.8,2.28,26.74,16.29c3.59,3.43,16.19,10.73,16.45,15.63.22,4.1-3.85,6.49-7.62,5.48-8.26-5.99-16.02-12.55-24.7-17.96-19.45-12.14-41.34-20.22-64.02-23.94ZM110.03,23.21c-12.27-1.8-22.9-3.02-35.2-.41-22.85,4.84-42.87,22.93-49.91,45.16-4.35,13.74-3.83,27.25-1.71,41.33,4.48-5.62,7.33-12.33,11.2-18.35,13.29-20.66,30.63-38.47,50.68-52.62l24.93-15.1ZM12.35,174.41l-1.12,1.12v32.19l1.12,1.12h68.12l1.12-1.12v-32.19l-1.12-1.12H12.35ZM302.78,174.41l-1.12,1.12v32.19l1.12,1.12h68.12l1.12-1.12v-32.19l-1.12-1.12h-68.12ZM163.18,364.54v-59.51c-5.39-2.51-11.37-3.86-16.97-6.23-27.24-11.56-50.21-34.54-61.75-61.75-2.37-5.6-3.72-11.59-6.23-16.97H18.71c11.21,73.13,71.37,133.18,144.47,144.47ZM364.54,220.07h-59.51c-2.51,5.39-3.86,11.37-6.23,16.97-11.62,27.39-34.39,50.15-61.75,61.75-5.6,2.37-11.59,3.72-16.97,6.23v59.51c73.07-11.23,133.26-71.38,144.47-144.47ZM102.55,356.3l-26.55-17.98c-21.58-17.72-40.39-39.52-52.05-65.1-1.28-.96-2.18,7.31-2.27,8.58-2.07,30.77,14.11,59.3,43.25,70.59,12.23,4.74,24.68,5.33,37.62,3.91ZM360.79,273.22c-1.75-.38-1.2.23-1.68.96-2.07,3.22-3.86,7.75-5.96,11.24-12.23,20.35-27.41,38.03-45.91,52.9l-26.55,17.98c18.36,2.34,36.94-1.17,52.19-11.8,23.29-16.25,32.18-43.62,27.9-71.27ZM175.53,301.66l-1.12,1.12v68.12l1.12,1.12h32.19l1.12-1.12v-68.12l-1.12-1.12h-32.19Z"/>
</svg>