<svg width="45" height="8" viewBox="0 0 45 8" fill="none" xmlns="http://www.w3.org/2000/svg">
<path d="M45 1.50962C44.1534 1.40984 43.2904 1.42432 42.4247 1.63216C40.6721 2.01924 39.2465 3.30321 37.9375 4.16504C36.6153 5.06009 35.2533 5.38896 33.75 5.27604C31.8247 5.17168 30.5538 4.3629 29.0478 2.89418C27.6337 1.39557 24.9501 -0.135922 22.5 0.00962067C22.5 0.00962067 22.5 0.00962067 22.5 0.00962067C20.0499 -0.135922 17.3663 1.39557 15.9522 2.89418C14.4462 4.3629 13.1753 5.17168 11.25 5.27604C9.74671 5.38896 8.3847 5.06009 7.06254 4.16504C5.7535 3.30321 4.32793 2.01924 2.57534 1.63216C1.70958 1.42432 0.846633 1.40984 0 1.50962C0.847617 1.60922 1.65359 1.81712 2.38697 2.17014C3.87122 2.86097 4.8166 4.14736 6.11718 5.36803C7.39074 6.62775 9.36893 7.47572 11.25 7.52604C13.605 7.79427 16.2829 6.43467 17.7978 5.01649C19.4046 3.62818 20.6699 2.9913 22.5 3.00962C22.5 3.00962 22.5 3.00962 22.5 3.00962C24.3301 2.9913 25.5954 3.62818 27.2022 5.01648C28.7171 6.43467 31.395 7.79427 33.75 7.52604C35.6311 7.47572 37.6093 6.62775 38.8828 5.36803C40.1834 4.14736 41.1288 2.86097 42.613 2.17014C43.3464 1.81712 44.1524 1.60922 45 1.50962Z" fill="white"/>
</svg>
