<svg width="95" height="55" viewBox="0 0 95 55" fill="none" xmlns="http://www.w3.org/2000/svg">
<g clip-path="url(#clip0_67_1026)">
<path fill-rule="evenodd" clip-rule="evenodd" d="M63.2843 0.0315606C62.9743 0.110463 62.6276 0.352429 62.4752 0.583875C62.3176 0.825841 62.2231 1.33607 62.2861 1.60434C62.4175 2.17244 62.801 2.53539 63.3736 2.64585C63.6888 2.70371 63.7886 2.69845 64.0513 2.59325C64.4926 2.4144 64.7605 2.11458 64.8656 1.68324C64.9129 1.49388 64.9392 1.23613 64.9234 1.11515C64.8866 0.815321 64.6187 0.39451 64.356 0.220926C64.0881 0.0315606 63.6048 -0.0578617 63.2843 0.0263005" fill="#004282"/>
<path fill-rule="evenodd" clip-rule="evenodd" d="M54.5424 0.594395C54.348 0.731159 54.3112 0.78902 54.2692 1.00469C54.2324 1.21509 54.2534 1.29925 54.3638 1.45706C54.5897 1.78319 54.9259 1.85157 55.2621 1.63064C55.4302 1.52018 55.467 1.45706 55.509 1.22561C55.5511 0.988905 55.5353 0.920524 55.404 0.736419C55.2779 0.562834 55.2043 0.515493 55.0099 0.478672C54.8051 0.441851 54.7263 0.462892 54.5424 0.594395Z" fill="#004282"/>
<path fill-rule="evenodd" clip-rule="evenodd" d="M58.7873 2.3618C58.6034 2.41966 58.3985 2.64585 58.367 2.83521C58.3039 3.18764 58.6139 3.56111 58.9816 3.56637C59.3967 3.57689 59.6699 3.22972 59.5805 2.80365C59.5017 2.44596 59.1445 2.24608 58.7925 2.3618" fill="#004282"/>
<path fill-rule="evenodd" clip-rule="evenodd" d="M69.1052 4.93401C68.5326 4.95505 68.1491 5.53893 68.3487 6.0702C68.4591 6.33847 68.8321 6.60147 69.1052 6.59621C69.3784 6.59621 69.7357 6.37003 69.8617 6.11228C70.1402 5.57575 69.7094 4.91297 69.1105 4.93401" fill="#004282"/>
<path fill-rule="evenodd" clip-rule="evenodd" d="M46.0842 3.24551C45.6534 3.36649 45.3697 3.78204 45.4275 4.18707C45.4642 4.4606 45.5903 4.6973 45.8372 4.94979C46.2891 5.41794 47.0508 5.24962 47.3345 4.62366C47.6918 3.81886 46.9457 2.99302 46.0842 3.24551Z" fill="#004282"/>
<path fill-rule="evenodd" clip-rule="evenodd" d="M61.0568 6.01234C60.7311 6.11228 60.5419 6.31743 60.4369 6.68564C60.2372 7.36419 60.8887 7.97437 61.5191 7.69558C62.181 7.40628 62.3281 6.53309 61.7765 6.13332C61.4928 5.92292 61.3983 5.9124 61.062 6.00708" fill="#004282"/>
<path fill-rule="evenodd" clip-rule="evenodd" d="M66.4312 18.4105C66.1055 18.5104 65.9163 18.7156 65.8113 19.0838C65.6116 19.7623 66.2578 20.3725 66.8935 20.0937C67.5554 19.8044 67.7025 18.9312 67.1509 18.5315C66.8672 18.3211 66.7727 18.3105 66.4364 18.4052" fill="#004282"/>
<path fill-rule="evenodd" clip-rule="evenodd" d="M52.1415 5.20228C51.8421 5.27592 51.4218 5.60731 51.3009 5.86505C50.8281 6.85922 51.5584 7.93755 52.6196 7.82709C53.25 7.7587 53.7806 7.23795 53.8226 6.63829C53.8647 6.11754 53.6335 5.62835 53.2132 5.35482C52.9716 5.20228 52.441 5.12337 52.1415 5.19702" fill="#004282"/>
<path fill-rule="evenodd" clip-rule="evenodd" d="M63.3684 17.148C63.1845 17.2059 62.9796 17.4321 62.9481 17.6215C62.885 17.9739 63.195 18.3474 63.5627 18.3526C63.9778 18.3631 64.251 18.016 64.1616 17.5899C64.0828 17.2322 63.7256 17.0323 63.3736 17.148" fill="#004282"/>
<path fill-rule="evenodd" clip-rule="evenodd" d="M71.6952 19.9727C71.2172 19.8938 70.5762 19.9307 70.0246 20.0569C68.9739 20.2989 68.1596 20.6408 67.7551 21.0143C67.5239 21.2299 67.1141 21.7033 66.9986 21.9032C66.8357 22.1715 66.7044 22.4871 66.594 22.8658C66.5047 23.1867 66.489 23.2077 66.4469 23.1972C66.4207 23.1919 66.3997 23.1709 66.3997 23.1499C66.3892 22.7922 66.3839 22.4871 66.3839 22.445C66.3839 22.4029 66.3997 22.3871 66.4469 22.3924C66.5573 22.3924 66.6623 22.3293 66.6834 22.2556C66.7096 22.1557 66.5468 21.6139 66.4364 21.4298C66.2998 21.1984 66.179 21.1037 65.9531 21.0511C65.6484 20.9774 65.3595 21.0669 65.1703 21.2983C65.0968 21.3877 65.081 21.4245 65.0495 21.6139C65.0022 21.8506 65.018 22.2662 65.081 22.4292C65.1125 22.5081 65.1336 22.5292 65.2019 22.545C65.2439 22.5555 65.3122 22.5607 65.3437 22.5555C65.391 22.5555 65.4015 22.5555 65.3857 22.6081C65.3752 22.6396 65.3752 22.7396 65.3857 22.8343C65.3962 23.0867 65.3962 23.0867 65.2229 23.0815C65.1388 23.0762 65.06 23.071 65.0548 23.071C65.0442 23.071 65.0127 22.9868 64.9865 22.8921C64.9602 22.7974 64.9129 22.687 64.8866 22.6502C64.8341 22.587 64.8288 22.587 64.6818 22.5923C64.5977 22.5923 64.4243 22.587 64.2982 22.5713L64.0671 22.545L64.0093 22.4503C63.9778 22.3977 63.8149 22.1873 63.6468 21.9821C63.2108 21.4561 62.8115 21.1142 62.2861 20.8301C61.8238 20.5829 60.978 20.3304 60.5314 20.3041C60.0954 20.2778 59.7066 20.2726 59.3862 20.2989C59.2128 20.3147 59.0604 20.3199 59.0394 20.3147C59.0237 20.3147 59.0079 20.2673 59.0027 20.2147C59.0027 20.1568 58.9816 20.1148 58.9449 20.0937C58.8713 20.0569 58.409 20.0622 58.1306 20.1042C58.0045 20.12 57.7208 20.1621 57.4949 20.1884C56.7279 20.2831 56.4494 20.3725 56.4442 20.5093C56.4442 20.5461 56.4284 20.5671 56.3969 20.5724C56.3706 20.5724 55.9661 20.6145 55.4933 20.6566C54.4899 20.7512 49.0524 21.272 48.1698 21.3614C46.7041 21.5087 42.3647 21.9243 41.9023 21.9663C41.335 22.0137 41.2667 22.04 41.1668 22.2136C40.9672 22.566 40.8149 23.7969 40.8254 24.9699C40.8306 25.8483 40.8937 26.3901 41.0933 27.258C41.2719 28.026 41.4295 28.431 41.6869 28.7677C41.8025 28.915 41.8446 28.9571 41.9234 28.9781C41.9706 28.9886 42.0232 29.0149 42.0337 29.0307C42.0652 29.078 42.2018 29.0728 42.8953 28.9676C43.8094 28.8361 44.65 28.7309 45.1701 28.6888C45.4222 28.6678 45.9581 28.6152 46.3574 28.5678C46.7566 28.5257 47.5026 28.4573 48.007 28.4153C48.5166 28.3732 49.1155 28.3153 49.3361 28.2943C49.562 28.268 50.1714 28.2101 50.681 28.1628C51.1959 28.1154 51.9314 28.0471 52.3149 28.0102C52.6984 27.9734 53.0872 27.9366 53.1712 27.9208C53.2605 27.9103 53.3341 27.905 53.3393 27.9103C53.3393 27.9156 53.2132 27.9839 53.0504 28.0523C52.6459 28.2259 51.5584 28.7046 51.2642 28.8361C51.1276 28.8939 50.7756 29.0307 50.4814 29.1306C49.872 29.3463 49.2941 29.5725 49.0524 29.6987C48.9631 29.7461 48.6847 29.8408 48.4273 29.9039C47.697 30.1038 47.3555 30.2248 46.7356 30.5298C46.2365 30.7718 45.8688 30.9927 45.2331 31.4241C44.5291 31.8975 43.967 32.3235 43.3366 32.8653C42.4645 33.6123 42.5275 33.5755 41.5031 33.9489C40.6993 34.2435 39.7431 34.638 38.1933 35.3113C37.8834 35.4481 37.5366 35.5954 37.4316 35.6374C37.3265 35.6795 37.1636 35.7532 37.0638 35.7952C35.5403 36.4738 34.6367 36.7947 34.1954 36.8315C34.1061 36.842 33.8171 36.8367 33.5492 36.8315C32.9555 36.8157 32.7454 36.8315 32.4302 36.8999C32.1885 36.9577 32.1833 36.9525 32.1465 36.8999C32.1255 36.8683 31.8996 36.6579 31.6422 36.437C31.3585 36.1897 31.1431 35.9846 31.0958 35.911C30.8226 35.5007 30.1922 35.022 29.5512 34.7432C28.821 34.4276 27.5812 34.0384 26.9507 33.9279C26.5042 33.849 26.2362 33.8227 25.443 33.7753C24.6917 33.7333 23.2417 33.5912 22.7847 33.5229C22.3801 33.4597 21.4765 33.2178 20.9459 33.0284C20.1947 32.7601 19.9162 32.676 19.1597 32.4971C18.7342 32.3919 18.3559 32.3025 18.3191 32.292C17.9619 32.1868 17.8936 32.1815 17.5836 32.2078C17.2212 32.2394 17.0898 32.2762 16.7221 32.4498C16.2177 32.6865 15.9445 32.8811 15.3299 33.4492C14.836 33.9016 14.6889 34.0121 14.111 34.375C13.8116 34.5644 13.4386 34.8116 13.281 34.9326C12.619 35.4376 12.1462 36.0109 12.0411 36.437C11.9886 36.6474 12.0884 36.8104 12.2881 36.8262C12.619 36.8525 13.8379 36.8262 14.5208 36.7841C15.0304 36.7526 15.3194 36.7473 15.8657 36.7684C16.9585 36.8104 17.5101 36.9051 18.6659 37.2681C19.7271 37.5942 20.8408 37.8993 21.2401 37.9677C22.107 38.1202 22.8897 38.136 24.0875 38.0255C24.5971 37.9782 24.9806 37.9256 25.7739 37.7941C26.8194 37.6152 27.1083 37.5942 27.5969 37.6468C27.9542 37.6836 28.1538 37.7362 28.4743 37.8625C28.7632 37.9782 28.9628 38.0834 29.1152 38.1991L29.2255 38.2833L28.779 38.5463C28.5321 38.6936 28.0382 38.9671 27.6757 39.1617C27.3185 39.3511 26.8982 39.5825 26.7458 39.6667C26.3991 39.8666 26.0786 40.0139 26.0314 40.0034C26.0103 40.0034 25.9473 40.0086 25.8895 40.0349C25.7634 40.0823 24.8388 40.5346 24.1821 40.8765C23.2049 41.3815 22.8582 41.4972 22.0702 41.6077C21.6919 41.6603 21.2927 41.7655 20.6307 41.9969C19.8059 42.2862 19.3068 42.4861 18.771 42.7334C17.6467 43.2541 16.7851 43.6434 15.9813 43.9853C14.6574 44.5481 12.3459 45.5686 11.1691 46.1104C10.5912 46.3734 9.82415 46.7205 9.4564 46.8889C9.09391 47.0519 8.65786 47.2466 8.50025 47.3202C8.33739 47.3991 8.02218 47.5411 7.79628 47.6463C6.97672 48.0145 6.49865 48.3196 6.23597 48.6405C6.07311 48.8404 5.88399 49.2349 5.88399 49.3874C5.87873 49.6399 6.04685 49.9923 6.28326 50.208C6.46188 50.3711 6.75082 50.8077 6.90843 51.1601C6.98198 51.3126 7.02926 51.4757 7.05027 51.623C7.11332 52.0333 7.17111 52.1964 7.36023 52.5014C7.52309 52.7697 7.85932 53.18 8.15877 53.4746C8.35841 53.6692 8.40569 53.7481 8.55279 54.1584C8.77869 54.7686 8.89952 54.9211 9.21474 55C9.51419 55.0736 9.83991 54.9421 11.0587 54.2688C11.8993 53.806 13.8274 52.5803 15.5978 51.3915C16.4016 50.8498 19.228 48.8825 19.9688 48.3459C20.9879 47.6095 21.8758 46.9783 22.6848 46.4155C24.6707 45.032 26.5987 43.6223 27.04 43.2278C27.3605 42.9332 27.7125 42.4809 27.7913 42.2442L27.8438 42.0916L28.2641 41.8917C28.8105 41.634 29.2781 41.4551 29.5145 41.4078C29.7194 41.3657 29.919 41.3657 30.3025 41.3973C30.4338 41.4078 30.7911 41.4288 31.0905 41.4499C31.39 41.4709 31.6579 41.4867 31.6789 41.4972C31.7052 41.5025 31.8418 41.6761 31.9836 41.876C32.6193 42.7754 33.7909 44.1483 34.5053 44.8269C34.6735 44.99 34.9309 45.2424 35.0727 45.395C35.7452 46.0946 36.3441 46.5733 37.0691 46.9836C37.5314 47.2466 37.752 47.3412 37.9674 47.3623C38.3037 47.3938 38.6451 47.3307 38.9866 47.1729C39.2335 47.0572 39.7852 46.7311 40.1844 46.4628C40.3315 46.3629 40.7518 46.0841 41.1196 45.8316C41.9181 45.295 42.0915 45.2004 42.8532 44.8742C45.0072 43.9537 46.7409 43.0227 48.1856 42.0075C48.7425 41.6182 48.8318 41.5551 49.935 40.7135C51.1644 39.7772 51.5058 39.551 51.8053 39.4721C52.8192 39.1933 53.4129 39.0197 53.8279 38.8829L54.3165 38.7251L54.3953 38.8777C54.6895 39.4353 55.3567 39.935 56.565 40.4768C57.7313 41.0028 58.7032 41.3447 60.999 42.039C61.6347 42.2336 62.2494 42.4178 62.3649 42.4546C62.4858 42.4914 63.0059 42.6439 63.5207 42.7912C64.0408 42.9385 64.7185 43.1437 65.0337 43.2436C65.349 43.3435 65.9216 43.5171 66.3051 43.6223C66.9565 43.8064 67.0458 43.838 67.6553 44.0957C68.0125 44.2483 68.3803 44.4113 68.4696 44.4587C68.5589 44.506 68.769 44.6691 68.9476 44.8216C70.3398 46.0315 70.4449 46.1156 70.8704 46.3681C71.1331 46.5259 71.6847 46.7731 72.0052 46.8836C72.2311 46.9625 72.9351 47.0888 73.0927 47.0782C73.1662 47.073 73.224 47.0519 73.245 47.0256C73.2713 46.9888 73.2976 46.9888 73.3291 47.0046C73.513 47.1098 73.7651 47.1466 73.9122 47.0888C73.9648 47.0625 73.9963 47.0677 74.1066 47.1151C74.2064 47.1571 74.2485 47.1677 74.3325 47.1466C74.3903 47.1361 74.4586 47.0993 74.4849 47.073C74.5322 47.0204 74.5322 47.0099 74.5059 46.9046C74.4586 46.689 74.238 46.2208 74.0909 46.0052C73.8807 45.7053 73.7651 45.5686 73.4867 45.3108C73.3501 45.1846 73.2661 45.1004 73.2976 45.1162C73.4132 45.1793 73.6601 45.395 73.8492 45.6001C74.0646 45.8263 74.4376 46.0841 74.632 46.1314C74.7738 46.1682 74.9209 46.1419 74.9787 46.0683C74.9997 46.0367 75.0312 46.0052 75.047 45.9999C75.1048 45.9736 74.7633 45.3845 74.4849 45.0373C74.343 44.8637 73.865 44.4061 73.7126 44.3009C73.6811 44.2798 73.492 44.1799 73.2871 44.08C73.0874 43.98 72.8458 43.859 72.7565 43.8117L72.5989 43.7223L73.0454 43.8275C73.4657 43.9274 73.4972 43.9327 73.7074 43.9116C74.2064 43.8643 74.5217 43.717 74.4901 43.5434C74.4744 43.454 74.3956 43.3961 74.0856 43.2436C73.9333 43.17 73.7231 43.0648 73.6128 43.0069C73.5077 42.949 73.2083 42.8228 72.9508 42.7123C72.6934 42.6071 72.2731 42.4072 72.0157 42.2757C71.4168 41.9654 71.5009 42.0022 70.6655 41.7497C69.7619 41.4762 69.2628 41.3552 68.8215 41.2921C68.3645 41.229 68.2174 41.1921 67.7761 41.0186C67.2928 40.8292 66.9828 40.6924 66.3524 40.3821C66.0687 40.2401 65.6064 40.0191 65.3227 39.8824C65.039 39.7509 64.5504 39.5036 64.2299 39.3406C63.6048 39.0197 62.3912 38.3832 62.2283 38.2938L62.1233 38.2412L62.6066 38.0518C63.2896 37.7836 64.4033 37.2839 64.9077 37.0156C65.7272 36.5843 66.2631 36.2108 66.904 35.6322C68.0598 34.5854 68.4433 34.0015 68.5326 33.1283L68.5431 33.0126H68.706C68.7953 33.0021 69.058 32.9811 69.2839 32.9548C70.965 32.7549 71.1751 32.7075 71.8213 32.3656C72.1313 32.2026 72.5411 31.9185 72.9824 31.5661C73.3186 31.2926 73.9595 30.7139 74.1539 30.5088C74.2642 30.3931 74.2905 30.372 74.3273 30.3983C74.4271 30.4562 74.7423 30.5877 75.0418 30.6929C75.3254 30.7928 75.3675 30.7981 75.4515 30.7823C75.5041 30.7718 75.5724 30.7402 75.5986 30.7192C75.6932 30.6298 76.3184 29.3726 76.4917 28.9202C76.6756 28.4468 76.7754 27.9945 76.7912 27.6105C76.8017 27.2686 76.6073 27.1002 75.9769 26.8951C75.793 26.832 75.5934 26.7636 75.5251 26.7373L75.4095 26.6899L75.4253 26.5006C75.4358 26.3954 75.441 26.2428 75.4358 26.1587C75.4358 26.0745 75.4358 26.0061 75.4358 26.0009C75.4358 26.0009 75.4988 25.9851 75.5619 25.9693C75.73 25.9325 75.8876 25.8378 76.0032 25.7116C76.0925 25.6116 76.103 25.5906 76.124 25.438C76.1923 24.9278 76.103 24.3702 75.8035 23.4287C75.6669 22.9973 75.5514 22.7238 75.357 22.3819C75.1573 22.0347 75.068 21.919 74.9577 21.8927C74.9104 21.8822 74.7108 21.8717 74.5164 21.8717C74.322 21.8717 74.1487 21.8717 74.1329 21.8717C74.1224 21.8717 74.0961 21.8191 74.0804 21.7612C73.9805 21.4351 73.7074 21.0774 73.2976 20.7355C72.7722 20.2936 72.3519 20.099 71.7005 19.999M73.4447 29.6409C73.4762 29.6987 73.5708 29.7987 73.6391 29.8565L73.7756 29.967L73.6285 30.088C73.5497 30.1564 73.3133 30.3615 73.1085 30.5456C72.4255 31.1611 72.063 31.4293 71.5902 31.6608C70.8179 32.0342 70.0824 32.2026 68.9949 32.2499C68.727 32.2604 68.5063 32.2709 68.5011 32.2709C68.5011 32.2709 68.4801 32.2183 68.4643 32.1552C68.4486 32.0921 68.4223 32.0079 68.4065 31.9606C68.3015 31.7029 68.5168 31.1926 68.9161 30.756C69.2733 30.372 69.8618 29.9617 70.3503 29.7566C70.7233 29.5988 71.4063 29.4042 71.69 29.3674C71.7373 29.3621 71.9894 29.3937 72.2626 29.441C72.6409 29.5094 72.8248 29.5304 73.0559 29.5252C73.2188 29.5252 73.3554 29.5252 73.3659 29.5252C73.3764 29.5252 73.4079 29.5725 73.4447 29.6356M42.1493 39.6246C41.0355 40.2874 39.906 41.2027 39.0654 42.1127C38.9131 42.281 38.7239 42.4546 38.6399 42.5072C38.5033 42.6019 38.4928 42.6019 38.393 42.565C38.2774 42.523 38.1671 42.4335 37.647 41.9549C37.0691 41.4236 36.8589 41.2553 36.5437 41.0449C36.3861 40.9397 36.239 40.8397 36.2127 40.8187C36.1812 40.7924 36.2075 40.7819 36.3546 40.7661C36.633 40.7292 37.2214 40.603 38.0305 40.3873C38.4297 40.2821 39.0864 40.1191 39.4857 40.0244C39.885 39.9244 40.3736 39.8087 40.5679 39.7614C40.8411 39.693 42.5118 39.3616 42.5538 39.3669C42.5538 39.3669 42.3752 39.4826 42.144 39.6194M13.5647 36.6684C13.5647 36.6684 13.5227 36.6789 13.4859 36.6737H13.4228L13.4911 36.6526C13.5489 36.6369 13.6015 36.6421 13.5647 36.6632M25.7424 44.0431C25.7004 44.0694 25.6636 44.0905 25.6479 44.0852C25.6268 44.08 25.7792 43.9905 25.8002 43.9958C25.8055 43.9958 25.7792 44.0168 25.7372 44.0431" fill="#004282"/>
<path d="M5.81043 7.6009V9.69969H4.8858V8.51616H3.40956V14.1498H4.44451V15.065H1.27661V14.1498H2.33783V8.51616H0.914118V9.69969H0V7.6009H5.81043Z" fill="#004282"/>
<path d="M10.5702 14.1603H11.3319V15.065H9.72958V14.2234C9.4564 14.6547 8.82597 15.1755 7.86457 15.1755C6.75082 15.1755 6.25698 14.5232 6.25698 13.2187V10.9306H5.48471V10.0258H7.28143V13.1188C7.28143 13.7921 7.44954 14.2024 8.26384 14.2024C8.80496 14.2024 9.33557 13.892 9.55621 13.508V10.9358H8.5738V10.0311H10.5702V14.1603Z" fill="#004282"/>
<path d="M11.9571 10.0311H13.6645V11.1252C13.8431 10.6044 14.4368 9.92062 15.0987 9.92062C15.3509 9.92062 15.6713 9.94166 15.8815 9.989L15.7922 11.1936L14.9306 11.0147C14.4368 11.0463 13.9587 11.3566 13.7275 11.83V14.1603H14.8833V15.065H11.9518V14.2497L12.7031 14.0709V10.9358H11.9518V10.0311H11.9571Z" fill="#004282"/>
<path d="M18.1458 13.5291C18.1458 13.9604 18.3664 14.2129 18.7762 14.2129C18.9758 14.2129 19.3173 14.1708 19.5485 14.1024L19.6168 15.0177C19.3541 15.1176 18.8655 15.1808 18.482 15.1808C17.5206 15.1808 17.1266 14.539 17.1266 13.6553V10.9253H16.1915V10.131L17.1266 10.0206V8.77391L18.151 8.59507V10.0206H19.4434V10.9253H18.151V13.5186L18.1458 13.5291Z" fill="#004282"/>
<path d="M20.5414 8.29524H19.6798V7.37997H21.5658V13.5975C21.5658 14.0498 21.6867 14.2182 22.0281 14.2182C22.2068 14.2182 22.3696 14.1866 22.5115 14.1498L22.564 15.044C22.3329 15.1334 22.0334 15.186 21.7129 15.186C20.7883 15.186 20.5309 14.6021 20.5309 13.729V8.29524H20.5414Z" fill="#004282"/>
<path d="M27.0295 13.7816L27.371 14.5969C26.8877 14.9283 26.1785 15.1808 25.464 15.1808C23.7671 15.1808 23.0841 14.0761 23.0841 12.5402C23.0841 11.0936 23.8249 9.9101 25.3536 9.9101C26.8824 9.9101 27.4183 10.9674 27.4183 12.051C27.4183 12.314 27.3868 12.6717 27.329 12.8768H24.1874C24.1979 13.729 24.5971 14.2445 25.4797 14.2445C26.0419 14.2445 26.5725 14.0656 27.0348 13.771M26.3886 12.0825C26.3991 12.0142 26.3991 11.951 26.3991 11.9037C26.3991 11.1988 25.9683 10.7885 25.3379 10.7885C24.5236 10.7885 24.2346 11.3619 24.1926 12.0825H26.3886Z" fill="#004282"/>
<path d="M31.3217 8.51616H30.5179V7.6009H33.1447C36.0446 7.6009 36.9062 8.81599 36.9062 11.3356C36.9062 13.8552 36.0446 15.0703 33.1447 15.0703H30.5179V14.155H31.3217V8.52142V8.51616ZM33.297 14.1498C35.2146 14.1498 35.803 13.3344 35.803 11.3093C35.803 9.28414 35.1515 8.51616 33.297 8.51616H32.4144V14.1498H33.297Z" fill="#004282"/>
<path d="M37.731 14.1603H38.8132V10.9358H37.731V10.0311H39.8377V14.1603H40.8516V15.065H37.731V14.1603ZM38.5926 8.23738C38.5926 7.76396 38.8815 7.55356 39.2756 7.55356C39.617 7.55356 39.9585 7.76396 39.9585 8.23738C39.9585 8.71079 39.617 8.90015 39.2756 8.90015C38.8763 8.90015 38.5926 8.71079 38.5926 8.23738Z" fill="#004282"/>
<path d="M44.1824 10.0311H46.6778V10.9358H46.0264L44.4346 15.065H43.1002L41.5136 10.9358H40.8727V10.0311H43.4101V10.9358H42.6378L43.7884 14.1129L44.9547 10.9358H44.1824V10.0311Z" fill="#004282"/>
<path d="M47.1401 14.1603H48.2224V10.9358H47.1401V10.0311H49.2468V14.1603H50.2607V15.065H47.1401V14.1603ZM48.0017 8.23738C48.0017 7.76396 48.2907 7.55356 48.6847 7.55356C49.0262 7.55356 49.3676 7.76396 49.3676 8.23738C49.3676 8.71079 49.0262 8.90015 48.6847 8.90015C48.2854 8.90015 48.0017 8.71079 48.0017 8.23738Z" fill="#004282"/>
<path d="M50.8491 14.1603H51.5426V10.9358H50.8702V10.0311H52.4567V10.6044C52.7457 10.2941 53.271 9.92062 54.1904 9.92062C55.3935 9.92062 55.8768 10.5939 55.8768 11.8774V14.1656H56.5597V15.0703H54.0643V14.1656H54.8471V11.9773C54.8471 11.304 54.6842 10.8937 53.8332 10.8937C53.3131 10.8937 52.7982 11.1462 52.5565 11.3461V14.1603H53.3393V15.065H50.8491V14.1603Z" fill="#004282"/>
<path d="M61.1303 10.8254C61.3405 11.0779 61.4718 11.4881 61.4718 11.9195C61.4718 13.0557 60.6418 13.6974 59.3862 13.6974C59.0762 13.6974 58.7242 13.6553 58.5246 13.5869L58.4248 14.3707H60.0796C61.1619 14.3707 61.7818 14.8441 61.7818 15.7383C61.7818 16.8324 60.8099 17.5583 59.2233 17.5583C57.6367 17.5583 57.0168 17.0165 57.0168 16.2223C57.0168 15.6384 57.5001 15.2386 57.8784 15.1387C57.6157 15.0282 57.4791 14.7389 57.4791 14.4864C57.4791 14.013 57.7891 13.6711 58.0518 13.4502C57.5001 13.1661 57.1902 12.598 57.1902 11.8616C57.1902 10.7149 57.9204 9.92062 59.3967 9.92062C59.88 9.92062 60.4316 10.0732 60.6996 10.273C61.0883 9.72074 61.5716 9.56819 62.055 9.58923L62.1075 10.6044L61.1251 10.8254H61.1303ZM58.0308 15.9803C58.0308 16.4432 58.3407 16.743 59.2653 16.743C60.0954 16.743 60.689 16.4537 60.689 15.8909C60.689 15.5595 60.4999 15.2965 59.8958 15.2965H58.4615C58.2199 15.449 58.0308 15.6594 58.0308 15.9803ZM60.4789 11.8827C60.4789 11.2777 60.1479 10.8359 59.3652 10.8359C58.5141 10.8359 58.2199 11.2777 58.2199 11.8827C58.2199 12.456 58.5088 12.8873 59.3652 12.8873C60.1689 12.8873 60.4789 12.4876 60.4789 11.8827Z" fill="#004282"/>
<path d="M65.6642 8.51616H64.8604V7.6009H68.1281C69.9458 7.6009 70.6866 8.3531 70.6866 9.69969C70.6866 10.7465 70.0929 11.425 69.0107 11.667C69.7147 12.1877 70.3136 13.3029 70.5657 14.1498H71.4483V15.065H68.6797V14.1498H69.3732C69.1946 13.4186 68.5589 12.2509 67.8496 11.7774H66.7464V14.1498H67.5607V15.065H64.8709V14.1498H65.6642V8.51616ZM68.1228 8.51616H66.7464V10.878H68.0388C69.1525 10.878 69.5623 10.4256 69.5623 9.71021C69.5623 8.99483 69.2208 8.51616 68.1281 8.51616" fill="#004282"/>
<path d="M75.8035 13.7816L76.145 14.5969C75.6617 14.9283 74.9524 15.1808 74.238 15.1808C72.5411 15.1808 71.8528 14.0761 71.8528 12.5402C71.8528 11.0936 72.5936 9.9101 74.1224 9.9101C75.6512 9.9101 76.187 10.9674 76.187 12.051C76.187 12.314 76.1555 12.6717 76.0977 12.8768H72.9561C72.9666 13.729 73.3659 14.2445 74.2485 14.2445C74.8106 14.2445 75.3412 14.0656 75.8035 13.771M75.1626 12.0825C75.1731 12.0142 75.1731 11.951 75.1731 11.9037C75.1731 11.1988 74.7423 10.7885 74.1171 10.7885C73.2976 10.7885 73.0139 11.3619 72.9718 12.0825H75.1678H75.1626Z" fill="#004282"/>
<path d="M80.8102 11.5881H79.9906L79.8488 10.8254C79.6176 10.7359 79.3759 10.6939 79.066 10.6939C78.5144 10.6939 78.2832 11.0042 78.2832 11.3356C78.2832 11.6354 78.4145 11.8195 78.8138 11.951L79.6544 12.2035C80.5265 12.4823 80.9888 12.9084 80.9888 13.6816C80.9888 14.4549 80.4162 15.186 78.9714 15.186C78.278 15.186 77.6791 15.0545 77.1379 14.8336L77.0381 13.3765H77.8524L78.0836 14.2497C78.3042 14.3602 78.6142 14.4233 78.9662 14.4233C79.4758 14.4233 79.8278 14.2024 79.8278 13.7921C79.8278 13.4712 79.6281 13.2818 79.2446 13.1503L78.362 12.8768C77.5897 12.6349 77.1379 12.1825 77.1379 11.4408C77.1379 10.6991 77.6108 9.91536 79.0555 9.91536C79.6754 9.91536 80.3689 10.0469 80.8102 10.2257V11.5828V11.5881Z" fill="#004282"/>
<path d="M86.526 12.5349C86.526 14.0919 85.8956 15.186 84.1567 15.186C82.4177 15.186 81.8398 14.0919 81.8398 12.5559C81.8398 11.02 82.4703 9.91536 84.1987 9.91536C85.9271 9.91536 86.526 10.9989 86.526 12.5349ZM85.4333 12.5559C85.4333 11.4408 85.1338 10.878 84.1724 10.878C83.211 10.878 82.9168 11.4408 82.9168 12.5349C82.9168 13.629 83.2373 14.2234 84.1829 14.2234C85.1286 14.2234 85.428 13.6395 85.428 12.5559" fill="#004282"/>
<path d="M87.3403 10.0311H89.0477V11.1252C89.2263 10.6044 89.82 9.92062 90.4819 9.92062C90.7341 9.92062 91.0546 9.94166 91.2647 9.989L91.1754 11.1936L90.3138 11.0147C89.8147 11.0463 89.3419 11.3566 89.1108 11.83V14.1603H90.2718V15.065H87.3351V14.2497L88.0863 14.0709V10.9358H87.3351V10.0311H87.3403Z" fill="#004282"/>
<path d="M93.529 13.5291C93.529 13.9604 93.7496 14.2129 94.1594 14.2129C94.3591 14.2129 94.7005 14.1708 94.9317 14.1024L95 15.0177C94.7373 15.1176 94.2487 15.1808 93.8652 15.1808C92.9038 15.1808 92.5098 14.539 92.5098 13.6553V10.9253H91.5694V10.131L92.5098 10.0206V8.77391L93.5343 8.59507V10.0206H94.8266V10.9253H93.5343V13.5186L93.529 13.5291Z" fill="#004282"/>
</g>
<defs>
<clipPath id="clip0_67_1026">
<rect width="95" height="55" fill="white"/>
</clipPath>
</defs>
</svg>
