<svg width="130" height="107" viewBox="0 0 130 107" fill="none" xmlns="http://www.w3.org/2000/svg">
<g clip-path="url(#clip0_25_100)">
<path d="M114.536 69.6083C112.942 69.8311 111.976 70.9792 110.535 71.3734C110.637 70.6536 109.89 70.1909 109.975 69.5055C110.06 68.9057 111.637 66.0096 112.01 64.9643C112.773 62.8223 115.164 55.4879 111.247 55.2651C108.737 55.128 108.992 57.4243 108.687 58.9151C108.127 61.5199 107.618 64.4845 105.906 66.558L86.3219 66.6094L89.0348 42.9611L99.1574 33.2105C103.329 38.1286 106.058 43.6808 108.144 49.7814C110.23 51.5465 112.62 50.227 112.213 47.468C111.874 45.1032 109.517 40.185 108.297 37.9915C96.5462 16.7081 68.637 6.68324 46.0858 15.4057C43.339 16.4682 40.8634 18.0104 38.2014 19.21C27.231 -6.63178 -12.3099 4.11277 3.81505 34.0844C6.85014 39.7395 11.9369 45.0175 17.2101 48.5819C18.9396 49.7471 21.2795 50.7068 22.8394 51.8378C23.2464 52.1462 26.1289 54.9909 26.2476 55.2651C26.7054 56.259 25.7898 58.2126 25.6032 59.3778C25.1454 62.1882 23.9585 70.8593 26.1967 72.7785C27.3497 73.7553 29.2148 73.3954 29.8252 71.9903C29.9609 67.6376 29.0961 63.3878 30.5543 59.1379C35.7937 63.1307 41.0839 67.1064 46.9336 70.1738C46.7132 76.5486 47.6627 81.1925 50.5622 86.779C51.1726 87.9443 53.2751 90.0007 51.9695 91.0803C51.1217 91.7829 48.4596 90.3605 47.4592 89.915C44.085 88.3556 39.7952 85.3396 37.1671 82.7177C35.8106 81.3639 31.7751 74.6807 29.6218 78.365C28.5196 80.2672 30.283 82.0836 31.4191 83.4546C35.5902 88.4241 43.2881 94.3019 49.6465 95.7585C54.2246 96.8038 57.4292 93.8735 57.0562 89.161C57.0054 88.5783 56.1237 87.3274 56.9375 87.4987C58.3957 87.7901 60.7695 88.9553 62.3973 89.4352C64.3472 90.0349 71.3499 91.4401 72.4182 92.1256C73.0286 92.5197 73.8594 94.1306 74.4868 94.7989C81.8456 102.767 95.0541 109.519 106.025 106.075C111.756 104.275 112.79 96.9923 108.161 93.2909V92.8625C109.619 92.2455 110.942 91.2002 112.129 90.172C114.96 87.7215 121.268 80.627 121.743 76.9084C122.319 72.333 119.064 68.9914 114.536 69.6254V69.6083ZM65.7037 17.5649L66.1445 17.1193C77.1149 17.4107 87.8479 22.1575 95.7663 29.7489L86.2371 38.5056L64.4998 27.504L65.7206 17.5649H65.7037ZM60.9391 17.0851C60.6678 20.6837 60.4304 24.5223 59.4639 27.9839L39.9648 46.4741C39.6426 46.714 39.4222 46.6283 39.0831 46.4741C38.337 46.1314 35.0646 42.3099 34.0642 41.3846C33.4877 40.8533 30.4865 38.7455 30.3678 38.557C29.8083 37.6317 32.1312 32.5421 32.7586 31.4283C37.947 22.1575 50.9691 17.8048 60.9221 17.0851H60.9391ZM19.9061 44.5205C12.1234 39.7052 5.52759 30.8456 4.86631 21.4035C4.47633 15.7827 7.35881 11.7728 12.6829 10.2134C22.8394 7.23161 30.0626 12.8695 34.3355 21.7633C32.0634 24.5394 29.5709 27.1442 27.9431 30.4172C27.0275 32.2508 25.9593 37.0662 25.3659 37.9573C25.0607 38.4199 23.5007 38.8826 22.8903 39.3282C21.2965 40.4592 19.9061 42.4984 19.923 44.5377L19.9061 44.5205ZM54.0381 81.1754C51.5456 79.7873 51.8508 75.4347 51.783 72.8642C54.5129 73.7896 57.158 75.1262 59.8878 76.1544C62.3464 77.0626 64.8898 77.7481 67.3653 78.5878C67.6705 81.2439 68.3488 83.883 69.4848 86.2821C68.8235 86.779 55.6319 82.0665 54.0211 81.1754H54.0381ZM30.9613 53.1916C29.7744 52.112 25.5693 48.1535 24.908 47.0739C23.4499 44.6919 25.6372 41.9329 28.4518 42.9097C29.7235 43.3553 33.3181 47.6565 34.6576 48.8732C38.4388 52.2662 45.6111 58.0926 50.1043 60.1147C52.5799 61.2114 54.7502 59.6177 53.699 57.0816C53.1903 55.882 45.1533 51.6664 43.712 50.2441L43.5085 49.4901L62.126 31.8567L84.2024 42.8069L81.303 65.9068C74.1137 64.9814 67.1788 62.7023 60.4474 60.0804C57.6327 60.029 56.6154 62.9765 59.2435 64.6045C64.1607 67.6547 77.064 70.3623 82.9477 71.0649C90.2217 71.9389 95.6137 71.2705 102.684 71.082C107.211 70.9621 107.534 75.7431 104.38 76.7028C102.989 77.1312 99.5644 77.3026 97.9705 77.3882C73.9442 78.5192 48.714 69.4541 30.9443 53.2258L30.9613 53.1916ZM103.549 101.773C90.3404 104.104 74.4698 93.3251 72.4521 79.7359C78.5392 81.3296 84.8298 81.6209 91.0526 82.255C92.799 86.7447 95.6306 90.8232 99.4966 93.7021C101.023 94.8332 104.685 96.3926 105.618 97.3522C107.601 99.3743 105.889 101.362 103.549 101.773ZM115.435 79.1704C112.485 83.7801 108.195 87.6187 103.532 90.4119C100.158 88.8011 97.7671 85.391 96.0545 82.1179C100.107 81.501 105.516 82.5806 108.754 79.5817C109.653 78.742 110.213 77.1483 110.721 76.7199C111.332 76.2058 115.469 74.1666 116.198 74.3894C118.216 75.469 116.283 77.7995 115.418 79.1533L115.435 79.1704Z" fill="#004282"/>
<path d="M117.877 2.63901C106.991 -6.28908 93.5281 9.545 102.956 19.0729C113.96 30.1944 129.593 12.2526 117.877 2.63901ZM114.96 6.47758C121.403 11.8756 112.637 21.9347 106.499 15.7827C100.853 10.1105 108.72 1.26809 114.96 6.47758Z" fill="#004282"/>
<path d="M121.081 22.5345C109.484 23.9739 113.112 42.0186 124.642 38.3514C133.476 35.5411 130.78 21.3349 121.081 22.5345ZM122.438 34.0673C117.961 34.4957 117.3 27.9667 121.37 27.2813C126.083 26.493 126.744 33.656 122.438 34.0673Z" fill="#004282"/>
<path d="M126.965 17.6163C131.119 18.5245 130.865 11.9956 126.66 13.2636C124.845 13.812 124.761 17.1365 126.965 17.6163Z" fill="#004282"/>
<path d="M16.871 14.1547C15.2432 14.4974 11.9199 18.216 13.7003 20.221C15.8876 22.7057 20.1774 18.1303 19.7874 16.1768C19.5331 14.8572 18.1936 13.8633 16.871 14.1547Z" fill="#004282"/>
</g>
<defs>
<clipPath id="clip0_25_100">
<rect width="130" height="107" fill="white"/>
</clipPath>
</defs>
</svg>
