<?xml version="1.0" encoding="UTF-8"?>
<svg id="OBJECTS" xmlns="http://www.w3.org/2000/svg" viewBox="0 0 76.67 62.44">
  <path d="M67.55,40.62c-.94.13-1.51.8-2.36,1.03.06-.42-.38-.69-.33-1.09.05-.35.98-2.04,1.2-2.65.45-1.25,1.86-5.53-.45-5.66-1.48-.08-1.33,1.26-1.51,2.13-.33,1.52-.63,3.25-1.64,4.46l-11.55.03,1.6-13.8,5.97-5.69c2.46,2.87,4.07,6.11,5.3,9.67,1.23,1.03,2.64.26,2.4-1.35-.2-1.38-1.59-4.25-2.31-5.53-6.93-12.42-23.39-18.27-36.69-13.18-1.62.62-3.08,1.52-4.65,2.22C16.06-3.87-7.26,2.4,2.25,19.89c1.79,3.3,4.79,6.38,7.9,8.46,1.02.68,2.4,1.24,3.32,1.9.24.18,1.94,1.84,2.01,2,.27.58-.27,1.72-.38,2.4-.27,1.64-.97,6.7.35,7.82.68.57,1.78.36,2.14-.46.08-2.54-.43-5.02.43-7.5,3.09,2.33,6.21,4.65,9.66,6.44-.13,3.72.43,6.43,2.14,9.69.36.68,1.6,1.88.83,2.51-.5.41-2.07-.42-2.66-.68-1.99-.91-4.52-2.67-6.07-4.2-.8-.79-3.18-4.69-4.45-2.54-.65,1.11.39,2.17,1.06,2.97,2.46,2.9,7,6.33,10.75,7.18,2.7.61,4.59-1.1,4.37-3.85-.03-.34-.55-1.07-.07-.97.86.17,2.26.85,3.22,1.13,1.15.35,5.28,1.17,5.91,1.57.36.23.85,1.17,1.22,1.56,4.34,4.65,12.13,8.59,18.6,6.58,3.38-1.05,3.99-5.3,1.26-7.46v-.25c.86-.36,1.64-.97,2.34-1.57,1.67-1.43,5.39-5.57,5.67-7.74.34-2.67-1.58-4.62-4.25-4.25ZM38.75,10.25l.26-.26c6.47.17,12.8,2.94,17.47,7.37l-5.62,5.11-12.82-6.42.72-5.8ZM35.94,9.97c-.16,2.1-.3,4.34-.87,6.36l-11.5,10.79c-.19.14-.32.09-.52,0-.44-.2-2.37-2.43-2.96-2.97-.34-.31-2.11-1.54-2.18-1.65-.33-.54,1.04-3.51,1.41-4.16,3.06-5.41,10.74-7.95,16.61-8.37ZM11.74,25.98c-4.59-2.81-8.48-7.98-8.87-13.49-.23-3.28,1.47-5.62,4.61-6.53,5.99-1.74,10.25,1.55,12.77,6.74-1.34,1.62-2.81,3.14-3.77,5.05-.54,1.07-1.17,3.88-1.52,4.4-.18.27-1.1.54-1.46.8-.94.66-1.76,1.85-1.75,3.04ZM31.87,47.37c-1.47-.81-1.29-3.35-1.33-4.85,1.61.54,3.17,1.32,4.78,1.92,1.45.53,2.95.93,4.41,1.42.18,1.55.58,3.09,1.25,4.49-.39.29-8.17-2.46-9.12-2.98ZM18.26,31.04c-.7-.63-3.18-2.94-3.57-3.57-.86-1.39.43-3,2.09-2.43.75.26,2.87,2.77,3.66,3.48,2.23,1.98,6.46,5.38,9.11,6.56,1.46.64,2.74-.29,2.12-1.77-.3-.7-5.04-3.16-5.89-3.99l-.12-.44,10.98-10.29,13.02,6.39-1.71,13.48c-4.24-.54-8.33-1.87-12.3-3.4-1.66-.03-2.26,1.69-.71,2.64,2.9,1.78,10.51,3.36,13.98,3.77,4.29.51,7.47.12,11.64.01,2.67-.07,2.86,2.72,1,3.28-.82.25-2.84.35-3.78.4-14.17.66-29.05-4.63-39.53-14.1ZM61.07,59.39c-7.79,1.36-17.15-4.93-18.34-12.86,3.59.93,7.3,1.1,10.97,1.47,1.03,2.62,2.7,5,4.98,6.68.9.66,3.06,1.57,3.61,2.13,1.17,1.18.16,2.34-1.22,2.58ZM68.08,46.2c-1.74,2.69-4.27,4.93-7.02,6.56-1.99-.94-3.4-2.93-4.41-4.84,2.39-.36,5.58.27,7.49-1.48.53-.49.86-1.42,1.16-1.67.36-.3,2.8-1.49,3.23-1.36,1.19.63.05,1.99-.46,2.78Z"/>
  <path d="M69.52,1.54c-6.42-5.21-14.36,4.03-8.8,9.59,6.49,6.49,15.71-3.98,8.8-9.59ZM67.8,3.78c3.8,3.15-1.37,9.02-4.99,5.43-3.33-3.31,1.31-8.47,4.99-5.43Z"/>
  <path d="M71.41,13.15c-6.84.84-4.7,11.37,2.1,9.23,5.21-1.64,3.62-9.93-2.1-9.23ZM72.21,19.88c-2.64.25-3.03-3.56-.63-3.96,2.78-.46,3.17,3.72.63,3.96Z"/>
  <path d="M74.88,10.28c2.45.53,2.3-3.28-.18-2.54-1.07.32-1.12,2.26.18,2.54Z"/>
  <path d="M9.95,8.26c-.96.2-2.92,2.37-1.87,3.54,1.29,1.45,3.82-1.22,3.59-2.36-.15-.77-.94-1.35-1.72-1.18Z"/>
</svg>