<?xml version="1.0" encoding="UTF-8"?>
<svg id="Ripples_3" data-name="Ripples 3" xmlns="http://www.w3.org/2000/svg" xmlns:xlink="http://www.w3.org/1999/xlink" viewBox="0 0 784.53 555.51">
  <defs>
    <style>
      .cls-1 {
        fill: url(#_êVãKÉOÉâÉfÅ_ÉVÉáÉìÉXÉEÉHÉbÉ_7);
        opacity: .08;
      }
    </style>
    <linearGradient id="_êVãKÉOÉâÉfÅ_ÉVÉáÉìÉXÉEÉHÉbÉ_7" data-name="êVãKÉOÉâÉfÅ[ÉVÉáÉìÉXÉEÉHÉbÉ` 7" x1="0" y1="277.75" x2="784.53" y2="277.75" gradientUnits="userSpaceOnUse">
      <stop offset="0" stop-color="#fff"/>
      <stop offset=".52" stop-color="#fff"/>
      <stop offset="1" stop-color="#fff"/>
    </linearGradient>
  </defs>
  <path class="cls-1" d="M578.3,437.01c-16.92-8.63-21.27-31.64-16.26-48.11,4.65-15.26,14.6-16.92,28.87-18.91,12.64-1.76,20.68-8.85,27.76-9.51,5.51-.52,14.27,2.43,20.46,5.97,6.19,3.54,16.81,6.64,28.31,3.54,11.5-3.1,18.14-5.31,23.67-7.08,5.53-1.77,12.28-3.1,17.36,0,4.43,2.69,4.87,9.07,8.52,15.71,3.65,6.64,7.63,9.95,13.6,11.28,2.09.47,4.68,1.14,7.35,1.9.72-.57,1.42-1.16,2.12-1.74-12.96-5.21-23-13.02-24.18-21.17-1.21-8.32,1.94-12.88,4.59-18.64,2.65-5.75,4.81-10.45,3.48-15.1-1.13-3.94.66-8.79,6.64-9.12,2.82-.16,5.81-.28,13.77-2.49,7.96-2.21,13.29-2.5,20.63-.66,5.31,1.33,7.08,9.73,7.08,14.6,0,2.97-.32,7.74.62,13.02,1.26-2.43,2.42-4.91,3.5-7.44-.39-1.59-.69-3.38-.85-5.44-.44-5.47-1.82-11.21-3.71-15.62-4.42-10.32-2.26-24.33,4.65-29.97,2.59-2.11,5.37-3.25,8.26-3.65-.62-6.17-1.75-12.22-3.36-18.04.8,4.6.96,8.79-.48,12.07-1.55,3.54-5.45,6.73-8.05,9.87-1.99,2.41-3.57,4.98-4.81,10.87-1,4.73-2.9,10.87-11.45,14.85-7.68,3.58-28.67,7.49-45.04,6.39-16.37-1.11-46.45-10.78-57.84-21.4-6.75-6.29-6.05-14.25-5.7-18.58.39-4.7,2.16-9.95,3.93-12.61,1.77-2.65,5.75-5.75,8.63-9.51,2.88-3.76,5.09-9.95,9.73-15.04,4.65-5.09,13.27-5.31,20.57-5.53,7.3-.22,16.59-5.97,21.46-10.62,4.87-4.65,11.28-9.29,16.37-9.51,5.09-.22,8.63-.66,15.48,0,1.31.13,2.69.39,4.1.76-1.26-1.09-2.45-2.21-3.54-3.36-8.06-.15-15.27,3.32-22.07.23-8.76-3.98-7.63-14.6-.5-18.75,3.73-2.17,7.74-5.49,11.29-8.75-.02-.67-.02-1.35,0-2.03-4.77,4.6-10.94,7.65-18.98,9.03-9.22,1.58-22.3.48-32-.97-9.7-1.45-19.71.6-26.5,8.36-6.79,7.76-7.92,20.25-17.13,25.1-9.21,4.85-19.39-4.85-28.12-11.15-8.73-6.3-8.73-17.94-7.76-27.15.97-9.21,3.39-11.64,13.09-18.42,9.7-6.79,11.15-15.03,15.03-25.21,3.88-10.18,7.76-18.91,15.03-27.63,7.27-8.73,14.33-14.96,23.85-13.08,7.02,1.39,13.37,7.56,18.69,7.63,7.74.11,12.5-5.86,21.35-4.53,6.64,1,12.61,7.08,19.13,15.04,3.86,4.71,8.05,11.95,11.04,19.79.12-1.41.22-2.83.3-4.24-2.51-4.77-5.29-10.26-7.36-13.78-2.82-4.81,1.33-6.8,5.64-5.31.6.21,1.23.43,1.87.65-.05-1.09-.11-2.18-.18-3.27-8.7-1.88-16.97-5.42-19.28-8.34-3.15-3.98-4.31-7.8-2.99-12.11,1.33-4.31,4.26-11.94,5.14-19.35.67-5.59,1.23-9.18,3.72-10.55-1.07-1.97-2.2-3.89-3.4-5.77-.62-.97-1.26-1.92-1.89-2.86.06,2.23.19,4.31.41,6.16,1.87,15.81-3.65,32.2-15.93,39.84-7.32,4.56-15.93,5.85-25.33,2.86-12.83-4.09-17.17-14.86-16.59-21.78.78-9.26,8.95-21.87,16.59-28.76,9.07-8.18,9.8-19.23,8.35-27.95-.14-.86-.29-1.64-.44-2.4-1-.61-2.01-1.2-3.03-1.77.35,11.14-2.93,24.99-10.1,33.26-5.86,6.75-17.45,7.76-29.09,5.82-11.64-1.94-26.18-3.88-34.91-7.76-8.73-3.88-20.85-15.51-24.73-23.76-2.64-5.62-4.16-11.01-4.7-16.94-1.21.24-2.41.48-3.6.73,1.22,6.95,4.36,15.43,9.27,25.91,7.27,15.51,23.27,19.88,40.24,21.82,16.97,1.94,23.76,3.88,29.57,15.03,5.82,11.15-1.94,23.27-9.7,30.54s-16,15.51-18.42,28.12c-2.42,12.61-10.67,27.15-20.36,33.94-9.7,6.79-23.27,6.79-29.09-.48s-12.12-9.7-20.85-16.48c-8.73-6.79-16.16-15.19-20.36-25.21-4.2-10.02-1.94-16.16,0-23.27,1.94-7.11,6.79-14.22,7.43-24.89.65-10.67-6.46-19.39-10.34-23.59-3.88-4.2-6.14-9.37-3.88-12.93,2.26-3.56,8.73-7.11,15.51-11.31,4.61-2.86,6.53-6.46,6.99-10.5-2.95,1.03-5.85,2.13-8.71,3.29-.48,1.73-1.08,3.49-1.84,5.27-4.44,10.47-17.9,9.42-25.73,8.15-1.37.77-2.75,1.55-4.13,2.35,15.79,11.04,26.02,21.42,28.24,29.26,3.07,10.83-.57,23.45-6.77,31.12-6.21,7.67-3.29,14.24-2.19,22.27,1.1,8.03.56,14.34-2.56,17.52-3.83,3.91-7.9,4.98-12.78,3.29-6.57-2.28-13.48-8.98-16.43-16.06-4.69-11.27-13.87-23.73-18.98-32.86s-4.61-15.09-13.98-23.82c-9.37-8.73-23.59-6.3-30.06-5.33-6.46.97-11.64-4.2-14.22-7.76-1.51-2.08-2.69-4.82-3.8-7.58-3.23-2.96-6.36-5.84-9.53-8.68-.87.3-1.73.77-2.51,1.39-3.23,2.59-6.46,8.08-9.05,10.99-2.59,2.91-8.08,5.82-14.71,6.63-6.63.81-12.12-2.75-18.26-5.01-6.14-2.26-11.96-8.56-13.57-12.28-1.62-3.72-4.2-14.54-4.52-17.78-.32-3.23,0-7.43,2.1-10.5,2.1-3.07,6.63-5.17,10.18-8.24.04-.04.09-.08.13-.12-.71-.33-1.42-.65-2.14-.96-4.12,3.13-8.32,5.78-10.76,6.08-5.17.65-9.53-2.26-12.77-4.2-3.23-1.94-14.4-6.73-16.97-9.05-.93-.84-1.84-1.85-2.68-2.99-.79-.06-1.58-.12-2.38-.16.01.01.02.03.03.04,4.2,5.33,7.78,7.31,16.18,11.03,6.59,2.92,12.28,7.27,15.35,13.9,2.28,4.92,5.17,18.58,7.43,27.31,2.08,8.02,8.72,14.12,19.23,14.87,11.31.81,20.36-.32,32.48-4.85,7.76-2.9,17.54-.5,19.88,5.98,2.1,5.82-3.07,13.41-10.5,17.61-5.92,3.34-8.24,10.67-9.05,16.97-.75,5.81-3.07,13.9-6.95,19.72-3.88,5.82-11.8,8.57-22.3,5.82-9.49-2.48-18.2-12.08-26.83-17.13-8.56-5.01-17.29-5.66-24.56-3.72-7.27,1.94-13.63.69-17.94-2.26-5.66-3.88-11.96-12.77-18.75-22.46s-6.88-18.97-5.82-27.31c1.29-10.18,4.13-21.18,1.78-32.16-1.5-7.01-5.87-14.84-9.91-21.58-2.42.34-4.85.72-7.27,1.13,3.27,2.36,6.08,5.18,7.8,8.17,4.85,8.4,8.73,15.19,7.76,25.21-.97,10.02-2.59,14.54-5.49,20.04-2.91,5.49-1.94,10.5-.32,14.38,1.62,3.88,7.69,7.66,11.41,14.6,2.12,3.96,5.51,9.33,4.87,14.82-.65,5.49-6.9,17.6-14.01,21.8-7.11,4.2-18.1,1.94-23.92-.97-5.82-2.91-14.87-7.76-22.3-4.52s-14.54,15.51-25.86,16.81c-11.31,1.29-18.08-3.54-20.52-10.99-3.39-10.34-5.33-15.84-13.41-23.92-8.08-8.08-9.86-17.61-6.95-26.34,2.54-7.62,12.77-17.45,21.82-21.01,9.05-3.56,17.45-2.91,24.89-7.76,7.43-4.85,13.25-13.74,15.51-24.73.47-2.27,1.17-4.47,2.05-6.57-2.62.84-5.23,1.71-7.81,2.62-.43,1.61-.79,3.35-1.11,5.25-1.21,7.27-4.61,18.42-11.64,22.3s-21.09,5.09-28.12-.48c-2.14-1.69-4.29-3.73-6.43-5.86-.28.16-.57.32-.85.48.83.91,1.58,1.82,2.2,2.72,3.15,4.61,5.09,7.76,4.12,10.91-.97,3.15-4.85,9.21-10.91,12.12-6.06,2.91-12.21,3.86-20.12,1.7-3.08-.84-6.22-1.91-9.28-3.23-1.47,1.32-2.94,2.68-4.41,4.09,4.96,3.87,11.38,7.87,15.71,14.09,5.17,7.43,7.43,15.19,3.88,22.62s-11.31,14.87-17.45,19.07c-6.14,4.2-9.37,12.28-10.99,20.04-1.62,7.76-2.83,22.88-10.1,30.39-9.54,9.85-18.34,12.27-31.27,7.75-4.61-1.61-8.34-3.84-11.85-6.47-.84,2.11-1.7,4.18-2.61,6.22.97.67,2.11,1.19,3.54,1.51,7.11,1.62,15.95,5.45,17.1,13.96.78,5.81-.86,15.58-19.52,19.58-10.28,2.2-21.36,1.9-31.26-.33-5.76,3.09-11.99,7.38-17.82,12.69-.64,3.34-.38,6.92,1.5,9.89,2.91,4.61,9.45,10.42,10.42,18.42.97,8,3.39,14.3,0,21.09-3.39,6.79-8.73,14.3-20.12,13.57-5.34-.34-9.87-1.59-13.72-3.17.27,1.11.57,2.23.91,3.35.15.1.3.2.44.3,2.22,1.58,2.58,3.88,2.04,6.51.46,1.07.93,2.11,1.42,3.12.92-.93,2.08-1.81,3.57-2.6,7.76-4.12,15.03-3.88,20.36-8.97,5.33-5.09,7.27-10.67,12.12-13.57,4.85-2.91,12.12-1.45,13.82,4.12,1.7,5.58-.24,17.7-5.82,23.51-5.58,5.82-16.48,16.24-19.15,20.85-.37.65-.85,1.29-1.36,1.95.7.44,1.4.87,2.1,1.29,1.05-1.76,2.26-3.25,3.47-4.29,4.52-3.88,9.4-6.7,15.07-10.59,4.24-2.91,6.43-8.19,6.91-12.69.61-5.74,3.56-13.57,5.82-15.84,4.04-4.04,9.37-7.11,17.13-6.79,7.76.32,16.16,5.49,20.69,11.31s9.7,9.37,16.81,10.67c7.11,1.29,15.19,2.91,18.75,7.11s5.17,10.67,5.82,20.04c.65,9.37,2.59,23.59,8.73,29.74,6.14,6.14,15.84,10.67,21.33,17.45,5.49,6.79,7.76,17.78,0,24.56-7.76,6.79-16.81,5.17-22.62,2.26-5.82-2.91-12.61-10.02-18.42-9.37-5.82.65-7.76,2.91-10.99,5.49-3.23,2.59-7.11,4.52-12.28.97-5.17-3.56-12.61-9.98-15.84-17.41-3.23-7.43-12.16-11.8-20.24-13.09-2.93-.47-5.66-1.13-8.32-2.06.05,2.07-.09,4.14-.45,6.2,6.49-1.52,12.05-.98,17.82,1.64,7.3,3.32,10.62,9.95,13.27,16.92,2.65,6.97,7.3,11.61,12.28,12.28,4.98.66,11.61,3.98,12.94,12.28s-9.29,21.24-15.93,30.86c-6.64,9.62-8.96,14.27-3.32,24.55,5.64,10.29,14.27,22.89,1.99,31.85-12.28,8.96-27.2,1.86-38.49-8.03-5.85-5.13-18.75-11.31-24.56-13.9-5.82-2.59-7.11-11.31-9.05-15.84-1.94-4.52-1.62-9.05-.32-13.9,1.29-4.85,7.43-12.93,12.61-18.75s8.08-13.25,6.14-20.36c-1.27-4.66-1.57-8.08-1.07-12.52-.38.42-.75.83-1.14,1.25-2.56,2.74-5.02,5.59-7.36,8.53.02,1.24.24,2.59.71,4.1,2.91,9.37-1.15,17.72-7.62,27.41-6.46,9.7-8.73,16.81-5.17,24.24,3.56,7.43,3.23,19.39-6.14,19.72-1.29.04-2.63-.16-3.98-.56.22,1.37.46,2.72.74,4.06,6.37,1.9,13.19,7.83,13.82,18.65.23,3.9-.05,7.4-.83,10.63,1.71,2.31,3.56,4.52,5.55,6.62,7.79-1.66,20.83,2.44,28.47,9.17,4.93,4.34,8.29,8.57,10.7,13.19,13.45,3.45,27.17,3.73,40.91,2.04-3.4-.46-6.87-.77-9.81-.86-7.3-.22-17.91,1.55-23.11-.66-5.2-2.21-8.52-5.31-11.4-10.62-2.88-5.31-3.1-13.71,0-18.36,3.1-4.65,4.21-6.86,11.4-7.52s17.5-2.65,20.97-5.09c3.47-2.43,5.07-5.61,8.92-5.9,3.84-.29,9.15,2.36,16.01,2.8,6.86.44,13.94-3.17,18.58-2.8,6.95.55,10.62,8.78,14.38,11.21,3.76,2.43,13.94,6.41,13.49,10.18-.44,3.76-4.92,4.87-12.3,7.74-7.33,2.85-12.61,6.37-14.2,12.69,1.87-.56,3.75-1.13,5.61-1.72.33-.49.64-.98.98-1.46,7.1-9.88,17.25-10.18,29.2-11.06,1.47-.11,2.86-.07,4.18.08,1.71-.71,3.41-1.42,5.11-2.15-7.18-4.6-14.3-8.38-20.13-10.76-11.94-4.87-21.84-14.65-23-30.53-.71-9.72,1.19-21.38,6.08-25.11,5.09-3.87,8.96-6.75,15.15-7.63s9.73,3.54,16.81,10.62c7.08,7.08,12.39,11.5,19.02,7.96,6.64-3.54,7.96-5.75,12.83-7.96,4.87-2.21,8.85-1.77,12.39.44,4.52,2.82,2.21,6.64,4.87,13.27,2.65,6.64,6.19,12.39,12.83,17.25,1.65,1.21,3.2,2.62,4.66,4.13,1.39-.61,2.78-1.22,4.17-1.82-2.5-2.66-5.37-5.04-8.83-7.18-9.29-5.75-10.2-13.2-9.51-17.92.88-6.08,3.87-9.95,11.06-8.63,4.83.89,17.52,5.09,23.23,3.21,8.74-2.88,10.62-14.49,14.82-18.03,4.2-3.54,7.74-3.32,15.48-.66,7.74,2.65,15.93.44,22.56.22,6.64-.22,9.99,1.26,14.32,6.83,4.28,5.5,2.55,10.23-1.27,17.72-3.76,7.36-3.79,10.98-1.71,18.44,1.52,5.47-.26,9.33-4.18,13.13.73.97,1.45,1.96,2.18,2.95.06-.08.12-.16.18-.24,5.97-7.96,4.98-22.23,5.97-31.52s10.45-14.27,17.75-12.28c7.3,1.99,13.94,4.81,23.72,6.97,10.17,2.24,14.1,5.31,19.41,12.77,3.55,4.99,11.12,21.07,16.42,29.36,5.31,8.29,15.76,12.53,22.06,15.26,5.74,2.49,3.82,7.3.5,9.95-3.32,2.65-9.12,4.48-17.09,5.81-7.96,1.33-11.12,5.31-14.76,11.12-1.66,2.65-3.42,4.56-5.37,6.02,1.06.24,2.13.46,3.19.66.86-1.1,1.78-2.17,2.79-3.18,8.13-8.23,25.63-17.92,44.18-19.09,17.47-1.11,23.89-5.97,40.48-10.62,5.25-1.47,11.16-.79,17.03,1.3.75-.71,1.5-1.42,2.24-2.15-6.63-1.9-13.05-3.56-14.29-6.78-1.66-4.31,1.59-10.76,5.31-17.59,2.99-5.47,8.29-12.12,20.24-16.68,11.94-4.56,17.25-6.22,22.89-13.52,5.64-7.3,12.77-18.41,20.9-21.57,8.1-3.14,17.03-1.16,24.55,5.14.34.28.64.57.95.87.22-.07.45-.15.67-.22,1.88-.57,3.72-1.13,5.54-1.68-8.86-4.98-16.09-8.83-23.75-12.73ZM65.34,517.75c-2.88,3.76-3.76,4.87-8.41,4.65-4.65-.22-11.06-3.54-16.59-4.87-5.53-1.33-6.64-4.2-7.74-7.96-1.11-3.76-1.33-11.72-2.65-16.59-1.33-4.87-3.3-8.83,0-11.72,3.54-3.1,7.74-1.33,12.17,0,4.42,1.33,11.06,6.64,16.15,10.84,5.09,4.2,11.5,7.96,13.05,12.39,1.55,4.42-3.1,9.51-5.97,13.27ZM560.5,383.26c-1.54,5.84-3.14,11.14-9.4,16.15-9.4,7.52-23.45,9.18-41.59-.66-13.41-7.28-24.55-12.28-30.41-16.92-5.72-4.54-5.17-12.29,1-16.37,6.53-4.31,15.48-10.06,19.47-14.93,3.98-4.87,9.29-9.95,15.26-10.18,5.54-.21,12.17,1.77,17.7,5.75,5.53,3.98,9.62,7.3,14.27,12.06,4.39,4.5,7.41,8.07,11.17,11.17,3.76,3.1,4.09,8.07,2.54,13.94ZM437.93,364.02c-11.15-2.91-21.82-2.91-28.6,1.94-6.79,4.85-7.11,12.44-10.02,19.72-2.91,7.27-7.11,10.99-13.9,13.41-6.79,2.42-21.33.16-28.12-9.53-6.79-9.7-9.53-16.65-8.4-26.18,1.36-11.44,7.76-15.03,16-20.2,10.54-6.61,14.87-11.64,16.81-21.82,1.94-10.18,1.94-16.48,9.7-26.66s14.87-18.58,22.46-21.33c5.55-2.01,14.06.32,18.42,10.02,4.36,9.7,7.11,21.49,14.38,23.92,7.27,2.42,16.37,1.34,23.2-7.27,7.26-9.15,10.26-10.97,19.4-11.51,7.89-.47,16.87,2.47,22.68,10.71,7.14,10.12,6.46,19.72.16,29.9s-16,24.08-32.48,31.51c-13.95,6.29-30.54,6.3-41.69,3.39ZM466.26,392.33c-4.87,1.77-9.13,3.81-15.15,6.41-8.96,3.87-18.67,5.29-25.44,3.98-6.3-1.22-9.53-2.39-13.27-3.98-4.42-1.88-7.71-3.54-9.71-6.28-1.88-2.58-1.3-6.5.03-12.47,1.33-5.97,3.48-10.89,9.01-13.77,5.53-2.88,14.16-3.1,20.13-1.77,5.97,1.33,11.94,3.1,18.36,3.98,6.41.88,13.8.49,17.47,3.43,4.42,3.54,5.84,6.22,6.19,10.29.33,3.76-2.76,8.41-7.63,10.18ZM281.17,300.02c.97,8.08-2.87,14.91-11.6,14.91s-18.46-14.26-22.67-20.73c-4.2-6.46-14.22-22.62-17.78-30.7-3.56-8.08-9.37-20.36-16.81-24.24-7.43-3.88-16.05-3.13-23.27-2.91-8.08.24-12.93-1.62-17.45-4.85-4.52-3.23-7.43-10.67-5.49-17.45,1.94-6.79,6.79-9.7,12.93-11.64,6.14-1.94,15.51,0,24.89,0s25.21.65,32-3.88c6.79-4.52,10-12.2,14.22-17.78,4.04-5.33,10.58-8.85,18.34-8.73,6.27.1,12.68,2.7,17.09,6.79,5.09,4.73,8.52,8.77,10.79,15.88,2.26,7.11-2.59,16.44-6.79,24.52s-1.94,17.13-.32,26.18c1.62,9.05-1.62,17.78-5.49,26.5-3.88,8.73-3.56,20.04-2.59,28.12ZM283.11,282.57c1.62-9.05,7.76-17.13,11.31-21.66,3.56-4.52,4.85-12.28,3.23-18.42-1.62-6.14-3.43-20.22-2.1-27.15,1.45-7.6,4.39-12.19,9.53-14.54,7.76-3.56,16.24-2.18,24.32,2.34,8.08,4.53,12.2,15.43,18.67,21.9,6.46,6.46,10.99,7.43,19.07,7.11,8.08-.32,15.19-1.13,25.53,2.75,10.34,3.88,17.04,8.53,18.42,17.94,1.45,9.86-3.56,17.13-10.02,25.21-6.46,8.08-18.1,13.9-21.33,20.69s-2.54,17.93-4.52,25.21c-2.42,8.89-7.76,13.74-13.57,18.58-5.82,4.85-14.87,7.6-21.66,6.95-6.79-.65-10.99-6.14-15.84-10.67-4.85-4.52-13.57-8.73-19.07-13.57-5.49-4.85-15.84-12.28-18.42-18.1-2.59-5.82-4.87-17.18-3.56-24.56ZM608.26,358.85c-13.53,11.31-35.23,7.76-45.25,6.79-10.02-.97-17.78-13.57-26.5-19.39-8.73-5.82-16.16-10.99-16.81-18.42-.65-7.43-.32-16.16-1.29-21.65-.97-5.49,1.94-10.02,6.14-12.28,4.2-2.26,8.08-3.88,11.31-8.08,3.23-4.2,8.73-10.02,14.22-10.67,10.99-1.29,19.39,9.05,24.24,16.16,4.85,7.11,12.11,11.01,19.74,16.48,7.09,5.09,13.49,12.24,18.08,19.74,4.98,8.13,5.41,23.56-3.88,31.33ZM654.95,306.29c2.49,1.66,12.44,8.29,20.41,11.94,7.96,3.65,21.73,9.95,35,12.61,13.27,2.65,14.6,9.95,6.64,17.92-7.96,7.96-23.94,9.8-35.83,15.26-14.43,6.64-40.38,4.61-53.09-6.53-10.73-9.4-11.12-15.26-10.95-22.23s-3.21-10.67-6.86-14.16c-4.27-4.08-6.41-6.53-4.59-9.35,1.82-2.82,8.63-2.32,13.11-2.32s8.79-1.16,12.94-3.65c4.15-2.49,9.31-6.41,13.44-5.47,3.65.83,7.3,4.31,9.79,5.97ZM655.86,208.07c4.81-6.14,11.36-7.63,16.67-7.63s10.62,1.33,15.59,2.32c4.98,1,12.61.66,18.58,3.32,5.47,2.43,8.63,6.3,9.29,13.27s-5.97,13.6-16.92,18.25-24.27,3.05-32.18-.33c-7.96-3.4-14.35-5.06-16.26-10.29-2.06-5.64,1.16-13.73,5.23-18.91ZM526.65,155.06c4.38-6.14,18.91-4.36,28.6,2.91,9.7,7.27,12.61,16,18.91,22.3,6.3,6.3,11.15,4.85,16.97,7.76,5.82,2.91,5.33,3.39,6.79,13.57,1.45,10.18,3.39,24.73,10.67,30.06,7.27,5.33,19.39,8.73,30.54,6.3,11.15-2.42,19.39-6.79,25.7,2.42,6.3,9.21-5.33,18.91-10.67,25.21-5.33,6.3-5.82,10.18-9.21,21.82-3.39,11.64-14.06,19.88-27.63,20.36s-33.45-9.21-41.21-19.88-17.94-15.51-25.21-21.33c-7.27-5.82-12.61-17.94-15.03-28.6-2.42-10.67-1.45-27.63-.97-37.33.48-9.7,0-22.79-6.3-31.03-6.3-8.24-4.36-11.15-1.94-14.54ZM509.44,157.73c14.54,6.06,18.67,15.76,21.33,25.45s-.24,24-2.42,29.09c-2.18,5.09-4.85,10.67-3.88,16.48.97,5.82,5.09,9.45,9.7,16,4.61,6.55,6.79,18.42,5.82,25.94-.97,7.51-5.09,15.51-12.12,18.18-7.03,2.67-19.39,0-25.94-3.15-6.54-3.15-11.88-5.82-17.21-3.88-5.33,1.94-8,5.09-12.36,10.67-4.36,5.58-13.57,8.73-20.85,7.51-7.27-1.21-12.26-6.03-15.84-15.84-3.15-8.65-5.49-12.77-10.34-16.4-6.09-4.56-10.67-10.18-9.7-18.42.97-8.24,7.76-16.97,12.12-21.57,4.36-4.61,10.81-8.27,19.03-9.21,9.58-1.09,15.64-2.91,19.27-8,3.64-5.09,6.54-14.54,8-22.79,1.45-8.24,4.85-15.76,11.15-21.33,6.3-5.58,15.39-12.41,24.24-8.73ZM397.93,138.58c2.67-5.82,3.39-13.09,4.85-20.12,1.45-7.03,6.79-18.18,10.18-23.03,3.39-4.85,9.45-13.82,18.67-18.18,9.21-4.36,23.88-6.89,30.95-2.42,3.07,1.94,5.33,6.46,6.14,10.75.76,4.05,1.45,9.45,5.33,14.06,3.88,4.61,12.85,13.25,17.45,18.58,4.61,5.33,8.73,15.27,10.67,21.33,1.94,6.06-.48,11.39-5.82,14.79-5.33,3.39-11.64,6.3-18.18,9.7-6.54,3.39-9.21,10.42-9.94,17.94-.73,7.51.4,17.5-3.15,23.76-5.58,9.82-13.82,10.67-20.12,10.91-6.3.24-9.94-1.45-12.85-6.06-2.91-4.61-6.06-10.67-10.18-14.79-4.12-4.12-12.85-7.51-17.21-13.09-4.36-5.58-8-15.51-9.21-22.3-1.21-6.79-.24-16,2.42-21.82ZM312.6,116.28c2.35-4.24,11.39-7.51,17.45-7.27,6.06.24,12.12,2.42,18.42,8,6.3,5.58,10.42,10.91,17.7,13.09,7.27,2.18,18.67,2.91,22.79,7.27,4.12,4.36,3.88,11.15,4.61,19.39.73,8.24.48,19.15,5.82,25.21,5.33,6.06,11.64,11.15,18.18,16.48,6.54,5.33,10.91,10.67,11.15,17.21.24,6.54-3.15,10.67-8.24,15.27-5.09,4.61-14.3,3.88-20.36.48-6.06-3.39-10.67-8.24-16-8.97-5.33-.73-8.24.73-11.88,4.12-3.64,3.39-9.7,4.36-14.54.97-4.85-3.39-11.39-9.45-14.54-16.48-3.15-7.03-7.03-11.39-16.24-12.61-9.21-1.21-18.18-1.7-24.24-6.3-6.06-4.61-12.12-10.42-13.82-17.7-1.7-7.27-.97-16.48,1.21-20.85,2.18-4.36,6.79-7.03,11.39-9.7,4.61-2.67,6.3-4.85,6.79-9.7s1.94-13.57,4.36-17.94ZM258.55,129.61c2.67-2.67,7.51-2.3,14.3-4,6.79-1.7,12.12-6.3,14.54-10.54,1.8-3.16,4.85-6.54,7.51-8.48,3.6-2.62,8.97-1.45,11.64,4.12,2.67,5.58,2.18,15.64-2.91,21.45-5.09,5.82-13.33,11.27-15.27,17.57-2.12,6.89-4.73,16.6-11.27,18.67-7.57,2.38-13.02.04-16.97-4.85-2.55-3.15-1.33-13.33-2.06-18.91-.73-5.58-2.18-12.36.48-15.03ZM100.5,189.97c2.91-7.76,9.53-13.74,17.29-19.39,8.63-6.29,6.86-16.49,9.27-28.36,2.16-10.62,4.89-15.34,12.44-22.89,7.43-7.43,18.55-15.74,26.29-15,10.18.97,14.87,14.38,18.26,23.59,3.39,9.21,9.53,12.77,16.65,13.25,9.78.67,17.33-11.1,23.11-16,5.33-4.52,11.96-6.63,18.26-4.2,6.3,2.42,10.99,8.89,13.25,18.26,2.05,8.5,1.37,23.87-4.04,32.81-6.95,11.47-16.97,17.94-30.06,23.27-13.09,5.33-33.4,4.38-42.66,4.52-10.67.16-16.32,3.39-18.26,10.34-1.4,5.02-4.16,11.2-10.5,16.65-5.66,4.85-23.59,5.82-32.81,3.39-9.21-2.42-16.48-12.61-19.39-19.88-2.91-7.27,0-12.61,2.91-20.36ZM133.47,295.66c-7.76.97-15.51-.81-22.79-6.79-9.27-7.62-14.71-14.71-25.86-16.16-7.75-1.01-15.68.16-20.52.65-4.85.48-13.25-.48-19.07-8.24-5.82-7.76-11.15-18.18-13.57-26.42-1.83-6.21-4-16.24,0-20.12,3.97-3.85,15.99-1.23,23.27-1.45,8-.24,23.76-4.69,30.22-4.04,7.38.74,9.53,3.07,13.9,9.37,4.36,6.3,11.15,16,23.27,14.54,12.12-1.45,27.63-5.82,34.91-6.3,7.27-.48,16,2.91,12.61,10.18s-12.12,10.18-16.48,17.94c-4.36,7.76-4.36,15.03-6.79,22.79-2.42,7.76-5.33,13.09-13.09,14.06ZM173.22,369.35c-3.64-6.06-9.21-9.45-15.51-12.61-6.3-3.15-9.45-9.21-10.91-14.79-1.45-5.58-4.12-14.3-3.88-19.88.24-5.58,0-14.54,1.7-20.85,1.7-6.3,4.97-15.39,5.82-24.73.64-7.01,4.97-17.7,11.39-21.94,5.62-3.71,11.02-7.95,16.6-10.91,5.94-3.15,17.94-6.18,25.21-4.24,7.27,1.94,13.82,7.39,14.91,13.7,1.26,7.25,1.45,12.48,7.51,17.33,6.06,4.85,13.09,13.57,16.97,20.36,3.88,6.79,8.24,14.3,6.3,21.33-1.94,7.03-7.27,12.36-15.03,16-7.76,3.64-15.76,11.39-17.21,20.36-1.45,8.97-.48,18.42-5.33,25.21-4.85,6.79-11.39,8.73-19.39,8-8-.73-15.51-6.3-19.15-12.36ZM147.8,477.33c-.39,8.18-2.54,12.94-6.3,16.26-3.76,3.32-13.44,3.37-21.29.39-5.95-2.26-10.06-7.74-12.94-14.38-2.88-6.64-5.75-12.06-5.97-18.91s.33-12.17,2.54-16.37c2.21-4.2,6.64-8.85,11.06-9.07,4.42-.22,11.28,2.43,15.93,4.87s14.16,8.63,16.48,15.15c2.22,6.24.88,14.02.5,22.06ZM169.69,442.16c-2.82,4.81-10.78,9.29-18.75,7.63s-11.28-8.46-17.25-11.28c-5.97-2.82-12.61-6.97-13.6-11.94-1-4.98,1.16-9.12.83-12.94s-4.48-6.97-2.82-11.94c1.66-4.98,5.47-6.14,11.78-6.8,4.95-.52,13.94,3.32,18.58,5.14,4.65,1.82,8.79,3.48,10.12,7.13,1.33,3.65.83,7.3,1,12.11.17,4.81,3.82,8.96,6.8,11.12,2.99,2.16,6.14,6.97,3.32,11.78ZM288.12,433.35c-.48,8.73-5.33,19.39-14.54,23.76-9.21,4.36-22.79-3.39-32-5.82-9.21-2.42-17.94,0-25.21,5.33-7.27,5.33-17.94,9.21-24.73,0-6.79-9.21-11.64-15.03-19.88-23.76-8.24-8.73-10.67-11.15-9.7-18.42.97-7.27,8.73-14.06,15.03-19.88,6.3-5.82,13.09-8.24,22.79-9.7,9.7-1.45,16.97-4.85,18.91-15.03,1.94-10.18.97-17.94,6.3-25.7,5.33-7.76,14.54-16,27.15-16.48,8.73-.34,18.42,5.82,22.3,16,3.88,10.18,6.79,22.79,2.42,32.97-4.36,10.18-6.3,16.97-.48,26.66,5.82,9.7,12.12,21.33,11.64,30.06ZM385.08,460.98c-7.76.97-17.45-3.88-27.63-10.67-10.18-6.79-16.97-12.12-27.15-11.64-10.18.48-16.97,4.85-25.7-.97-8.73-5.82-11.64-10.67-16.97-21.33-5.33-10.67-8.73-19.39-8.24-28.6.48-9.21,3.88-22.3,4.85-29.57.97-7.27-.48-11.15-5.82-17.45-5.33-6.3-4.36-13.09-1.94-17.94,2.61-5.22,14.54-4.85,23.27.97,8.73,5.82,15.03,14.54,19.39,18.91,4.36,4.36,8.24,6.3,14.06,8.24,5.82,1.94,10.67,2.42,12.12,11.64,1.45,9.21-.97,19.88,6.3,28.12,7.27,8.24,15.03,14.06,24.73,12.61,9.7-1.45,17.94-2.91,27.63-3.39,9.7-.48,12.61,2.42,14.06,8.24,1.45,5.82-4.36,10.18-8.73,15.51-4.36,5.33-7.27,12.61-8.73,19.88-1.45,7.27-7.76,16.48-15.51,17.45ZM559.72,449.84c-7.96,13.22-42.91,29.64-52.64,40.7-9.73,11.06-19.47,32.74-35.83,36.72-16.37,3.98-43.24-13.74-53.2-28.53-11.28-16.76-15.93-31.69-14.93-49.77.74-13.43,7.13-24.06,16.37-32.74,5.25-4.93,14.16-7.52,23.89-11.5,9.73-3.98,23.93-9.35,35.72-11,10.62-1.49,18.69,1.71,27.1,6.58,8.41,4.87,18.14,8.41,24.33,8.85,6.19.44,15.1-.55,20.41,1.66,5.31,2.21,8.3,7.47,10.95,14.27,2.81,7.21,2.95,16.3-2.16,24.77Z"/>
</svg>