<?xml version="1.0" encoding="UTF-8"?>
<svg id="Ripples_2" data-name="Ripples 2" xmlns="http://www.w3.org/2000/svg" xmlns:xlink="http://www.w3.org/1999/xlink" viewBox="0 0 784.64 547.32">
  <defs>
    <style>
      .cls-1 {
        fill: url(#_êVãKÉOÉâÉfÅ_ÉVÉáÉìÉXÉEÉHÉbÉ_7);
        opacity: .15;
      }
    </style>
    <linearGradient id="_êVãKÉOÉâÉfÅ_ÉVÉáÉìÉXÉEÉHÉbÉ_7" data-name="êVãKÉOÉâÉfÅ[ÉVÉáÉìÉXÉEÉHÉbÉ` 7" x1="0" y1="273.66" x2="784.64" y2="273.66" gradientUnits="userSpaceOnUse">
      <stop offset="0" stop-color="#fff"/>
      <stop offset=".52" stop-color="#fff"/>
      <stop offset="1" stop-color="#fff"/>
    </linearGradient>
  </defs>
  <path class="cls-1" d="M708.78,385.18c-7.11-1.62-15.95-5.45-17.1-13.96-.78-5.81.86-15.58,19.52-19.58,17.45-3.74,37.22-.29,49.53,7.63.53-.67,1.03-1.36,1.54-2.04-1.11-1.09-2.01-2-2.52-2.62-2.42-2.91-3.39-5.82-1.21-10.18s3.15-10.42.24-15.03c-2.91-4.61-9.45-10.42-10.42-18.42-.97-8-3.39-14.3,0-21.09,3.39-6.79,8.73-14.3,20.12-13.57,6.52.42,11.84,2.18,16.16,4.25-.07-.85-.15-1.71-.24-2.55-1.27-.69-2.48-1.41-3.56-2.18-4.09-2.91-1.89-8.26.68-13.65-.22-.84-.46-1.68-.69-2.52-.83,3.25-2.32,6.64-7.02,9.14-7.76,4.12-15.03,3.88-20.36,8.97-5.33,5.09-7.27,10.67-12.12,13.57-4.85,2.91-12.12,1.45-13.82-4.12-1.7-5.58.24-17.7,5.82-23.51,5.58-5.82,16.48-16.24,19.15-20.85,2.67-4.61,9.94-9.21,8.48-15.76-.46-2.08-1.16-3.82-2.03-5.51-2.28-2.2-4.68-4.23-7.23-6.05-2.39-1.71-4.53-3.53-6.44-5.45-4.51,2.52-12.34-2.78-12.82-11.66-.2-3.74.35-7.24,1.26-10.76-.19-1.17-.32-2.35-.41-3.54-1.1,5.08-2.52,8.32-7.49,10.16-8.96,3.32-15.93,3.32-23.23,0s-10.62-9.95-13.27-16.92c-2.65-6.97-7.3-11.61-12.28-12.28-4.98-.66-11.61-3.98-12.94-12.28-1.33-8.29,9.29-21.24,15.93-30.86,6.64-9.62,8.96-14.27,3.32-24.55-5.64-10.29-14.27-22.89-1.99-31.85,12.28-8.96,27.2-1.86,38.49,8.03,3.7,3.24,10.2,6.9,15.95,9.8-.19-.7-.39-1.39-.59-2.08-3.69-2.28-7.83-5.62-11.27-8.46-5.09-4.2-11.5-7.96-13.05-12.39-1.55-4.42,3.1-9.51,5.97-13.27.24-.31.45-.59.66-.86-1.16-1.52-2.33-2.99-3.52-4.42-.05,3.15-.77,6.19-2.23,8.38-3.1,4.65-4.21,6.86-11.4,7.52-7.18.66-17.5,2.65-20.97,5.09-3.47,2.43-5.07,5.61-8.92,5.9-3.84.29-9.15-2.36-16.01-2.8-6.86-.44-13.94,3.17-18.58,2.8-6.95-.55-10.62-8.78-14.38-11.21-3.76-2.43-13.94-6.41-13.49-10.18.44-3.76,4.92-4.87,12.3-7.74,7.38-2.88,12.69-6.41,14.24-12.83,1.55-6.41,3.76-12.17,6.86-13.38s8.63,1.44,13.27,3.43c4.65,1.99,15.26,3.54,22.56,3.76,3.55.11,7.87-.25,11.98-.4-1.1-.68-2.21-1.34-3.32-1.97-6.28.05-13.97-.93-21.93-2-10.67-1.44-18.13-3.8-21.56-11.24-1.5-.16-3.01-.29-4.53-.4-1.37,8.91-4.2,17.5-9.96,25.52-7.1,9.88-17.25,10.17-29.2,11.06-11.94.88-18.89-7.63-23.67-12.83-4.94-5.38-11.06-9.9-16.52-13.68-1.17.38-2.32.77-3.47,1.16,4.35,3.49,9.06,7.11,12.97,10.86,12.2,11.69,29.59,22.45,41.53,27.32,11.94,4.87,21.84,14.65,23,30.53.71,9.72-1.19,21.38-6.08,25.11-5.09,3.87-8.96,6.75-15.15,7.63-6.19.88-9.73-3.54-16.81-10.62-7.08-7.08-12.39-11.5-19.02-7.96-6.64,3.54-7.96,5.75-12.83,7.96-4.87,2.21-8.85,1.77-12.39-.44-4.52-2.82-2.21-6.64-4.87-13.27-2.65-6.64-6.19-12.39-12.83-17.25-6.64-4.87-11.5-12.83-16.37-18.58-4.46-5.28-10.29-8.66-13.04-15.54-2,1.22-4.01,2.47-6.06,3.75-.16.1-.33.2-.5.3,8.23,2.59,15.16,9.34,19.6,17.24,4.12,7.33,8.88,13.06,16.37,17.7,9.29,5.75,10.2,13.2,9.51,17.92-.88,6.08-3.87,9.95-11.06,8.63-4.83-.89-17.52-5.09-23.23-3.21-8.74,2.88-10.62,14.49-14.82,18.03-4.2,3.54-7.74,3.32-15.48.66-7.74-2.65-15.93-.44-22.56-.22-6.64.22-9.99-1.26-14.32-6.83-4.28-5.5-2.55-10.23,1.27-17.72,3.76-7.36,3.79-10.98,1.71-18.44-1.91-6.87,1.38-11.2,7.58-16.06,2.36-1.85,3.95-3.77,4.98-5.68-2.24.06-4.46.01-6.65-.14-1.3,2.17-2.71,4.22-4.08,6.05-5.97,7.96-4.98,22.23-5.97,31.52-1,9.29-10.45,14.27-17.75,12.28-7.3-1.99-13.94-4.81-23.72-6.97-10.17-2.24-14.1-5.31-19.41-12.77-3.55-4.99-11.12-21.07-16.42-29.36-5.31-8.29-15.76-12.53-22.06-15.26-5.74-2.49-3.82-7.3-.5-9.95,3.32-2.65,9.12-4.48,17.09-5.81,7.96-1.33,11.12-5.31,14.76-11.12,1.58-2.51,3.24-4.35,5.06-5.79-.8-.5-1.61-1-2.43-1.5-.99,1.32-2.06,2.59-3.24,3.79-8.13,8.23-25.63,17.92-44.18,19.09-17.47,1.11-23.89,5.97-40.48,10.62-16.59,4.65-39.82-12.17-47.12-26.99-2.17-4.41-2.9-9.92-2.86-15.33-2.04.59-4.08,1.21-6.11,1.85-.24.71-.52,1.44-.88,2.2-3.71,7.81-13.64,14.18-23.37,6.62-.81.33-1.61.67-2.41,1.01.64.5,1.29,1.03,1.95,1.61,5.31,4.65,14.1,5.81,19.08,3.82,4.98-1.99,11.74-1.49,16.92,7.13,5.49,9.14,10.6,13.83,18.89,16.85s19.26,4.55,20.92,8.86c1.66,4.31-1.59,10.76-5.31,17.59-2.99,5.47-8.29,12.12-20.24,16.68-11.94,4.56-17.25,6.22-22.89,13.52-5.64,7.3-12.77,18.41-20.9,21.57-8.1,3.14-17.03,1.16-24.55-5.14-7.52-6.3-7.63-14.43-3.98-22.73,3.65-8.29,9.64-18.25,9.64-31.85,0-11.92-6.93-26.21-6.82-33.84.03-2.45.17-4.53.48-6.36-1.45.71-2.9,1.43-4.34,2.16.34,5.62,1.35,10.88,2.71,15.58,5.64,19.59,2.82,45.29-6.75,53.88-8.63,7.74-25.52,5.24-43.58-6.19-6.45-4.08-11.73-8.28-16.17-12.7-.67.81-1.35,1.62-2.01,2.43,1.87,2.81,2.82,5.59,1.81,8.27-1.12,2.99-5.29,3.87-10.92,3.84-.6.85-1.19,1.71-1.78,2.57,21.58,2.73,44.23,8.41,55.17,14.82,19.24,11.28,30.61,17.5,43.13,23.89,16.92,8.63,21.27,31.64,16.26,48.11-4.65,15.26-14.6,16.92-28.87,18.91-12.64,1.76-20.68,8.85-27.76,9.51-5.51.52-14.27-2.43-20.46-5.97-6.19-3.54-16.81-6.64-28.31-3.54-11.5,3.1-18.14,5.31-23.67,7.08-5.53,1.77-12.28,3.1-17.36,0-4.43-2.69-4.87-9.07-8.52-15.7-.85-1.54-1.71-2.9-2.62-4.1-.77,1.21-1.57,2.39-2.39,3.54,3.39,3.24,5.6,6.73,6.12,10.28,1.21,8.32-1.94,12.88-4.59,18.64-2.65,5.75-4.81,10.45-3.48,15.1,1.13,3.94-.66,8.79-6.64,9.12-2.82.16-5.81.28-13.77,2.49-7.96,2.21-13.29,2.5-20.63.66-4.8-1.2-6.7-8.17-7.02-13.1-.9,1.25-1.76,2.53-2.58,3.85.68,3.65,1.71,7.19,2.97,10.13,4.42,10.32,2.26,24.33-4.65,29.97-1.88,1.54-3.87,2.55-5.92,3.14.31,1.28.67,2.57,1.09,3.87.22.7.46,1.38.7,2.06,1.69-3.32,5.3-6.34,7.76-9.32,1.99-2.41,3.57-4.98,4.81-10.87,1-4.73,2.9-10.87,11.45-14.85,7.68-3.58,28.67-7.49,45.04-6.39,16.37,1.11,46.45,10.78,57.84,21.4,6.75,6.29,6.05,14.25,5.7,18.58-.39,4.7-2.16,9.95-3.93,12.61-1.77,2.65-5.75,5.75-8.63,9.51-2.88,3.76-5.09,9.95-9.73,15.04-4.65,5.09-13.27,5.31-20.57,5.53-7.3.22-16.59,5.97-21.46,10.62-3.06,2.92-6.73,5.84-10.3,7.66.65,1.67,1.19,3.38,1.58,5.12,6.91,4.46,5.55,13.87-1,17.78-.14.37-.27.75-.42,1.12-.5,1.21-1.03,2.37-1.58,3.5,2.86-1.24,6.03-2.18,9.58-2.79,9.22-1.58,22.3-.48,32,.97,9.7,1.45,19.71-.6,26.5-8.36,6.79-7.76,7.92-20.25,17.13-25.09,9.21-4.85,19.39,4.85,28.12,11.15,8.73,6.3,8.73,17.94,7.76,27.15-.97,9.21-3.39,11.64-13.09,18.42-9.7,6.79-11.15,15.03-15.03,25.21-3.88,10.18-7.76,18.91-15.03,27.63-7.27,8.73-14.33,14.96-23.85,13.08-7.02-1.39-13.37-7.56-18.69-7.63-7.74-.11-12.5,5.86-21.35,4.53-6.64-1-12.61-7.08-19.13-15.04-7.71-9.41-16.77-28.92-14.84-43.19-1.59,1.95-3.11,3.94-4.58,5.98.36,6.27,2.69,11.9,5.49,16.87,2.99,5.31,7.13,13.77,9.95,18.58,2.82,4.81-1.33,6.8-5.64,5.31-4.31-1.49-9.95-3.65-13.94-3.15-3.19.4-9.04,3.35-14.49,4.94-.12.76-.23,1.53-.33,2.29,5.63-1.78,12.08-2.99,17.64-2.75,11.28.5,25.55,5.64,28.7,9.62,3.15,3.98,4.31,7.8,2.99,12.11-1.33,4.31-4.26,11.94-5.14,19.35-.71,5.94-1.3,9.61-4.2,10.78-3.43,1.38-6.53-.66-12.28-4.98-5.05-3.79-16.37-8.57-21.01-8.41-1.25.04-2.49.23-3.71.49.18.58.36,1.15.55,1.72,6.02-1.02,19.47,5.34,24.01,8.64,7.69,5.59,13.16,11.39,15.04,23.23.5,3.12.25,7.37-.42,11.64.55.26,1.1.52,1.66.77,1.89-10.6,2.48-22.85,1.53-30.87-1.87-15.81,3.65-32.2,15.93-39.84,7.32-4.56,15.93-5.85,25.33-2.86,12.83,4.09,17.17,14.86,16.59,21.78-.78,9.26-8.95,21.87-16.59,28.76-9.07,8.18-9.8,19.23-8.35,27.95.2,1.21.41,2.31.62,3.33.94.04,1.88.07,2.83.09-.18-11.01,3.11-24.42,10.12-32.51,5.86-6.75,17.45-7.76,29.09-5.82,11.64,1.94,26.18,3.88,34.91,7.76,4.16,1.85,9.08,5.46,13.52,9.63,1.97-.8,3.94-1.61,5.9-2.44-8.31-10.03-21.76-13.33-35.9-14.95-16.97-1.94-23.76-3.88-29.57-15.03-5.82-11.15,1.94-23.27,9.7-30.54,7.76-7.27,16-15.51,18.42-28.12,2.42-12.61,10.67-27.15,20.36-33.94,9.7-6.79,23.27-6.79,29.09.48,5.82,7.27,12.12,9.7,20.85,16.48,8.73,6.79,16.16,15.19,20.36,25.21,4.2,10.02,1.94,16.16,0,23.27-1.94,7.11-6.79,14.22-7.43,24.89-.23,3.73.51,7.21,1.7,10.35.67-.32,1.35-.63,2.02-.95-2.77-10.69.83-22.98,6.92-30.5,6.21-7.67,3.29-14.24,2.19-22.27-1.1-8.03-.56-14.34,2.56-17.52,3.83-3.91,7.9-4.98,12.78-3.29,6.57,2.28,13.48,8.98,16.43,16.06,4.69,11.27,13.87,23.73,18.98,32.86.77,1.37,1.41,2.68,1.98,3.93,3.33-.05,6.57.23,9.66.93-.72-1.74-1.69-3.48-3.07-5.12-3.88-4.61-12.85-13.25-17.45-18.58-4.61-5.33-8.73-15.27-10.67-21.33-1.94-6.06.48-11.39,5.82-14.79,5.33-3.39,11.64-6.3,18.18-9.7,6.54-3.39,9.21-10.42,9.94-17.94.73-7.51-.4-17.5,3.15-23.76,5.58-9.82,13.82-10.67,20.12-10.91,6.3-.24,9.94,1.45,12.85,6.06,2.91,4.61,6.06,10.67,10.18,14.79,4.12,4.12,12.85,7.51,17.21,13.09,4.36,5.58,8,15.51,9.21,22.3,1.21,6.79.24,16-2.42,21.82s-3.39,13.09-4.85,20.12c-1.45,7.03-6.79,18.18-10.18,23.03-3.39,4.85-9.45,13.82-18.67,18.18-4.01,1.9-9.06,3.45-14.07,4.23.83,1.14,1.66,2.29,2.49,3.45,1.78-.21,3.36-.45,4.63-.65,6.46-.97,11.64,4.2,14.22,7.76,2.59,3.56,4.2,9.05,6.14,13.25,1.94,4.2,6.46,4.2,9.7,1.62s6.46-8.08,9.05-10.99c2.59-2.91,8.08-5.82,14.71-6.63,6.63-.81,12.12,2.75,18.26,5.01,6.14,2.26,11.96,8.56,13.57,12.28,1.62,3.72,4.2,14.54,4.52,17.78.32,3.23,0,7.43-2.1,10.5-.49.72-1.13,1.39-1.84,2.03.52-.03,1.05-.05,1.57-.09,3.58-.25,7.01-.58,10.34-.98-1.7-1.83-3.15-3.92-4.25-6.3-2.28-4.92-5.17-18.58-7.43-27.31-2.08-8.02-8.72-14.12-19.23-14.87-11.31-.81-20.36.32-32.48,4.85-7.76,2.9-17.54.5-19.88-5.98-2.1-5.82,3.07-13.41,10.5-17.61,5.92-3.34,8.24-10.67,9.05-16.97.74-5.81,3.07-13.9,6.95-19.72,3.88-5.82,11.8-8.56,22.3-5.82,9.49,2.48,18.2,12.08,26.83,17.13,8.56,5.01,17.29,5.66,24.56,3.72,7.27-1.94,13.63-.69,17.94,2.26,5.66,3.88,11.96,12.77,18.75,22.46s6.88,18.97,5.82,27.31c-.67,5.28-1.75,10.78-2.31,16.38.92-.65,1.83-1.31,2.73-1.98,1-6.81,2.52-10.69,4.91-15.21,2.91-5.49,1.94-10.5.32-14.38-1.62-3.88-7.69-7.66-11.41-14.6-2.12-3.96-5.51-9.33-4.87-14.82.65-5.49,6.9-17.6,14.01-21.8,7.11-4.2,18.1-1.94,23.92.97,5.82,2.91,14.87,7.76,22.3,4.52,7.43-3.23,14.54-15.51,25.86-16.81,10.77-1.23,17.41,3.1,20.13,9.94.93-.28,1.85-.56,2.76-.84-.49-1.3-.96-2.58-1.4-3.77-3.39-9.21-9.53-12.77-16.65-13.25-9.78-.67-17.33,11.1-23.11,16-5.33,4.52-11.96,6.63-18.26,4.2-6.3-2.42-10.99-8.89-13.25-18.26-2.05-8.5-1.37-23.87,4.04-32.81,6.95-11.47,16.97-17.94,30.06-23.27,13.09-5.33,33.4-4.38,42.66-4.52,10.67-.16,16.32-3.39,18.26-10.34,1.4-5.02,4.16-11.2,10.5-16.65,5.66-4.85,23.59-5.82,32.81-3.39,9.21,2.42,16.48,12.61,19.39,19.88,2.91,7.27,0,12.61-2.91,20.36-2.91,7.76-9.53,13.74-17.29,19.39-8.6,6.27-6.87,16.43-9.25,28.26.61-.22,1.22-.43,1.82-.65,1.44-8.17,3.08-21.04,9.61-27.79,9.54-9.85,18.34-12.27,31.27-7.75,7.04,2.46,12.05,6.34,17.31,10.95,1.16-.66,2.31-1.33,3.45-2.01-2.88-4.74-4.26-8.93-9.83-10.19ZM675.56,169.56c5.17,3.56,12.61,9.98,15.84,17.41,3.23,7.43,12.16,11.8,20.24,13.09,8.08,1.29,14.62,4.01,22.42,9.9,8.24,6.22,16.04,6.71,19.27,12.65,4.01,7.37-.53,17.41-5.05,21.29-4.52,3.88-9.4,6.7-15.07,10.58-4.24,2.91-6.43,8.19-6.91,12.69-.61,5.74-3.56,13.57-5.82,15.84-4.04,4.04-9.37,7.11-17.13,6.79-7.76-.32-16.16-5.49-20.69-11.31-4.52-5.82-9.7-9.37-16.81-10.67-7.11-1.29-15.19-2.91-18.75-7.11-3.56-4.2-5.17-10.67-5.82-20.04-.65-9.37-2.59-23.59-8.73-29.74s-15.84-10.67-21.33-17.45c-5.49-6.79-7.76-17.78,0-24.56,7.76-6.79,16.81-5.17,22.62-2.26,5.82,2.91,12.61,10.02,18.42,9.37,5.82-.65,7.76-2.91,10.99-5.49s7.11-4.52,12.28-.97ZM639.28,242.85c-.24,5.58,0,14.54-1.7,20.85-1.7,6.3-4.97,15.39-5.82,24.73-.64,7.01-4.97,17.7-11.39,21.94-5.62,3.71-11.02,7.95-16.6,10.91-5.94,3.15-17.94,6.18-25.21,4.24-7.27-1.94-13.82-7.39-14.91-13.7-1.26-7.25-1.45-12.48-7.51-17.33-6.06-4.85-13.09-13.57-16.97-20.36-3.88-6.79-8.24-14.3-6.3-21.33,1.94-7.03,7.27-12.36,15.03-16,7.76-3.64,15.76-11.39,17.21-20.36,1.45-8.97.48-18.42,5.33-25.21,4.85-6.79,11.39-8.73,19.39-8,8,.73,15.51,6.3,19.15,12.36,3.64,6.06,9.21,9.45,15.51,12.61,6.3,3.15,9.45,9.21,10.91,14.79,1.45,5.58,4.12,14.3,3.88,19.88ZM634.4,87.6c.39-8.18,2.54-12.94,6.3-16.26s13.44-3.37,21.29-.39c5.95,2.26,10.06,7.74,12.94,14.38,2.88,6.64,5.75,12.06,5.97,18.91.22,6.86-.33,12.17-2.54,16.37-2.21,4.2-6.64,8.85-11.06,9.07-4.42.22-11.28-2.43-15.93-4.87s-14.16-8.63-16.48-15.15c-2.22-6.24-.88-14.02-.5-22.06ZM612.5,122.77c2.82-4.81,10.78-9.29,18.75-7.63,7.96,1.66,11.28,8.46,17.25,11.28,5.97,2.82,12.61,6.97,13.6,11.94,1,4.98-1.16,9.12-.83,12.94.33,3.82,4.48,6.97,2.82,11.94s-5.47,6.14-11.78,6.8c-4.95.52-13.94-3.32-18.58-5.14-4.65-1.82-8.79-3.48-10.12-7.13-1.33-3.65-.83-7.3-1-12.11s-3.82-8.96-6.8-11.12c-2.99-2.16-6.14-6.97-3.32-11.78ZM494.08,131.59c.48-8.73,5.33-19.39,14.54-23.76,9.21-4.36,22.79,3.39,32,5.82,9.21,2.42,17.94,0,25.21-5.33,7.27-5.33,17.94-9.21,24.73,0,6.79,9.21,11.64,15.03,19.88,23.76,8.24,8.73,10.67,11.15,9.7,18.42-.97,7.27-8.73,14.06-15.03,19.88-6.3,5.82-13.09,8.24-22.79,9.7-9.7,1.45-16.97,4.85-18.91,15.03-1.94,10.18-.97,17.94-6.3,25.7-5.33,7.76-14.54,16-27.15,16.48-8.73.34-18.42-5.82-22.3-16-3.88-10.18-6.79-22.79-2.42-32.97,4.36-10.18,6.3-16.97.48-26.66-5.82-9.7-12.12-21.33-11.64-30.06ZM397.11,103.95c7.76-.97,17.45,3.88,27.63,10.67,10.18,6.79,16.97,12.12,27.15,11.64,10.18-.48,16.97-4.85,25.7.97,8.73,5.82,11.64,10.67,16.97,21.33,5.33,10.67,8.73,19.39,8.24,28.6-.48,9.21-3.88,22.3-4.85,29.57-.97,7.27.48,11.15,5.82,17.45,5.33,6.3,4.36,13.09,1.94,17.94-2.61,5.22-14.54,4.85-23.27-.97-8.73-5.82-15.03-14.54-19.39-18.91-4.36-4.36-8.24-6.3-14.06-8.24-5.82-1.94-10.67-2.42-12.12-11.64-1.45-9.21.97-19.88-6.3-28.12-7.27-8.24-15.03-14.06-24.73-12.61s-17.94,2.91-27.63,3.39c-9.7.48-12.61-2.42-14.06-8.24-1.45-5.82,4.36-10.18,8.73-15.51,4.36-5.33,7.27-12.61,8.73-19.88,1.45-7.27,7.76-16.48,15.51-17.45ZM484.54,322.44c1.62,6.14,3.43,20.22,2.1,27.15-1.45,7.6-4.39,12.19-9.53,14.54-7.76,3.56-16.24,2.18-24.32-2.34-8.08-4.53-12.2-15.43-18.67-21.9-6.46-6.46-10.99-7.43-19.07-7.11-8.08.32-15.19,1.13-25.53-2.75-10.34-3.88-17.04-8.53-18.42-17.94-1.45-9.86,3.56-17.13,10.02-25.21,6.46-8.08,18.1-13.9,21.33-20.69,3.23-6.79,2.54-17.93,4.52-25.21,2.42-8.89,7.76-13.74,13.57-18.58,5.82-4.85,14.87-7.6,21.65-6.95,6.79.65,10.99,6.14,15.84,10.67,4.85,4.53,13.57,8.73,19.07,13.57,5.49,4.85,15.84,12.28,18.42,18.1,2.59,5.82,4.87,17.18,3.56,24.56-1.62,9.05-7.76,17.13-11.31,21.66s-4.85,12.28-3.23,18.42ZM344.27,200.91c11.15,2.91,21.82,2.91,28.6-1.94,6.79-4.85,7.11-12.44,10.02-19.72,2.91-7.27,7.11-10.99,13.9-13.41,6.79-2.42,21.33-.16,28.12,9.53,6.79,9.7,9.53,16.65,8.4,26.18-1.36,11.44-7.76,15.03-16,20.2-10.54,6.61-14.87,11.64-16.81,21.82-1.94,10.18-1.94,16.48-9.7,26.66-7.76,10.18-14.87,18.58-22.46,21.33-5.55,2.01-14.06-.32-18.42-10.02-4.36-9.7-7.11-21.49-14.38-23.92-7.27-2.42-16.37-1.34-23.2,7.27-7.26,9.15-10.26,10.97-19.4,11.51-7.89.47-16.87-2.47-22.68-10.71-7.14-10.12-6.46-19.72-.16-29.9s16-24.08,32.48-31.51c13.95-6.29,30.54-6.3,41.69-3.39ZM315.93,172.6c4.87-1.77,9.13-3.81,15.15-6.41,8.96-3.87,18.67-5.29,25.44-3.98,6.3,1.22,9.53,2.39,13.27,3.98,4.42,1.88,7.71,3.54,9.71,6.28,1.88,2.58,1.3,6.5-.03,12.47-1.33,5.97-3.48,10.89-9.01,13.77-5.53,2.88-14.16,3.1-20.13,1.77-5.97-1.33-11.94-3.1-18.36-3.98-6.41-.88-13.8-.49-17.47-3.43-4.42-3.54-5.84-6.22-6.19-10.29-.33-3.76,2.76-8.41,7.63-10.18ZM220.32,139.86c-2.81-7.21-2.95-16.3,2.16-24.77,7.96-13.22,42.91-29.64,52.64-40.7,9.73-11.06,19.47-32.74,35.83-36.72,16.37-3.98,43.24,13.74,53.2,28.53,11.28,16.76,15.93,31.69,14.93,49.77-.74,13.43-7.13,24.06-16.37,32.74-5.25,4.93-14.16,7.52-23.89,11.5-9.73,3.98-23.93,9.35-35.72,11-10.62,1.49-18.69-1.71-27.1-6.58s-18.14-8.41-24.33-8.85c-6.19-.44-15.1.55-20.41-1.66-5.31-2.21-8.29-7.47-10.95-14.27ZM221.7,181.67c1.54-5.84,3.14-11.14,9.4-16.15,9.4-7.52,23.45-9.18,41.59.66,13.41,7.28,24.55,12.28,30.41,16.92,5.72,4.54,5.17,12.29-1,16.37-6.53,4.31-15.48,10.06-19.47,14.93-3.98,4.87-9.29,9.95-15.26,10.17-5.54.21-12.17-1.77-17.7-5.75-5.53-3.98-9.62-7.3-14.27-12.06-4.39-4.5-7.41-8.07-11.17-11.17-3.76-3.1-4.09-8.07-2.54-13.94ZM173.94,206.09c13.53-11.31,35.23-7.76,45.25-6.79,10.02.97,17.78,13.57,26.5,19.39,8.73,5.82,16.16,10.99,16.81,18.42.65,7.43.32,16.16,1.29,21.66.97,5.49-1.94,10.02-6.14,12.28-4.2,2.26-8.08,3.88-11.31,8.08-3.23,4.2-8.73,10.02-14.22,10.67-10.99,1.29-19.39-9.05-24.24-16.16-4.85-7.11-12.11-11.01-19.74-16.48-7.09-5.09-13.49-12.24-18.08-19.74-4.98-8.13-5.41-23.56,3.88-31.33ZM127.25,258.65c-2.49-1.66-12.44-8.3-20.41-11.94-7.96-3.65-21.73-9.95-35-12.61-13.27-2.65-14.6-9.95-6.64-17.92,7.96-7.96,23.94-9.8,35.83-15.26,14.43-6.64,40.38-4.61,53.09,6.53,10.73,9.4,11.12,15.26,10.95,22.23-.17,6.97,3.21,10.67,6.86,14.16,4.27,4.08,6.41,6.53,4.59,9.35-1.82,2.82-8.63,2.32-13.11,2.32s-8.79,1.16-12.94,3.65c-4.15,2.49-9.31,6.41-13.44,5.47-3.65-.83-7.3-4.31-9.79-5.97ZM126.34,356.86c-4.81,6.14-11.36,7.63-16.67,7.63s-10.62-1.33-15.59-2.32c-4.98-1-12.61-.66-18.58-3.32-5.47-2.43-8.63-6.3-9.29-13.27-.66-6.97,5.97-13.6,16.92-18.25,10.95-4.65,24.27-3.05,32.18.33,7.96,3.4,14.35,5.06,16.26,10.29,2.06,5.64-1.16,13.73-5.23,18.91ZM255.55,409.87c-4.38,6.14-18.91,4.36-28.6-2.91-9.7-7.27-12.61-16-18.91-22.3-6.3-6.3-11.15-4.85-16.97-7.76-5.82-2.91-5.33-3.39-6.79-13.57-1.45-10.18-3.39-24.73-10.67-30.06-7.27-5.33-19.39-8.73-30.54-6.3-11.15,2.42-19.39,6.79-25.7-2.42-6.3-9.21,5.33-18.91,10.67-25.21,5.33-6.3,5.82-10.18,9.21-21.82,3.39-11.64,14.06-19.88,27.63-20.36,13.57-.48,33.45,9.21,41.21,19.88s17.94,15.51,25.21,21.33c7.27,5.82,12.61,17.94,15.03,28.6,2.42,10.67,1.45,27.63.97,37.33-.48,9.7,0,22.79,6.3,31.03,6.3,8.24,4.36,11.15,1.94,14.54ZM335.42,346.36c-9.58,1.09-15.64,2.91-19.27,8-3.64,5.09-6.54,14.54-8,22.79-1.45,8.24-4.85,15.76-11.15,21.33-6.3,5.58-15.39,12.41-24.24,8.73-14.54-6.06-18.67-15.76-21.33-25.45-2.67-9.7.24-24,2.42-29.09,2.18-5.09,4.85-10.67,3.88-16.48-.97-5.82-5.09-9.45-9.7-16-4.61-6.54-6.79-18.42-5.82-25.94.97-7.51,5.09-15.51,12.12-18.18,7.03-2.67,19.39,0,25.94,3.15,6.54,3.15,11.88,5.82,17.21,3.88,5.33-1.94,8-5.09,12.36-10.67,4.36-5.58,13.57-8.73,20.85-7.51,7.27,1.21,12.26,6.03,15.84,15.84,3.15,8.65,5.49,12.77,10.34,16.4,6.09,4.56,10.67,10.18,9.7,18.42-.97,8.24-7.76,16.97-12.12,21.57-4.36,4.61-10.81,8.27-19.03,9.21ZM469.59,448.65c-2.35,4.24-11.39,7.51-17.45,7.27-6.06-.24-12.12-2.42-18.42-8-6.3-5.58-10.42-10.91-17.7-13.09-7.27-2.18-18.67-2.91-22.79-7.27-4.12-4.36-3.88-11.15-4.61-19.39-.73-8.24-.48-19.15-5.82-25.21-5.33-6.06-11.64-11.15-18.18-16.48-6.54-5.33-10.91-10.67-11.15-17.21-.24-6.54,3.15-10.67,8.24-15.27,5.09-4.61,14.3-3.88,20.36-.48,6.06,3.39,10.67,8.24,16,8.97,5.33.73,8.24-.73,11.88-4.12,3.64-3.39,9.7-4.36,14.54-.97,4.85,3.39,11.39,9.45,14.54,16.48,3.15,7.03,7.03,11.39,16.24,12.61,9.21,1.21,18.18,1.7,24.24,6.3,6.06,4.61,12.12,10.42,13.82,17.7,1.7,7.27.97,16.48-1.21,20.85s-6.79,7.03-11.39,9.7c-4.61,2.67-6.3,4.85-6.79,9.7-.48,4.85-1.94,13.57-4.36,17.94ZM523.65,435.32c-2.67,2.67-7.51,2.3-14.3,4-6.79,1.7-12.12,6.3-14.54,10.54-1.8,3.16-4.85,6.54-7.51,8.48-3.6,2.62-8.97,1.45-11.64-4.12-2.67-5.58-2.18-15.64,2.91-21.45,5.09-5.82,13.33-11.27,15.27-17.57,2.12-6.89,4.73-16.6,11.27-18.67,7.57-2.38,13.02-.04,16.97,4.85,2.55,3.15,1.33,13.33,2.06,18.91.73,5.58,2.18,12.36-.48,15.03ZM616.09,350.88c-1.94,6.79-6.79,9.7-12.93,11.64-6.14,1.94-15.51,0-24.89,0s-25.21-.65-32,3.88c-6.79,4.52-10,12.2-14.22,17.78-4.04,5.33-10.58,8.85-18.34,8.73-6.27-.1-12.68-2.7-17.09-6.79-5.09-4.73-8.52-8.77-10.79-15.88-2.26-7.11,2.59-16.44,6.79-24.52s1.94-17.13.32-26.18c-1.62-9.05,1.62-17.78,5.49-26.5,3.88-8.73,3.56-20.04,2.59-28.12-.97-8.08,2.87-14.91,11.6-14.91s18.46,14.26,22.67,20.73c4.2,6.46,14.22,22.62,17.78,30.7,3.56,8.08,9.37,20.36,16.81,24.24,7.43,3.88,16.05,3.13,23.27,2.91,8.08-.24,12.93,1.62,17.45,4.85,4.52,3.23,7.43,10.67,5.49,17.45ZM683.15,342.48c-4.36-6.3-11.15-16-23.27-14.54-12.12,1.45-27.63,5.82-34.91,6.3-7.27.48-16-2.91-12.61-10.18,3.39-7.27,12.12-10.18,16.48-17.94,4.36-7.76,4.36-15.03,6.79-22.79,2.42-7.76,5.33-13.09,13.09-14.06,7.76-.97,15.51.81,22.79,6.79,9.27,7.62,14.71,14.71,25.86,16.16,7.75,1.01,15.68-.16,20.52-.65,4.85-.48,13.25.48,19.07,8.24,5.82,7.76,11.15,18.18,13.57,26.42,1.83,6.21,4,16.24,0,20.12-3.97,3.85-15.99,1.23-23.27,1.45-8,.24-23.76,4.69-30.22,4.04-7.38-.74-9.53-3.07-13.9-9.37Z"/>
</svg>