<?xml version="1.0" encoding="UTF-8"?>
<svg id="Ripples_1" data-name="Ripples 1" xmlns="http://www.w3.org/2000/svg" xmlns:xlink="http://www.w3.org/1999/xlink" viewBox="0 0 786.38 544.96">
  <defs>
    <style>
      .cls-1 {
        fill: url(#_êVãKÉOÉâÉfÅ_ÉVÉáÉìÉXÉEÉHÉbÉ_7-2);
      }

      .cls-1, .cls-2, .cls-3 {
        opacity: .35;
      }

      .cls-2 {
        fill: url(#_êVãKÉOÉâÉfÅ_ÉVÉáÉìÉXÉEÉHÉbÉ_7-3);
      }

      .cls-3 {
        fill: url(#_êVãKÉOÉâÉfÅ_ÉVÉáÉìÉXÉEÉHÉbÉ_7);
      }

      .cls-4 {
        opacity: .85;
      }
    </style>
    <linearGradient id="_êVãKÉOÉâÉfÅ_ÉVÉáÉìÉXÉEÉHÉbÉ_7" data-name="êVãKÉOÉâÉfÅ[ÉVÉáÉìÉXÉEÉHÉbÉ` 7" x1="361.94" y1="525.25" x2="371.78" y2="525.25" gradientUnits="userSpaceOnUse">
      <stop offset="0" stop-color="#fff"/>
      <stop offset=".52" stop-color="#fff"/>
      <stop offset="1" stop-color="#fff"/>
    </linearGradient>
    <linearGradient id="_êVãKÉOÉâÉfÅ_ÉVÉáÉìÉXÉEÉHÉbÉ_7-2" data-name="êVãKÉOÉâÉfÅ[ÉVÉáÉìÉXÉEÉHÉbÉ` 7" x1="137.23" y1="33.03" x2="202.67" y2="33.03" xlink:href="#_êVãKÉOÉâÉfÅ_ÉVÉáÉìÉXÉEÉHÉbÉ_7"/>
    <linearGradient id="_êVãKÉOÉâÉfÅ_ÉVÉáÉìÉXÉEÉHÉbÉ_7-3" data-name="êVãKÉOÉâÉfÅ[ÉVÉáÉìÉXÉEÉHÉbÉ` 7" x1="0" y1="272.48" x2="786.38" y2="272.48" xlink:href="#_êVãKÉOÉâÉfÅ_ÉVÉáÉìÉXÉEÉHÉbÉ_7"/>
  </defs>
  <g class="cls-4">
    <path class="cls-3" d="M371.78,529.23c-2.54-3.71-5.21-6.46-9.84-7.96,3.14,2.89,6.43,5.55,9.84,7.96Z"/>
    <path class="cls-1" d="M156.07,49.56c16.97-1.94,32.97-6.3,40.24-21.82,2.64-5.64,4.77-10.69,6.36-15.25-1.19.52-2.38,1.04-3.56,1.57-.06.03-.11.05-.17.08-.5,1.29-1.04,2.59-1.66,3.9-3.88,8.24-16,19.88-24.73,23.76-7.54,3.35-19.42,5.25-30.02,6.96-1.77,1.54-3.53,3.14-5.3,4.8,4.53-2.08,10.43-3.04,18.84-4Z"/>
    <path class="cls-2" d="M456.91,538.53c-4.89-2.29-6.6-5.75-5.94-9.9.83-5.14,4.61-10.84,7.43-14.82,2.82-3.98,6.97-6.47,12.77-7.8,5.81-1.33,16.36-1.94,23.16,2.71,4.31,2.95,7.85,9.14,9.26,14.59.83-.63,1.66-1.27,2.48-1.92-1.33-5.16-2.83-9.52-1.73-13.39,2.35-8.23,8.85-11.72,13.71-17.47,4.87-5.75,9.73-13.71,16.37-18.58,6.64-4.87,10.17-10.62,12.83-17.25,2.65-6.64.35-10.45,4.87-13.27,3.54-2.21,7.52-2.65,12.39-.44,4.87,2.21,6.19,4.42,12.83,7.96.93.5,1.83.82,2.72,1.02,4.83-2.98,9.72-5.47,14.56-7.27.57-.55,1.15-1.12,1.74-1.72,7.08-7.08,10.62-11.5,16.81-10.62,3.72.53,6.6,1.79,9.41,3.55,1.37-.44,2.72-.87,4.05-1.3-5.5-.92-10.25-4.23-12.3-7.72-2.82-4.81.33-9.62,3.32-11.78,2.99-2.16,6.64-6.3,6.8-11.12.17-4.81-.33-8.46,1-12.11,1.33-3.65,5.47-5.31,10.12-7.13,4.65-1.82,13.63-5.66,18.58-5.14,6.3.66,10.12,1.82,11.78,6.8,1.66,4.98-2.49,8.13-2.82,11.94s1.82,7.96.83,12.94c-1,4.98-7.63,9.12-13.6,11.94-3.03,1.43-5.37,3.88-7.98,6.16,2.49-.84,4.93-1.68,7.32-2.51,1.32-.83,2.54-1.53,3.54-2.05,4.62-2.42,11.43-5.06,15.86-4.87,1.95-.72,3.88-1.43,5.79-2.14-5.17-7.47-9.84-15.3-8.93-20.97,1.33-8.29,7.96-11.61,12.94-12.28,4.98-.66,9.62-5.31,12.28-12.28,2.65-6.97,5.97-13.6,13.27-16.92,7.3-3.32,14.27-3.32,23.23,0,6.98,2.58,6.95,7.91,8.89,17.28,1.08,5.22,1.66,8.84,1.62,12.25,1.62-1.26,3.22-2.55,4.77-3.86-1.34-2.15-2.77-4.42-3.68-7.25-2.59-8.08-5.4-14.81-4.98-22.56.66-12.11,14.96-17.57,15.93-5.64.49,6.05,1.45,13.94,6.43,22.22,1.03-1.14,2.04-2.3,3.02-3.47-5.21-6.98-8.85-16.92-5.99-23.35,3.88-8.73,7.68-11.88,9.13-18.42,1.45-6.54-5.82-11.15-8.48-15.76-2.67-4.61-13.57-15.03-19.15-20.85-5.58-5.82-7.51-17.94-5.82-23.51,1.7-5.58,8.97-7.03,13.82-4.12,4.85,2.91,6.79,8.48,12.12,13.57,5.33,5.09,12.61,4.85,20.36,8.97,7.76,4.12,6.79,10.67,8.48,15.03,1.7,4.36-1.21,6.55-3.39,11.88-2.18,5.33-2.69,9.25-1.94,15.76.22,1.94.65,3.84,1.26,5.67.91-2.54,1.73-5.14,2.46-7.77-1.29-4.82-1.13-9.96.89-14.14,3.64-7.51,3.88-11.64.97-17.7-2.91-6.06-6.32-12.47-1.7-15.76.7-.5,1.46-.98,2.25-1.45-.14-.8-.28-1.6-.44-2.39-3.94,1.67-8.62,3-14.18,3.36-11.39.73-16.73-6.79-20.12-13.57-3.39-6.79-.97-13.09,0-21.09.84-6.92,5.85-12.21,9.07-16.49-1.74-1.6-3.56-3.1-5.46-4.48-.42,2.05-.93,4.01-1.43,5.7-2.42,8.24-7.76,18.67-13.57,26.42-5.82,7.76-14.22,8.73-19.07,8.24-4.85-.48-12.77-1.66-20.52-.65-11.15,1.45-16.58,8.54-25.86,16.16-7.27,5.98-15.03,7.76-22.79,6.79-7.76-.97-10.67-6.3-13.09-14.06-2.42-7.76-2.42-15.03-6.79-22.79-4.36-7.76-13.09-10.67-16.48-17.94s5.33-10.67,12.61-10.18c7.27.48,22.79,4.85,34.91,6.3,12.12,1.45,18.91-8.24,23.27-14.54,4.36-6.3,6.52-8.64,13.9-9.37,6.46-.65,22.22,3.8,30.22,4.04,2.87.09,6.48-.26,10.04-.49-.42-.83-.82-1.67-1.18-2.52-8.15,1.1-16.79.92-24.93-.82-18.66-4-20.3-13.77-19.52-19.58,1.15-8.51,9.99-12.35,17.1-13.96,7.11-1.62,7.38-7.98,12.67-14.19,4.5-5.29,12.5-11.4,18.53-16.44.07-1.23.13-2.46.17-3.69-2.92,3.45-6.26,6.62-9.98,9.39-13.29,9.88-19.39,19.15-32.32,23.68-12.93,4.52-21.74,2.11-31.27-7.75-7.27-7.51-8.48-22.63-10.1-30.39-1.62-7.76-4.85-15.84-10.99-20.04-6.14-4.2-13.9-11.64-17.45-19.07-3.56-7.43-1.29-15.19,3.88-22.62,5.17-7.43,13.35-11.69,18.42-16.36,5.08-4.67,10.96-11.17,14.01-15.23,3.05-4.06,6.09-12.99,8.12-17.26.08-.18.16-.37.23-.56-1.79-.69-3.59-1.34-5.42-1.93-.05,2.19-.23,4.52-.62,7.05-2.53,16.5-18.29,25.39-32.72,29.33-7.91,2.16-14.06,1.21-20.12-1.7-6.06-2.91-9.94-8.97-10.91-12.12-.97-3.15.97-6.3,4.12-10.91,3.15-4.61,9.7-9.45,13.82-12.85,1.94-1.6,4.37-3.14,6.73-4.81-1.38-.01-2.77-.01-4.16,0-.39.34-.76.66-1.11.92-6.06,4.61-13.33,13.82-20.36,19.39-7.03,5.58-21.09,4.36-28.12.48-4.19-2.31-7.08-7.21-8.99-12.33-1.63.47-3.25.95-4.84,1.45,2.84,5.09,6.57,9.22,10.85,12.01,7.43,4.85,15.84,4.2,24.89,7.76,9.05,3.56,19.28,13.38,21.82,21.01,2.91,8.73,1.13,18.26-6.95,26.34-8.08,8.08-10.02,13.57-13.41,23.92-2.44,7.45-9.21,12.28-20.52,10.99-11.31-1.29-18.42-13.57-25.86-16.81-7.43-3.23-16.48,1.62-22.3,4.52-5.82,2.91-16.81,5.17-23.92.97-7.11-4.2-13.37-16.31-14.01-21.8-.65-5.49,2.75-10.86,4.87-14.82,3.72-6.95,9.79-10.73,11.41-14.6,1.6-3.85,2.57-8.81-.26-14.25-1.66,1-3.33,2.01-5.01,3.05.47,7.27-.48,15.15-6.2,23.32-6.79,9.7-13.09,18.58-18.75,22.46-4.31,2.95-10.67,4.2-17.94,2.26-7.27-1.94-16-1.29-24.56,3.72-8.63,5.05-17.34,14.65-26.83,17.13-10.5,2.75-18.42,0-22.3-5.82-3.88-5.82-6.2-13.91-6.95-19.72-.81-6.3-3.13-13.62-9.05-16.97-7.43-4.2-12.61-11.8-10.5-17.61,2.34-6.48,12.12-8.88,19.88-5.98,12.12,4.52,21.17,5.66,32.48,4.85,4.34-.31,8.01-1.54,10.98-3.43-1.55-1.41-3.06-2.81-4.57-4.19-.52.25-1.03.48-1.56.67-6.14,2.26-11.64,5.82-18.26,5.01-6.63-.81-12.12-3.72-14.71-6.63-2.59-2.91-5.82-8.4-9.05-10.99s-7.76-2.59-9.7,1.62c-1.94,4.2-3.56,9.7-6.14,13.25-2.59,3.56-7.76,8.73-14.22,7.76-6.46-.97-20.69-3.39-30.06,5.33-9.37,8.73-8.87,14.69-13.98,23.82-5.11,9.13-14.3,21.59-18.98,32.86-2.95,7.09-9.86,13.78-16.43,16.06-4.88,1.69-8.94.63-12.78-3.29-3.12-3.18-3.65-9.49-2.56-17.52,1.1-8.03,4.02-14.6-2.19-22.27-6.21-7.67-9.84-20.29-6.77-31.12,2.36-8.33,13.74-19.51,31.23-31.31,21.13-14.26,57.97-13.29,75.94-8.4,8.47,2.31,23.37,3.29,30.3-1.83.96-.71,1.91-1.62,2.84-2.67-1.02-.66-2.06-1.33-3.12-2-1.13.93-2.36,1.8-3.71,2.57-8.4,4.85-37.17-1.94-44.28-5.82s-20.36-1.62-31.35,2.91c-10.99,4.52-25.53,13.57-33.29,14.87-7.76,1.29-21.66,2.59-26.18-8.08-2.59-6.11-3.48-11.9-2.98-17.07-2.45.72-4.88,1.47-7.3,2.25-.02.09-.04.19-.06.28-.97,6.46,0,12.28,6.79,16.48,6.79,4.2,13.25,7.76,15.51,11.31,2.26,3.56,0,8.73-3.88,12.93-3.88,4.2-10.99,12.93-10.34,23.59.65,10.67,5.49,17.78,7.43,24.89,1.94,7.11,4.2,13.25,0,23.27-4.2,10.02-11.64,18.42-20.36,25.21-8.73,6.79-15.03,9.21-20.85,16.48s-19.39,7.27-29.09.48c-9.7-6.79-17.94-21.33-20.36-33.94s-10.67-20.85-18.42-28.12-15.51-19.39-9.7-30.54c.04-.08.08-.15.12-.22-.51.56-1.02,1.11-1.53,1.68-1.76,1.97-3.46,3.98-5.14,6.01.24,6.64-3.87,16.29-15.17,20.55-.89,1.36-1.76,2.73-2.61,4.11,3.73-1.94,7.79-4.6,12.11-5.46,9.52-1.89,16.58,4.35,23.85,13.08,7.27,8.73,11.15,17.45,15.03,27.63,3.88,10.18,5.33,18.42,15.03,25.21,9.7,6.79,12.12,9.21,13.09,18.42.97,9.21.97,20.85-7.76,27.15-8.73,6.3-18.91,16-28.12,11.15-9.21-4.85-10.35-17.34-17.13-25.09-6.79-7.76-16.8-9.81-26.5-8.36-9.7,1.45-22.77,2.55-32,.97-1.6-.28-3.12-.63-4.58-1.04-.7,1.16-1.42,2.29-2.17,3.4,6.27,4.5,6.91,14.33-1.44,18.13-5.65,2.57-11.57.61-18.03-.04-.13.07-.26.14-.39.21-1.43.71-2.89,1.51-4.38,2.37.43-.07.86-.12,1.28-.16,6.86-.66,10.4-.22,15.48,0s11.5,4.87,16.37,9.51c4.87,4.65,14.16,10.4,21.46,10.62,7.3.22,15.93.44,20.57,5.53,4.65,5.09,6.86,11.28,9.73,15.04,2.88,3.76,6.86,6.86,8.63,9.51,1.77,2.65,3.54,7.91,3.93,12.61.36,4.33,1.06,12.29-5.7,18.58-11.39,10.62-41.47,20.29-57.84,21.4-16.37,1.11-37.36-2.81-45.04-6.39-8.54-3.98-10.45-10.12-11.45-14.85-1.24-5.89-2.82-8.46-4.81-10.87-2.6-3.14-6.5-6.33-8.05-9.87-2.58-5.91,0-14.82,2.21-23.67.43-1.74.99-3.58,1.65-5.46-5.63,10.27-8.62,22.21-6.54,35.31,2.48.52,4.86,1.61,7.1,3.44,5.99,4.89,8.39,16.06,6.06,25.67,1.59,1.91,3.26,3.65,4.98,5.27.08-.02.16-.06.24-.08,7.33-1.83,12.66-1.55,20.63.66,7.96,2.21,10.95,2.33,13.77,2.49,5.97.33,7.76,5.18,6.64,9.12-1.33,4.65.83,9.35,3.48,15.1,2.65,5.75,5.8,10.32,4.59,18.64-.47,3.24-2.35,6.43-5.25,9.42-.35,1.45-.81,2.88-1.39,4.29-.73,1.78-1.54,3.45-2.4,5.07,3.08-1.88,5.57-4.77,7.93-9.05,3.65-6.64,4.09-13.01,8.52-15.71,5.09-3.1,11.83-1.77,17.36,0,5.53,1.77,12.17,3.98,23.67,7.08,11.5,3.1,22.12,0,28.31-3.54,6.19-3.54,14.95-6.49,20.46-5.97,7.08.66,15.12,7.75,27.76,9.51,14.27,1.99,24.22,3.65,28.87,18.91,5.01,16.47.66,39.48-16.26,48.11-12.53,6.39-23.89,12.61-43.13,23.89-19.24,11.28-74.74,20.32-96.88,14.93-25.88-6.3-36.5-17.59-42.14-34.18-.23-.68-.4-1.35-.54-2.01-.6,1.38-1.16,2.77-1.69,4.17,1.57,2.46,3.06,5.43,4.55,8.9,2.65,6.19,6.73,10.83,1.99,18.14-2.31,3.56-6.51,7.01-11.82,10.22.09,1.18.2,2.35.34,3.51,7.1-3.78,13.5-10.33,21.43-12.06,6.88-1.5,14.27,2.99,22.23,3.98,7.96,1,21.9,4.31,34.18,2.99s23.89-2.65,25.88,2.65c1.99,5.31-3.65,10.95-8.96,16.59-5.31,5.64-12.28,17.59-13.27,24.88-1,7.3-.66,17.25-8.63,19.91-7.96,2.65-11.28-1-18.25-5.31-6.97-4.31-14.27-3.65-22.23-.66-.37.14-.77.28-1.16.42,1.69,1.18,3.45,2.31,5.27,3.37,10.1-.74,19.41.72,25.42,5.83,1.96,1.67,3.52,3.32,4.8,4.96,4.14.69,8.3,1.11,12.47,1.29.15-12.68,2.76-23.47,5.07-29.26,7.08-17.7,15.93-31.41,35.83-44.02,18.06-11.44,34.95-13.94,43.58-6.19,9.57,8.58,12.39,34.29,6.75,53.88-.44,1.54-.85,3.15-1.21,4.81,1.24-.5,2.48-1.02,3.72-1.53,1.99-7.62,5.47-17.28,5.47-25.74,0-13.6-5.99-23.56-9.64-31.85-3.65-8.29-3.54-16.42,3.98-22.73,7.52-6.3,16.45-8.29,24.55-5.14,8.13,3.15,15.26,14.27,20.9,21.57,5.64,7.3,10.95,8.96,22.89,13.52,8.78,3.35,13.97,7.83,17.29,12.14,1.05-.39,2.11-.78,3.17-1.15-.33-.4-.67-.8-1-1.17-9.73-11.06-44.68-27.48-52.64-40.7-5.11-8.47-4.97-17.56-2.16-24.77,2.65-6.8,5.64-12.06,10.95-14.27,5.31-2.21,14.21-1.22,20.41-1.66,6.19-.44,15.93-3.98,24.33-8.85,8.41-4.87,16.48-8.07,27.1-6.58,11.8,1.66,25.99,7.02,35.72,11,9.73,3.98,18.64,6.57,23.89,11.5,9.23,8.68,15.63,19.3,16.37,32.74,1,18.08-3.65,33.01-14.93,49.77-4.49,6.66-12.41,13.92-21.25,19.52.45.63.91,1.26,1.36,1.88,6.08-2.75,13.64-6.79,17.9-13.44,5.31-8.29,12.88-24.38,16.42-29.36,5.31-7.47,9.24-10.53,19.41-12.77,9.79-2.16,16.42-4.98,23.72-6.97,7.3-1.99,16.76,2.99,17.75,12.28s0,23.56,5.97,31.52c5.97,7.96,12.55,19.91,8.79,29.2-3.84,9.5-10.78,11.94-21.07,10.95-10.29-1-15.53,1.83-19.24,4.42-4.42,3.1-6.55,5.12-8.88,7.94-1.91,2.32-5.72,4.75-9.65,5.6,3.2,1.08,6.43,2,9.68,2.73.98-6,3.59-11.21,11.94-15.72,8.74-4.72,20.8-1.03,25.96,4.59,4.68,5.1,12.22,7.16,17.56,8.84,1.24-.3,2.45-.62,3.65-.95-2.71-1.1-6.61-2.01-9.13-3.18ZM612.28,415.59c-8.24,8.73-13.09,14.54-19.88,23.76-6.79,9.21-17.45,5.33-24.73,0-7.27-5.33-16-7.76-25.21-5.33-9.21,2.42-22.79,10.18-32,5.82-9.21-4.36-14.06-15.03-14.54-23.76s5.82-20.36,11.64-30.06c5.82-9.7,3.88-16.48-.48-26.66-4.36-10.18-1.45-22.79,2.42-32.97,3.88-10.18,13.57-16.33,22.3-16,12.61.48,21.82,8.73,27.15,16.48,5.33,7.76,4.36,15.51,6.3,25.7,1.94,10.18,9.21,13.57,18.91,15.03,9.7,1.45,16.48,3.88,22.79,9.7,6.3,5.82,14.06,12.61,15.03,19.88.97,7.27-1.45,9.7-9.7,18.42ZM643.14,306.99c.65-9.37,2.26-15.84,5.82-20.04s11.64-5.82,18.75-7.11c7.11-1.29,12.28-4.85,16.81-10.67s12.93-10.99,20.69-11.31c7.76-.32,13.09,2.74,17.13,6.79,2.26,2.26,5.21,10.1,5.82,15.84.48,4.5,2.67,9.78,6.91,12.69,5.67,3.89,10.54,6.71,15.07,10.59,4.53,3.88,9.06,13.92,5.05,21.29-3.23,5.94-11.03,6.42-19.27,12.65-7.8,5.89-14.34,8.61-22.42,9.9-8.08,1.29-17.01,5.66-20.24,13.09-3.23,7.43-10.67,13.86-15.84,17.41-5.17,3.56-9.05,1.62-12.28-.97-3.23-2.59-5.17-4.85-10.99-5.49-5.82-.65-12.61,6.46-18.42,9.37-5.82,2.91-14.87,4.52-22.62-2.26-7.76-6.79-5.49-17.78,0-24.56,5.49-6.79,15.19-11.31,21.33-17.45,6.14-6.14,8.08-20.36,8.73-29.74ZM622.21,237.3c6.42,4.24,10.76,14.93,11.39,21.94.85,9.33,4.12,18.42,5.82,24.73,1.7,6.3,1.45,15.27,1.7,20.85.24,5.58-2.42,14.3-3.88,19.88-1.45,5.58-4.61,11.64-10.91,14.79-6.3,3.15-11.88,6.54-15.51,12.61-3.64,6.06-11.15,11.64-19.15,12.36s-14.54-1.21-19.39-8c-4.85-6.79-3.88-16.24-5.33-25.21-1.45-8.97-9.45-16.73-17.21-20.36-7.76-3.64-13.09-8.97-15.03-16-1.94-7.03,2.42-14.54,6.3-21.33,3.88-6.79,10.91-15.51,16.97-20.36,6.06-4.85,6.26-10.08,7.51-17.33,1.09-6.3,7.64-11.76,14.91-13.7,7.27-1.94,19.27,1.09,25.21,4.24,5.58,2.96,10.98,7.19,16.6,10.91ZM612.44,214.23c-4.52,3.23-9.37,5.09-17.45,4.85-7.22-.22-15.84-.97-23.27,2.91-7.43,3.88-13.25,16.16-16.81,24.24-3.56,8.08-13.57,24.24-17.78,30.7-4.2,6.46-14.24,20.73-22.67,20.73s-12.56-6.83-11.6-14.91c.97-8.08,1.29-19.39-2.59-28.12s-7.11-17.45-5.49-26.5c1.62-9.05,3.88-18.1-.32-26.18s-9.05-17.41-6.79-24.52c2.26-7.11,5.7-11.15,10.79-15.88,4.41-4.09,10.81-6.69,17.09-6.79,7.76-.12,14.3,3.39,18.34,8.73,4.22,5.57,7.43,13.25,14.22,17.78,6.79,4.52,22.62,3.88,32,3.88s18.75-1.94,24.89,0c6.14,1.94,10.99,4.85,12.93,11.64,1.94,6.79-.97,14.22-5.49,17.45ZM422.39,325.25c-5.82-4.85-11.15-9.7-13.57-18.58-1.99-7.28-1.29-18.42-4.52-25.21-3.23-6.79-14.87-12.61-21.33-20.69-6.46-8.08-11.47-15.35-10.02-25.21,1.39-9.4,8.08-14.06,18.42-17.94,10.34-3.88,17.45-3.07,25.53-2.75,8.08.32,12.61-.65,19.07-7.11,6.46-6.46,10.59-17.37,18.67-21.9,8.08-4.52,16.56-5.9,24.32-2.34,5.14,2.36,8.08,6.95,9.53,14.54,1.33,6.93-.48,21.01-2.1,27.15-1.62,6.14-.32,13.9,3.23,18.42,3.56,4.52,9.7,12.61,11.31,21.65,1.32,7.38-.97,18.75-3.56,24.56-2.59,5.82-12.93,13.25-18.42,18.1-5.49,4.85-14.22,9.05-19.07,13.57-4.85,4.52-9.05,10.02-15.84,10.67-6.79.65-15.84-2.1-21.65-6.95ZM426.75,372.28c-6.79,9.7-21.33,11.96-28.12,9.53-6.79-2.42-10.99-6.14-13.9-13.41-2.91-7.27-3.23-14.87-10.02-19.72-6.79-4.85-17.45-4.85-28.6-1.94-11.15,2.91-27.74,2.9-41.69-3.39-16.48-7.43-26.18-21.33-32.48-31.51-6.3-10.18-6.98-19.78.16-29.9,5.82-8.24,14.8-11.18,22.68-10.71,9.14.55,12.15,2.37,19.4,11.51,6.83,8.61,15.93,9.7,23.2,7.27,7.27-2.42,10.02-14.22,14.38-23.92s12.88-12.03,18.42-10.02c7.6,2.75,14.71,11.15,22.46,21.33,7.76,10.18,7.76,16.48,9.7,26.66,1.94,10.18,6.27,15.2,16.81,21.82,8.24,5.17,14.64,8.76,16,20.2,1.13,9.53-1.62,16.48-8.4,26.18ZM528.73,121.96c2.26-9.37,6.95-15.84,13.25-18.26,6.3-2.42,12.93-.32,18.26,4.2,5.77,4.9,13.33,16.67,23.11,16,7.11-.48,13.25-4.04,16.65-13.25,3.39-9.21,8.08-22.62,18.26-23.59,7.74-.74,18.85,7.57,26.29,15s10.29,12.28,12.44,22.89c2.41,11.88.64,22.07,9.27,28.36,7.76,5.66,14.38,11.64,17.29,19.39,2.91,7.76,5.82,13.09,2.91,20.36-2.91,7.27-10.18,17.45-19.39,19.88-9.21,2.42-27.15,1.45-32.81-3.39-6.35-5.44-9.1-11.63-10.5-16.65-1.94-6.95-7.6-10.18-18.26-10.34-9.26-.14-29.57.81-42.66-4.52-13.09-5.33-23.11-11.8-30.06-23.27-5.41-8.93-6.09-24.31-4.04-32.81ZM477.5,93.43c2.67-5.58,8.03-6.74,11.64-4.12,2.67,1.94,5.71,5.33,7.51,8.48,2.42,4.24,7.76,8.85,14.54,10.54,6.79,1.7,11.64,1.33,14.3,4,2.67,2.67,1.21,9.45.48,15.03-.73,5.58.48,15.76-2.06,18.91-3.95,4.89-9.39,7.23-16.97,4.85-6.54-2.06-9.15-11.78-11.27-18.67-1.94-6.3-10.18-11.76-15.27-17.57-5.09-5.82-5.58-15.88-2.91-21.45ZM395.08,120.1c4.12-4.36,15.51-5.09,22.79-7.27s11.39-7.51,17.7-13.09c6.3-5.58,12.36-7.76,18.42-8s15.1,3.03,17.45,7.27c2.42,4.36,3.88,13.09,4.36,17.94.48,4.85,2.18,7.03,6.79,9.7,4.61,2.67,9.21,5.33,11.39,9.7s2.91,13.57,1.21,20.85c-1.7,7.27-7.76,13.09-13.82,17.7-6.06,4.61-15.03,5.09-24.24,6.3-9.21,1.21-13.09,5.58-16.24,12.61-3.15,7.03-9.7,13.09-14.54,16.48-4.85,3.39-10.91,2.42-14.54-.97-3.64-3.39-6.54-4.85-11.88-4.12-5.33.73-9.94,5.58-16,8.97-6.06,3.39-15.27,4.12-20.36-.48-5.09-4.61-8.48-8.73-8.24-15.27s4.61-11.88,11.15-17.21c6.54-5.33,12.85-10.42,18.18-16.48,5.33-6.06,5.09-16.97,5.82-25.21.73-8.24.48-15.03,4.61-19.39ZM281.88,122.28c1.94-6.06,6.06-16,10.67-21.33,4.61-5.33,13.57-13.98,17.45-18.58,3.88-4.61,4.57-10.01,5.33-14.06.81-4.28,3.07-8.81,6.14-10.75,7.07-4.46,21.74-1.94,30.95,2.42,9.21,4.36,15.27,13.33,18.67,18.18,3.39,4.85,8.73,16,10.18,23.03,1.45,7.03,2.18,14.3,4.85,20.12,2.67,5.82,3.64,15.03,2.42,21.82-1.21,6.79-4.85,16.73-9.21,22.3-4.36,5.58-13.09,8.97-17.21,13.09s-7.27,10.18-10.18,14.79-6.54,6.3-12.85,6.06c-6.3-.24-14.54-1.09-20.12-10.91-3.55-6.26-2.42-16.24-3.15-23.76-.73-7.51-3.39-14.54-9.94-17.94-6.54-3.39-12.85-6.3-18.18-9.7-5.33-3.39-7.76-8.73-5.82-14.79ZM274.6,140.46c8.85-3.69,17.94,3.15,24.24,8.73,6.3,5.58,9.7,13.09,11.15,21.33,1.45,8.24,4.36,17.7,8,22.79,3.64,5.09,9.7,6.91,19.27,8,8.22.94,14.67,4.61,19.03,9.21,4.36,4.61,11.15,13.33,12.12,21.57.97,8.24-3.61,13.86-9.7,18.42-4.85,3.64-7.19,7.76-10.34,16.4-3.58,9.81-8.56,14.63-15.84,15.84-7.27,1.21-16.48-1.94-20.85-7.51-4.36-5.58-7.03-8.73-12.36-10.67-5.33-1.94-10.67.73-17.21,3.88-6.54,3.15-18.91,5.82-25.94,3.15-7.03-2.67-11.15-10.67-12.12-18.18-.97-7.51,1.21-19.39,5.82-25.94,4.61-6.55,8.73-10.18,9.7-16,.97-5.82-1.7-11.39-3.88-16.48-2.18-5.09-5.09-19.39-2.42-29.09s6.79-19.39,21.33-25.45ZM84.97,220.33c-10.95-4.65-17.59-11.28-16.92-18.25s3.82-10.84,9.29-13.27c5.97-2.65,13.6-2.32,18.58-3.32,4.98-1,10.29-2.32,15.59-2.32s11.86,1.49,16.67,7.63c4.06,5.18,7.29,13.27,5.23,18.91-1.91,5.23-8.29,6.88-16.26,10.29-7.92,3.38-21.23,4.98-32.18.33ZM129.89,248.33c-5.33-6.3-16.97-16-10.67-25.21,6.3-9.21,14.54-4.85,25.7-2.42,11.15,2.42,23.27-.97,30.54-6.3,7.27-5.33,9.21-19.88,10.67-30.06,1.45-10.18.97-10.67,6.79-13.57,5.82-2.91,10.67-1.45,16.97-7.76,6.3-6.3,9.21-15.03,18.91-22.3,9.7-7.27,24.22-9.05,28.6-2.91,2.42,3.39,4.36,6.3-1.94,14.54-6.3,8.24-6.79,21.33-6.3,31.03.48,9.7,1.45,26.66-.97,37.33-2.42,10.67-7.76,22.79-15.03,28.6-7.27,5.82-17.45,10.67-25.21,21.33-7.76,10.67-27.63,20.36-41.21,19.88s-24.24-8.73-27.63-20.36c-3.39-11.64-3.88-15.51-9.21-21.82ZM155.97,340.22c-12.7,11.13-38.65,13.16-53.09,6.53-11.89-5.47-27.87-7.3-35.83-15.26-7.96-7.96-6.64-15.26,6.64-17.92,13.27-2.65,27.04-8.96,35-12.61,7.96-3.65,17.92-10.29,20.41-11.94,2.49-1.66,6.14-5.14,9.79-5.97,4.12-.94,9.29,2.99,13.44,5.47,4.15,2.49,8.46,3.65,12.94,3.65s11.28-.5,13.11,2.32c1.82,2.82-.32,5.27-4.59,9.35-3.65,3.48-7.02,7.19-6.86,14.16s-.22,12.83-10.95,22.23ZM221.03,348.36c-10.02.97-31.71,4.52-45.25-6.79-9.29-7.77-8.86-23.2-3.88-31.33,4.59-7.5,10.99-14.66,18.08-19.74,7.63-5.47,14.89-9.37,19.74-16.48,4.85-7.11,13.25-17.45,24.24-16.16,5.49.65,10.99,6.46,14.22,10.67s7.11,5.82,11.31,8.08c4.2,2.26,7.11,6.79,6.14,12.28-.97,5.49-.65,14.22-1.29,21.66-.65,7.43-8.08,12.61-16.81,18.42-8.73,5.82-16.48,18.42-26.5,19.39ZM304.95,364.56c-5.86,4.65-17.01,9.65-30.41,16.92-18.14,9.84-32.18,8.18-41.59.66-6.26-5.01-7.86-10.31-9.4-16.15-1.55-5.86-1.22-10.84,2.54-13.94,3.76-3.1,6.78-6.67,11.17-11.17,4.65-4.76,8.74-8.07,14.27-12.06,5.53-3.98,12.15-5.96,17.7-5.75,5.97.22,11.28,5.31,15.26,10.17,3.98,4.87,12.94,10.62,19.47,14.93,6.17,4.08,6.72,11.83,1,16.37ZM358.37,385.46c-6.76,1.31-16.48-.11-25.44-3.98-6.03-2.6-10.29-4.65-15.15-6.41-4.87-1.77-7.96-6.41-7.63-10.18.36-4.06,1.77-6.75,6.19-10.29,3.67-2.94,11.06-2.54,17.47-3.43,6.41-.88,12.39-2.65,18.36-3.98,5.97-1.33,14.6-1.11,20.13,1.77,5.53,2.88,7.69,7.8,9.01,13.77,1.33,5.97,1.9,9.89.03,12.47-1.99,2.74-5.28,4.4-9.71,6.28-3.74,1.59-6.97,2.76-13.27,3.98ZM426.59,433.04c-10.18,6.79-19.88,11.64-27.63,10.67-7.76-.97-14.06-10.18-15.51-17.45-1.45-7.27-4.36-14.54-8.73-19.88-4.36-5.33-10.18-9.7-8.73-15.51,1.45-5.82,4.36-8.73,14.06-8.24,9.7.48,17.94,1.94,27.63,3.39,9.7,1.45,17.45-4.36,24.73-12.61,7.27-8.24,4.85-18.91,6.3-28.12,1.45-9.21,6.3-9.7,12.12-11.64,5.82-1.94,9.7-3.88,14.06-8.24,4.36-4.36,10.67-13.09,19.39-18.91,8.73-5.82,20.66-6.19,23.27-.97,2.42,4.85,3.39,11.64-1.94,17.94-5.33,6.3-6.79,10.18-5.82,17.45.97,7.27,4.36,20.36,4.85,29.57.48,9.21-2.91,17.94-8.24,28.6-5.33,10.67-8.24,15.51-16.97,21.33-8.73,5.82-15.51,1.45-25.7.97-10.18-.48-16.97,4.85-27.15,11.64ZM453.04,484.33c-6.19-4.87-9.49-9.19-7.58-16.06,2.07-7.47,2.04-11.08-1.71-18.44-3.82-7.49-5.55-12.22-1.27-17.72,4.33-5.57,7.69-7.05,14.32-6.83,6.64.22,14.82,2.43,22.56-.22,7.74-2.65,11.28-2.88,15.48.66,4.2,3.54,6.08,15.15,14.82,18.03,5.71,1.88,18.4-2.32,23.23-3.21,7.19-1.33,10.18,2.54,11.06,8.63.69,4.72-.22,12.17-9.51,17.92-7.49,4.64-12.25,10.36-16.37,17.7-5.53,9.84-14.93,17.92-25.88,18.36-7.41.3-16.37-1.11-22.56.22-6.19,1.33-10.4,0-9.95-4.42.44-4.42-.44-9.73-6.64-14.6Z"/>
  </g>
</svg>