<svg width="90" height="8" viewBox="0 0 90 8" fill="none" xmlns="http://www.w3.org/2000/svg">
<path d="M0 1.51004C1.70905 1.58099 3.28704 2.27178 4.48632 3.40677C6.15791 5.10389 8.40572 7.22903 11.25 7.16629C13.5283 7.38376 15.9501 6.11578 17.4823 4.69322C19.0785 3.28483 20.5968 2.53044 22.5 2.63504C24.4219 2.66988 25.7609 3.4888 27.2686 4.9735C28.6859 6.47772 31.2941 8.02744 33.75 7.91629C36.1966 8.09716 38.8944 6.5797 40.356 5.11364C41.9211 3.66977 43.1669 2.99173 45 3.01004C45 3.01004 45 3.01004 45 3.01004C46.8331 2.99173 48.0789 3.66977 49.644 5.11364C51.1056 6.5797 53.8034 8.09716 56.25 7.91629C58.7059 8.02744 61.3141 6.47772 62.7314 4.9735C64.2391 3.4888 65.5781 2.66988 67.5 2.63504C69.4032 2.53044 70.9215 3.28483 72.5177 4.69322C74.0499 6.11578 76.4717 7.38376 78.75 7.16629C81.5943 7.22903 83.8421 5.10389 85.5137 3.40677C86.713 2.27178 88.2909 1.58099 90 1.51004C88.3083 1.37327 86.5384 1.90353 85.1565 2.96255C83.144 4.59421 81.1816 6.10828 78.75 5.85379C76.7241 5.80479 75.2013 4.83398 73.7323 3.32686C72.3273 1.80557 69.901 0.321173 67.5 0.38504C65.1177 0.181729 62.5122 1.6016 61.0186 3.04658C59.4346 4.47204 58.0982 5.16111 56.25 5.10379C54.3924 5.09138 53.1457 4.37006 51.606 2.90644C50.1699 1.42063 47.4711 -0.140114 45 0.0100403C45 0.0100403 45 0.0100403 45 0.0100403C42.5289 -0.140114 39.8301 1.42063 38.394 2.90644C36.8543 4.37006 35.6076 5.09138 33.75 5.10379C31.9018 5.16111 30.5654 4.47204 28.9814 3.04658C27.4878 1.6016 24.8823 0.181728 22.5 0.38504C20.099 0.321173 17.6727 1.80557 16.2677 3.32686C14.7987 4.83398 13.2759 5.80479 11.25 5.85379C8.81835 6.10828 6.85601 4.59421 4.84349 2.96255C3.46163 1.90353 1.6917 1.37327 0 1.51004Z" fill="#004282"/>
</svg>
